<?xml version="1.0" encoding="utf-8"?>
<!-- Generator: Adobe Illustrator 25.2.0, SVG Export Plug-In . SVG Version: 6.00 Build 0)  -->
<svg version="1.1" id="Livello_1" xmlns="http://www.w3.org/2000/svg" xmlns:xlink="http://www.w3.org/1999/xlink" x="0px" y="0px"
	 viewBox="0 0 841.9 595.3" style="enable-background:new 0 0 841.9 595.3;" xml:space="preserve">
<style type="text/css">
	.st0{fill:#FFC334;stroke:#FFFFFF;}
	.st1{fill:#FFFFFF;}
	.st2{font-family:'FranklinGothic-Demi';}
	.st3{font-size:209.1702px;}
</style>
<g>
	<path class="st0" d="M198.7,194.7c-0.4,9-0.4,17.1-1.2,25.2c-1.2,12.1-6.8,16.9-16.4,15.3c-10.4-1.7-16.8-10.3-15.1-20.9
		c1.6-11,7.5-18.7,17.5-21.9c3-1,6-1.5,9.8-2.5c-1.6-24.8-6.4-48.3-18.5-69.5c-10-17.4-26.7-18.8-43.7-16.1
		c-29.1,4.6-53.6,30.9-59.3,61.8c-0.5,2.5,0,5.7-4.1,7.1c-1.6-7.8,1.1-14.6,3.6-21.2c9.7-25.3,26.9-42.2,51.3-50.3
		c8.6-2.9,16.8-5.7,26.6-3.6c27.1,5.7,35.2,27.9,41.9,51.8c3.6,12.7,5.6,25.9,6.6,39.6c14.3,1,28.1,2.5,42,2.5c8.3,0,10.5,3.6,11,12
		c3,44.3,5.9,88.9,7.1,133.3c0.8,31.5,0.8,63,1.1,94.4c0,14.9-2.5,17.8-15.8,17.8c-72.6,0.6-145.1,0.6-217.5-4
		c-1.8-0.2-3.6-0.6-5.2-0.7c-1.9-2.1-1.2-4.6-1.2-6.7c-0.5-77.2,3.3-154.2,7.4-231.2c0.4-7.7,3.3-11.1,10-12.1
		c19.2-2.7,37.9-1.7,55,10c2.7,1.9,5.2,2.1,8.2,1.5c12.8-2.2,25.7-3.2,38.5-2.5c2.3,0.2,5.3-1,7.6,3.9c-15.8,0.4-31.2-0.4-46.8,3.5
		c1.1,4.2,2.5,8.1,3,12.1c1.1,9.8-3.4,17.1-11.6,19.6c-7.6,2.2-14.7-0.6-17.9-7.1c-3.3-7.1-0.4-16.6,7.1-22.3
		c2.5-1.9,5.6-3.5,8.9-5.6C75,197.8,60,196.3,44.7,197.4c-13.2,1-13.2,1.5-14.1,15.9c-4.6,74.1-7.4,148.5-7.6,222.7
		c0,1.1,0.1,2.1,0.4,4.2c16.6,0.7,33.1,1.7,49.5,2.5c50.3,2.2,100.8,2.5,151.1,2.2c7.4,0,14.7-0.6,22.1-0.6c6.4,0,8.6-3.2,8.7-10
		c0.1-58.8-0.7-117.5-4.6-176.2c-1.2-18.4-2.7-36.6-3.9-55.1c-0.1-3.1,0.4-6.5-3.9-6.9C228,195.2,213.5,194.7,198.7,194.7z
		 M193.5,195.6c-15,0-24.4,9.5-23.6,22.7c0.4,7.1,5.6,12.7,12.3,13.1c7.4,0.4,10.8-4.4,11.2-11.3C193.9,211.9,193.5,204,193.5,195.6
		z M98,225.7c0-7.1-2.9-12.8-6.4-13.1c-6.8-0.4-16.6,9.8-16.2,16.9c0.4,6.7,4.6,9.5,10.1,9.6C92.4,239.5,98,233.4,98,225.7z"/>
	<path class="st0" d="M193.5,195.6c0,8.5,0.4,16.6-0.1,24.4c-0.4,7.1-3.7,12-11.2,11.3c-6.8-0.4-12-6-12.3-13.1
		C169.2,204.8,178.5,195.6,193.5,195.6z"/>
	<path class="st0" d="M98,225.7c0,7.5-5.6,13.8-12.4,13.5c-5.6-0.2-9.8-2.9-10.1-9.6c-0.4-7.4,9.4-17.3,16.2-16.9
		C95.1,212.9,98,218.8,98,225.7z"/>
</g>
<text transform="matrix(0.6062 0 0 1 265.4717 387.6188)" class="st1 st2 st3">deliverYou</text>
</svg>
