<?xml version="1.0" encoding="utf-8"?>
<!-- Generator: Adobe Illustrator 25.2.0, SVG Export Plug-In . SVG Version: 6.00 Build 0)  -->
<svg version="1.1" id="Livello_1" xmlns="http://www.w3.org/2000/svg" xmlns:xlink="http://www.w3.org/1999/xlink" x="0px" y="0px"
	 viewBox="0 0 841.9 595.3" style="enable-background:new 0 0 841.9 595.3;" xml:space="preserve">
<style type="text/css">
	.st0{fill:#FFC334;stroke:#1C2B24;}
	.st1{font-family:'FranklinGothic-Demi';}
	.st2{font-size:115.7402px;}
</style>
<g>
	<path class="st0" d="M490.8,259.6c-0.2,4.7-0.2,8.9-0.7,13.1c-0.7,6.3-3.8,8.8-9.2,8c-5.8-0.9-9.4-5.4-8.5-10.9
		c0.9-5.7,4.2-9.7,9.8-11.4c1.7-0.5,3.4-0.8,5.5-1.3c-0.9-12.9-3.6-25.2-10.4-36.2c-5.6-9.1-15-9.8-24.5-8.4
		c-16.3,2.4-30.1,16.1-33.3,32.2c-0.3,1.3,0,3-2.3,3.7c-0.9-4.1,0.6-7.6,2-11c5.4-13.2,15.1-22,28.8-26.2c4.8-1.5,9.4-3,14.9-1.9
		c15.2,3,19.7,14.5,23.5,27c2,6.6,3.1,13.5,3.7,20.6c8,0.5,15.8,1.3,23.6,1.3c4.7,0,5.9,1.9,6.2,6.2c1.7,23.1,3.3,46.3,4,69.4
		c0.5,16.4,0.5,32.8,0.6,49.2c0,7.8-1.4,9.3-8.9,9.3c-40.7,0.3-81.4,0.3-122-2.1c-1-0.1-2-0.3-2.9-0.4c-1.1-1.1-0.7-2.4-0.7-3.5
		c-0.3-40.2,1.8-80.3,4.1-120.4c0.2-4,1.8-5.8,5.6-6.3c10.8-1.4,21.3-0.9,30.8,5.2c1.5,1,2.9,1.1,4.6,0.8c7.2-1.2,14.4-1.7,21.6-1.3
		c1.3,0.1,3-0.5,4.3,2c-8.9,0.2-17.5-0.2-26.2,1.8c0.6,2.2,1.4,4.2,1.7,6.3c0.6,5.1-1.9,8.9-6.5,10.2c-4.3,1.2-8.3-0.3-10-3.7
		c-1.8-3.7-0.2-8.6,4-11.6c1.4-1,3.1-1.8,5-2.9c-7.8-5.1-16.2-5.9-24.8-5.3c-7.4,0.5-7.4,0.8-7.9,8.3c-2.6,38.6-4.1,77.3-4.3,116
		c0,0.6,0.1,1.1,0.2,2.2c9.3,0.4,18.6,0.9,27.8,1.3c28.2,1.2,56.5,1.3,84.8,1.2c4.1,0,8.3-0.3,12.4-0.3c3.6,0,4.8-1.7,4.9-5.2
		c0.1-30.6-0.4-61.2-2.6-91.7c-0.7-9.6-1.5-19.1-2.2-28.7c-0.1-1.6,0.2-3.4-2.2-3.6C507.2,259.9,499.1,259.6,490.8,259.6z
		 M487.9,260.1c-8.4,0-13.7,4.9-13.2,11.8c0.2,3.7,3.1,6.6,6.9,6.8c4.1,0.2,6-2.3,6.3-5.9C488.1,268.6,487.9,264.5,487.9,260.1z
		 M434.3,275.8c0-3.7-1.6-6.7-3.6-6.8c-3.8-0.2-9.3,5.1-9.1,8.8c0.2,3.5,2.6,4.9,5.7,5C431.2,283,434.3,279.8,434.3,275.8z"/>
	<path class="st0" d="M487.9,260.1c0,4.4,0.2,8.6-0.1,12.7c-0.2,3.7-2.1,6.2-6.3,5.9c-3.8-0.2-6.7-3.1-6.9-6.8
		C474.3,264.9,479.5,260.1,487.9,260.1z"/>
	<path class="st0" d="M434.3,275.8c0,3.9-3.1,7.2-7,7c-3.1-0.1-5.5-1.5-5.7-5c-0.2-3.8,5.3-9,9.1-8.8
		C432.7,269.1,434.3,272.2,434.3,275.8z"/>
</g>
<text transform="matrix(0.658 0 0 1 29.1714 355.3706)" class="st1 st2">deliverYou</text>
</svg>
