<?xml version="1.0" encoding="utf-8"?>
<!-- Generator: Adobe Illustrator 25.2.0, SVG Export Plug-In . SVG Version: 6.00 Build 0)  -->
<svg version="1.1" id="Livello_1" xmlns="http://www.w3.org/2000/svg" xmlns:xlink="http://www.w3.org/1999/xlink" x="0px" y="0px"
	 viewBox="0 0 841.9 595.3" style="enable-background:new 0 0 841.9 595.3;" xml:space="preserve">
<style type="text/css">
	.st0{fill:#FFC334;stroke:#1C2B24;}
</style>
<g>
	<path class="st0" d="M502.3,189.7c-0.5,11.3-0.5,21.3-1.9,31.4c-1.9,15.1-10.1,21.1-24.5,19.2c-15.4-2.2-25-12.9-22.6-26.1
		c2.4-13.7,11.2-23.2,26.1-27.3c4.5-1.2,9-1.9,14.6-3.1c-2.4-30.9-9.6-60.4-27.7-86.8c-14.9-21.8-39.9-23.5-65.2-20.1
		c-43.4,5.8-80.1,38.6-88.6,77.2c-0.8,3.1,0,7.2-6.1,8.9c-2.4-9.8,1.6-18.2,5.3-26.4c14.4-31.6,40.2-52.7,76.6-62.8
		c12.8-3.6,25-7.2,39.6-4.6c40.4,7.2,52.4,34.8,62.5,64.7c5.3,15.8,8.2,32.4,9.8,49.4c21.3,1.2,42,3.1,62.8,3.1
		c12.5,0,15.7,4.6,16.5,14.9c4.5,55.4,8.8,111,10.6,166.3c1.3,39.3,1.3,78.6,1.6,117.9c0,18.7-3.7,22.3-23.7,22.3
		c-108.3,0.7-216.6,0.7-324.6-5c-2.7-0.2-5.3-0.7-7.7-1c-2.9-2.6-1.9-5.8-1.9-8.4c-0.8-96.3,4.8-192.4,10.9-288.5
		c0.5-9.6,4.8-13.9,14.9-15.1c28.7-3.4,56.7-2.2,81.9,12.5c4,2.4,7.7,2.6,12.2,1.9c19.2-2.9,38.3-4.1,57.5-3.1
		c3.5,0.2,8-1.2,11.4,4.8c-23.7,0.5-46.6-0.5-69.7,4.3c1.6,5.3,3.7,10.1,4.5,15.1c1.6,12.2-5.1,21.3-17.3,24.4
		c-11.4,2.9-22.1-0.7-26.6-8.9c-4.8-8.9-0.5-20.6,10.6-27.8c3.7-2.4,8.2-4.3,13.3-6.9c-20.8-12.2-43.1-14.1-66-12.7
		c-19.7,1.2-19.7,1.9-21,19.9c-6.9,92.5-10.9,185.3-11.4,278c0,1.4,0.3,2.6,0.5,5.3c24.7,1,49.5,2.2,74,3.1
		c75,2.9,150.3,3.1,225.6,2.9c10.9,0,22.1-0.7,33-0.7c9.6,0,12.8-4.1,13-12.5c0.3-73.3-1.1-146.7-6.9-219.8c-1.9-23-4-45.8-5.9-68.8
		c-0.3-3.8,0.5-8.1-5.9-8.6C546,190.4,524.4,189.7,502.3,189.7z M494.6,190.9c-22.3,0-36.4,11.7-35.1,28.3
		c0.5,8.9,8.2,15.8,18.4,16.3c10.9,0.5,16-5.5,16.8-14.1C495.2,211.3,494.6,201.5,494.6,190.9z M352,228.6c0-8.9-4.3-16.1-9.6-16.3
		c-10.1-0.5-24.7,12.2-24.2,21.1c0.5,8.4,6.9,11.7,15.2,12C343.8,245.8,352,238.1,352,228.6z"/>
	<path class="st0" d="M494.6,190.9c0,10.5,0.5,20.6-0.3,30.4c-0.5,8.9-5.6,14.9-16.8,14.1c-10.1-0.5-17.8-7.4-18.4-16.3
		C458.4,202.4,472.3,190.9,494.6,190.9z"/>
	<path class="st0" d="M352,228.6c0,9.3-8.2,17.3-18.6,16.8c-8.2-0.2-14.6-3.6-15.2-12c-0.5-9.1,14.1-21.6,24.2-21.1
		C347.8,212.5,352,219.9,352,228.6z"/>
</g>
</svg>
