<?xml version="1.0" encoding="utf-8"?>
<!-- Generator: Adobe Illustrator 25.2.0, SVG Export Plug-In . SVG Version: 6.00 Build 0)  -->
<svg version="1.1" id="Livello_1" xmlns="http://www.w3.org/2000/svg" xmlns:xlink="http://www.w3.org/1999/xlink" x="0px" y="0px"
	 viewBox="0 0 841.9 595.3" style="enable-background:new 0 0 841.9 595.3;" xml:space="preserve">
<style type="text/css">
	.st0{fill:#4ABC00;stroke:#1D1D1B;stroke-miterlimit:10;}
	.st1{fill:#2C6E02;stroke:#1D1D1B;stroke-miterlimit:10;}
	.st2{fill:#FFFFFF;stroke:#1D1D1B;stroke-miterlimit:10;}
</style>
<g>
	<path class="st0" d="M369.3,434.7c-1.7,0.4-3.5,0.3-5.2,0.2c-8.4-0.4-16.5-2-24.8-3.9c1.2-1,2.4-1.7,2.9-3c0.5-1.2,1-2.5,1.5-3.7
		c5.1-13.1,10.8-26,17.1-38.7c0.6-1.2,1.5-1.8,2.9-2c15.1-2.7,30.1-5.5,45.2-8.3c2.8-0.5,5.5-1,8.3-1.6c3.5-0.7,5.6-3.3,5.4-6.4
		c-0.2-2.9-2.7-5.3-6-5.8c-1.5-0.2-2.8,0.4-4.2,0.3c-0.3-0.5-0.7-0.9-0.9-1.4c-1.2-2.2-5-3.6-7.7-3c-8.1,1.6-16.3,3.1-24.5,4.5
		c-2,0.4-3.9,0.9-5.9,0.9c1.9-3.7,4.2-7.2,6.4-10.7c6.1-9.8,12.8-19.3,20-28.5c0.7-0.9,1.4-1.4,2.6-1.7c15.4-2.8,30.8-5.7,46.1-8.5
		c3-0.6,6.1-1,9.1-1.8c3.5-0.8,5.5-3.8,4.9-7.1c-0.5-3-3.7-5.2-7.2-5.1c-1.1,0-2.1,0.4-3.2,0.5c-1.1-3.8-5.4-5.1-8.2-4.6
		c-4.6,0.8-9.2,1.8-13.7,2.6c-3.1,0.6-6.1,1.3-9.2,1.6c0.2-0.5,0.6-0.8,1-1.1c7.3-7.4,15-14.4,23.4-20.9c0.6-0.4,1.1-0.8,1.6-1.3
		c1.9-2,2.3-4.3,1.1-6.7c-1.2-2.3-3.3-3.5-6.2-3.6c-1.2,0-2.2,0.3-3.4,0.5c-0.3-0.2-0.4-0.4-0.5-0.7c-2.3-4.6-8.1-4.9-11.2-2.6
		c-1.9,1.4-3.8,2.9-5.5,4.4c-5.3,4.5-10.5,9-15.4,13.8c-5,4.8-9.7,9.8-14.3,14.9c-5.1,5.6-9.9,11.5-14.6,17.4
		c-1.8,2.2-3.2,4.6-5.3,6.7c-0.6-1.3-0.8-2.6-1.1-4c-1.1-4.6-2.2-9.2-3.4-13.8c-0.8-3.2-3.2-5.1-6.6-5.4c-1.3-0.1-2.5,0.3-3.7,0.6
		c-0.9-1.8-1.9-3.5-4.2-4.3c-2.5-0.8-4.8-0.7-6.9,0.6c-2.3,1.5-3.6,3.6-2.9,6.2c1.9,7.8,3.8,15.6,5.7,23.4
		c1.8,7.2,3.6,14.5,5.4,21.7c0.2,0.9,0,1.7-0.5,2.6c-2.3,3.7-4.6,7.4-6.6,11.2c-2.8,5.2-5.7,10.4-8.3,15.6
		c-2.4,4.8-4.8,9.7-7.1,14.6c-1,2.2-1.8,4.5-3.1,6.6c-0.1-0.3-0.3-0.5-0.4-0.8c-5-11.5-8.6-23.4-10.3-35.7
		c-1.3-9.8-1.4-19.6,0.2-29.3c2.3-14.3,7.8-27.6,16.3-40c9.3-13.5,21.1-25,34.8-35.2c16.1-12,33.9-21.6,52.8-29.7
		c23.5-10.1,48-17.7,73.3-23.2c7.4-1.6,14.8-3,22.3-4c-2.6,3.5-5,7.1-7.4,10.8c-4.2,6.7-7.9,13.6-10.8,20.9
		c-3.4,8.6-6,17.3-7.3,26.4c-0.7,4.5-1.2,9.1-1.4,13.6c-0.4,8.1-0.1,16.3,0.3,24.4c0,0.1,0,0.1,0,0.2c0.5,3.7,0.7,7.4,0.8,11.2
		c0,0.2,0,0.5,0,0.7c0.7,3.5,0.5,7,0.7,10.5c0.4,7.2,0.1,14.3-1.1,21.5c-0.7,4.8-1.8,9.5-3.5,14c-2.7,7.6-6.4,14.8-11.1,21.7
		c-4.6,6.8-9.9,13.1-16,19c-3.7,3.5-7.6,6.8-11.9,9.9c-7.2,5.2-14.9,9.7-23.3,13.2c-5.2,2.2-10.5,4-16,5.4
		c-9.5,2.4-19.1,3.6-28.9,3.7c-1.7,0-3.4,0-5,0c-3.3,0-6.5,2.7-6.5,5.7C368.8,432.3,369,433.5,369.3,434.7z"/>
	<path class="st1" d="M371.6,320.4c2-2.1,3.5-4.5,5.3-6.7c4.7-5.9,9.5-11.8,14.6-17.4c4.6-5.1,9.4-10,14.3-14.9
		c4.9-4.8,10.2-9.3,15.4-13.8c1.8-1.5,3.7-3,5.5-4.4c3.1-2.3,8.9-2.1,11.2,2.6c0.1,0.3,0.2,0.6,0.5,0.7c0,0.2-0.1,0.4-0.1,0.5
		c0.3,2.7-1,4.7-3.3,6.5c-11.1,8.6-21.1,18.1-30.4,28.2c-0.3,0.3-0.8,0.5-0.5,1.1c2.9-0.5,5.9-1,8.8-1.6c2.7-0.5,5.4-0.8,8-1.6
		c3.1-0.3,6.2-1.1,9.2-1.6c4.6-0.8,9.2-1.8,13.7-2.6c2.8-0.5,7.1,0.8,8.2,4.6c0.8,4.1-1.3,7-6,7.8c-17.7,3.3-35.5,6.6-53.2,9.9
		c-1.7,0.3-2.8,1-3.8,2.2c-11,14.1-20.7,28.9-29.3,44.2c-0.2,0.4-0.6,0.8-0.6,1.4c2.1-0.4,4.1-0.7,6.1-1.1c2.7-0.6,5.4-0.8,8-1.7
		c2,0,3.9-0.6,5.9-0.9c8.2-1.5,16.4-2.9,24.5-4.5c2.7-0.5,6.5,0.8,7.7,3c0.3,0.5,0.6,0.9,0.9,1.4c-0.2,0.4-0.1,0.8,0,1.2
		c0.2,3.2-1.9,5.9-5.4,6.6c-5,1-10,1.9-15,2.8c-13,2.4-26,4.8-39.1,7.2c-1.2,0.2-1.8,0.8-2.2,1.7c-6.8,13.5-12.8,27.3-18.2,41.4
		c-1.2,3.2-3.8,4.9-7.4,4.7c-2.7-0.1-4.6-1.4-5.9-3.5c-2.1-3.4-4.2-6.9-6.2-10.4c-7.6-13.7-13.7-27.9-17.4-42.8
		c-3.2-12.8-4.5-25.7-3.4-38.8c1.7-18.9,8.3-36.4,19.5-52.5c9.9-14.4,22.6-26.8,37.1-37.7c15.8-11.8,33.1-21.6,51.6-29.8
		c29-12.9,59.5-22.2,91.3-28.1c10.1-1.9,20.2-3.3,30.5-4.1c4.2-0.3,8.3-0.6,12.5-0.4c0.7,0,1.5,0.1,2.2,0.2c2.8,0.2,4.8,1.5,5.9,3.7
		c1.1,2.3,0.7,4.6-1.1,6.5c-3.1,3.4-6.1,6.8-8.9,10.4c-9,11.3-16.6,23.4-21.6,36.6c-3.4,8.8-5.4,17.9-6.4,27.2
		c-1,10-0.7,20.1-0.1,30.1c0.7,10.6,1.5,21.2,1.4,31.9c-0.3,19.8-6.3,38.1-17.9,55c-13.1,19.1-30.5,34.3-53,44.8
		c-13.1,6.1-27,9.9-41.8,11.4c-5.8,0.6-11.7,0.7-17.5,0.7c-2.4,0-4.3-0.8-5.8-2.4c-0.3-0.3-0.6-0.5-0.9-0.7
		c-0.3-1.2-0.5-2.4-0.5-3.7c0-3.1,3.2-5.7,6.5-5.7c1.7,0,3.4,0,5,0c9.8-0.1,19.5-1.3,28.9-3.7c5.5-1.4,10.8-3.3,16-5.4
		c8.4-3.5,16.1-8,23.3-13.2c4.2-3.1,8.2-6.4,11.9-9.9c6.1-5.8,11.4-12.1,16-19c4.6-6.9,8.4-14.1,11.1-21.7c1.6-4.6,2.7-9.3,3.5-14
		c1.1-7.1,1.4-14.3,1.1-21.5c-0.2-3.5,0-7-0.7-10.5c0-0.2,0-0.5,0-0.7c-0.1-3.7-0.3-7.5-0.8-11.2c0-0.1,0-0.1,0-0.2
		c-0.5-8.1-0.7-16.3-0.3-24.4c0.2-4.5,0.7-9.1,1.4-13.6c1.4-9,3.9-17.8,7.3-26.4c2.9-7.2,6.6-14.2,10.8-20.9
		c2.3-3.7,4.8-7.3,7.4-10.8c1.4-1.8,2.9-3.7,4.3-5.6c-0.9-0.3-1.5-0.1-2.2,0c-7.7,0.8-15.3,1.9-22.9,3.2
		c-22.2,4.1-43.9,9.9-64.9,17.5c-21.3,7.7-41.6,17-60.3,29c-15.2,9.7-28.9,20.8-40.1,34.2c-20.5,24.5-28.3,51.8-23.5,82
		c1.7,10.5,4.8,20.7,9,30.7c2.3,5.4,4.8,10.7,7.8,16.3c1.3-3.3,2.8-6.2,3.8-9.3c1.3-2.1,2.1-4.4,3.1-6.6c2.3-4.9,4.7-9.7,7.1-14.6
		c2.6-5.3,5.5-10.4,8.3-15.6c2-3.8,4.4-7.5,6.6-11.2c0.5-0.8,0.7-1.6,0.5-2.6c-1.8-7.2-3.6-14.4-5.4-21.7
		c-1.9-7.8-3.9-15.6-5.7-23.4c-0.6-2.6,0.6-4.7,2.9-6.2c2.1-1.3,4.4-1.4,6.9-0.6c2.3,0.8,3.3,2.5,4.2,4.3c0,0.4,0,0.7,0.1,1.1
		c2.3,9.3,4.5,18.6,6.8,27.8c0.3,1.1,0.3,2.2,1.1,3.4c1.8-2.5,3.5-4.9,5.1-7.2C370.5,322.1,371.3,321.4,371.6,320.4z"/>
	<path class="st2" d="M328.1,396c-1,3.1-2.5,6-3.8,9.3c-3-5.6-5.6-10.9-7.8-16.3c-4.2-10-7.3-20.1-9-30.7
		c-4.9-30.1,2.9-57.5,23.5-82c11.2-13.4,24.9-24.5,40.1-34.2c18.7-11.9,39-21.3,60.3-29c21-7.6,42.7-13.4,64.9-17.5
		c7.6-1.4,15.2-2.5,22.9-3.2c0.7-0.1,1.3-0.2,2.2,0c-1.5,1.9-2.9,3.8-4.3,5.6c-7.5,1-14.9,2.4-22.3,4c-25.3,5.5-49.8,13-73.3,23.2
		c-18.9,8.1-36.7,17.8-52.8,29.7c-13.6,10.1-25.5,21.7-34.8,35.2c-8.5,12.4-14,25.7-16.3,40c-1.6,9.8-1.5,19.5-0.2,29.3
		c1.7,12.3,5.3,24.1,10.3,35.7C327.8,395.5,328,395.8,328.1,396z"/>
	<path class="st2" d="M373.4,362.8c-2.6,0.9-5.3,1.1-8,1.7c-2,0.4-4,0.7-6.1,1.1c0-0.6,0.3-1,0.6-1.4c8.7-15.3,18.4-30.1,29.3-44.2
		c1-1.3,2.1-1.9,3.8-2.2c17.8-3.2,35.5-6.6,53.2-9.9c4.6-0.9,6.8-3.7,6-7.8c1.1-0.1,2.1-0.5,3.2-0.5c3.6-0.1,6.7,2.1,7.2,5.1
		c0.6,3.2-1.4,6.2-4.9,7.1c-3,0.7-6,1.2-9.1,1.8c-15.4,2.9-30.8,5.7-46.1,8.5c-1.3,0.2-2,0.8-2.6,1.7c-7.2,9.2-13.8,18.7-20,28.5
		C377.6,355.7,375.3,359.2,373.4,362.8z"/>
	<path class="st2" d="M421,299.6c-2.6,0.8-5.3,1.1-8,1.6c-2.9,0.6-5.9,1.1-8.8,1.6c-0.2-0.6,0.3-0.8,0.5-1.1
		c9.3-10.1,19.3-19.6,30.4-28.2c2.3-1.8,3.6-3.8,3.3-6.5c0-0.2,0.1-0.3,0.1-0.5c1.1-0.2,2.2-0.6,3.4-0.5c2.9,0.1,5,1.3,6.2,3.6
		c1.3,2.4,0.8,4.6-1.1,6.7c-0.5,0.5-1.1,0.9-1.6,1.3c-8.3,6.5-16.1,13.5-23.4,20.9C421.6,298.8,421.1,299.1,421,299.6z"/>
	<path class="st2" d="M371.6,320.4c-0.3,1-1.1,1.8-1.7,2.6c-1.7,2.4-3.3,4.7-5.1,7.2c-0.7-1.2-0.8-2.3-1.1-3.4
		c-2.3-9.3-4.5-18.5-6.8-27.8c-0.1-0.3-0.1-0.7-0.1-1.1c1.2-0.3,2.4-0.7,3.7-0.6c3.4,0.2,5.8,2.2,6.6,5.4c1.1,4.6,2.2,9.2,3.4,13.8
		C370.8,317.7,370.9,319.1,371.6,320.4z"/>
</g>
</svg>
