<?xml version="1.0" encoding="utf-8"?>
<!-- Generator: Adobe Illustrator 25.2.0, SVG Export Plug-In . SVG Version: 6.00 Build 0)  -->
<svg version="1.1" id="Livello_1" xmlns="http://www.w3.org/2000/svg" xmlns:xlink="http://www.w3.org/1999/xlink" x="0px" y="0px"
	 viewBox="0 0 841.9 595.3" style="enable-background:new 0 0 841.9 595.3;" xml:space="preserve">
<style type="text/css">
	.st0{fill:#FEFEFE;}
	.st1{fill:#DF8124;stroke:#1D1D1B;}
	.st2{fill:#94273A;stroke:#1D1D1B;}
	.st3{fill:#F7AA48;stroke:#1D1D1B;}
	.st4{fill:#3AB554;stroke:#1D1D1B;}
	.st5{fill:#FCC31C;stroke:#1D1D1B;}
	.st6{fill:#BD4E54;stroke:#1D1D1B;}
	.st7{fill:#DC8E08;stroke:#1D1D1B;}
	.st8{fill:#198C46;stroke:#1D1D1B;}
	.st9{fill:#C14376;stroke:#1D1D1B;}
	.st10{fill:#E8C0B1;stroke:#1D1D1B;}
	.st11{fill:#CD1D33;stroke:#1D1D1B;}
	.st12{fill:#F4463A;stroke:#1D1D1B;}
	.st13{fill:#B17278;stroke:#1D1D1B;}
	.st14{fill:#E38270;stroke:#1D1D1B;}
	.st15{fill:#F5EFDA;stroke:#1D1D1B;}
</style>
<g>
	<path class="st0" d="M841.7,592.1c0,1,0.8,2.4-0.7,3.2"/>
	<path class="st0" d="M841,0c0.2,0.2,0.7-0.4,0.7,0.4c0,0.9,0,1.9,0,2.8"/>
	<path class="st1" d="M591.9,499.3c3.3,2,3.1,5.9,3.8,8.7c2.5,9.7,3.8,19.7,2.8,29.9c-0.5,5.3-3.1,8.9-7.3,11.8
		c-8.8,6.2-18.8,10-28.8,13.5c-20.9,7.3-42.5,12-64.4,15.3c-19.5,2.9-39.2,4.8-58.9,5.5c-34.5,1.4-68.8-0.7-102.7-7.3
		c-19.8-3.8-39.1-9.4-57.7-17.1c-4.6-1.9-9.1-4.1-13.6-6c-2.5-1.1-3.7-2.6-3.7-5.3c-0.3-11.4-0.7-22.7,1.2-34
		c11.6,1,22.7,4.6,34.1,6.7c26.3,4.7,52.7,7.7,79.3,8.7c18.4,0.7,36.9,0.8,55.3-0.3c14.1-0.8,28.2-1.9,42.3-3.6
		c19.9-2.3,39.7-5.7,59.2-10.1c13.2-3,26.3-6.6,39.3-10.1C578.8,503.7,585.3,501.4,591.9,499.3z"/>
	<path class="st2" d="M575.3,336.3c2.6,2.1,2.8,5.1,3.2,8.1c-1,6.7-0.4,13.5-1,20.3c-0.1,0.6-0.2,1.2-0.3,1.8
		c-0.8,0.7-0.8,1.5-0.5,2.5c-0.1,0.4-0.2,0.7-0.3,1.1c-0.6,0.5-0.7,1.1-0.4,1.8c-0.1,0.4-0.2,0.7-0.3,1.1c-1.2,2.9-2.4,5.8-3.6,8.7
		c-2.1,3.3-5.7,4.6-8.9,6.2c-16.2,8-33.1,13.8-50.7,17.6c-23.8,5.2-48,7.7-72.4,8.3c-37.3,1-74.4-1.7-111.3-7.2
		c-13.9-2.1-27.7-4.6-41.4-8.1c-6.2-1.6-10.2-5.9-12.9-11.1c-4.8-9.2-4.8-19.1-4.1-29.1c0.4-5.1,1.2-10.1,2.5-15
		c10.3,1.8,20.6,3.5,30.8,5.3c6.8,1.1,13.6,2.2,20.4,3.2c6.1,1.9,12.4,2.7,18.6,3.4c8.8,1,17.6,1.4,26.4,2.3
		c14.2,1.4,28.5,1.6,42.8,1.7c12.8,0.1,25.7-0.6,38.6-1.3c10.8-0.6,21.6-1.6,32.4-2.9c13.8-1.6,27.6-3.6,41.2-6.2
		c14.8-2.8,29.6-5.9,44.1-10.1C570.9,338.7,573,337.1,575.3,336.3z"/>
	<path class="st1" d="M267.9,147.5c0.7-1.9,1.5-3.7,2.2-5.6c3.6,0.3,7.3,0.4,10.9,0.7c12.3,1,24.7,2,37,2.1
		c20.2,0.3,40.3,0.4,60.5-1.1c15.3-1.2,30.4-2.9,45.5-5.8c14.9-2.9,29.2-7.3,43.1-13.3c3.1-1.4,5.6-3,4-7c5.4,3,11.2,3.5,17.1,2.7
		c1.8-0.2,4.2-0.6,4.4-2.8c0.2-2.3-1.9-2.9-3.7-3.5c-0.5-0.2-1-0.5-1.6-0.8c0.1-1.6,1.4-2.4,2.3-3.4c2.9-3.3,6.4-6.2,8.7-10.1
		c7.1-12.2,7.5-24.7-1.2-36c-1.2-1.6-3.5-2.1-4.1-4.2c3.3,0.5,6.3,1.9,9.4,3c1.1,0.4,1.9,1,2.4,2.3c2.4,5.9,8.8,7.2,13.6,3
		c1.6,3.5,5.1,4.3,8.1,5.8c2.8,1.5,5.6,3.1,8.1,4.9c9.6,6.8,18.2,14.3,25.4,23.9c5.3,7.1,8.3,14.9,11.2,23c-0.1,3.5,1,6.3,4.2,8.3
		c3.3,2,6.3,4.5,9,7.2c0.7,1.2,1.6,2.4,2.1,3.6c0.8,1.8,0.7,3.6-1.2,4.6c-3.5,1.8-7,4-11,4.5c-1-1.3-2.1-0.5-3.2-0.1
		c-2.9,1-5.8,2.1-8.7,3.1c-22.4,7.3-45,13.2-68.2,17.3c-19.5,3.5-39.2,5.8-59,6.6c-20.4,0.8-40.9,0.6-61.3-1.1
		c-21.9-1.9-43.5-5.1-65-9.7c-14.7-3.2-29.1-7.1-43.4-11.7C266.4,154.3,267.2,150.9,267.9,147.5z M530.1,94.9c2.4,0,4.4,0,5.4-2
		c1.1-2.2-0.5-3.9-1.9-5.2c-3.3-3.2-7.4-4.5-11.9-4.3c-3.8,0.2-5,2.7-2.7,5.8C521.8,93.1,526,94.6,530.1,94.9z"/>
	<path class="st3" d="M471.2,117.6c1.6,4-0.9,5.6-4,7c-13.9,6-28.3,10.4-43.1,13.3c-15,2.9-30.2,4.7-45.5,5.8
		c-20.2,1.5-40.3,1.4-60.5,1.1c-12.4-0.2-24.7-1.2-37-2.1c-3.6-0.3-7.3-0.4-10.9-0.7c4-14.1,12.4-25.8,20.9-37.5
		c1.2-1.7,2.9-1.8,4.7-1.7c0.3,1.5,1.4,1.7,2.7,1.6c3.8-0.4,8.6-4.6,9.7-8.4c0.7-2.6,0-4.1-2.9-4.3c-0.7-1.6,0.1-2.6,1.4-3.5
		c5-3.5,9.9-7.2,14.9-10.8c9.6-6.9,20.4-11.2,31.2-15.7c3.9-1.6,7.5-2.5,11.4-0.5c2.4,2.8,7.9,2.5,11.7-0.3c2.6-1.8,3.1-3.6,0.9-6
		c9.2-2.4,18.4-4.9,28.1-4.6c1.3,0,2.5-0.2,3.8-0.5c1.9-0.4,4.3-1.2,4.9,2.1c0.3,1.3,2.1,1.3,3,2.3c0.2,0.4,0.3,1,0.6,1.2
		c3.4,2.9,15.2,2.9,18.6,0.1c2-1.7,1.7-3.1-1-4.6c0.3-2,1.9-1.3,3.1-1.4c5.9-0.4,11.7,1.2,17.5,1.6c12.5,0.9,24.5,4.1,36.5,7.5
		c0.4,0.1,0.8,0.4,1.3,0.6c0.7,2.1,2.9,2.6,4.1,4.2c8.7,11.3,8.3,23.8,1.2,36c-2.3,3.9-5.8,6.8-8.7,10.1c-0.9,1-2.2,1.8-2.3,3.4
		c-4.9-1.2-9.8-2-14.8-0.4C469.8,113.6,469.1,115.2,471.2,117.6z M475.5,66.1L475.5,66.1c3.6,2.8,7.8,3.9,12.4,3.4
		c1.3-0.1,2.2-1,2.4-2.3c0.2-1.3-0.3-2.3-1.8-2.5c-1.8-4.7-5.8-5.7-10.1-6.4c-2.5-0.4-5.3-1-6.6,1.8c-1.2,2.5,1.8,3.4,3,5
		C475,65.4,475.3,65.8,475.5,66.1z M492.3,87.2c-2.2-1.6-4.5-3-7.4-2.5c-1.4,0.2-2.5,0.8-2.8,2.2c-0.2,1.3,0.6,2.3,1.7,2.8
		c1.3,0.7,2.7,1.1,4.1,1.7c0.9,0.9,2.1,0.9,3.3,0.9c1.6-0.1,3.5,0.1,4-2C495.8,88.1,493.8,87.8,492.3,87.2z M412.2,83
		c2.9,2.4,7,2.7,9.7,0.7c2.2-1.7,2.1-2.8-0.4-4.2c-3.1-2.9-7.8-3.4-11.3-1.1c-1.4,0.9-1.5,2.1-0.3,3.2
		C410.5,82.2,411.4,82.6,412.2,83z M446.2,69.5c-1.9-3.2-5-3.9-8.4-3.5c-1.6,0.2-3.4,0.5-3.9,2.4c-0.6,2.2,1.1,3.1,2.5,4.1
		c2.2,3.6,5.4,3,8.7,2.1C448.1,73.7,448.4,72,446.2,69.5z M398.6,68c0.5-2.2-0.7-3.3-2.7-3.7c-3.1-0.6-6,0.1-8.7,1.9
		c-1.9,1.3-2.3,2.9-0.5,4.6c-0.4,2.3,1,3.5,2.9,3.6c3.2,0.2,6.4-0.4,9-2.4C400.1,70.9,400.9,69.3,398.6,68z M451.6,98.8
		c-5-3.6-10.6-2-16-1.6c-2.7,0.2-5.6,0.4-7.4,2.9c0.9,1.9,2.6,1.7,4,2.1c0.2,0.4,0.4,1,0.7,1.1c6.8,2.6,13.6,1.7,20.2-0.7
		c1-0.4,1.9-1.2,1.6-2.4C454.3,98.6,452.9,98.8,451.6,98.8z M355.6,123.7c3.5,2,10.1,0.3,12-3.1c0.7-1.2,1.1-2.5,0-3.6
		c-1-1-2-2.6-3.8-1c-2.6-2-5.5-1.8-8.4-1.2c-3.2,0.6-6.4,3.6-6,5.6C350.2,123.8,353.1,123.4,355.6,123.7z M337.5,80.1
		c4.1,1.9,13.2-1.2,14.8-5.1c1-2.3,0.3-4-2.6-3.9c-5.2-2.5-9.6-0.3-13.8,2.5c-1.4,1-3.1,2.3-2.5,4.3
		C333.9,79.7,335.9,79.8,337.5,80.1z M304.7,122.2c-1.5-0.3-2.9-1-4.4-0.5c-3.8,1.3-6.7,3.9-8.8,7.1c-2.8,4.3-1.3,6.6,3.8,6.9
		c0.3,1.5,1.4,1.4,2.4,1.3c4-0.4,9.7-5.7,10.2-9.7C308.2,124.9,308.1,122.5,304.7,122.2z M390.9,91c-6.2-2.9-11.6-0.1-17,2.5
		c-1.7,0.8-3.7,2.2-3.2,4.6c0.5,2.2,2.7,2.3,4.5,2.7c5.5,2.4,16.7-0.6,20.1-5.3c1.1-1.5,1-3-1-3.7C393.2,91.3,392,91.2,390.9,91z
		 M325.5,108.5c1,1.8,2.7,1.8,4.3,1.5c5-0.9,9.3-3,12.6-7.1c2.9-3.5,2.2-5.2-2.5-6.2c-4.6-2.5-12.2-0.5-16.8,4.4
		c-1.3,1.4-2.7,2.9-2,5C321.8,108.1,323.7,108.2,325.5,108.5z"/>
	<path class="st4" d="M369.4,217.5c-8.7,0.1-17.5,0.5-26.1-1.4c-3.7-0.8-7.3-2-10.5-4c-4.9-3.1-5-6-0.1-9c3.3-2,6.9-3.6,10.4-5.4
		c0.5-0.3,1.2-0.3,1.6-0.6c1.7-1.2,4.3-2.2,3.8-4.6c-0.5-2.5-3.2-2-5.1-2.1c-12.1-0.6-24.1,0.7-36.2,0.8
		c-10.4,0.1-20.8,0.4-31.1-1.3c-3.6-0.6-7.2-1.5-10.4-3.3c-4.4-2.4-4.7-5.3-0.9-8.6c4.5-3.8,9.7-6.2,15.4-7.8
		c0.8,1.3,2.3,1.7,3.5,2.3c6.4,3,13.2,5.2,19.9,7.2c13.3,3.9,26.9,6.6,40.6,8.9c19.6,3.3,39.3,4.3,59,5.3c7.9,0.4,15.8-0.1,23.7-0.4
		c13.3-0.5,26.6-1.5,39.8-3c16.6-1.9,33.1-4.7,49.3-8.7c12.6-3.1,25.1-6.7,37.2-11.3c8.7-3.3,17.4-6.8,25.9-10.4
		c2.8-1.2,6.1-2,7.7-5.1c5.2-1.2,10.3-2.4,15.5-3.4c1.7-0.3,3.7-0.8,4.8,1.1c1,1.9,0.3,3.7-0.8,5.3c-1.9,3-4.6,5.1-7.7,6.6
		c-10,4.6-20.5,6.6-31.5,6c-1.3,1.6-0.7,2.9,0.2,4.5c4.3,7.7,5.9,15.6,1.4,23.9c-2.8,5.2-7.9,7.7-12.9,10c-13.2,6-27,6.3-41.1,4.6
		c-3.4-0.4-6.7-1.8-10.3-1.2c-8.3-2.8-16.3-6.5-24-10.7c-3.7-2-7.4-4-11.1-6c-0.3-0.1-0.6-0.1-0.8-0.2c0.1,0.3,0.1,0.6,0.2,0.8
		c0.3,2.4,2.5,4.9,0.5,7.1c-2.2,2.3-4.9,0.3-7.3-0.4c-4.4-1.1-8.1-3.7-12-6.1c-1.4-0.9-2.7-1.1-4.3-0.4c-3.7,1.7-8,2.2-11,5.3
		c-1.4-0.2-2.8,0.1-4.1,0.6c-5.6,2-11.1,3.9-16.8,5.6C399.3,212.5,384.6,215.8,369.4,217.5z"/>
	<path class="st5" d="M250.4,438c8.7-4.7,16.9-10.4,24.9-16.2c1.2,0.1,2.2,0.8,3.2,1.3c4.2,2.1,8.5,4.3,12.9,5.9
		c17,6.4,34.6,11.1,52.4,14.6c18.1,3.5,36.3,5.9,54.6,6.6c24.1,0.9,48.1,0.3,72-3.2c24-3.6,47.4-9.3,70.1-17.9
		c8.3-3.1,16.4-6.6,24.3-10.6c12.3,2.8,24.6,2.5,37,0.8c1.6-0.2,3.3-0.1,4.9-0.2c-9.9,6.2-20.4,11.1-31,15.8
		c-15.1,6.6-30.6,11.6-46.5,15.8c-40.8,10.8-82.4,15.6-124.6,15c-20.8-0.3-41.6-1.9-62.2-4.8c-27.1-3.9-53.6-10.4-79.8-18
		C258.5,441.5,253.9,441,250.4,438z"/>
	<path class="st1" d="M564.9,418.5c-7.9,4-16,7.4-24.3,10.6c-22.7,8.6-46.1,14.3-70.1,17.9c-23.9,3.6-48,4.1-72,3.2
		c-18.3-0.7-36.6-3.1-54.6-6.6c-17.9-3.5-35.4-8.2-52.4-14.6c-4.4-1.6-8.6-3.9-12.9-5.9c-1.1-0.5-2-1.2-3.2-1.3
		c2.8-2.9,5.9-3.6,10.1-2.9c33,5.7,66.2,9.3,99.7,11.1c27.1,1.4,54.1,1.5,81.1-1c24.4-2.2,48.6-6,71.4-15.7
		c5.1-2.2,9.3-2.8,14.1,0.3C555.6,416.2,560.4,416.9,564.9,418.5z"/>
	<path class="st6" d="M575.3,336.3c-2.3,0.8-4.4,2.3-7,2.3c-0.1-0.8-0.5-1-1.2-0.8c-8.7,1.9-17.3,4.1-26.2,5.4c-8,1.2-16,3-24,4.1
		c-15.6,2.1-31.3,3.8-47,5.2c-15.9,1.4-31.8,2.2-47.7,2.5c-13.2,0.3-26.4,0.4-39.7-0.4c-8.6-0.5-17.2-0.8-25.8-1
		c-6.7-0.2-13.3-1.6-20-1.8c-4.1-0.1-8.3-2.2-12.5-0.2c-6.8-1.1-13.6-2.1-20.4-3.2c-10.3-1.7-20.6-3.5-30.8-5.3
		c-3.2-2.3-7.4-2.9-11-6.5c17.9-7.5,36.3-9.8,54.6-12.6c4.1,4.2,10.1,4.6,15.9,7.6c-12.2,3-23.8,4.3-34.9,7.5
		c1.2,0.4,2.4,0.7,3.5,0.8c11.6,1.7,23.2,4.1,34.8-0.9c4.1-1.8,8.7-3.7,13.3-2.9c8.2,1.4,16.4,3,24.8,3.7c3.3,0.3,6.7,0.4,10.6,0.7
		c-4.6,3.7-10.3,4.3-14.9,8.2c7.9,0.2,15-0.2,22,0.7c5.6,0.7,10.5-0.4,14.8-4.6c3.9-3.8,8.9-6,14.6-6.6c10.6-1.2,20.6-4.8,30.3-9
		c3.7-1.6,6.6-4.6,10.6-5.3l0.1,0.1c-0.1,0.6-0.1,1.3-0.4,1.6c-4.7,4.5-8.2,9.9-12.4,14.9c-2,2.4-4.1,4.7-6.5,7.4
		c7.4,0,14.1,0.1,20.7-0.1c2.2,0,3.3-1.2,3.6-3.8c0.7-5.6,2-11.1,3.1-16.6c0.7-3.3,1-6.4-3.1-7.6c0.2-1,0.4-1.7,0.5-2.3
		c5.2,0,10.4,0,15.6,0.8c2.4,3.7,6.5,5,10.3,6.3c2.9,1,3.4,2.5,3.3,5.1c-0.2,5.3,0,10.6,0,15.8c3.7,0.1,18.5-2.4,20.5-3.3
		c-2.1-4.9-6.2-8.3-9.2-12.8c2.9-1.3,5.3,0,7.6,0.2c10.2,0.9,20.9-0.8,30,5.7c0.2,0.1,0.4,0.2,0.7,0.3c4.3,1.4,8-0.2,12.2-1.5
		c-3.3-3.4-7.8-2.4-11.7-5.1c3.5-0.2,6.2-0.5,8.7-1.5C562.7,329.4,569.7,331.2,575.3,336.3z"/>
	<path class="st3" d="M591.9,499.3c-6.6,2.1-13.1,4.4-19.8,6.2c-13.1,3.6-26.1,7.1-39.3,10.1c-19.5,4.5-39.3,7.8-59.2,10.1
		c-14.1,1.7-28.1,2.7-42.3,3.6c-18.4,1.1-36.9,1-55.3,0.3c-26.6-1-53.1-4-79.3-8.7c-11.4-2-22.5-5.7-34.1-6.7
		c-2.3-1.9-5.4-2.2-7.9-3.8c-1.1-0.8-2.7-1.5-2.5-3.1c0.2-1.6,1.9-1.7,3.1-1.9c11.4-2.5,22.8-4.4,34.3-6.2c0.2,0,0.4,0.2,0.6,0.3
		c3.5,2,7.9,1.1,11.4,3.3c-6.2,0.4-12.4-0.2-18.5-1.1c-2.8-0.4-5,0.5-6.5,2.5c-1.5,2-0.2,3.9,1,5.7c-0.1,4.3,1.3,5.8,5.6,5.8
		c5.3,0,10.6-0.3,15.9-0.6c9.8-0.6,19.5-1.4,29-3.5c11.3-2.6,22.3-2.4,33.5,0c0.3,1.3,1,2.4,2,3.2c-0.2,2.2,1.1,3,2.9,3.1
		c1.8,0.1,3.5,0.1,5.3-0.3c7.3-1.6,14.7-3.9,22.1-4.4c12.7-0.9,25.4,0.3,38.1-0.9c-0.2,2.2,0.6,3.8,3,4.3c0.5,2.4,2.3,2.7,4.3,2.7
		c8.1-0.1,16.2-1.5,24.2-2.6c10.7-1.4,21.4-3,32.1-4.6c4.5-0.7,9.1-1.3,13.6-2.2c4.4-0.9,5.4-3,3.8-7.2c-0.2-0.4-0.3-0.9-0.6-1.7
		c3-0.5,5.5-2.7,8.7-1.6c-1.2,1.3-0.9,2.4,0.3,3.6c2.1,2,4.6,2.5,7.3,2.9c4.9,2.7,17.4,0.9,21.7-3.1c1.1-1.1,2.9-2,2.1-4
		c-0.8-2.1-2.5-3-4.7-2.8c-2.6-1.3-5.5-2-8.4-2.3c2-1.5,4.3-2.2,6.6-2.8c10.2,0.7,20.3,2.7,30.3,4.7
		C581.5,496.5,586.8,497.3,591.9,499.3z"/>
	<path class="st7" d="M250.4,438c3.5,3,8.1,3.5,12.2,4.9c0.8,0.7,1.7,1.2,2.7,1.5c20.9,6.8,42,12.6,63.7,16.8
		c34.3,6.5,68.8,9.2,103.7,7.7c41.1-1.8,81.2-9,119.9-23.4c7.9-2.9,16.1-5.6,23.1-10.6c10.6-4.7,21.2-9.6,31-15.8
		c3.9-0.3,5,0.1,7,2.6c-5.7,4-11.2,8.2-17,11.9c-10.4,6.6-21.2,12.4-32.5,17.3c-27.7,12.1-56.7,19.4-86.6,23.6
		c-24.9,3.5-49.9,4.7-75,3.9c-30-0.9-59.6-4.7-88.9-10.8c-23.2-4.9-45.9-11.3-68-19.6c-2.6-1-3.2-2.3-3.3-4.9
		c-0.1-5.6,0.8-11,2.5-16.3c0.5-1.4,1.1-2.9,2-4.1c1.7-2.3,3.8-1.9,4.7,0.9c1,2.9,0.9,6-0.2,8.7C250.8,434.2,250.6,436.1,250.4,438z
		"/>
	<path class="st2" d="M462,323.9c-4.1,0.8-7,3.8-10.6,5.3c-9.8,4.2-19.7,7.8-30.3,9c-5.6,0.6-10.6,2.8-14.6,6.6
		c-4.4,4.2-9.2,5.4-14.8,4.6c-7-0.9-14.1-0.5-22-0.7c4.6-4,10.3-4.5,14.9-8.2c-3.9-0.2-7.3-0.4-10.6-0.7c-8.3-0.7-16.5-2.3-24.8-3.7
		c-4.6-0.8-9.2,1.2-13.3,2.9c-11.6,5-23.1,2.6-34.8,0.9c-1.2-0.2-2.3-0.4-3.5-0.8c11.2-3.2,22.8-4.6,34.9-7.5
		c-5.9-3-11.8-3.3-15.9-7.6c19.8-3.2,39.8-4.9,59.8-6.3c29.8-2,59.7-1.6,89.6-0.5c0.6,0,1.2,0.1,1.8,0.2c-0.2,0.7-0.3,1.4-0.5,2.3
		c4,1.2,3.7,4.3,3.1,7.6c-1.1,5.5-2.4,11-3.1,16.6c-0.3,2.6-1.5,3.8-3.6,3.8c-6.7,0.1-13.3,0.1-20.7,0.1c2.4-2.8,4.5-5.1,6.5-7.4
		c4.1-4.9,7.7-10.4,12.4-14.9C461.9,325.3,461.9,324.5,462,323.9c0.1-0.1,0.1-0.2,0.2-0.3C462.1,323.7,462,323.8,462,323.9z"/>
	<path class="st1" d="M521.1,499.5c-3.2-1.1-5.7,1.1-8.7,1.6c0.3,0.9,0.4,1.3,0.6,1.7c1.6,4.2,0.6,6.3-3.8,7.2
		c-4.5,0.9-9,1.5-13.6,2.2c-10.7,1.6-21.4,3.2-32.1,4.6c-8,1-16,2.5-24.2,2.6c-2,0-3.8-0.3-4.3-2.7c3.2-0.1,6.4,0.1,9.6-0.3
		c16.5-2,33-4.2,49.4-6.3c3.6-0.5,7.3-0.9,10.9-1.4c3.1-0.5,5.1-3.1,4.4-5.7c-0.7-2.5-2.2-4.3-5.2-3.5c-17,4.7-34.1,8.5-51.4,11.7
		c-4.5,0.8-9.1,1.4-13.7,1.4c0.3-0.5,0.7-0.7,1.1-0.9c7.4-2.9,15-5.1,22.1-8.5c3.6-1.7,6-4.8,5.5-7.9c-0.5-3-3.3-5.2-7.4-5.5
		c-2.7-0.2-5.5-0.3-8.2,0c-17.7,2.1-35,6.3-52.3,10.7c-6.5,1.7-13,3.2-19.6,4.9c0.1-1.3,0.9-1.4,1.5-1.8c3.9-2.3,7.5-5,10.9-7.8
		c0.9-0.7,2.1-1.4,1.7-2.9c-0.4-1.5-1.8-2.2-3.2-2.4c-1.7-0.3-3.5-0.2-5.3,0.2c-15.8,3.3-31.3,7.9-47.4,9.9
		c-12.3,1.6-24.6,2.9-37,2.4c-3.5-2.2-7.8-1.3-11.4-3.3c13.7-2.6,27.5-4.2,41.4-5.9c22.2-2.7,44.4-4.8,66.7-6.1
		c24.3-1.5,48.7-2.4,73-1.9c24.2,0.4,48.4,1.6,72.5,4.8c0.7,0.1,1.4,0.4,2,0.5c-2.3,0.6-4.7,1.3-6.6,2.8
		C532.7,493.9,526.1,494,521.1,499.5z"/>
	<path class="st8" d="M586.9,154.9c-1.6,3.1-4.9,3.9-7.7,5.1c-8.6,3.6-17.2,7.1-25.9,10.4c-12.2,4.6-24.6,8.2-37.2,11.3
		c-16.2,4-32.7,6.8-49.3,8.7c-13.2,1.5-26.5,2.5-39.8,3c-7.9,0.3-15.8,0.8-23.7,0.4c-19.7-0.9-39.5-2-59-5.3
		c-13.7-2.3-27.3-5-40.6-8.9c-6.8-2-13.5-4.1-19.9-7.2c-1.3-0.6-2.7-1-3.5-2.3c2.6-1.1,5.2-2.2,7.9-3.3c8.5,2.3,17.1,4.7,25.6,6.9
		c26.7,6.9,53.9,10.8,81.5,12c21.4,1,42.7,0.5,64-1.7c24.6-2.6,48.7-7.4,72.5-14.4c13.6-4,26.8-9,40-14.3
		C576.6,156,581.8,155.5,586.9,154.9z"/>
	<path class="st2" d="M571.4,155.4c-13.1,5.3-26.4,10.4-40,14.3c-23.7,7-47.8,11.9-72.5,14.4c-21.3,2.2-42.7,2.7-64,1.7
		c-27.5-1.3-54.7-5.1-81.5-12c-8.6-2.2-17.1-4.6-25.6-6.9c-1.9-1.1-4-1.6-6.1-2.1c-1.4-1.2-3.2-1.4-4.8-2c-3.9-1.4-8-2.5-11.3-5.1
		c14.3,4.6,28.7,8.6,43.4,11.7c21.5,4.6,43.1,7.8,65,9.7c20.4,1.8,40.8,1.9,61.3,1.1c19.8-0.7,39.5-3.1,59-6.6
		c23.2-4.1,45.8-10,68.2-17.3c2.9-0.9,5.8-2.1,8.7-3.1c1.1-0.4,2.2-1.2,3.2,0.1C573.4,154.1,572.4,154.7,571.4,155.4z"/>
	<path class="st8" d="M369.4,217.5c15.2-1.6,29.9-5,44.5-9.4c5.6-1.7,11.2-3.7,16.8-5.6c1.4-0.5,2.7-0.8,4.1-0.6
		c-3.4,11.8-9.9,21.7-19.5,29.1c-10.9,8.5-24.3,8.1-34.9-0.5C375.8,226.8,371.9,222.8,369.4,217.5z"/>
	<path class="st9" d="M480.5,245.9c6.5-0.7,11,0.6,14.2,4c-1.3,2.7-3.9,3.5-6.4,4.4c-8.4,3-17.2,4.1-26,5.3
		c-19.2,2.6-38.6,3.6-58,3.5c-10.5-0.1-21-0.4-31.4-2.3c-2-0.4-3.9-1-5.8-1.6c-1.1-0.4-2.2-1.1-2.4-2.4c-0.1-1.4,0.9-2.1,2-2.7
		c2.9-1.7,5.9-2.9,9.4-2.6c2.8,1,5.6,1.2,8.5,1.4c0.8,0.2,1.6,0.4,2.4,0.5c17.4,1.4,34.9,1.4,52.3-0.1c10.7-0.9,21.4-2.1,31.8-4.8
		C474.2,247.4,477.6,247.6,480.5,245.9z"/>
	<path class="st5" d="M235.8,210.3c-3.2-3.5-4.9-7.8-5.6-12.4c-0.8-5.4,1.7-8.8,6.9-10.2c3.9-1,7.7-0.6,11.5,0.7
		c4.9,1.7,9.3,4.4,13.4,7.6c-0.5,3.2-3.4,3.7-5.7,4.5c-3.9,1.3-7.8,2.2-11.9,3.3c1.4,2.8,3.8,4.2,5.9,5.7c6.3,4.7,13.1,8.3,21.2,8.6
		c9,2.9,18.1,5.4,27.5,6.9c0.1,1.8,3.7,1.9,2.4,4.1c-1.2,2.1-3.7,2.4-5.9,2.6c-17,1.2-32.6-3.2-47-12.3
		C243.9,216.6,239.9,213.3,235.8,210.3z"/>
	<path class="st8" d="M265.7,157.7c3.3,2.6,7.4,3.7,11.3,5.1c1.6,0.6,3.4,0.8,4.8,2c-13.9,1.4-27.4,0-39.6-7.4
		c-6.2-3.7-10.4-9.3-11.1-16.8c-0.8-8.2,4-13.1,12.2-12.5c4.8,0.3,8.5,2.6,11.7,6c4.3,4.5,8.6,9,12.9,13.5
		C267.2,150.9,266.4,154.3,265.7,157.7z"/>
	<path class="st8" d="M504.6,212.3c3.5-0.6,6.8,0.7,10.3,1.2c14.1,1.7,27.9,1.3,41.1-4.6c5-2.3,10.1-4.8,12.9-10
		c4.5-8.2,2.9-16.2-1.4-23.9c-0.9-1.6-1.5-2.9-0.2-4.5c-0.5,0.9,0.1,1.3,0.8,1.6c3.7,1.6,6.9,4.1,10.3,6.2
		c11.7,7.2,11.3,24.8-0.1,32.6c-14.4,9.8-30,10.4-46.2,8.5C522.5,218.3,513.4,215.8,504.6,212.3z"/>
	<path class="st9" d="M349.5,240.4c4.2-1.1,8.5-1.8,12.9-1.2c1.3,0.2,2.8,0.3,3.3,1.7c0.6,1.6-0.7,2.8-1.8,3.5
		c-6.1,4.1-12.6,7.5-19.4,10.2c-14.8,5.9-30,10.7-45.6,14.2c-7.6,1.7-15.2,3.4-23.1,3.1c-1.7,0-3.9,0.2-4.6-1.8
		c-0.7-2,1.3-3.1,2.6-4.2c1.6-1.5,3.6-2.1,5.7-2.7c0.8,0,1.6,0.1,2.4,0c17.8-2.8,34.7-8.5,51.3-15.4
		C338.7,245.7,344.5,243.9,349.5,240.4z"/>
	<path class="st2" d="M555.6,327.6c-2.5,1-5.2,1.3-8.7,1.5c3.9,2.7,8.4,1.7,11.7,5.1c-4.2,1.3-7.9,3-12.2,1.5
		c-0.2-0.1-0.5-0.1-0.7-0.3c-9.1-6.5-19.8-4.8-30-5.7c-2.3-0.2-4.7-1.6-7.6-0.2c3,4.4,7.2,7.9,9.2,12.8c-2,1-16.9,3.4-20.5,3.3
		c0-5.2-0.1-10.5,0-15.8c0.1-2.6-0.4-4.1-3.3-5.1c-3.8-1.4-7.8-2.7-10.3-6.3c19.7,0.6,39.2,2.5,58.6,6.1
		C546.5,325.2,551.2,325.9,555.6,327.6z"/>
	<path class="st5" d="M567.1,239.2c-8.3,0.9-16.3-0.2-24.1-3c0.3-1.7,1.4-1.5,2.2-1.7c6.5-1.4,12.9-2.6,19.3-4.1
		c11-2.6,19.4-8.6,24.5-19c2.4-5,5.3-9.7,9.2-13.7c2-2.1,3.9-4.2,7.2-3.6c3.5,9.2,1.9,17.6-4.7,24.8c-6.3,6.8-14,11.8-22.5,15.6
		C574.5,236.1,570.4,236.8,567.1,239.2z"/>
	<path class="st8" d="M584.5,140.7c-2.8-2.7-5.7-5.2-9-7.2c-3.2-1.9-4.3-4.7-4.2-8.3c7.4-8.3,16.7-11,27.5-9.4
		c2.6,0.4,5,1.3,7.2,2.7c4.6,3.1,5.2,7.3,1.3,11.3c-3.3,3.4-7.4,5.5-11.8,7C591.9,138.3,588.2,139.4,584.5,140.7z"/>
	<path class="st9" d="M562.4,251.1c2.3,0.3,4.7,0.4,6.9,0.8c1.6,0.3,3.5,0.8,3.7,2.7c0.2,1.7-1.5,2.5-2.8,3.3
		c-2.2,1.4-4.7,2.2-7.2,2.9c-19.9,5.2-40,7.6-60.6,6.1c-2.7-0.2-5.3-1-8-1.6c-1.2-0.3-2.4-0.8-2.5-2.2c-0.1-1.3,1-2.2,2-2.7
		c2.6-1.2,5.2-2.8,8.3-2.7c13.3,1.7,26.6,0.7,39.8-0.9C549.2,255.9,556.1,254.6,562.4,251.1z"/>
	<path class="st10" d="M480.5,245.9c-2.9,1.7-6.3,1.6-9.4,2.6c-4.1-0.9-8.2,0.5-12.1,1.1c-14.1,2.3-28.3,2.4-42.5,3.1
		c-9.4,0.5-18.8,0.8-28.2-0.5c-1.2-0.2-2.6-0.4-3.7,0.6c-2.9-0.2-5.8-0.4-8.5-1.4c0.5-1.4,1.8-1.3,2.9-1.6c8.4-2,16.9-3,25.4-4.1
		c21-2.5,42.1-2.4,63.2-2.1c3.5,0,7,0.5,10.6,0.7C479.3,244.5,480.1,244.9,480.5,245.9z"/>
	<path class="st11" d="M297.3,310.3c-8.7-0.6-16.9-3.2-25-6c-6.6-2.3-12.9-5.1-19.2-8.2c-2.8-1.4-3.9-3.1-2.8-6.1
		c0.7-1.9,1.1-3.8,1.7-5.8c14.5,6.7,29.8,10.4,45.4,13.5C297.3,301.8,297.3,306.1,297.3,310.3z"/>
	<path class="st8" d="M447.6,201.1c5.9,6,13.2,7.9,20.1,10.4c3.5,1.3,7,2.8,10.4,4.4c4.4,2.2,6.7,7.4,5.9,13.3
		C466.2,232.8,447.3,224.7,447.6,201.1z"/>
	<path class="st7" d="M235.8,210.3c4.1,3.1,8.2,6.3,12.5,9.1c14.4,9.1,30,13.5,47,12.3c2.2-0.2,4.8-0.4,5.9-2.6
		c1.3-2.2-2.3-2.3-2.4-4.1c9.5,1.1,19.2,1.2,28.5,3.8c-7.9,3.4-16.2,5.1-24.6,5.9c-19.8,1.9-38.6-1.1-55.2-13
		C243.1,218.5,238.5,215.3,235.8,210.3z"/>
	<path class="st8" d="M268,103.6c7.4,8.2,7.8,21.5,1.1,27.9c-2.1,2-3.9,2.4-5.8,0c-2-2.5-4.8-4.1-6.1-7.2c-2.4-5.6-1.2-10.9,3.4-15
		c1.9-1.7,3.8-3.6,6-5C267,104.1,267.5,103.9,268,103.6z"/>
	<path class="st7" d="M567.1,239.2c3.4-2.4,7.5-3.1,11.2-4.7c8.4-3.9,16.2-8.8,22.5-15.6c6.6-7.2,8.3-15.6,4.7-24.8
		c10.2,2.3,11.2,10.6,7,18.3c-3.5,6.4-8.3,12.1-14.5,16.1C588.6,234.6,578.6,239.2,567.1,239.2z"/>
	<path class="st2" d="M297.3,310.3c0-4.2,0-8.4,0-12.7c0.2,0,0.3-0.1,0.5-0.1c10.1,2.5,20.5,3.3,30.9,3c-0.2,1.2-0.2,2.3-0.5,3.5
		c-1.2,5.2-1.9,6-7,6.7C313.3,311.8,305.3,311.9,297.3,310.3z"/>
	<path class="st10" d="M349.5,240.4c-5,3.5-10.7,5.2-16.2,7.5c-16.5,6.9-33.5,12.5-51.3,15.4c-0.8,0.1-1.6,0-2.4,0
		c3.2-3.3,7.5-4.8,11.6-6.4c11.2-4.5,22.6-8.7,34.3-11.8c7-1.9,14.2-3.3,21.3-4.9C347.5,240.1,348.5,240.4,349.5,240.4z"/>
	<path class="st8" d="M326,199.5c-0.6,2-2.2,2.5-3.7,2.9c-11.5,3.1-23.1,3.5-34.8,1.8c-0.9-0.1-1.9-0.4-2.7-0.9
		c-1.7-0.9-1.7-2.1-0.1-2.9c1.7-0.9,3.5-1.5,5.3-1.9c9.7-1.9,19.5-2.6,29.3-1.5C321.7,197.3,324.1,197.4,326,199.5z"/>
	<path class="st10" d="M562.4,251.1c-6.3,3.5-13.2,4.8-20.2,5.7c-13.2,1.7-26.5,2.6-39.8,0.9c0.3-1.5,1.7-1.5,2.8-1.8
		c15.7-3.6,31.6-5.7,47.8-5.9C556.2,250,559.3,250.2,562.4,251.1z"/>
	<path class="st7" d="M271.3,218c-8.1-0.3-14.9-3.9-21.2-8.6c-2.1-1.6-4.5-2.9-5.9-5.7c4.1-1.1,8.1-2,11.9-3.3
		c2.4-0.8,5.2-1.2,5.7-4.5c3.6,2.1,6.3,5.3,8.8,8.6c1.9,2.6,1.3,3.8-2,4.5c-3.3,0.7-6.7-0.2-10.7,0.4
		C262.4,213.1,267.1,215.2,271.3,218z"/>
	<path class="st5" d="M581.8,260.2c-3.1-1.4-3.7-3.3-1.6-6.3c3.7-5.6,9.1-9.5,14.8-12.8c2.4-1.3,4.7-3.2,7.5-3.7
		c1.5,2.7,2.2,5.5,0.7,8.4c-1.6,2.9-3.5,5.6-6.2,7.5C592.4,256.6,587.3,258.9,581.8,260.2z"/>
	<path class="st12" d="M297.9,297.5c-0.2,0-0.4,0.1-0.5,0.1c-15.6-3-30.9-6.8-45.4-13.5c0.4-3,2.8-2.4,4.7-2.5
		c8.7-0.1,17.2,1.3,25.7,2.9c6.7,1.3,13.5,2.3,20,4.7c-0.9,0.8-2,0.6-3,0.4c-4.7-1-9.4-2.1-14.1-3c-6-1.1-12-2.5-19-2.4
		c4.1,2.3,8.1,2.1,11.3,4.2c-6.6-0.4-12.5-3.7-19.2-4c8.6,4.1,17.7,6.6,27.3,7.4c-2.7-1.2-5.4-2.3-8.2-3.5c7.1,1.1,14,3.5,21.2,4.3
		c0.8,0.1,1.3,0.4,1.4,1.3c-0.4,0.1-0.8,0.2-1.2,0.2c-2.3-0.8-4.7-1.1-7.3-0.5c1,1.5,2.5,0.9,3.7,1.4
		C296.4,295.4,298.3,295.3,297.9,297.5z"/>
	<path class="st11" d="M277.5,288.4c-3.2-2.1-7.2-2-11.3-4.2c7-0.1,13,1.3,19,2.4c4.7,0.9,9.4,2,14.1,3c1,0.2,2.1,0.5,3-0.4
		c8.7,1.8,17,4.7,25,8.6c1.1,0.5,2.2,1.1,1.4,2.7c-10.4,0.3-20.7-0.5-30.9-3c0.4-2.2-1.4-2.1-2.6-2.5c-1.1-0.4-2.6,0.1-3.7-1.4
		c2.6-0.5,4.9-0.3,7.3,0.5c-0.4,2.1,1.3,2.3,2.6,2.6c4.6,1.2,9.2,2,13.9,2.3c2.3,0.1,4.7,1.5,7.9-0.1c-8.1-2.6-15.7-3.7-23.2-5
		c-0.1-0.8-0.6-1.2-1.4-1.3C291.4,291.9,284.6,289.5,277.5,288.4L277.5,288.4z M300.6,293.1c4.4,0.6,8.4,1.1,12.9,1.7
		C309.2,291.2,302.6,290.1,300.6,293.1z"/>
	<path class="st5" d="M244.2,244.4c-3.7-1.1-6.5-5.7-5.7-9.3c0.5-2.1,2-2.8,3.9-2.9c5.8-0.4,11.1,1.4,15.9,4.6
		c0.1,4.7-0.9,5.8-5.4,7.1C250,244.7,247.1,244.3,244.2,244.4z"/>
	<path class="st7" d="M581.8,260.2c5.5-1.3,10.6-3.6,15.2-6.9c2.8-2,4.6-4.6,6.2-7.5c1.6-2.9,0.8-5.7-0.7-8.4c2.6-1.4,5.6-3.8,8-1.6
		c2.5,2.2,0,5.3-1.3,7.7c-4.4,7.7-10.4,13.7-18.9,16.7C587.5,261.2,584.7,262,581.8,260.2z"/>
	<path class="st7" d="M244.2,244.4c2.9,0,5.8,0.3,8.7-0.5c4.5-1.3,5.5-2.4,5.4-7.1c3.5,0.4,6,2.8,8.2,5.2c2.3,2.5,1.9,4.7-1.4,5.6
		C257.7,249.6,250.6,249,244.2,244.4z"/>
	<path class="st1" d="M434.7,51c2.8,1.5,3.1,2.9,1,4.6c-3.4,2.8-15.2,2.8-18.6-0.1c-0.3-0.3-0.4-0.8-0.6-1.2
		c3.9,0.6,7.8,1.2,11.8,0.3C430.9,54.1,433.4,53.5,434.7,51z"/>
	<path class="st1" d="M305.2,91.7c2.9,0.1,3.6,1.7,2.9,4.3c-1.1,3.8-5.9,8-9.7,8.4c-1.3,0.1-2.4-0.1-2.7-1.6
		C300.7,100.7,305.2,98.1,305.2,91.7z"/>
	<path class="st1" d="M376.7,55c2.2,2.4,1.7,4.2-0.9,6c-3.9,2.8-9.3,3-11.7,0.3c4.3-0.3,8.5-0.7,10.4-5.6
		C374.8,54.9,375.9,55.1,376.7,55z"/>
	<path class="st13" d="M577.4,364.8c0.6-6.7,0-13.6,1-20.3c1.1,0.8,1.1,2,1.1,3.2c0.2,4.7-0.2,9.4-0.6,14.1
		C578.8,363,578.5,364,577.4,364.8z"/>
	<path class="st13" d="M572.1,381.6c1.2-2.9,2.4-5.8,3.6-8.7C575.5,376.2,574.5,379.2,572.1,381.6z"/>
	<path class="st13" d="M576.7,369c-0.4-0.9-0.3-1.8,0.5-2.5C577.6,367.5,577.3,368.3,576.7,369z"/>
	<path class="st13" d="M576,371.9c-0.3-0.7-0.2-1.3,0.4-1.8C576.9,370.8,576.5,371.3,576,371.9z"/>
	<path class="st14" d="M324.2,351.7c4.2-2,8.3,0.1,12.5,0.2c6.7,0.1,13.3,1.6,20,1.8c8.6,0.2,17.2,0.6,25.8,1
		c13.2,0.7,26.5,0.7,39.7,0.4c15.9-0.4,31.8-1.1,47.7-2.5c15.7-1.4,31.4-3.1,47-5.2c8-1.1,16-2.8,24-4.1c8.8-1.3,17.5-3.5,26.2-5.4
		c0.7-0.2,1.1,0,1.2,0.8c-14.5,4.2-29.2,7.3-44.1,10.1c-13.7,2.6-27.4,4.6-41.2,6.2c-10.8,1.3-21.6,2.3-32.4,2.9
		c-12.8,0.8-25.7,1.5-38.6,1.3c-14.3-0.1-28.5-0.3-42.8-1.7c-8.8-0.9-17.6-1.3-26.4-2.3C336.6,354.4,330.3,353.6,324.2,351.7z"/>
	<path class="st15" d="M471.2,117.6c-2.1-2.4-1.4-4,1.4-4.9c5-1.6,9.9-0.8,14.8,0.4c0.5,0.3,1,0.6,1.6,0.8c1.8,0.6,4,1.3,3.7,3.5
		c-0.2,2.2-2.6,2.6-4.4,2.8C482.4,121,476.6,120.6,471.2,117.6z"/>
	<path class="st15" d="M530.1,94.9c-4.1-0.3-8.3-1.9-11.1-5.7c-2.2-3.1-1-5.6,2.7-5.8c4.5-0.2,8.6,1.1,11.9,4.3c1.4,1.4,3,3,1.9,5.2
		C534.6,94.9,532.5,94.9,530.1,94.9z"/>
	<path class="st15" d="M325.5,108.5c-1.7-0.3-3.7-0.5-4.4-2.4c-0.7-2.1,0.7-3.6,2-5c4.6-5,12.2-7,16.8-4.4c0.5,2.6-0.6,4.5-2.4,6.3
		C334.2,106.3,329.9,107.6,325.5,108.5z"/>
	<path class="st15" d="M375.2,100.8c-1.8-0.4-4-0.5-4.5-2.7c-0.5-2.4,1.5-3.8,3.2-4.6c5.4-2.6,10.8-5.4,17-2.5
		c0.8,2.7-0.8,4.2-2.7,5.6C384.3,99.4,379.8,100.1,375.2,100.8z"/>
	<path class="st15" d="M295.2,135.8c-5-0.3-6.5-2.6-3.8-6.9c2.1-3.2,5-5.8,8.8-7.1c1.6-0.5,3,0.2,4.4,0.5
		C305.3,128.4,302.1,132.8,295.2,135.8z"/>
	<path class="st15" d="M474.8,65.1c-1.2-1.6-4.2-2.5-3-5c1.3-2.8,4.1-2.1,6.6-1.8c4.3,0.7,8.4,1.7,10.1,6.4
		c-1.4,3.4-4.3,2.6-6.9,2.4c-2.1-0.2-3.9-1.5-6.1-1.1c0,0,0,0.1,0,0.1C475.6,65.5,475.2,65.3,474.8,65.1z"/>
	<path class="st15" d="M337.5,80.1c-1.6-0.3-3.6-0.3-4.1-2.2c-0.5-2,1.1-3.3,2.5-4.3c4.2-2.8,8.6-5,13.8-2.5c0.3,4-2.7,5.5-5.5,6.9
		C342.1,78.9,339.7,79.4,337.5,80.1z"/>
	<path class="st15" d="M355.6,123.7c-2.5-0.3-5.4,0-6.2-3.3c-0.4-2,2.7-4.9,6-5.6c2.9-0.6,5.8-0.7,8.4,1.2c0.8,2.4,0.1,4.5-2.1,5.6
		C359.8,122.6,357.8,123.7,355.6,123.7z"/>
	<path class="st15" d="M432.2,102.3c-1.4-0.4-3.1-0.2-4-2.1c1.8-2.5,4.8-2.7,7.4-2.9c5.4-0.5,11-2,16,1.6c-1.1,2-3.2,2.2-5.1,2.7
		C441.8,102.7,437,102.3,432.2,102.3z"/>
	<path class="st15" d="M386.8,70.8c-1.8-1.7-1.4-3.3,0.5-4.6c2.6-1.8,5.5-2.4,8.7-1.9c2,0.4,3.1,1.5,2.7,3.7
		C395,70.3,391.4,72.9,386.8,70.8z"/>
	<path class="st15" d="M436.4,72.4c-1.4-1-3.2-1.9-2.5-4.1c0.5-1.9,2.3-2.2,3.9-2.4c3.4-0.3,6.5,0.3,8.4,3.5
		C444.7,72.8,442.1,73.6,436.4,72.4z"/>
	<path class="st1" d="M325.5,108.5c4.5-0.9,8.7-2.2,12-5.5c1.8-1.8,2.9-3.7,2.4-6.3c4.7,1,5.3,2.7,2.5,6.2c-3.3,4-7.6,6.2-12.6,7.1
		C328.1,110.3,326.5,110.3,325.5,108.5z"/>
	<path class="st15" d="M412.2,83c-0.8-0.5-1.7-0.8-2.4-1.4c-1.2-1.1-1.2-2.2,0.3-3.2c3.5-2.3,8.2-1.8,11.3,1.1
		c-0.2,1.4-1,2.3-2.3,2.9C417,83.6,414.6,83,412.2,83z"/>
	<path class="st1" d="M432.2,102.3c4.8,0,9.6,0.3,14.3-0.8c1.9-0.5,4-0.7,5.1-2.7c1.3-0.1,2.7-0.2,3.1,1.5c0.3,1.2-0.7,2.1-1.6,2.4
		c-6.7,2.4-13.4,3.4-20.2,0.7C432.5,103.4,432.4,102.7,432.2,102.3z"/>
	<path class="st1" d="M375.2,100.8c4.6-0.6,9.1-1.4,13-4.2c1.9-1.4,3.5-2.9,2.7-5.6c1.1,0.2,2.3,0.3,3.4,0.7c1.9,0.7,2.1,2.2,1,3.7
		C392,100.2,380.7,103.1,375.2,100.8z"/>
	<path class="st15" d="M487.9,91.5c-1.4-0.6-2.8-1-4.1-1.7c-1-0.6-1.9-1.5-1.7-2.8c0.3-1.5,1.4-2,2.8-2.2c2.9-0.5,5.2,0.9,7.4,2.5
		C492.9,90.7,490,90.7,487.9,91.5z"/>
	<path class="st1" d="M295.2,135.8c6.9-2.9,10.1-7.4,9.5-13.5c3.4,0.2,3.5,2.6,3.2,5.1c-0.6,4-6.2,9.3-10.2,9.7
		C296.6,137.1,295.5,137.2,295.2,135.8z"/>
	<path class="st1" d="M355.6,123.7c2.2-0.1,4.2-1.1,6.1-2.1c2.2-1.1,2.9-3.2,2.1-5.6c1.8-1.5,2.8,0,3.8,1c1.1,1.1,0.7,2.4,0,3.6
		C365.7,124.1,359.1,125.7,355.6,123.7z"/>
	<path class="st1" d="M337.5,80.1c2.2-0.7,4.6-1.1,6.7-2.1c2.9-1.3,5.9-2.8,5.5-6.9c2.9-0.1,3.6,1.6,2.6,3.9
		C350.7,78.9,341.6,81.9,337.5,80.1z"/>
	<path class="st1" d="M386.8,70.8c4.6,2.1,8.2-0.4,11.8-2.7c2.2,1.3,1.5,2.8,0.1,3.9c-2.6,2.1-5.8,2.6-9,2.4
		C387.8,74.3,386.5,73,386.8,70.8z"/>
	<path class="st1" d="M475.5,66c2.2-0.4,4.1,0.9,6.1,1.1c2.6,0.3,5.5,1,6.9-2.4c1.5,0.2,2,1.1,1.8,2.5c-0.2,1.3-1.1,2.2-2.4,2.3
		C483.3,70,479.1,68.9,475.5,66z"/>
	<path class="st1" d="M436.4,72.4c5.6,1.1,8.2,0.4,9.8-3c2.2,2.5,1.9,4.2-1.1,5.1C441.9,75.5,438.6,76,436.4,72.4z"/>
	<path class="st1" d="M412.2,83c2.3,0,4.7,0.5,7-0.5c1.3-0.6,2-1.6,2.3-2.9c2.5,1.4,2.6,2.6,0.4,4.2C419.2,85.8,415.1,85.5,412.2,83
		z"/>
	<path class="st1" d="M487.9,91.5c2.1-0.8,5-0.8,4.4-4.3c1.5,0.6,3.5,0.9,3,3.2c-0.5,2.1-2.4,1.9-4,2
		C490,92.4,488.8,92.4,487.9,91.5z"/>
	<path class="st1" d="M474.8,65.1c0.4,0.2,0.8,0.4,0.7,1C475.3,65.8,475,65.4,474.8,65.1z"/>
	<path class="st15" d="M468.8,196.3c-0.1-0.3-0.1-0.6-0.2-0.8c0.3,0.1,0.6,0.1,0.8,0.2C469.2,195.9,469,196.1,468.8,196.3z"/>
	<path class="st15" d="M575.7,435c-7,5-15.2,7.7-23.1,10.6c-38.7,14.4-78.7,21.6-119.9,23.4c-34.9,1.5-69.4-1.2-103.7-7.7
		c-21.6-4.1-42.8-10-63.7-16.8c-1.1-0.3-1.9-0.9-2.7-1.5c26.2,7.6,52.8,14.1,79.8,18c20.6,3,41.3,4.5,62.2,4.8
		c42.2,0.6,83.8-4.1,124.6-15C545.1,446.6,560.7,441.5,575.7,435z"/>
	<path class="st11" d="M301.6,502.8c12.4,0.5,24.7-0.8,37-2.4c16.1-2,31.6-6.6,47.4-9.9c1.8-0.4,3.5-0.5,5.3-0.2
		c1.4,0.2,2.8,0.9,3.2,2.4c0.4,1.4-0.9,2.1-1.7,2.9c-3.5,2.9-7.1,5.5-10.9,7.8c-0.6,0.3-1.4,0.4-1.5,1.8c6.6-1.6,13.1-3.2,19.6-4.9
		c17.3-4.5,34.6-8.6,52.3-10.7c2.7-0.3,5.4-0.2,8.2,0c4.1,0.3,6.9,2.5,7.4,5.5c0.5,3-1.9,6.2-5.5,7.9c-7.2,3.3-14.8,5.6-22.1,8.5
		c-0.4,0.2-0.8,0.4-1.1,0.9c4.6,0,9.2-0.5,13.7-1.4c17.3-3.2,34.4-7,51.4-11.7c3-0.8,4.5,1,5.2,3.5c0.7,2.7-1.3,5.3-4.4,5.7
		c-3.6,0.5-7.2,1-10.9,1.4c-16.5,2.1-33,4.3-49.4,6.3c-3.2,0.4-6.4,0.2-9.6,0.3c-2.4-0.5-3.2-2.1-3-4.3c3.4-3.8,8.1-5.6,12.5-7.8
		c3.9-1.9,7.9-3.7,11.6-6.6c-1.6-0.8-2.9-0.6-4.2-0.4c-9.1,1.2-18.1,2.8-27.1,4.8c-13.7,3-27.4,6.2-41.1,9.1
		c-6.7,1.4-13.3,3.1-20.2,3.4c-1-0.8-1.7-1.9-2-3.2c0.2-2.2,1.1-3.7,3.1-4.8c3.8-2.1,7.6-4.2,11.8-5.6c4.9-1.6,9.5-4,13.3-7.6
		c-1.9,0-3.7,0.3-5.4,0.7c-13.9,3.6-27.7,7.7-41.8,10.7c-19.7,4.1-39.6,6.3-59.7,6.5c-2,0-3.8-0.2-5.3-1.5c-1.3-1.7-2.5-3.6-1-5.7
		c1.5-2.1,3.7-3,6.5-2.5C289.2,502.6,295.4,503.2,301.6,502.8z"/>
	<path class="st1" d="M363.6,514.7c6.9-0.3,13.5-2,20.2-3.4c13.7-2.9,27.4-6.1,41.1-9.1c9-2,18-3.6,27.1-4.8
		c1.2-0.2,2.6-0.4,4.2,0.4c-3.7,2.9-7.7,4.6-11.6,6.6c-4.4,2.2-9.1,4-12.5,7.8c-12.7,1.2-25.5,0-38.1,0.9
		c-7.4,0.5-14.7,2.8-22.1,4.4c-1.8,0.4-3.5,0.4-5.3,0.3C364.7,517.7,363.4,516.9,363.6,514.7z"/>
	<path class="st1" d="M277.6,509.9c1.6,1.3,3.4,1.5,5.3,1.5c20.1-0.2,40-2.4,59.7-6.5c14.1-2.9,27.9-7,41.8-10.7
		c1.7-0.5,3.5-0.7,5.4-0.7c-3.9,3.7-8.4,6-13.3,7.6c-4.2,1.4-8,3.5-11.8,5.6c-2,1.1-2.9,2.6-3.1,4.8c-11.2-2.4-22.2-2.5-33.5,0
		c-9.5,2.2-19.2,3-29,3.5c-5.3,0.3-10.6,0.6-15.9,0.6C278.9,515.7,277.6,514.2,277.6,509.9z"/>
	<path class="st11" d="M521.1,499.5c4.9-5.4,11.6-5.6,18.2-5.8c2.9,0.3,5.8,1,8.4,2.3c1.3,3.5,0.4,5.2-3,6.9c-5.1,2.5-10.5,3.1-16,3
		c-2.7-0.3-5.2-0.9-7.3-2.9C520.2,501.9,519.9,500.8,521.1,499.5z"/>
	<path class="st1" d="M528.7,505.9c5.5,0.1,10.9-0.5,16-3c3.4-1.7,4.2-3.4,3-6.9c2.3-0.2,3.9,0.7,4.7,2.8c0.8,2.1-1,3-2.1,4
		C546.2,506.8,533.6,508.6,528.7,505.9z"/>
	<path class="st6" d="M462,323.9c0.1-0.1,0.1-0.2,0.2-0.3C462.1,323.7,462.1,323.9,462,323.9C462,324,462,323.9,462,323.9z"/>
	<path class="st15" d="M384.6,252.9c1.1-1,2.5-0.8,3.7-0.6c9.4,1.3,18.9,0.9,28.2,0.5c14.2-0.7,28.4-0.8,42.5-3.1
		c3.9-0.6,7.9-2,12.1-1.1c-10.4,2.8-21.1,4-31.8,4.8c-17.4,1.4-34.9,1.4-52.3,0.1C386.2,253.4,385.4,253.1,384.6,252.9z"/>
	<path class="st2" d="M300,293.9c7.5,1.3,15.2,2.4,23.2,5c-3.3,1.6-5.6,0.2-7.9,0.1c-4.7-0.3-9.3-1.1-13.9-2.3
		c-1.3-0.3-3-0.4-2.6-2.6C299.2,294.1,299.6,294,300,293.9z"/>
	<path class="st11" d="M277.4,288.4c2.7,1.2,5.4,2.3,8.2,3.5c-9.6-0.8-18.7-3.3-27.3-7.4C264.9,284.8,270.9,288,277.4,288.4
		C277.5,288.4,277.4,288.4,277.4,288.4z"/>
	<path class="st2" d="M300.6,293.1c1.9-3,8.6-1.9,12.9,1.7C309,294.2,305.1,293.7,300.6,293.1z"/>
</g>
</svg>
