<?xml version="1.0" encoding="utf-8"?>
<!-- Generator: Adobe Illustrator 25.2.0, SVG Export Plug-In . SVG Version: 6.00 Build 0)  -->
<svg version="1.1" id="Livello_1" xmlns="http://www.w3.org/2000/svg" xmlns:xlink="http://www.w3.org/1999/xlink" x="0px" y="0px"
	 viewBox="0 0 841.9 595.3" style="enable-background:new 0 0 841.9 595.3;" xml:space="preserve">
<style type="text/css">
	.st0{fill:#FBFBFE;}
	.st1{fill:#FDC234;}
</style>
<g>
	<path class="st0" d="M0,596.6c88.3,0,176.6,0,265.2,0c0.2-17.1,0.4-30.1-2-43.8c-15.6-87.1-81.8-132-137.2-136.6
		c-41.9-3.5-84-3.9-126-5.7c0-27.4,0-54.7,0-82.1c28.5,3.7,31.7-30.7,48.7-47.8c-18.6,4.6-33.5-3.5-48.7-6.9c0-34.7,0-69.3,0-104
		c47,4,94.3,5.3,140.5-4.9C214,148.5,261.2,90.3,265.8,0c14.5,0,29,0,43.6,0c0,200.7,0,401.4,0,602.1 M102.4,254.7
		c-5.7,30.9-29.1,9.8-37.5,35.7c19.2-6.1,36.8-10.7,27.7,24.4c-1.3,4.9,4.4,10.8,11.6,6.8C106.2,302.6,106.7,283.3,102.4,254.7z"/>
	<path class="st1" d="M0,410.5c42,1.8,84.1,2.2,126,5.7c55.3,4.6,121.5,49.5,137.2,136.6c2.5,13.8,2.2,26.7,2,43.8
		c-88.6,0-176.9,0-265.2,0C0,534.6,0,472.5,0,410.5z"/>
	<path class="st1" d="M265.8,0c-4.6,90.3-51.8,148.5-125.3,164.8C94.3,175,47,173.7,0,169.7C0,113.1,0,56.6,0,0
		C88.6,0,177.2,0,265.8,0z"/>
</g>
</svg>
