<?xml version="1.0" encoding="utf-8"?>
<!-- Generator: Adobe Illustrator 25.2.0, SVG Export Plug-In . SVG Version: 6.00 Build 0)  -->
<svg version="1.1" id="Livello_1" xmlns="http://www.w3.org/2000/svg" xmlns:xlink="http://www.w3.org/1999/xlink" x="0px" y="0px"
	 viewBox="0 0 841.9 595.3" style="enable-background:new 0 0 841.9 595.3;" xml:space="preserve">
<style type="text/css">
	.st0{fill:#121112;}
	.st1{fill:#EF8176;}
	.st2{fill:#FCC136;}
	.st3{fill:#FFFEFF;}
</style>
<g>
	<path class="st0" d="M309.4,306.1c2.5,1.1,5.2,1.3,8,1.3c1.1,0,2.3,0.1,2.5,1.5c0.2,1.5-1.1,1.9-2.2,2.1c-3.7,0.5-7.4,0.4-10.9-1.2
		c-4.8-2.1-7.5-5.8-7.7-11.1c-0.1-3.2,0.5-6.3,1.8-9.1c3.6-7.4,9.5-12.7,16.5-16.7c2.2-1.2,2.6-1,4.3,0.1c5-9.9,13.7-11.4,23.5-10
		c7.2,1,13.6,4.2,19.3,8.8c0.4,0.4,0.8,0.7,1.4,0.8c11.6,0.8,23.3,0.2,35.5,0.5c-8.4-8.1-11.2-17.3-8.3-28.1
		c3-6.3,6.5-12.1,12.1-16.5c2.4-1.9,4.8-3.7,7.5-5.2c2.2-1.3,4.5-2.6,7-4c-1.6-1.3-2.5-3.4-4.8-2.6c-2.6,1-5.3,1.6-8.1,2.2
		c-6.5-0.7-6.5-0.7-9-2.4c-1.8,1.6-3.5,3.4-6.1,3.8c-0.6,0.1-1.3,0.3-1.9,0.2c-1.2-0.1-2.8-0.2-2.6-1.9c0.2-1.5,1.5-1,2.6-0.8
		c2.9,0.5,4.7-1.1,6-3.4c1.4-2.4,2.2-5.1,0.7-7.7c-1-1.7-2.6-1.4-4.2-0.9c-1.4,0.5-2.6,1.4-3.6,2.4c-1.2,1.2-2.2,1-3.2-0.4
		c-2-2.6-2.9-5.5-2.9-8.7c0-0.9,0-1.6-1.2-2c-5.5-1.6-8.7-4.6-11.1-10c-1.6,0.9-3.3,1.8-5.9,1.6c1.7,1.4,2.9,2.4,3.8,3.8
		c0.5,0.9,1,1.7,0.5,2.8c-0.5,1.2-1.4,1.3-1.9,0.4c-0.8-1.5-1.6-3-3-4.2c-1.3-1.2-3-1.7-4.4-2.1c-0.4-1.2,0.8-1.2,0.9-1.9
		c-2.1-1-3.2-2.8-4.1-5c-6.2,1.2-11-0.9-14.4-6.1c-1.2-1.8-1.9-3.8-1.6-6.1c0.2-1.5,0.7-3,2.9-3.5c0,3.2-0.8,6.3,1.4,8.9
		c2,2.4,4.4,4,7.4,5.2c0.3-1.1-0.5-1.4-1-1.8c-6.5-5.3-5.6-15.1,1.9-18.9c1.2-0.6,1.8-1.3,2.1-2.7c1.1-6.4,7.5-10.1,13.6-7.7
		c1.5,0.6,2.4,0.4,3.6-0.7c4.7-4.2,14.2-3.8,19.1,0.9c1,1,1.8,1.2,3.2,0.8c6.5-1.9,12.8,2.3,14.4,9.5c0.3,1.4,0.7,2,2.2,2.4
		c4.1,1.3,7,6.5,6.8,11.6c0,1-0.2,1.8,0.9,2.5c3.9,2.4,5.2,7.3,3.1,11.4c-0.7,1.3-0.9,2.6-1,4.2c-0.3,5.2-2.8,9.9-4.5,14.7
		c-0.8,2.1-3.1,3.1-5.2,4.3c1.7,0.9,3.3,1.5,5.1,0.8c0.7-0.3,1.3-0.9,2-0.2c1,0.8,0.1,1.6-0.1,2.7c1.5,0.9,3.1,1.8,4.2,3.2
		c0.5,0.6,1,0.6,1.7,0.5c16.2-4.4,31.6-2,46.4,5.5c2.7,1.7,5.3,3.3,8,5c15.3,12.3,26,27.6,30.7,46.8c3.3,13.5,3,27-1.4,40.1
		c-6.4,19.2-19.2,32-38.9,37.5c-0.9,0.3-1.9,0.2-3.4,1.4c18.1,0,35.5,0,53.1,0c0.6-1.3-0.1-1.7-1.8-1.7c-10.2,0-20.4-0.2-30.6-0.2
		c-1.2,0-2.3,0.1-3.4-0.4c-0.5-0.2-0.9-0.5-0.9-1.1c-0.1-0.7,0.3-1.1,0.9-1.3c0.8-0.2,1.6-0.4,2.4-0.4c11.7,0.1,23.4,0.2,35,0.3
		c3.2,0,3.6,0.6,3.5,3.8c-0.1,2.6,0,5.3,0,7.9c0,1.3-0.1,2.6-0.9,3.8c2.5,1.3,5,2.6,7.4,4c5.8,3.2,10.7,7.6,15.5,12.1
		c1.3,1.5,2.6,3.1,3.9,4.6c9.9,13,16,27.6,18.4,43.7c0.2,1.1,0.2,2.3,0.5,3.4c0.9,3.8-1.4,4.5-4.3,4.3c-10.7-0.7-21.4,0.1-32.3-0.2
		c-1,7.2-3.2,13.9-7.1,20c-3.9,6.1-9.1,10.7-15.6,14.3c0.9,0.7,1.8,0.4,2.6,0.4c7,0,14-0.1,21-0.2c1.1,0,2.3-0.1,3.1,1
		c1.4,2.1,0.5,4.2-2,4.4c-1.9,0.2-3.8,0.1-5.7,0.1c-14.7-0.2-29.5,0.6-44.2-0.5c-17.2-1.3-33-15.4-36.3-33.4
		c-0.4-1.9-0.4-3.9-0.6-5.9c-42.2,0-84.3,0-126.5,0c-0.8,7.3-2.9,13.9-6.8,20c-3.9,5.9-8.9,10.6-15.1,14.1c0.1,0.2,0.1,0.4,0.2,0.6
		c0.8,0,1.7,0,2.5,0c10.9-0.1,21.7-0.2,32.6-0.4c2.1,0,3.1,1,3.1,2.8c0.1,1.9-1.3,2.4-3,2.5c-17.5,0.3-35,1.1-52.6,0.4
		c-4.2-0.2-8.4-0.7-12.4-1.9c-15.9-4.9-28.3-19.1-28.7-36.3c0-0.5-0.1-1-0.1-1.6c-1.3-0.2-2.6-0.4-3.9-0.5c-2.3-0.1-3.1-1.5-3.1-3.6
		c-0.4-12.4,3-23.5,11.3-33c8.6-9.9,19.3-15.6,32.4-16.6c0.5,0,1-0.2,1.6-0.3c0.7-10.9,4.4-20.9,8.9-30.5
		c7.8-16.7,19.3-30.1,36.5-37.8c0.8-0.4,1.5-1,2.3-1.3c3.9-1.4,3.9-1.4,3.9-5.5c0-3.4,0-6.7,0.1-10.1c0-1.4,0.2-2.8,1.8-3.6
		c1.7,1.1,1.8,2.8,1.8,4.5c0.1,8.5,0.2,16.9,0.2,25.4c0.2,22,0.3,44,0.4,66.1c0.1,12.5,0,25,0,37.5c0,3.9,0,3.9,3.8,4
		c3,0,6.1,0,9.1,0.1c1.2,0,1.8-0.3,2.3-1.6c2-6,9.3-11.4,15.9-11.6c6.2-0.3,12.5-0.3,18.7-0.5c1.2,0,2.3-0.1,3.1,1
		c-0.1,1.8-1.3,2-2.8,2c-5.8,0.1-11.7,0.3-17.5,0.4c-2.7,0-5.1,0.6-7.1,2.4c-2.9,0.6-6.7,4.5-7.3,7.7c0.9,0.2,1.8,0.3,2.6-0.1
		c0.2,0.1,0.5,0.2,0.7,0.2c15.2,0,30.4,0,45.6,0c0.7,0,1.4,0,1.6-0.8c1.3-3.8,2.5-7.6,2.3-11.8c-1.2,0-2.2,0-3.2,0
		c-4.3-0.2-8.7,0.7-13-0.1c-0.7-1.9,0.4-2.4,2-2.4c4-0.1,8.1-0.1,12.1-0.1c1.2,0,2.1,0,2.1-1.6c-0.1-8.1,0.5-16.3-1-24.3
		c-1.2-6.7-3-13.1-6.4-19.1c-2.7-4.9-6.3-9-11.2-11.8c-0.6-0.3-1.1-0.7-1.6-1.1c-0.7-0.6-1.6-1.1-1.1-2.2c0.5-1,1.5-0.8,2.4-0.6
		c2,0.5,3.8,1.6,5.4,2.9c7.7,6.2,12,14.5,14.6,23.7c2.4,8.5,2.9,17.1,2.7,25.9c-0.1,4-0.2,8-0.4,12.1c-0.2,3.8-1.4,7.4-2.6,11.1
		c2.2,0.5,4.2,0.2,6.3,0.2c3.4-28.9,14.5-52.9,42.1-66.5c-0.6-0.6-1.3-0.3-2-0.3c-13.4,0-26.8,0.1-40.2,0.1c-4.4,0-4.6-0.3-4.6-4.6
		c0-1.3,0-2.6,0-3.9c-2.5,0-4.8,0.1-7.1,0c-1.5-0.1-4,0.5-4.2-1.4c-0.2-2.3,2.3-2.4,4-2.4c11-0.5,22-1.7,33-1.5c5,0.1,10,0,15.4,0
		c-1-5.8-3.1-10.9-6.2-15.6c-0.4-0.9-1-1.8-1.8-2.5c-2.3-3.8-5.5-6.7-9.4-8.7c-4.1-2.1-8.2-3.7-13.2-2.5c-3.3,0.8-6.8,0.8-10.3,0.3
		c-4.1-0.6-8.1-1.2-12.2-1.4c-11.2-0.7-21.3,1.9-30.4,8.7c-7.8,5.8-11.9,13.7-12.9,23.2c-1.1,8.6,1.7,16.2,6.4,23.1
		c5.1,7.4,11.8,13.4,17.3,20.4c3,3.8,6.8,6.9,9.7,10.8c2.8,3.7,6.2,5,10.6,4.3c0.2,0,0.3-0.1,0.5-0.1c0.9,0.1,1.8,0.2,2.7-0.2
		c0.2,0.1,0.4,0.1,0.6,0.2v0.1v-0.1c0.4,0,0.8,0.1,1.2,0.1c0.8,0.1,1.5,0.5,1.5,1.3c0.1,1-0.7,1.5-1.6,1.6
		c-4.3,0.2-8.5,0.3-12.8,0.5c-1.9,0.1-2.4-1.7-3.4-2.8c-4.3-4.8-8.8-9.3-12.9-14.3c-5.3-6.5-11.2-12.4-16.6-18.8
		c-14.3-17-9.7-47.2,15.5-57.2c5.4-2.1,11-3.3,16.7-3.9c0.7-0.1,1.4-0.2,2.6-0.3c-2-1.5-3.8-2.7-5.5-4c-6.1-4.7-11.1-10.2-14.5-17.2
		c-0.1-0.3-0.4-0.5-0.6-0.8c-2.1-6.1-3.9-12.3-3.1-18.9c-3.2-1.3-2.9,1.2-3.3,2.9c0-0.1-0.4-0.6,0.2-0.2v0.2c-0.1,2-0.3,3.9-0.1,5.8
		c0.2,3,0.6,6,2.8,8.3l0,0c0.3,1,1.1,2.1-0.3,2.8c-1.3,0.6-1.9-0.5-2.5-1.4s-1-1.9-1.6-2.9c-6.3,1.4-10.9-1.9-15.4-6.1
		c-0.8,2.6-1.8,4.8-3.9,6.3c-3.8,2.6-8.2,2.5-11-0.4c-2.8-2.8-3.1-7.5-0.6-11.1c4.1-5.9,10.9-6,15.4-0.3c3,3.8,6.5,7,11.4,8.3
		c2.7,0.7,3.2,0.3,2.8-2.5c-0.5-3.5-0.4-7,0.9-10.4c0.4-1.1,0.6-1.9-0.6-2.7c-6.8-4.3-14-7.6-22.3-7.6c-1.6,0-3.1,0.1-4.6,0.7
		c-4,1.2-7.6,2.9-9.6,6.9c-2,3.7-2.3,7.6-1.9,11.7c0.1,1.2,0.6,2.4-1,3.9c-2.8-5-1.6-9.9-1.1-15c-1.8,1.8-3.8,3.2-5.7,4.7
		c-4.6,3.6-8.4,7.8-10.8,13.2c-1.3,2.8-2,5.6-0.9,8.6C304.3,303.3,306.5,305.1,309.4,306.1z M446.9,335.8L446.9,335.8
		c-0.1,0.4,0,0.7,0.4,1c2,4.8,4.1,9.6,4.9,14.9c2.1-0.4,4.1,0.2,6-0.7c0.3-3.7-0.4-7.3-1.4-10.9c-2.7-9.1-7.1-17-16.6-20.7
		c-0.9-0.3-1.5-0.9-1.6-2c1.1-1,2.3-0.8,3.4-0.2c1.9,0.8,3.7,1.8,5.3,3.1c8.8,7.3,13,16.9,14.1,28c0.1,0.7-0.2,1.5,0.4,2
		c0.2,0,0.4,0.1,0.5,0.1c0.3,0,0.7-0.1,1-0.1c16-3.1,28.4-11.4,36.5-25.6c7.3-12.7,9.2-26.6,7.2-40.9c-0.8-5.4-1.7-10.9-4.1-15.9
		c-0.2-0.8-0.4-1.6-0.7-2.3c-4.3-11.1-11.1-20.5-19.8-28.7c-6.6-6.2-14.1-10.9-22.5-14.1c-20-7.8-41.7-2.4-52.9,8.3
		c0.1,0,0.1,0.1,0.2,0.1c0.2,0,0.5,0,0.7,0c10.8-1.4,21.1-0.4,30.9,5.2c16.1,9.1,24.8,22.5,23.5,41.1c-1.3,19.3-12.3,32.2-29.1,40.7
		c-1.3,0.6-2.7,1.1-4.4,1.8c8,3.1,13.4,8.5,17.7,15.3l0,0C446.5,335.5,446.5,335.8,446.9,335.8z M291.8,353L291.8,353
		c-0.7,0.5-0.5,1.5-0.9,2.1c-0.1,0.2-0.2,0.3-0.3,0.5l0,0c-2.6,4.6-4.5,9.4-5.8,14.5c-1.5,4.3-2.4,8.7-2.9,13.3
		c22.2,1,37.9,11.8,48.4,30.9c0.4-2.2-0.2-94.5-0.5-96.5c-11.8,1.1-31,18.7-37.5,34.2l0.1-0.1C291.9,352.2,291.9,352.6,291.8,353z
		 M344,283.4c-0.8-3.2-4.9-4.6-8.8-2.5c-2.6,1.4-3.1,5.3-1.1,8.2c1.8,1.9,4.2,2.4,6.4,1.4C343.2,289.2,344.4,286.7,344,283.4z
		 M304.4,392.3c-3.5-2.2-7.7-2.9-11.6-3.8c-12.8-2.8-24.7-1.1-35.9,6.3c-10.4,6.8-16.9,16-19.7,28c-0.7,3.1-1.1,6.3-0.6,9.6
		c2.1-0.1,4-0.2,6-0.3c3.9,0.3,7.9,0.3,11.8,0c1.2,0.2,2.4,0.2,3.5,0c0.8,0.1,1.6,0.2,2.5,0.2c22.4,0,44.9-0.1,67.3-0.1
		c2.5,0,3.3-0.8,2.9-3.1c-0.1-0.6-0.1-1.3-0.2-2c-1.4-8.2-4.7-15.5-10-21.9C316.1,399.9,310.4,395.9,304.4,392.3z M442,309.3
		c3-1.8,5.3-4.4,7.5-7c18.4-22.2,10.6-53.7-15.9-64.5c-2.4-1-5-1.6-7.5-2.3c-6.7-1.7-13.1-3-20,0.4c-10.1,4.9-14.6,17.4-8.1,28
		c2.2,3.6,5.1,6.4,8.6,8.7c1.2,0.8,1.7,1.8,1.3,3.1c-0.4,1.3-1.6,1.2-2.7,1.2c-7.2-0.1-14.5-0.2-21.7-0.2c-4.3,0-8.5-0.3-12.7,0.3
		c-1.3,24,19.8,44.5,45.2,42.5C425.9,319.7,434.3,315.3,442,309.3z M455.2,432c0.4,0,0.8,0.1,1.2,0.1c35,0.1,69.9,0.1,104.9,0.2
		c1.9,0,2.4-0.6,2.3-2.4c-0.7-8.2-3.1-15.9-6.6-23.4c-5.7-12.3-13-23.4-24.2-31.5c-6.6-4.7-13.6-9.2-21.9-9.5c-12-0.5-24-0.1-36,0
		c-2.3-0.5-4.4,0.2-6.5,0.7c-17.4,4.2-31.2,13.2-40.4,28.9c-4.5,7.7-7.5,15.8-9.4,24.5c-0.9,4.1-1.6,8.2-1.4,12.4
		c3.7,0,7.1,0,10.5,0c7.1,0.3,14.2,0.2,21.2,0C451,432.2,453.1,432.2,455.2,432z M450.8,437.5c-0.5,12.5,9.8,26.5,23,32.6
		c14.7,6.7,28.4,2.1,37.1-4.4c-12.5,5.2-24.4,5.6-36.2,0.1c-12-5.7-19.4-14.8-20.9-28.3C452.9,437.2,451.9,437.2,450.8,437.5z
		 M243.5,437.6c1.5,23.5,23.4,39.9,44.5,33.4c-22.4,1.2-36.2-10.4-40.2-33.5c-0.9,0-1.9,0-2.9,0C244.5,437.5,244,437.5,243.5,437.6z
		 M260.9,437.6c1.5,13.6,19.4,18.2,26.5,14.3c-11.2,1.1-23.2-3.3-24.2-14.5C262.5,437.4,261.7,437.2,260.9,437.6z M470.6,437.4
		c-0.9-0.2-1.6-0.3-2.6,0.3c4.7,11.5,13.5,15.6,25.3,14.3C483.7,452.3,471.9,447.6,470.6,437.4z M375.3,153.6
		c2.8-2.2,5.6-2.6,9.1-1.8C381.7,148.9,376.7,149.9,375.3,153.6z M351.6,170.1c-1.3,3.2,0.8,6.5,4.4,6.3
		C353.5,174.8,351.7,173,351.6,170.1z M405.2,208.1c3.1,1.5,5.6,0.3,6-2.9C409.8,207.7,407.6,207.6,405.2,208.1z"/>
	<path class="st0" d="M626,272.3c-0.3,25.2-1.4,49.8-2.4,74.5c-0.1,1.6,0,3.1-0.1,4.7c-0.3,4.1-0.8,4.5-4.8,4.5
		c-11.3,0-22.5,0-33.8,0c-16.4-0.1-32.8-0.2-49.1-0.3c-1.8,0-3.6,0.2-5.4,0.2c-1.4,0-3.3,0.1-3.4-2c0-2.1,1.8-2.1,3.3-2.1
		c10.4,0,20.9,0.1,31.3,0.1c2.5,0,5.3,0.7,7.3-0.4s2-4.3,2.9-6.5c3.6-8.9,7.1-17.9,10.6-26.8c5.4-13.9,10.8-27.9,16.2-41.8
		c0.5-1.2,0.8-2.5,1.3-4c-20.6-0.3-40.9-0.6-61.6-0.9c0,6,0.1,11.8,0,17.5c-0.2,18.4-0.6,36.8-0.8,55.2c0,0.7,0,1.3-0.1,2
		c-0.1,1.2-0.8,2-2.1,2s-1.8-0.9-2-2.1c-0.1-0.7,0-1.3,0-2c0.3-23.5,0.7-47,1.1-70.5c0.1-5.9,0.4-6.1,6.4-6c4.8,0.1,9.7,0,14.8,0
		c0.1-2.7,0.3-5.4,0.5-8.2c0.3-3.3,0.8-3.8,4.1-3.7c14.6,0.2,29.3,0.4,43.9,0.5c0.9,0,2,0.5,2.6-0.9c-0.7-0.9-1.8-0.7-2.7-0.8
		c-14.2-1.4-28.3-2.7-42.5-4.1c-0.7-0.1-1.3-0.2-2-0.3c-3.5-0.6-4.8-3.5-3-6.5c0.8-1.3,2.1-1,3.3-0.9c7,0.7,14.1,1.3,21.1,2
		c9,0.9,18,1.7,27,2.6c1.6,0.2,2.3-0.4,2.4-2.2c-5-0.7-10-1.3-15-2c-8.7-1.2-17.5-2-26.2-3.6c-2-0.4-2.7-1.3-2.5-3.2
		c0.4-3.1,0.8-6.2,1.2-9.3c0.3-2.2,1.9-2.2,3.5-2c4.7,0.6,9.4,1.3,14.2,2c9.5,1.3,19.1,2.6,28.6,4c1.3,0.2,2-0.1,2.4-1.4
		c0.7-2,1.5-4,2.4-6.2c-5.1-2.2-10.2-4.3-15.2-6.5c-3.2-1.4-6.5-2.8-9.7-4.2c-2.2-1-2.8-2.5-1.7-4.8c1.2-2.4,2.2-5,3.3-7.4
		c1.3-2.6,2.1-3,4.9-1.7c6.1,2.7,12.1,5.6,18.1,8.4c0.7,0.3,1.5,0.7,2.6,1.2c1.5-4.2,3-8.2,4.3-12.3c0.9-2.7,1.8-5.3,2.9-7.8
		c2.1-5,6.1-6.2,10.8-3.4c4,2.5,4.4,4.5,1.4,8.1c-3.6,4.5-7.2,8.9-10.8,13.4c-0.4,0.5-1.1,0.8-0.8,1.6c0.7,0.6,1.3,0,1.8-0.2
		c7.8-3.8,15.6-7.4,23.2-11.4c2.7-1.4,5.4-2.9,8.2-4.3c3.7-1.8,6.5-1.3,8.9,2c1.8,2.5,3.1,5.4,2.8,8.7c-0.2,2.7-1.3,3.7-4,4.1
		c-10.8,1.7-21.5,3.9-32.4,5.1c-1.1,0.1-2.3,0.6-3.1-0.8c0.5-1.7,2-1.5,3.2-1.7c10-2.1,20.1-3.4,30.2-5c2.7-0.4,3.4-1.4,2.8-4
		c-0.5-2.1-1.7-3.9-3-5.6c-1.5-1.8-3.4-1.3-5.1-0.2c-5.3,3.6-11.3,5.9-17,8.7c-5.5,2.7-11,5.4-17,8.3c5.7,2.7,10.8,5.1,16,7.5
		c4,1.9,8,3.8,12.1,5.6c1.6,0.7,1.9,1.7,1.3,3.1c-1.2,3-2.5,6.1-3.8,9.1c0.5,0.7,1.3,0.7,2,0.8c1,0.3,1.5,0.9,1.4,2
		c-0.4,2.8-0.8,5.7-1.2,8.5c-0.2,1.8-1.1,2.2-2.9,2.1c-12.5-1.1-24.9-3.3-37.3-4.9c-1.7-0.2-2.5,0.2-2.5,2
		c7.1,0.7,14.1,1.4,21.1,2.1c6.3,0.6,12.6,1.3,18.9,1.7c1.8,0.1,2.5,1,2.5,2.6c0,5.3-0.1,10.5-0.1,15.8c0,2.2-1.5,2.5-3.2,2.5
		c-7.8-0.1-15.6-0.1-23.5-0.2C628.4,272.3,627.3,272.3,626,272.3z M604.2,261.3c0.3-0.5,0.9-1,0.1-2.1c-14.9,0-30.1,0-45.3,0
		c0,2.8,0,5.5,0,8.3c0.8,0.4,1.5,0.3,2.2,0.2c1.1,0.2,2.1,0.2,3.2,0.1c10.9,0.2,21.9,0.5,32.8,0.7c4.7,0.1,4.7,0.1,6-4.6
		C603.8,263,604.1,262.2,604.2,261.3z M622.3,215.5c0.7-0.7,1.1-1.6,1.4-2.7c-8.1-3.7-16.2-7.4-24.4-11.1c-0.6,0.9-1,1.7-1.2,2.7
		c-0.8,1.9-1.7,3.8-2.6,5.9c8.3,3.6,16.4,7,24.6,10.5C621.1,219,621.9,217.4,622.3,215.5z M625.5,216.8c-1.3,1.5-1.6,3.4-2.2,5.4
		c9.5,4,18.8,8,28.2,12c0.9-1.8,1.9-3.2,2.4-5c0.6-0.5,1-1.1,0.9-2.1c-9.3-4.3-18.7-8.7-28.1-13
		C625.9,215.1,625.6,215.9,625.5,216.8z M653.4,241.9c0.8-1.4-0.3-1.2-1.1-1.3c-2-0.3-4.1-0.5-6.1-0.7c-8.4-1.2-16.9-2.4-25.3-3.5
		c-0.9-0.1-2.5-1.4-3,0.7c-0.8,1.6-1.5,3.2-1.9,5.2c12.3,1.6,24.4,3.2,36.7,4.8C653,245.1,653.2,243.5,653.4,241.9z M613.8,236.4
		c1.1-1.7-0.3-1.7-1.3-1.8c-4.9-0.8-9.7-1.5-14.6-2.2c-8.7-1.3-17.3-2.5-25.9-3.7c-0.7,0.7-0.6,1.3-0.5,2c-0.3,1.9-0.8,3.8-0.6,5.8
		c2.7,0.3,5.2,0.6,7.7,0.9c10.4,1.4,20.8,2.8,31.2,4.1c0.9,0.1,2,0.7,2.5-0.7C612.9,239.3,613.9,238,613.8,236.4z M607.4,264.1
		c-0.7,1.4-1.4,2.7-1.5,4.6c15.6,0,31.2,0,46.8,0c0-2.8,0-5.7,0-8.4c-0.1-0.1-0.2-0.2-0.3-0.2c-14.1-0.2-28.1-0.3-42.2-0.5
		c-1.2,0-1.6,0.6-1.7,1.6C607.9,262.1,607.5,263,607.4,264.1z M619.5,351.6c0.4-26.4,1.1-52.6,2.4-79.1c-4.6,0-8.9,0-13.2,0
		c-4.5,0-4.5,0-6.1,4.1c-7.7,20-15.4,40-23.1,59.9c-1.9,5-3.9,9.9-5.9,15.1C589,351.6,604.1,351.6,619.5,351.6z M623.7,209.4
		c2.5,2.1,3.7-0.1,6.2-1.2c-3.8-0.5-3.1-1.8-1.8-3.4c3.8-4.7,7.5-9.5,11.2-14.3c0.3-0.4,1-0.8,0.7-1.5c-0.8-1.7-2.3-2.6-4.1-2.7
		c-1.8-0.1-3.8-0.4-4.5,1.9C629.2,195.3,626.6,202.3,623.7,209.4z M559.3,245.5c-0.5,1.7,0.3,2,1.6,2.1c7.4,0.7,14.7,1.4,22.1,2.1
		c7.7,0.7,15.4,1.4,23.1,2.1c1.3,0.1,2.5,0.3,2.3-1.9C592.1,248.4,575.8,247,559.3,245.5z M646.9,235.9c-8-4.3-16.3-7.7-24.7-11.2
		c-0.9,2.4-1.7,4.5-2.6,7C628.8,233.1,637.9,234.1,646.9,235.9z M653.4,253.9c-3-0.3-6-0.5-9-0.8c-10-0.9-19.9-1.8-29.9-2.7
		c-1.3-0.1-2.5-0.2-2.4,1.7c2.1,0.7,4.2,0.7,6.3,0.9c10.9,1.1,21.7,2.1,32.6,3.2C652.7,256.4,653.8,256.3,653.4,253.9z M623.1,256.2
		c-2.1-0.2-4.1-0.5-6.2-0.7c-3.3-0.4-4.9-0.2-6.6,0.6C614.8,256.1,618.9,256.5,623.1,256.2z M647.5,236.2v0.1c0.2,0,0.4,0,0.5,0
		v-0.1C647.9,236.3,647.7,236.3,647.5,236.2z"/>
	<path class="st0" d="M451.9,157c-1.6,4.6-4.4,8.4-7.8,11.9c-2.1,2.2-4.4,2.7-7.2,1.8c-2.9-0.9-5.3-2.6-7.5-4.6
		c-6.2-5.7-10.2-12.7-13.3-20.5c-0.1-0.2-0.2-0.5-0.2-0.7c-0.3-1.2,0-2.2,1.3-2.5c1.2-0.3,1.9,0.3,2.2,1.4c1.3,4.6,3.6,8.7,6.2,12.7
		c0.6,0.9,1.3,1.6,2.3,2.9c-3.5-7.4-9.5-13.6-5.8-22.3c-1.3-0.5-2.2,0-3.1,1.1c-0.8,1.1-1.8,1.1-3,0.3c-9-6.2-13.4-14.9-13.8-25.6
		c0-1.1,0.2-2.3,0.4-3.4c0.3-1.1,0.9-2.1,2.2-1.8c1.3,0.3,1.3,1.3,1.2,2.4c-0.9,7,1.7,13.1,5.4,18.8c0.7,1.1,1.6,2.1,2.5,3
		c1.6,1.6,3,3.1,5.7,1.7c1.7-0.9,3.7-0.1,5.5,0.7c4.6,2.1,8,5.7,11.2,9.5c0.2,0.2,0.2,0.6,0.7,0.6c3.9,5.5,7.2,11.2,8,18.1
		c3.6-2.5,5.7-11.7,3.7-16c-0.8,1.3-1.5,2.7-2.4,4c-0.7,0.9-1.5,2.6-2.8,1.6c-1.5-1.1,0.4-1.9,0.9-2.8c1.6-2.9,3.2-6.1,1.8-9
		c-1.9-3.9-5.4-6.5-9.7-7.7c-3.5-1.6-7.1-1.8-10.8-1c-1.1,0.2-2.3,0.5-2.5-1c-0.2-1.3,1-1.6,1.9-1.7c12.9-1.5,23,4.1,26.9,16.5
		c0.7,2.1,0.7,4.4,0.9,6.6C452.6,153.5,452.2,155.3,451.9,157z M429,160.7L429,160.7L429,160.7c0.4-0.2,0.5,0.1,0.6,0.4
		c0.3,0,0.5,0.1,0.6,0.4c0.3,0,0.5,0.2,0.5,0.5c0.2,0.1,0.4,0.3,0.7,0.4c0.2,0.2,0.3,0.3,0.5,0.5c0.3,0.1,0.7,0.1,0.7,0.6
		c0.5-0.1,0.7,0.1,0.6,0.6l0.1-0.1l-0.1,0.1c-0.3,0-0.5-0.3-0.6-0.6c-0.4,0-0.7-0.1-0.7-0.6c-0.5,0.1-0.6-0.1-0.4-0.5
		c-0.4,0.2-0.6,0.1-0.6-0.4c-0.4,0-0.5-0.2-0.5-0.5c-0.3,0.1-0.5-0.1-0.5-0.4C429.4,161.1,429.2,160.9,429,160.7z"/>
	<path class="st0" d="M640.9,443.1c0.5,5.2-0.9,9.6-4.7,13c-4.9,4.4-11.1,4.5-16.1,0.2c-1-0.8-1.7-0.6-2.7-0.3
		c-5.7,1.7-12.6-0.9-15.8-5.9c-1.4-2.3-1.9-4.7-1-7.3c0.4-1.1,1-2.3,2.4-2c1.5,0.3,1.4,1.5,1.3,2.7c-0.3,3.3,1.5,6,4.8,7.5
		c2.8,1.2,5.7,1.5,8.6,0.3c1.2-0.5,2.2-0.6,3.1,0.5c2.6,2.9,5.7,4.3,9.5,2.9c4-1.5,6-4.7,6.5-8.8c0.2-1.4,0.2-2.8-0.1-4.2
		c-0.4-1.8,0.5-3.1,2.3-3c8,0.6,12-6.1,12.4-11.6c0.4-6.8-4.4-12.7-11.3-14.1c-0.5-0.1-1-0.3-1.5-0.3c-3.4,0.2-5.7-1-7.9-3.8
		c-2.9-3.9-9.3-4.7-14.4-2.8c-4.8,1.9-7.3,5.6-7.2,10.9c0,2.2-0.9,2.9-3,2.9c-8.4,0.1-12.6,5.5-10.6,13.5c0.5,1.9-0.1,3-2,3
		c-3.4,0-6.7-0.1-10.1-0.3c-1.2-0.1-2.9-0.2-2.9-2c0-2,1.6-2.1,3-2.2c2.5-0.1,5.1,0,7.7,0c-0.2-9.5,4.9-14.5,13.8-16.1
		c1.1-7.6,5-12.2,11.9-14c6.8-1.7,13.4,0.6,17.6,6.4c0.5,0.7,0.9,1.2,1.9,0.9c8.5-2.8,20.2,6,18.9,18.8
		C654.9,435.2,651.7,441.5,640.9,443.1z"/>
	<path class="st1" d="M359.9,424.4c2-1.8,4.4-2.4,7.1-2.4c5.8,0,11.7-0.2,17.5-0.4c1.4,0,2.7-0.2,2.8-2c0.7,0,1.3-0.1,2-0.1
		c4.3,0.9,8.7,0,13,0.1c1,0,1.9,0,3.2,0c0.2,4.2-1,8-2.3,11.8c-0.3,0.8-0.9,0.8-1.6,0.8c-15.2,0-30.4,0-45.6,0
		c-0.2,0-0.5-0.1-0.7-0.2C355.6,428.7,358.5,427,359.9,424.4z"/>
	<path class="st1" d="M441,333.4c0.8,0.7,1.4,1.6,1.8,2.5c-10.2,0.7-20.3,1.5-30.5,2.1c-9.9,0.6-19.8,1.1-29.8,1.7
		c-2.7,0.2-3.2,0.9-2.5,3.5c0.5,2.2-0.5,3.6-2.9,3.8c-1.1,0.1-2.3,0.1-3.4,0.1c-0.1,0-0.2,0.2-0.3,0.3c1.6,4.1,4.3,7.4,7,10.8
		c8.5,10.7,14.4,22.9,17.4,36.3c1.2,5.5,2.5,11.1,2.1,16.8c-0.9,0.4-1.8,0.3-2.7,0.2c0-2.5-0.2-4.9-0.6-7.4
		c-2.2-14.9-7.5-28.6-16.3-41c-2.9-4-7.6-6.7-8.7-12c0-0.2-0.3-0.4-0.5-0.5c-1.4-1-1.8-2.3-1.3-3.9c0.6-1.9,2.1-2.6,3.8-3
		c0.9-0.2,1.8,0.3,2.6-0.4c0-4.4,1-5.3,5.3-6.2c2.6-0.5,5.2-0.3,7.9-0.5C406.5,335.3,423.8,334.5,441,333.4z"/>
	<path class="st0" d="M398,227.8c-3.5,3.3-5.5,7.6-7.4,12c-0.4,1.1-0.6,2.5-2.2,1.9c-1.4-0.5-0.9-1.9-0.5-3c0.3-0.9,0.7-1.8,1.2-3
		c-4.4,1.2-8.5,2.5-12.7,3.1c-6.1,0.8-12.3,0.7-17.9-2.1c-8.7-4.3-15.1-11.3-13-22.8c0-0.2,0-0.5-0.1-0.8c-0.6-0.3-1.1-0.5-1.7-0.8
		c-3.6-1.6-5.3-4.6-4.3-8.4c2.1-8.1,7-14.1,14.6-17.9c0.8-0.4,1.7-0.8,2.5,0.1c-0.1,1.3-1.3,1.6-2.1,2.2c-3.8,2.5-7.3,5.3-9.5,9.4
		c-1,1.9-2,3.8-2.4,5.9c-0.7,3.5,0.3,5.3,3.7,6.4c1.6,0.5,2.5,1.2,2.2,3.1c-1.4,11.8,5.4,18.6,13.6,21.5c5.9,2.1,11.8,2.1,17.6,0.8
		c4.2-0.9,8.4-2.5,12.3-4.8c0.8-0.5,1.4-1.1,1.9-1.8c2.4-3.3,4.9-6.4,8.1-8.9c1.3-1,2.2-1.2,3.1,0.4c-0.2,0.9-1,1.4-1.6,2
		C401.5,224,399.3,225.5,398,227.8z"/>
	<path class="st0" d="M672.6,392c-2-1.9-4.5-2.4-7.1-1.7c-3.4,0.8-4.3,3.6-2.1,6.3c0.6,0.7,1.4,1.2,1.8,2c0.9,1.6,0.5,3-1,4.3
		c-2.2,2-2.1,4.8,0.1,6.3c1.3,0.8,2.8,1.1,3.8-0.1c1.7-2,3.1-1.3,4.9-0.2c3.3,2,7.4,0.1,8.2-3.7c0.4-2,0.1-3.8-2-4.8
		c-1.3-0.6-2.1-1.6-1.2-2.9c0.8-1.3,2.1-1.1,3.3-0.5c3.6,1.8,5.2,6.3,3.7,10.4c-2.2,6.1-8,8.1-14,4.9c-4.5,2.9-8.4,2.7-11.2-0.5
		c-2.9-3.4-2.5-7.6,1.3-11.9c-0.6-0.7-1.2-1.3-1.7-2c-2.1-2.9-1.8-6.7,0.5-9.3c4.7-5.2,14.6-3.4,17,3.3c0.6,1.7,0.7,3.2-1.2,4.2
		c-1-0.1-1.9-0.6-2.2-1.7C673.5,393.5,673.5,392.5,672.6,392z"/>
	<path class="st2" d="M544.4,279.9c-0.5,2.2-0.3,4.1-0.2,5.9c0.5,7.5,0.2,14.9,0.4,22.4c0,1.2,0.2,2.7-1.6,2.8
		c-1.7,0.1-1.8-1.4-1.8-2.6c-0.1-9-0.3-18-0.4-27.1c0-3.8,0.2-4.2,3.9-4.2c9.4-0.1,18.9,0.1,28.3,0.2c1.6,0,3.3,0,4.9,0.1
		c0.7,0,1.6,0.2,1.6,1.2c0,1.1-0.9,1.3-1.7,1.3c-2.6,0-5.3,0.1-7.9,0.1C561.5,279.9,552.9,279.9,544.4,279.9z"/>
	<path class="st2" d="M436.5,132.4c4.3,1.2,7.8,3.9,9.7,7.7c1.4,3-0.2,6.2-1.8,9c-0.5,0.9-2.3,1.7-0.9,2.8c1.4,1,2.2-0.7,2.8-1.6
		c0.9-1.2,1.6-2.6,2.4-4c1.9,4.3-0.2,13.5-3.7,16c-0.8-6.9-4.1-12.7-8-18.1c-0.7-3.5-3-5.8-5.6-8c-0.6-0.5-1.5-0.8-1.3-1.8
		s1-1.5,1.8-1.8C433.4,132.2,435,132.3,436.5,132.4z"/>
	<path class="st1" d="M610.1,421.9c0.3-3.2,1-6,2.6-8.5c3.6-5.7,10.1-7.2,15.8-3.6c2,1.3,3.6,2.9,4.9,4.8c0.8,1.1,1.1,2.4-0.2,3.2
		c-1.3,0.8-2.3,0.1-3-1.1c-0.6-1.1-1.3-2.1-2.2-2.9c-5.4-4.5-12.7-2-14.2,5.1c-0.4,1.8-0.5,3.7-0.9,5.6c-0.3,1.2-1,1.8-2.3,1.3
		c-4.8-1.8-8.6,0.6-9.1,5.8c-0.1,0.7,0,1.3,0,2c0,0.9,0.2,2-1,2.2s-1.8-0.8-2.1-1.7c-0.8-2.3-0.8-4.7,0.6-6.9
		C601.4,423,605,421.1,610.1,421.9z"/>
	<path class="st1" d="M398,227.8c1.3-2.2,3.5-3.7,5.3-5.5c0.6-0.6,1.4-1.1,1.6-2c0.6-0.5,1.3-0.9,1.9-1.4c2.7-0.5,5.4-1.2,8.1-2.2
		c2.3-0.8,3.2,1.3,4.8,2.6c-2.5,1.4-4.8,2.7-7,4c-2.6,1.5-5.1,3.4-7.5,5.2c-5.6,4.3-9.1,10.2-12.1,16.5c-1.7-0.4-2.2-1.3-1.6-3
		C392.9,236.9,395.7,232.5,398,227.8z"/>
	<path class="st0" d="M318.5,224.4c0,5-1.8,8.1-4.4,8.6c-2.5,0.5-5.6-1.7-7.1-5.4c-1.6-4.1-2.3-8.3-0.1-12.3
		c1.7-3.1,4.5-3.5,7.1-1.2C317.5,217,318.3,221,318.5,224.4z M310.1,225.7c-0.1,0.4,0.1,0.8,0.4,1.1c0.1,1,0.7,1.6,1.4,2.3
		c1.4,1.4,2.5,1.2,3.3-0.7c1.5-3.7-0.1-9.7-3.2-12.2c-1.7-1-2.4,0.1-2.8,1.4C308.3,220.4,308.5,223.2,310.1,225.7L310.1,225.7z"/>
	<path class="st2" d="M309.4,306.1c-2.9-1-5.1-2.8-6-5.9c0.2-5.2,1.8-9.9,5.7-13.6c0.6-0.6,1.5-1,2.2-1.5c2.4,5.7,2.3,11.4-0.4,17
		c-0.4,0.8-1,1.5-0.7,2.5C310,305.1,309.7,305.6,309.4,306.1z"/>
	<path class="st0" d="M279.6,229.9c0.2-2.3,0.6-4.7,2.8-5.7c2.4-1.1,4.5,0.3,6.1,2c3.1,3.4,4.2,7.5,4.1,12c0,2-0.9,3.9-3,4.7
		c-2.1,0.7-3.9,0-5.4-1.5C281,238.2,280,234.1,279.6,229.9z M285.3,238.3c0.7,1.3,1.9,2.4,3.3,1.9s1.3-2.2,1.2-3.5
		c-0.1-3.8-1.3-7-4.6-9.3c-1.8-1.3-2.6-0.2-2.7,1.4C282.2,232.3,282.8,235.6,285.3,238.3z"/>
	<path class="st2" d="M478.2,228.6c-2.7-1.7-5.3-3.3-8-5c8.4-0.4,16.7,0.4,25.1,0.4c1.3,0,2.6,0.5,2.4,2.2c-0.2,1.6-1.3,1.9-2.7,1.9
		c-4.7,0-9.4-0.1-14-0.1C480,228,479,227.7,478.2,228.6z"/>
	<path class="st0" d="M315.3,265.4c-2.1-0.2-4-0.9-5.8-1.9c-6.6-3.7-12.4-8.4-16.5-14.8c-0.2-0.3-0.5-0.7-0.6-1
		c-0.5-1.1-1.8-2.5-0.5-3.3c1.4-1,1.9,1,2.6,1.9c4.4,5.8,9.3,11.1,15.7,14.8c1.7,1,3.5,1.9,5.5,2.2c0.8,0.1,1.6,0.3,1.5,1.3
		C316.9,265.3,316.1,265.5,315.3,265.4z"/>
	<path class="st1" d="M551.9,298.5c0,3.5,0,7.1,0,10.6c0,1.2-0.1,2.5-1.8,2.4c-1.5-0.1-1.5-1.3-1.5-2.4c0-7.6,0-15.1,0-22.7
		c0-0.4,0-0.8,0.1-1.2c0.1-0.9,0.5-1.7,1.5-1.6c0.9,0,1.1,0.9,1.2,1.6c0.6,3.3,0.3,6.7,0.4,10.1C552,296.4,551.9,297.5,551.9,298.5z
		"/>
	<path class="st0" d="M314.5,235.3c1.1,0.2,1.3,1.2,1.5,2c0.8,3.1,1.8,6.1,3.2,9c2.1,4.5,4.7,8.6,8.5,11.9c0.6,0.5,1.4,1.1,0.6,2
		c-0.7,0.9-1.5,0.4-2.2-0.1c-1.2-1-2.4-2-3.4-3.2c-4.6-5.5-7.7-11.8-9.3-18.8C313.1,237,313.1,235.9,314.5,235.3z"/>
	<path class="st1" d="M596.1,403.3c-3,0-5.5-2.2-5.4-4.9c0-2.5,2.7-5.8,4.6-5.8c3.1,0,5.7,2.3,5.7,5.2
		C600.9,401.1,598.9,403.4,596.1,403.3z M595.8,396.5c-0.9,0.1-2.1-0.2-2.1,1.1c0,1.5,1.1,2.1,2.5,2.2c1.3,0.1,1.7-0.9,1.7-1.9
		C597.9,396.5,596.7,396.5,595.8,396.5z"/>
	<path class="st0" d="M547.8,476.8c-1.5,0-2.9,0.1-4.4,0c-1.4-0.1-2.7-0.7-2.7-2.3c0-1.5,0.7-2.8,2.3-2.9c3.1-0.2,6.2-0.4,9.3-0.4
		c1.6,0,2.2,1.3,2.2,2.7c0,1.4-0.7,2.4-2.1,2.6c-1.5,0.2-3.1,0.2-4.7,0.2C547.8,476.7,547.8,476.7,547.8,476.8z"/>
	<path class="st2" d="M563.6,377.3c-1.9-0.1-3.8-0.1-5.6-0.3c-1.3-0.2-2.4-0.8-2.3-2.4c0.1-1.4,1.2-1.9,2.4-1.9
		c3.5-0.1,7-0.2,10.5-0.2c1.4,0,3,0.5,2.9,2.3c-0.1,1.7-1.5,2.2-3,2.2c-1.6,0.1-3.3,0-4.9,0C563.6,377.1,563.6,377.2,563.6,377.3z"
		/>
	<path class="st0" d="M310.2,304.6c-0.3-1,0.4-1.7,0.7-2.5c2.7-5.6,2.9-11.3,0.4-17c0.1-0.8-0.4-1.8,0.8-2.1
		c1.1-0.3,1.6,0.6,2.1,1.3c1.3,2.1,1.8,4.6,1.9,7c0.2,4-0.6,7.8-2.6,11.3C312.8,303.9,312,305.1,310.2,304.6z"/>
	<path class="st2" d="M514.2,237.6c1.8,0,3.6,0,5.4,0c1.4,0,2.5,0.7,2.5,2.2c0,1.4-1.2,2.1-2.6,2.1c-3.6,0-7.2,0-10.8,0
		c-1.4,0-2.8-0.6-2.8-2.2c0-1.6,1.4-2,2.8-2.1C510.6,237.6,512.4,237.6,514.2,237.6L514.2,237.6z"/>
	<path class="st1" d="M373.7,213.4c-2.6,0-4.4-1.8-4.3-4.3s2.3-4.6,4.8-4.6c2.4,0,4.3,2,4.4,4.4
		C378.5,211.4,376.3,213.4,373.7,213.4z"/>
	<path class="st2" d="M451.9,157c0.3-1.7,0.6-3.5,1-5.2c2.9,0,5.9,0,8.8,0c1.5,0,2.9,0.5,2.9,2.3s-0.9,3-2.8,3
		C458.5,157.1,455.2,157,451.9,157z"/>
	<path class="st0" d="M349.4,477.1c-1.6,0-3.1,0.1-4.7,0c-1.3-0.1-2.4-0.9-2.2-2.4c0.2-1.3,0.9-2.5,2.5-2.5c3-0.1,6,0.5,8.9,0.9
		c1.1,0.2,1.7,1,1.6,2.1c-0.1,1.2-0.8,2-2,2.1c-1.4,0.1-2.8,0-4.2,0C349.4,477.2,349.4,477.1,349.4,477.1z"/>
	<path class="st2" d="M549.5,385.9c-1.3-1.5-2.6-3.1-3.9-4.6c4.6-0.4,9.1,0,13.7,0.1c1.3,0,2.3,0.6,2.3,2c0,1.5-1,2.1-2.5,2.1
		c-2.4,0-4.7,0-7.1,0C551.2,385.4,550.2,385.2,549.5,385.9z"/>
	<path class="st1" d="M364,279.7c0.4-1.7,0.1-4.1,3.3-2.9c-0.8,6.6,1,12.8,3.1,18.9c-1.8,0.5-2.3-1.5-3.5-1.9l0,0
		C365.1,289.3,363.9,284.6,364,279.7z"/>
	<path class="st2" d="M468.9,147.7c-1.3,0-2.6,0-3.9,0c-1.1,0-1.9-0.7-2-1.8c-0.2-1.2,0.7-1.9,1.7-2.1c3-0.7,6-0.5,9,0
		c1,0.1,1.5,0.9,1.4,2c-0.1,1-0.8,1.7-1.7,1.8C471.8,147.7,470.3,147.7,468.9,147.7C468.9,147.8,468.9,147.7,468.9,147.7z"/>
	<path class="st1" d="M672.1,428.2c0,2.3-2,4.1-4.4,4.1c-2.3,0-4-2.1-3.9-4.8c0.1-1.7,2.3-3.3,4.3-3.2
		C670.4,424.3,672.1,426,672.1,428.2z M666.7,429.2c0.9,0.9,1.6,0.8,2.2-0.2c0.3-0.4,0.2-1.1-0.4-1.2
		C667.5,427.5,667,428.2,666.7,429.2z"/>
	<path class="st1" d="M324.9,273.2c2-4,5.6-5.7,9.6-6.9c0.2,2.3-0.4,4.3-1.9,6C330.4,274.8,328.2,275,324.9,273.2z"/>
	<path class="st1" d="M672.6,392c0.9,0.5,0.9,1.5,1.1,2.3c0.3,1.1,1.1,1.5,2.2,1.7c-0.3,2.2-1.6,2.2-3.1,1.3
		c-1.3-0.8-2.4-1.2-3.2,0.6c-0.3,0.6-0.5,1.3-1.4,1.1c-0.8-0.2-1.3-0.7-1.6-1.4c-0.7-1.7,0.4-4.1,2.1-4.9
		C670,392,671.4,392.2,672.6,392z"/>
	<path class="st0" d="M329,277.6c0.3,1.5-1,2.4-1.1,3.7c-0.3,2.5-0.3,4.9,0.7,7.2c0.4,0.9,0.7,1.8-0.5,2.3c-1.1,0.4-1.7-0.4-2-1.3
		c-1.5-3.4-1.7-6.8-0.2-10.2C326.4,278.1,327.2,276.9,329,277.6z"/>
	<path class="st0" d="M355.7,219.3c-1.7,0-3.1-0.3-4.1-1.4c-0.4-0.4-0.7-0.9-0.5-1.6c0.2-0.7,0.8-0.8,1.4-0.7
		c2.9,0.6,5.7,0.6,8.3-1.2c0.5-0.4,1.1-0.1,1.5,0.5c0.4,0.8,0.1,1.4-0.5,1.9C359.9,218.5,357.8,219.2,355.7,219.3z"/>
	<path class="st0" d="M388.9,212.2c-1-1.5,0-2.6,1.3-3.4c1.5-0.9,3.2-1.6,4.5-0.1c1.2,1.3-0.7,1.3-1.3,1.7c0.2,1.5,0.3,2.9-0.4,4.2
		c-0.4,0.7-0.9,1.5-1.9,1.1c-0.9-0.4-0.6-1.2-0.4-1.9s0.4-1.4,0.6-2.2C390.2,211.2,390,212.8,388.9,212.2z"/>
	<path class="st0" d="M362.6,199.1c-0.2,1.8-1,3.2-3,3.3c-1.7,0.1-2.7-1-2.7-2.8c0-1.6,1.9-3.6,3.3-3.4
		C361.9,196.3,362.5,197.5,362.6,199.1z"/>
	<path class="st1" d="M584.6,445.8c-0.1,1.9-0.9,3-2.5,3s-3.2-0.7-3.2-2.7c0-1.9,1.1-2.8,3-2.8C583.7,443.3,584.5,444.3,584.6,445.8
		z"/>
	<path class="st0" d="M429,183.4c-0.1,1.4-0.4,2.8-1.1,4c-0.3,0.6-0.9,1-1.6,0.8c-0.7-0.3-1-0.9-0.7-1.6c0.9-2,1.2-4.1,0.1-6.1
		c-0.2-0.4,0-0.8,0.4-1c0.5-0.2,1-0.1,1.4,0.3C428.5,180.7,428.9,182,429,183.4z"/>
	<path class="st0" d="M376.6,142.4c1.1,0.1,2.4-0.1,2.4,1.2s-1.3,0.8-2.2,0.9c-1.7,0.1-3.4,0.5-4.9,1.4c-0.6,0.4-1.3,1-1.9,0.2
		c-0.6-0.9,0.2-1.5,0.9-2C372.6,142.9,374.7,142.6,376.6,142.4z"/>
	<path class="st1" d="M643.5,400.4c0.2-1.2,0.6-2.5,2.2-2.3c1.6,0.2,3.1,0.8,3,2.8c-0.1,1.6-1.2,2.4-2.6,2.3
		C644.6,403,643.5,402.1,643.5,400.4z"/>
	<path class="st0" d="M451,137.2c-0.9-0.1-1.6-0.6-1.5-1.6c0.1-1.1,1-1.5,1.9-1.5s1.4,0.6,1.4,1.4C452.7,136.6,452,137.1,451,137.2z
		"/>
	<path class="st1" d="M543,319.4c-1-0.1-1.5-0.7-1.5-1.6c0-1,0.4-1.8,1.6-1.8c1,0,1.4,0.7,1.5,1.6C544.6,318.7,544,319.3,543,319.4z
		"/>
	<path class="st1" d="M543.2,322.5c0.9,0.1,1.3,0.7,1.2,1.5c-0.1,0.9-0.6,1.6-1.5,1.6s-1.2-0.7-1.2-1.5
		C541.8,323.2,542.2,322.5,543.2,322.5z"/>
	<polygon class="st1" points="400.6,411.5 400.6,411.6 400.6,411.5 400.6,411.4 	"/>
	<path class="st2" d="M474.9,365.5c12,0,24-0.4,36,0c8.3,0.3,15.3,4.8,21.9,9.5c11.2,8.1,18.5,19.1,24.2,31.5
		c3.4,7.4,5.9,15.2,6.6,23.4c0.2,1.9-0.4,2.4-2.3,2.4c-35-0.1-69.9-0.1-104.9-0.2c-0.4,0-0.8-0.1-1.2-0.1c0.2-2.4-0.2-4.8,0.3-7.1
		c2.1-9.2,6.4-17.1,13.1-23.9c2.9-2.9,6.2-5.1,9.5-7.3c4.6-3.2,10-4.8,15.4-5.9c5.7-0.8,11.3-0.2,16.8,1.5c1.3,0.4,2.5,0.7,3.1-0.8
		c0.6-1.5-0.5-2.2-1.8-2.7c-4.4-1.4-8.9-2.5-13.5-2.6c-13.8-0.1-25.6,4.7-35.8,13.9c-6.1,5.6-11,11.9-14.1,19.6
		c-1.1,2.8-1.9,5.8-2.2,8.8c-0.1,1.7,0.3,3,2.4,2.7c0.1,1.3,0.3,2.5,0.4,3.8c-7.1,0.2-14.2,0.4-21.2,0c-1.1-14.4,3.3-27.4,10.8-39.4
		c4.6-7.3,10.7-13,17.7-17.9C461.9,370.7,468.3,367.9,474.9,365.5z M516.4,391.4c1,1.7,2.6,1.5,3.7,2.4c3.2,2.4,6.5,4.6,8.3,8.4
		c0.3,0.5,0.8,0.9,1.4,0.6c0.6-0.3,0.6-1,0.3-1.5c-0.3-0.7-0.6-1.3-1.1-1.9c-1.8-2.5-4.1-4.4-6.5-6.2
		C521.1,391.9,519.2,390.4,516.4,391.4z M533.6,406.3c-0.2-0.7-0.5-1.4-1.4-1.5c-1,0-1.2,0.7-1.2,1.5c0,0.9,0.5,1.4,1.4,1.3
		C533.1,407.6,533.5,407.1,533.6,406.3z"/>
	<path class="st3" d="M415.8,319.4c-25.4,2-46.5-18.4-45.2-42.5c4.2-0.6,8.5-0.3,12.7-0.3c7.2,0,14.5,0.1,21.7,0.2
		c1.1,0,2.2,0.1,2.7-1.2c0.5-1.3-0.1-2.3-1.3-3.1c-3.4-2.3-6.4-5.1-8.6-8.7c-6.5-10.6-2-23.1,8.1-28c6.9-3.4,13.3-2.1,20-0.4
		c2.6,0.6,5.1,1.3,7.5,2.3c26.5,10.8,34.3,42.3,15.9,64.5c-2.2,2.7-4.5,5.2-7.5,7c-1.2-2.3-3.4-3.1-5.6-3.5
		c-6.7-1.5-12.4,0.8-17.3,5.4C416.7,313.3,415.6,316.1,415.8,319.4z M443.4,274.2c0.1-16.9-8.7-29.6-22-34.6
		c-3.5-1.3-7.1-2.1-10.8-2.4c-0.9-0.1-2,0-2.1,1.2c-0.1,1.1,0.9,1.4,1.9,1.5c0.3,0,0.7,0,1,0.1c6.9,0.8,13.2,3.2,18.6,7.7
		c11.8,9.8,14.7,25.8,6.7,38.9c-5.4,8.9-13.4,14.5-23.7,16c-13.7,2-25.4-1.6-34-13.1c-0.7-0.9-1.3-1.9-2-2.8c-0.6-0.7-1.1-2-2.3-1.3
		c-1.3,0.8-0.5,1.9-0.1,2.8c0.5,1,1.1,2,1.8,2.9c10.2,13.9,30.2,18.8,46.1,11.3C435.7,296.2,442.8,285.9,443.4,274.2z M382.7,282.8
		c-0.2-0.7-0.6-1.7-1.7-1.5c-1.1,0.1-2.1,0.8-2,2.1c0.1,1,0.8,1.6,1.9,1.5C382,284.9,382.6,284.2,382.7,282.8z M385.1,290.2
		c1.2-0.1,1.7-0.9,1.8-2c0.1-0.9-0.6-1.6-1.5-1.6c-1.2,0.1-2,0.9-2,2.1C383.4,289.7,384.2,290.1,385.1,290.2z"/>
	<path class="st3" d="M502.8,268c2.4,5,3.3,10.5,4.1,15.9c2,14.4,0.2,28.2-7.2,40.9c-8.1,14.2-20.5,22.5-36.5,25.6
		c-0.3,0.1-0.7,0.1-1,0.1c-0.2,0-0.3,0-0.5-0.1c-0.7-0.6-0.4-1.4-0.4-2c-1.2-11.1-5.3-20.8-14.1-28c-1.6-1.3-3.4-2.3-5.3-3.1
		c-1.2-0.5-2.4-0.8-3.4,0.2c-4.4,1.9-4.5,3.2-0.9,6.1c3.9,3.2,7.2,6.9,9,11.7c-4.3-6.7-9.7-12.2-17.7-15.3c1.7-0.7,3.1-1.1,4.4-1.8
		c16.9-8.4,27.9-21.3,29.1-40.7c1.2-18.6-7.5-32-23.5-41.1c-9.7-5.5-20-6.6-30.9-5.2c-0.2,0-0.5,0-0.7,0c-0.1,0-0.1-0.1-0.2-0.1
		c11.2-10.7,32.9-16.1,52.9-8.3c-3.7,2.6-7.3,5.3-9.6,9.4c-2,3.5-1.5,4.7,2,6.6c9.7,5.1,15.7,13,17.4,23.9c0.5,3.2,0.7,6.5,1.1,9.8
		c0.2,1.4,0.4,3.1,2.1,3.6c1.6,0.5,3.2,0.4,4.4-1.2c0.5-0.6,1.2-1.1,1.9-1.5C486.5,269.4,494.3,267.2,502.8,268z M467.5,292.4
		c-0.1-2.7-0.2-5.2-1-7.6c-0.3-1-0.8-2-1.3-2.9c-0.4-0.6-1-1.2-1.8-0.7s-0.3,1.1-0.1,1.7c0.4,1.1,0.9,2.1,1.1,3.3
		c1.4,6.8,0.1,13.3-2.5,19.5c-2.1,4.9-4.7,9.5-10.1,11.7c-0.8,0.3-1,1.1-0.8,1.8c0.2,0.8,1,0.9,1.6,0.8c0.9-0.2,1.9-0.6,2.7-1
		c2.8-1.5,4.4-4,6-6.6C465,306.1,467.2,299.6,467.5,292.4z M467.5,316c-0.3-0.9-1-1.9-2-1.8c-1.3,0.1-1.7,1.4-1.8,2.5
		c-0.1,1.1,0.7,1.7,1.8,1.5C466.7,318,467.3,317.2,467.5,316z M459.8,324.2c1.1-0.1,1.7-0.7,1.7-1.8c0-1.2-0.7-1.8-1.9-1.8
		c-1,0-1.5,0.7-1.6,1.6C458,323.3,458.8,323.9,459.8,324.2z M469.9,307.2c-1.1,0.2-1.6,1-1.6,2.1c0,0.8,0.5,1.5,1.4,1.4
		c1.2-0.1,1.9-1,1.8-2.2C471.4,307.6,470.8,307.2,469.9,307.2z"/>
	<path class="st2" d="M254.5,432.2c-3.9,0.2-7.9,0.2-11.8,0c0.2-1.5,0.4-2.9,0.7-4.4c3.1-16.3,12.6-27.7,27.5-34.6
		c5-2.3,10.6-3.1,16.1-3.2c5.9-0.2,11.7,0.9,17.5,2.3c6,3.6,11.6,7.6,16.1,13c5.3,6.4,8.6,13.7,10,21.9c0.1,0.6,0.1,1.3,0.2,2
		c0.4,2.3-0.4,3.1-2.9,3.1c-22.4-0.1-44.9,0-67.3,0.1c-0.8,0-1.6-0.1-2.4-0.2c-0.2-3.7,0.6-7.3,1.9-10.8c1.4-3.9,3.8-7.4,6.1-10.8
		c0.6-1.1,1.6-1.6,2.6-2.1c4.1-1.9,8.3-3.1,12.9-2.8c1.2,0.1,2.2-0.2,2.4-1.6c0.2-1.4-0.8-1.8-2-2c-0.5-0.1-1-0.2-1.5-0.2
		c-4.3-0.3-8.6,0.4-12.5,2.2c-8.1,3.7-13.2,9.9-15,18.7c-0.4,1.9-0.9,4.2,1.6,5.4C254.6,429.5,254.5,430.9,254.5,432.2z
		 M288.6,404.3c0.5,0.5,0.7,0.7,0.9,0.8c4.4,0.6,8.3,2,10.9,5.9c0.3,0.5,0.9,0.9,1.4,0.3c0.5-0.5,0.2-1.1-0.1-1.5
		c-1.7-2.5-4.1-3.9-6.8-5C293,403.8,291,403.4,288.6,404.3z"/>
	<path class="st3" d="M441,333.4c-17.2,1-34.4,1.8-51.6,3.2c-2.6,0.2-5.2,0-7.9,0.5c-4.3,0.9-5.2,1.8-5.3,6.2
		c-0.8,0.7-1.7,0.2-2.6,0.4c-1.8,0.4-3.3,1.1-3.8,3c-0.5,1.6,0,2.9,1.3,3.9c0.2,0.1,0.5,0.3,0.5,0.5c1.1,5.3,5.8,8,8.7,12
		c8.8,12.4,14.1,26.1,16.3,41c0.4,2.4,0.6,4.9,0.6,7.4c-0.2,0-0.3,0.1-0.5,0.1c-4.4,0.7-7.8-0.6-10.6-4.3c-2.9-3.8-6.7-7-9.7-10.8
		c-5.6-7-12.3-13-17.3-20.4c-4.8-7-7.5-14.5-6.4-23.1c1.7,1.9,3.4,0.6,5.2,0.1c9.8-2.8,13.7-17.4,7.7-23.3c9-6.7,19.2-9.3,30.4-8.7
		c4.1,0.3,8.2,0.8,12.2,1.4c3.5,0.5,7,0.5,10.3-0.3c4.9-1.2,9,0.4,13.2,2.5C435.5,326.7,438.7,329.6,441,333.4z"/>
	<path class="st3" d="M292.3,352c6.5-15.5,25.8-33.1,37.5-34.2c0.3,2,0.9,94.3,0.5,96.5c-10.5-19.2-26.2-29.9-48.4-30.9
		c0.5-4.5,1.4-9,2.9-13.3c0.5,0.1,0.9,0.3,1.4,0.4c0.8,1.6,2.3,2,3.8,2.3c5.2,0.9,9.7-0.9,13.8-3.9c7-5,11.1-12.1,13.7-20.1
		c2.2-6.8,2.8-13.6,1.3-20.6c-0.2-0.9-0.4-1.8-1.5-2.1c-1.2-0.3-1.8,0.4-2.2,1.4c-0.3,0-0.7-0.1-0.9,0.1c-4.5,3.3-8.6,7-12.1,11.3
		C298.7,343.2,295.6,347.7,292.3,352z M324.9,393.6c0.1,0,0.1,0,0.2,0c0,2.4,0,4.8,0,7.1c0,1,0.5,1.8,1.6,1.8c0.9,0,1.2-0.7,1.2-1.6
		c-0.1-4.8,0-9.5-0.6-14.2c-0.1-0.7-0.3-1.6-1.3-1.5c-0.9,0.1-1,1-1,1.7C324.9,389.2,324.9,391.4,324.9,393.6z M326.9,380
		c0-0.9-0.3-1.7-1.3-1.7c-1.1-0.1-1.6,0.7-1.6,1.7s0.5,1.5,1.5,1.6C326.6,381.6,326.8,380.9,326.9,380z M326.7,373.6
		c-0.1-0.9-0.7-1.3-1.5-1.1c-0.9,0.1-1.2,0.7-1.2,1.6c0,1,0.7,1.3,1.5,1.1C326.3,375,326.7,374.4,326.7,373.6z"/>
	<path class="st2" d="M502.8,268c-8.5-0.8-16.2,1.4-23.6,5.4c-0.7,0.4-1.5,0.9-1.9,1.5c-1.2,1.6-2.8,1.7-4.4,1.2
		c-1.7-0.5-1.9-2.2-2.1-3.6c-0.4-3.2-0.6-6.5-1.1-9.8c-1.7-10.9-7.7-18.8-17.4-23.9c-3.5-1.8-4-3.1-2-6.6c2.3-4,5.9-6.8,9.6-9.4
		c8.4,3.3,15.8,8,22.5,14.1c8.7,8.1,15.5,17.5,19.8,28.7C502.4,266.4,502.6,267.2,502.8,268z"/>
	<path class="st2" d="M286.2,370.5c-0.5-0.1-0.9-0.3-1.4-0.4c1.2-5.1,3.2-9.9,5.8-14.5l0,0c0.1-0.2,0.2-0.3,0.3-0.5
		c0.3-0.7,0.6-1.4,1-2.2h-0.1c0.2-0.3,0.4-0.7,0.6-1l-0.1,0.1c3.3-4.4,6.4-8.9,9.9-13c3.6-4.2,7.6-8,12.1-11.3
		c0.2-0.2,0.6-0.1,0.9-0.1c1.7,5,1.9,10.1,0.7,15.3c-2,8.8-5.5,16.8-12.8,22.7c-4.2,3.4-8.9,5.3-14.4,4
		C287.6,369.3,286.8,369.6,286.2,370.5z"/>
	<path class="st3" d="M474.9,365.5c-6.5,2.4-13,5.1-18.7,9.2c-7,4.9-13.1,10.7-17.7,17.9c-7.6,12-11.9,25-10.8,39.4
		c-3.4,0-6.9,0-10.5,0c-0.2-4.2,0.5-8.3,1.4-12.4c1.9-8.6,5-16.8,9.4-24.5c9.2-15.7,23-24.8,40.4-28.9
		C470.5,365.7,472.6,365,474.9,365.5z"/>
	<path class="st3" d="M304.4,392.3c-5.7-1.4-11.5-2.5-17.5-2.3c-5.5,0.2-11,0.9-16.1,3.2c-14.9,6.9-24.4,18.3-27.5,34.6
		c-0.3,1.4-0.5,2.9-0.7,4.4c-1.9,0.1-3.9,0.2-6,0.3c-0.5-3.4-0.1-6.5,0.6-9.6c2.7-12,9.3-21.2,19.7-28c11.2-7.4,23.2-9,35.9-6.3
		C296.8,389.4,300.9,390.1,304.4,392.3z"/>
	<path class="st3" d="M450.8,437.5c1.1-0.3,2.1-0.2,3.1,0c1.5,13.5,8.9,22.6,20.9,28.3c11.7,5.5,23.6,5.1,36.2-0.1
		c-8.7,6.5-22.5,11.1-37.1,4.4C460.6,464,450.3,450,450.8,437.5z"/>
	<path class="st1" d="M446.4,335.2c-1.8-4.8-5.1-8.5-9-11.7c-3.6-2.9-3.4-4.2,0.9-6.1c0.1,1,0.7,1.6,1.6,2
		c9.5,3.7,13.9,11.5,16.6,20.7c1,3.5,1.8,7.1,1.4,10.9c-1.9,0.9-3.8,0.3-6,0.7c-0.8-5.4-2.8-10.1-4.9-14.9c-0.1-0.3-0.3-0.7-0.4-1
		c0,0,0.1,0.1,0,0.1C446.7,335.6,446.6,335.4,446.4,335.2L446.4,335.2z"/>
	<path class="st3" d="M448.9,432c-0.1-1.3-0.3-2.5-0.4-3.8c1.2-0.5,1.4-1.5,1.6-2.6c2.9-14.9,12.2-25.1,24.8-32.6
		c5.7-3.4,12.1-5.1,18.7-5.3c-5.5,1.1-10.8,2.7-15.4,5.9c-3.3,2.3-6.7,4.4-9.5,7.3c-6.6,6.7-11,14.7-13.1,23.9
		c-0.5,2.4-0.2,4.8-0.3,7.1C453.1,432.2,451,432.2,448.9,432z"/>
	<path class="st1" d="M415.8,319.4c-0.2-3.3,0.9-6.1,3.3-8.4c4.9-4.5,10.5-6.9,17.3-5.4c2.2,0.5,4.4,1.3,5.6,3.5
		C434.3,315.3,425.9,319.7,415.8,319.4z"/>
	<path class="st1" d="M365.5,329.8c6,5.9,2.1,20.5-7.7,23.3c-1.7,0.5-3.5,1.8-5.2-0.1C353.6,343.4,357.7,335.6,365.5,329.8z"/>
	<path class="st3" d="M243.5,437.6c0.5,0,0.9-0.1,1.4-0.1c1,0,1.9,0,2.9,0c4,23.2,17.8,34.7,40.2,33.5
		C266.9,477.5,245.1,461.1,243.5,437.6z"/>
	<path class="st2" d="M344,283.4c0.5,3.2-0.8,5.8-3.5,7.1c-2.2,1.1-4.5,0.5-6.4-1.4c-0.6-4.2,1.2-6.8,4.9-7.3
		C341,281.5,342.4,282.5,344,283.4z"/>
	<path class="st3" d="M260.9,437.6c0.9-0.4,1.6-0.2,2.3-0.2c0.9,11.2,13,15.6,24.2,14.5C280.2,455.8,262.4,451.2,260.9,437.6z"/>
	<path class="st3" d="M266,410.6c-2.3,3.4-4.7,6.8-6.1,10.8c-1.3,3.5-2,7.1-1.9,10.8c-1.2,0.2-2.4,0.2-3.5,0c0-1.4,0.1-2.7,0.1-4.1
		c1.7-0.4,2-1.7,2.1-3.2c0.3-5,2.5-9.1,6.1-12.4C263.8,411.8,264.5,410.5,266,410.6z"/>
	<path class="st3" d="M470.6,437.4c1.3,10.2,13.1,14.8,22.7,14.7c-11.8,1.2-20.6-2.8-25.3-14.3C469,437.2,469.7,437.2,470.6,437.4z"
		/>
	<path class="st3" d="M344,283.4c-1.5-1-3-1.9-5-1.6c-3.7,0.5-5.5,3.1-4.9,7.3c-2-2.9-1.5-6.7,1.1-8.2
		C339.1,278.8,343.1,280.3,344,283.4z"/>
	<path class="st3" d="M359.9,424.4c-1.4,2.6-4.4,4.3-4.6,7.6c-0.9,0.4-1.7,0.3-2.6,0.1C353.3,428.9,357,425,359.9,424.4z"/>
	<path class="st3" d="M375.3,153.6c1.5-3.7,6.4-4.7,9.1-1.8C380.9,151.1,378.1,151.5,375.3,153.6z"/>
	<path class="st3" d="M351.6,170.1c0,2.9,1.9,4.7,4.4,6.3C352.5,176.5,350.3,173.2,351.6,170.1z"/>
	<path class="st3" d="M364,279.7c-0.1,4.9,1.2,9.6,2.9,14.2c-2.3-2.3-2.6-5.3-2.8-8.3c-0.2-1.9,0.1-3.9,0.1-5.8c0-0.1,0.1-0.2,0-0.2
		C363.6,279.1,364,279.5,364,279.7z"/>
	<path class="st3" d="M405.2,208.1c2.4-0.5,4.6-0.4,6-2.9C410.8,208.4,408.3,209.6,405.2,208.1z"/>
	<path class="st3" d="M291.8,352.9c-0.3,0.7-0.6,1.4-1,2.2C291.3,354.4,291.1,353.5,291.8,352.9z"/>
	<path class="st3" d="M446.8,335.7c0.1,0.3,0.3,0.7,0.4,1C446.9,336.5,446.8,336.1,446.8,335.7z"/>
	<path class="st3" d="M292.3,352c-0.2,0.3-0.4,0.7-0.6,1C291.9,352.6,291.9,352.2,292.3,352z"/>
	<path class="st3" d="M290.6,355.6L290.6,355.6L290.6,355.6z"/>
	<path class="st3" d="M446.4,335.2c0.2,0.2,0.3,0.4,0.5,0.5C446.5,335.8,446.5,335.5,446.4,335.2z"/>
	<path class="st3" d="M619.5,351.6c-15.4,0-30.5,0-46,0c2-5.2,4-10.1,5.9-15.1c7.7-20,15.4-40,23.1-59.9c1.6-4.2,1.6-4.2,6.1-4.1
		c4.3,0,8.7,0,13.2,0C620.6,299.1,619.9,325.2,619.5,351.6z M604.6,348.6c0-0.1,0-0.1,0-0.2c2.9,0,5.7,0,8.6,0
		c1.2,0,2.6-0.2,2.5-1.7c-0.2-3.9,0.2-7.9-0.4-11.8c-0.2-1.5-1.1-2.2-2.6-2c-5.6,0.7-11.2,0.4-16.7,0.4c-1.7,0-2.6,0.7-2.8,2.4
		c-0.3,3.4-0.2,6.9,0,10.3c0.1,1.7,1.2,2.6,3,2.6C599,348.6,601.8,348.6,604.6,348.6z"/>
	<path class="st3" d="M608.5,261.2c0.1-1.1,0.5-1.6,1.7-1.6c14.1,0.2,28.1,0.4,42.2,0.5c0.1,0,0.1,0.1,0.3,0.2c0,2.8,0,5.6,0,8.4
		c-15.7,0-31.2,0-46.8,0c0.1-1.9,0.8-3.2,1.5-4.6c5,0,10,0,15,0c1.1,0,2.6,0.3,2.6-1.4c0-1.6-1.6-1.3-2.7-1.4
		C617.7,261.3,613.1,261.2,608.5,261.2z"/>
	<path class="st1" d="M613.8,236.4c0.2,1.6-0.9,2.9-1.4,4.4c-0.5,1.4-1.7,0.8-2.5,0.7c-10.4-1.3-20.8-2.7-31.2-4.1
		c-2.5-0.3-5-0.6-7.7-0.9c-0.2-2,0.2-3.9,0.6-5.8c2.9,0.3,5.9,0.4,8.8,0.8C591.5,232.8,602.7,234.4,613.8,236.4z"/>
	<path class="st1" d="M653.4,241.9c-0.2,1.6-0.5,3.2-0.8,5.1c-12.3-1.6-24.4-3.2-36.7-4.8c0.4-2,1.1-3.6,1.9-5.2
		c7.4,1,14.8,1.9,22.2,3.1C644.5,240.8,649.1,240.7,653.4,241.9z"/>
	<path class="st3" d="M653.8,229.3c-0.5,1.8-1.5,3.2-2.4,5c-9.4-4-18.7-8-28.2-12c0.6-2,1-3.9,2.2-5.4c0.3,0.3,0.6,0.6,0.9,0.8
		C635.5,221.5,644.6,225.4,653.8,229.3z"/>
	<path class="st3" d="M603.2,263.8c-1.3,4.7-1.3,4.7-6,4.6c-10.9-0.2-21.9-0.5-32.8-0.7c-0.1-1.4-0.2-2.7-0.4-3.9
		C577.2,263.8,590.2,263.8,603.2,263.8z"/>
	<path class="st3" d="M622.3,215.5c-0.4,1.9-1.2,3.5-2.2,5.3c-8.2-3.5-16.3-7-24.6-10.5c0.9-2.1,1.7-4,2.6-5.9
		c2.3,1.2,4.6,2.5,6.9,3.6C610.7,210.6,616.3,213.5,622.3,215.5z"/>
	<path class="st2" d="M603.2,263.8c-13,0-26,0-39.2,0c0.1,1.2,0.2,2.5,0.4,3.9c-1.1,0.2-2.1,0.2-3.2-0.1c-0.1-1.1-0.2-2.1-0.2-3.2
		c-0.1-3.9,0.1-4.1,3.9-4c4.9,0,9.8,0.2,14.7,0.3c8.2,0.2,16.4-0.1,24.6,0.5C604.1,262.2,603.8,263,603.2,263.8z"/>
	<path class="st3" d="M623.7,209.4c2.9-7.1,5.4-14,7.6-21.2c0.7-2.3,2.8-2,4.5-1.9c1.8,0.1,3.3,1,4.1,2.7c0.3,0.6-0.4,1-0.7,1.5
		c-3.7,4.8-7.4,9.5-11.2,14.3c-1.2,1.6-2,2.9,1.8,3.4C627.4,209.3,626.2,211.4,623.7,209.4z"/>
	<path class="st2" d="M559.3,245.5c16.5,1.5,32.8,2.9,49,4.4c0.3,2.2-1,2.1-2.3,1.9c-7.7-0.7-15.4-1.4-23.1-2.1
		c-7.4-0.7-14.7-1.4-22.1-2.1C559.6,247.5,558.8,247.2,559.3,245.5z"/>
	<path class="st3" d="M646.9,235.9c-9-1.9-18.1-2.8-27.3-4.3c0.9-2.4,1.7-4.5,2.6-7C630.7,228.3,639,231.7,646.9,235.9z"/>
	<path class="st2" d="M653.4,253.9c0.4,2.3-0.7,2.5-2.4,2.3c-10.9-1.1-21.7-2.1-32.6-3.2c-2.1-0.2-4.3-0.2-6.3-0.9
		c-0.2-2,1.1-1.9,2.4-1.7c10,0.9,19.9,1.8,29.9,2.7C647.4,253.4,650.4,253.7,653.4,253.9z"/>
	<path class="st2" d="M622.3,215.5c-6-2-11.5-4.9-17.2-7.5c-2.4-1.1-4.6-2.4-6.9-3.6c0.2-1,0.5-1.9,1.2-2.7
		c8.1,3.7,16.2,7.4,24.4,11.1C623.4,214,623,214.8,622.3,215.5z"/>
	<path class="st2" d="M653.8,229.3c-9.1-3.9-18.3-7.8-27.4-11.7c-0.3-0.1-0.6-0.5-0.9-0.8c0.2-0.9,0.4-1.7,1.2-2.6
		c9.4,4.3,18.8,8.7,28.1,13C654.7,228.2,654.4,228.8,653.8,229.3z"/>
	<path class="st3" d="M604.2,261.3c-8.2-0.6-16.4-0.4-24.6-0.5c-4.9-0.1-9.8-0.3-14.7-0.3c-3.8,0-4,0.2-3.9,4c0,1.1,0.1,2.1,0.2,3.2
		c-0.7,0.1-1.5,0.2-2.2-0.2c0-2.7,0-5.5,0-8.3c15.2,0,30.4,0,45.3,0C605.1,260.2,604.5,260.7,604.2,261.3z"/>
	<path class="st3" d="M613.8,236.4c-11.1-2-22.3-3.6-33.5-5c-2.9-0.4-5.9-0.5-8.8-0.8c-0.1-0.7-0.2-1.3,0.5-2
		c8.6,1.2,17.2,2.5,25.9,3.7c4.9,0.7,9.7,1.5,14.6,2.2C613.5,234.7,614.8,234.7,613.8,236.4z"/>
	<path class="st2" d="M608.5,261.2c4.6,0.1,9.2,0.1,13.8,0.2c1.1,0,2.6-0.3,2.7,1.4c0,1.7-1.5,1.4-2.6,1.4c-5,0-10,0-15,0
		C607.5,263,607.9,262.1,608.5,261.2z"/>
	<path class="st3" d="M653.4,241.9c-4.4-1.2-8.9-1.1-13.4-1.8c-7.4-1.2-14.8-2.1-22.2-3.1c0.5-2.1,2.1-0.8,3-0.7
		c8.5,1.1,16.9,2.3,25.3,3.5c2,0.3,4.1,0.5,6.1,0.7C653.1,240.7,654.3,240.5,653.4,241.9z"/>
	<path class="st3" d="M623.1,256.2c-4.2,0.2-8.3-0.1-12.8-0.1c1.6-0.9,3.3-1,6.6-0.6C618.9,255.7,621,256,623.1,256.2z"/>
	<path class="st3" d="M647.5,236.2c0.2,0,0.4,0,0.5,0v0.1c-0.2,0-0.4,0-0.5,0C647.5,236.3,647.5,236.3,647.5,236.2z"/>
	<path class="st3" d="M431.7,163c0,0.4,0.4,0.5,0.7,0.6h0.1C432.4,163.2,432.1,163.1,431.7,163L431.7,163z"/>
	<path class="st3" d="M433,164.2c0.1-0.5-0.1-0.7-0.6-0.6h-0.1C432.5,163.9,432.6,164.1,433,164.2L433,164.2z"/>
	<path class="st3" d="M431.7,163.1c-0.2-0.2-0.3-0.3-0.5-0.5l0,0C431.1,162.9,431.2,163.1,431.7,163.1
		C431.7,163,431.7,163.1,431.7,163.1z"/>
	<path class="st3" d="M431.3,162.6c-0.2-0.1-0.4-0.3-0.7-0.4l0,0C430.6,162.6,430.8,162.7,431.3,162.6
		C431.2,162.5,431.3,162.6,431.3,162.6z"/>
	<path class="st3" d="M430.1,161.6c0,0.4,0.1,0.5,0.5,0.5l0,0C430.6,161.8,430.5,161.6,430.1,161.6L430.1,161.6z"/>
	<path class="st3" d="M433,164.2l0.1-0.1C433.1,164.1,433,164.2,433,164.2L433,164.2z"/>
	<path class="st3" d="M429.6,161.2c0,0.3,0.2,0.5,0.5,0.4l0,0C430.1,161.3,429.9,161.2,429.6,161.2L429.6,161.2z"/>
	<path class="st3" d="M429,160.7c0.2,0.2,0.4,0.3,0.6,0.5l0,0C429.5,160.8,429.4,160.5,429,160.7L429,160.7z"/>
	<path class="st3" d="M428.9,160.6h0.1C429,160.7,429,160.7,428.9,160.6C429,160.7,428.9,160.6,428.9,160.6z"/>
	<path class="st2" d="M311.8,216.1c3.2,2.6,4.8,8.5,3.2,12.2c-0.8,1.9-1.9,2.1-3.3,0.7c-0.6-0.6-1.3-1.3-1.4-2.3
		c-0.1-0.4-0.2-0.7-0.4-1.1v0.1C310,222.4,308.9,218.9,311.8,216.1z"/>
	<path class="st3" d="M311.8,216.1c-2.9,2.8-1.8,6.3-1.8,9.6c-1.6-2.6-1.8-5.3-1-8.2C309.4,216.2,310.1,215.1,311.8,216.1z"/>
	<path class="st3" d="M310.1,225.7c0.1,0.4,0.2,0.7,0.4,1.1C310.1,226.5,310,226.1,310.1,225.7z"/>
	<path class="st2" d="M285.2,227.5c3.3,2.2,4.5,5.5,4.6,9.3c0,1.3,0.1,3-1.2,3.5c-1.4,0.5-2.6-0.7-3.3-1.9c-0.2-1.2-0.5-2.4-0.7-3.5
		C284.2,232.3,283.7,229.8,285.2,227.5z"/>
	<path class="st3" d="M285.2,227.5c-1.5,2.3-1,4.8-0.6,7.3c0.2,1.2,0.5,2.4,0.7,3.5c-2.5-2.6-3.1-5.9-2.8-9.4
		C282.6,227.3,283.4,226.2,285.2,227.5z"/>
	<path class="st3" d="M595.8,396.5c1,0,2.1,0,2.1,1.4c0,1-0.4,2-1.7,1.9c-1.4-0.1-2.5-0.7-2.5-2.2
		C593.7,396.3,594.9,396.6,595.8,396.5z"/>
	<path class="st3" d="M666.7,429.2c0.3-1,0.8-1.6,1.9-1.4c0.6,0.1,0.6,0.8,0.4,1.2C668.3,429.9,667.6,430.1,666.7,429.2z"/>
	<path class="st0" d="M493.5,387.7c-6.7,0.3-13.1,2-18.7,5.3c-12.6,7.5-21.9,17.7-24.8,32.6c-0.2,1.1-0.4,2.1-1.6,2.6
		c-2.2,0.4-2.6-1-2.4-2.7c0.3-3,1.1-6,2.2-8.8c3.1-7.7,8-14.1,14.1-19.6c10.2-9.2,22-14,35.8-13.9c4.7,0,9.1,1.1,13.5,2.6
		c1.3,0.4,2.4,1.1,1.8,2.7c-0.6,1.5-1.9,1.2-3.1,0.8C504.8,387.5,499.2,386.9,493.5,387.7z"/>
	<path class="st3" d="M516.4,391.4c2.7-1,4.7,0.5,6.2,1.7c2.3,1.8,4.7,3.8,6.5,6.2c0.4,0.6,0.8,1.2,1.1,1.9c0.2,0.5,0.3,1.2-0.3,1.5
		c-0.6,0.4-1.1,0-1.4-0.6c-1.8-3.8-5.1-6-8.3-8.4C519.1,392.9,517.4,393.1,516.4,391.4z"/>
	<path class="st3" d="M533.6,406.3c0,0.8-0.4,1.3-1.2,1.3c-0.9,0.1-1.4-0.5-1.4-1.3s0.3-1.5,1.2-1.5
		C533.1,404.9,533.4,405.6,533.6,406.3z"/>
	<path class="st1" d="M443.4,274.2c-0.6,11.7-7.7,22-20.9,28.2c-15.9,7.5-35.8,2.7-46.1-11.3c-0.7-0.9-1.3-1.9-1.8-2.9
		c-0.4-0.9-1.2-2.1,0.1-2.8c1.2-0.7,1.7,0.6,2.3,1.3c0.7,0.9,1.3,1.9,2,2.8c8.6,11.4,20.3,15.1,34,13.1c10.4-1.5,18.3-7.1,23.7-16
		c8-13.1,5.1-29.1-6.7-38.9c-5.4-4.5-11.7-6.9-18.6-7.7c-0.3,0-0.7,0-1-0.1c-1-0.1-1.9-0.4-1.9-1.5c0.1-1.2,1.1-1.3,2.1-1.2
		c3.7,0.3,7.3,1.1,10.8,2.4C434.7,244.5,443.5,257.2,443.4,274.2z"/>
	<path class="st1" d="M382.7,282.8c0,1.4-0.6,2.1-1.8,2.1c-1,0-1.8-0.5-1.9-1.5c-0.1-1.3,0.9-1.9,2-2.1
		C382.1,281.2,382.4,282.1,382.7,282.8z"/>
	<path class="st1" d="M385.1,290.2c-0.9-0.1-1.7-0.5-1.7-1.5c0-1.2,0.8-2,2-2.1c0.9,0,1.6,0.6,1.5,1.6
		C386.8,289.3,386.2,290.1,385.1,290.2z"/>
	<path class="st1" d="M467.5,292.4c-0.2,7.1-2.4,13.7-6.2,19.9c-1.6,2.6-3.3,5.1-6,6.6c-0.9,0.5-1.8,0.8-2.7,1
		c-0.6,0.2-1.4,0-1.6-0.8s0-1.5,0.8-1.8c5.4-2.1,8-6.8,10.1-11.7c2.6-6.2,3.9-12.7,2.5-19.5c-0.2-1.1-0.7-2.2-1.1-3.3
		c-0.2-0.6-0.7-1.3,0.1-1.7c0.8-0.5,1.5,0.1,1.8,0.7c0.5,0.9,1,1.9,1.3,2.9C467.2,287.2,467.3,289.8,467.5,292.4z"/>
	<path class="st1" d="M467.5,316c-0.2,1.3-0.8,2.1-2,2.3c-1,0.1-1.8-0.4-1.8-1.5c0.1-1.1,0.5-2.4,1.8-2.5
		C466.5,314.1,467.1,315,467.5,316z"/>
	<path class="st1" d="M459.8,324.2c-1-0.3-1.8-0.9-1.7-2c0.1-0.9,0.6-1.6,1.6-1.6c1.1,0,1.9,0.7,1.9,1.8
		C461.6,323.5,460.9,324.1,459.8,324.2z"/>
	<path class="st1" d="M469.9,307.2c0.9,0,1.6,0.4,1.6,1.3c0,1.2-0.6,2.1-1.8,2.2c-0.9,0.1-1.4-0.6-1.4-1.4
		C468.3,308.2,468.8,307.4,469.9,307.2z"/>
	<path class="st0" d="M266,410.6c-1.6-0.1-2.2,1.2-3.2,2c-3.7,3.3-5.8,7.4-6.1,12.4c-0.1,1.5-0.5,2.8-2.1,3.2
		c-2.5-1.2-2-3.4-1.6-5.4c1.8-8.7,6.9-14.9,15-18.7c4-1.8,8.2-2.5,12.5-2.2c0.5,0,1,0.1,1.5,0.2c1.1,0.2,2.1,0.7,2,2
		c-0.2,1.3-1.2,1.7-2.4,1.6c-4.6-0.4-8.8,0.8-12.9,2.8C267.6,409,266.6,409.6,266,410.6z"/>
	<path class="st3" d="M288.6,404.3c2.4-0.8,4.3-0.4,6.2,0.3c2.7,1.1,5.1,2.5,6.8,5c0.3,0.5,0.7,1,0.1,1.5c-0.6,0.6-1.1,0.2-1.4-0.3
		c-2.6-3.8-6.5-5.3-10.9-5.9C289.3,405,289.2,404.7,288.6,404.3z"/>
	<path class="st0" d="M286.2,370.5c0.6-1,1.4-1.2,2.5-0.9c5.5,1.3,10.2-0.7,14.4-4c7.3-5.8,10.8-13.9,12.8-22.7
		c1.2-5.1,1-10.3-0.7-15.3c0.4-1,1-1.7,2.2-1.5c1.1,0.2,1.3,1.2,1.5,2.1c1.5,7,0.8,13.8-1.3,20.6c-2.6,8.1-6.7,15.1-13.7,20.1
		c-4.1,3-8.6,4.7-13.8,3.9C288.5,372.6,287,372.1,286.2,370.5z"/>
	<path class="st1" d="M324.9,393.6c0-2.2,0-4.4,0-6.6c0-0.7,0.1-1.6,1-1.7c1-0.1,1.2,0.8,1.3,1.5c0.7,4.7,0.5,9.5,0.6,14.2
		c0,0.8-0.3,1.6-1.2,1.6c-1.1,0-1.5-0.8-1.6-1.8c0-2.4,0-4.8,0-7.1C325,393.6,325,393.6,324.9,393.6z"/>
	<path class="st1" d="M326.9,380c0,0.9-0.3,1.6-1.4,1.6c-1,0-1.5-0.6-1.5-1.6s0.4-1.8,1.6-1.7C326.5,378.3,326.8,379.1,326.9,380z"
		/>
	<path class="st1" d="M326.7,373.6c0,0.9-0.4,1.5-1.3,1.6c-0.8,0.1-1.5-0.2-1.5-1.1c0-0.8,0.4-1.4,1.2-1.6
		C326,372.3,326.6,372.7,326.7,373.6z"/>
	<path class="st2" d="M604.6,348.6c-2.8,0-5.6,0-8.4,0c-1.8,0-2.9-0.9-3-2.6c-0.2-3.4-0.3-6.9,0-10.3c0.2-1.7,1-2.4,2.8-2.4
		c5.6,0,11.2,0.3,16.7-0.4c1.4-0.2,2.3,0.5,2.6,2c0.6,3.9,0.2,7.9,0.4,11.8c0.1,1.5-1.4,1.7-2.5,1.7c-2.9,0.1-5.7,0-8.6,0
		C604.6,348.5,604.6,348.5,604.6,348.6z"/>
</g>
</svg>
