<?xml version="1.0" encoding="utf-8"?>
<!-- Generator: Adobe Illustrator 25.2.0, SVG Export Plug-In . SVG Version: 6.00 Build 0)  -->
<svg version="1.1" id="Livello_1" xmlns="http://www.w3.org/2000/svg" xmlns:xlink="http://www.w3.org/1999/xlink" x="0px" y="0px"
	 viewBox="0 0 841.9 595.3" style="enable-background:new 0 0 841.9 595.3;" xml:space="preserve">
<style type="text/css">
	.st0{fill:#06A357;stroke:#1D1D1B;}
	.st1{fill:#BD8D30;stroke:#1D1D1B;}
	.st2{fill:#662A16;stroke:#1D1D1B;}
	.st3{fill:#FECE70;stroke:#1D1D1B;}
	.st4{fill:#402B21;stroke:#1D1D1B;}
	.st5{fill:#E6513E;stroke:#1D1D1B;}
	.st6{fill:#F9926A;stroke:#1D1D1B;}
	.st7{fill:#B84B27;stroke:#1D1D1B;}
	.st8{fill:#DF1B02;stroke:#1D1D1B;}
	.st9{fill:#9FD8BF;stroke:#1D1D1B;}
	.st10{fill:#5FCD98;stroke:#1D1D1B;}
	.st11{fill:#104A2F;stroke:#1D1D1B;}
	.st12{fill:#FEFEFE;stroke:#1D1D1B;}
</style>
<g>
	<path class="st0" d="M342.9,0c3.7,11.7,3.6,23.8,2.4,35.9c-0.6,6.2-2.6,12.1-5.5,17.6c-3.4,6.6-6.6,13.3-11.2,19.1
		c-2.8,3.5-6.4,5.8-10,8.1c-6.1,3.9-11.8,8.6-19,10.6c-2,0.5-3.8,0.4-5.7,0.4c-6.8,0.2-13.6,0.1-20.4-0.1c-3.8-0.1-7.4-1.9-10.8-3.7
		c-5.8-3.1-10.9-7.3-16.4-11c-4.7-3.3-7.9-8.1-10.5-13.2c-3.7-7-7.9-13.7-9.7-21.7c-0.7-2.9-1.2-5.9-1.2-8.9c0-7,0.4-14,0-20.9
		c-0.3-4.5,2.1-8.1,2.5-12.2C265.9,0,304.4,0,342.9,0z M276.1,68.2c0,3.6,0,7.2,0,10.8c1.4,0.2,2.6,0.5,3.8-0.2c0-3.5,0-7,0-10.5
		C278.5,67.7,277.4,67.8,276.1,68.2z M313.2,21.1c-1.3,1.1-2.8,1.9-1.4,3.6c1.7,1.9,3.2,4,5.3,5.3c1-0.6,1.9-1.1,2-2.2
		C317.1,25.6,315.2,23.4,313.2,21.1z M248.2,48.2c1.3,0.3,2.6,0.8,3.3-0.3c0.6-1.1,0.6-2.7,0-3.8c-0.8-1.3-2.1-0.8-3.2-0.4
		C247.8,45.2,247.9,46.6,248.2,48.2z M272,59.6c-0.1-1.2-0.6-2.2-1.8-2.2c-1.2,0-1.7,1-1.7,2.2c0,1.2,0.5,2.2,1.8,2.2
		C271.5,61.7,272,60.8,272,59.6z M287.1,36.4c1-0.2,1.8-0.8,1.7-1.9c-0.2-1.1-0.6-2.5-1.9-2.4c-1.1,0.1-1.5,1.4-1.5,2.5
		C285.3,35.7,286.1,36.3,287.1,36.4z M341,31.4c0.7-0.4,2.3,0.6,2.5-1.2c0.2-1.9-1.3-1.7-2.3-1.6c-1,0-2.5-0.5-2.6,1.4
		C338.5,31.6,339.8,31.3,341,31.4z M315.5,77.1c0.9-0.3,1.7-0.8,1.7-1.9c0-1.2-0.7-1.8-1.7-1.9c-1.1-0.1-1.7,0.6-1.7,1.8
		C313.8,76.3,314.4,76.9,315.5,77.1z M263.6,69.3c0-1.2-0.8-2-1.7-2c-0.9,0-1.7,0.7-1.7,2c0,1.1,0.7,1.7,1.5,1.8
		C262.8,71.2,263.5,70.5,263.6,69.3z M236.1,18.3c1-0.1,1.7-0.7,1.8-1.8c0.1-1.2-0.5-1.8-1.6-1.9c-1.1-0.1-1.8,0.7-1.9,1.7
		C234.3,17.4,235.1,18,236.1,18.3z M244.8,23.4c0-1.2-0.6-2-1.7-2c-1,0-1.7,0.7-1.7,1.9c0,1,0.7,1.6,1.5,1.7
		C244,25.2,244.6,24.5,244.8,23.4z M331.2,44.2c0.1-1.7-0.5-2.3-1.6-2.4c-1,0-1.5,0.6-1.6,1.6c-0.1,1.2,0.6,2,1.5,2.1
		C330.3,45.6,331.2,44.9,331.2,44.2z"/>
	<path class="st1" d="M213.2,0c-2.1,9.8-3,19.8-2.5,29.8c0.4,8.3,2.2,16.4,4.8,24.1c3.2,9.6,8,18.3,14.1,26.1
		c5.4,6.9,11.9,12.5,19,17.2c16.2,10.6,33.7,13.2,52,9.1c9.6-2.2,18.8-5.9,26.6-12.7c0.9-0.7,1.7-1.6,2.5-2.4c1,1,0.6,1.8-0.1,2.6
		c-4.8,5.5-10.2,10.3-16,14.2c-7.5,5-15.7,8.8-24.6,10.6c-8,1.7-16.1,2-23.9,0.9c-8-1.1-16-3.4-23.3-8.2
		c-4.9-3.2-10.1-6.1-14.2-10.4c-4.7-4.9-9.4-9.8-13.2-15.7c-3.8-6-6.9-12.3-9.2-19.1c-1.9-5.6-3.3-11.4-4.3-17.3
		c-1.2-7.5-0.8-15-0.6-22.4c0.2-5.6,1.7-11.2,3-16.8c0.8-3.4,2.8-6.3,3.6-9.6C209,0,211.1,0,213.2,0z"/>
	<path class="st2" d="M769.9,592.5c-18.2-0.1-36.4,0.8-54.5-0.3c-5.6-0.3-10.5-2.4-14.2-7.4c-1.3-1.7-3-3.1-4.6-4.5
		c-5.5-4.7-9.9-10.5-15.1-15.6c-8.5-8.3-17.9-13.5-29.8-12.5c-4.6,0.4-9.3,0.3-13.7-1.9c-9.2-4.7-13.9-16.8-10.8-27.5
		c1.6-5.5,4.6-9.5,9.1-12.5c3.8-2.6,7.4-5.5,11-8.3c2.7-1.4,5.1-3.2,7.5-5.1c0.9-0.6,1.7-1.2,2.6-1.8c2.1-0.7,3.3-2.6,4.9-4
		c6-3.6,11.8-7.6,18.7-9c4-0.8,8-1.2,12-1.2c25.2,0,50.4,0,75.7,0c0.5,0,1,0.1,1.5,0.1c-5.9,5.1-7.6,12.1-7.6,19.8
		c0,20.5,0.3,41-0.1,61.5C762.5,573.3,764.5,583.3,769.9,592.5z"/>
	<path class="st0" d="M160.4,595c-23.3,0-46.6,0-69.9,0c-0.7-2.4-1.4-4.8-2.2-7.2c-1.5-4.9-4.2-8.8-7.6-12.4
		c-3.5-3.7-6.8-7.7-10.2-11.5c-2.3-2.5-2.7-5.4-1.6-8.6c1.1-3,3.6-3.8,6.3-3.9c4.7-0.1,9.6-0.5,13-4.3c8.8-9.6,17.5-19.2,25.8-29.3
		c5.7-6.9,17.8-6.3,22.3,1.5c2.2,3.7,3.1,7.6,3.3,11.9c0.2,6.1,3.6,9.5,9.3,9.7c1.9,0.1,3.7,0,5.6,0c2.9,0,5.2,1.2,6.3,4.3
		c1.2,3.3,1.1,6.2-1.2,8.9c-2.4,2.7-4.7,5.6-7.1,8.3c-4.9,5.6-4.9,12,0.1,17.3c2.2,2.3,4.1,4.9,6,7.5
		C160.4,589.6,161,592.1,160.4,595z M141.6,593.9c0.2-3.4,0.3-6.9-0.1-10.5c-1.3-0.1-2.4-0.4-3.5,0.4c0,3.3,0,6.7,0,10
		C139.3,594.4,140.4,594.4,141.6,593.9z M111.3,564.3c1.2,0.4,2.3,0.5,3.4-0.1c0.5-1.2,0.6-2.3-0.1-3.4c-1.2-0.2-2.4-0.5-3.5,0.3
		C110.9,562.1,110.8,563.1,111.3,564.3z M88.3,566.5c1.2,0,1.8-0.5,1.9-1.6c0-1.1-0.5-1.9-1.6-1.9c-1.2,0-1.7,0.9-1.7,1.9
		C86.9,565.8,87.5,566.6,88.3,566.5z M108.1,541c0-1.4-0.6-1.8-1.5-1.9c-1.2-0.1-1.7,0.7-1.7,1.8c0,0.9,0.6,1.7,1.5,1.7
		C107.5,542.5,108,541.8,108.1,541z M125.2,518.3c-1,1-2.1,2-1.1,3.6c0.5,0.9,1.5,0.8,2.2,0.1C127.8,520.3,126.1,519.4,125.2,518.3z
		 M154.8,550.8c0-1.2-0.6-1.7-1.5-1.8c-0.9,0-1.6,0.3-1.6,1.5c0,1.2,0.4,2,1.6,1.9C154.2,552.4,154.8,551.8,154.8,550.8z
		 M133.6,569.2c1-0.1,1.5-0.7,1.5-1.7c0-1-0.5-1.7-1.5-1.7c-1.1,0-1.7,0.7-1.6,1.9C132,568.8,132.7,569.2,133.6,569.2z M141.3,575
		c0-1-0.4-1.7-1.4-1.8c-1-0.1-1.6,0.6-1.7,1.5c-0.1,1,0.4,1.7,1.4,1.8C140.6,576.6,141.2,576.1,141.3,575z M76.7,558.2
		c0-0.8-0.1-1.5-1.1-1.6c-1.1-0.1-1.4,0.6-1.4,1.6c0,0.8,0.1,1.5,1.1,1.6C76.4,559.9,76.7,559.2,76.7,558.2z M145.4,560.5
		c1.6,0.7,3.3,1.2,5.3-0.2C148.5,559.6,146.9,559.6,145.4,560.5z"/>
	<path class="st3" d="M0.4,488.6c0-30.2,0-60.4,0-90.6c1,0,2.1,0.3,2.9-0.5c5.3,1.2,10.7,0.7,16,0.9c12.7,0.4,25.4,0.2,38.1,0.3
		c3.9,0,4.6,1.3,2.6,5c-6.1,11.6-12.4,23.1-18.2,34.9c-1.9,3.9-4.9,7.4-5.6,12c-1.1,0.1-1.5,1.2-1.8,2c-1.3,3.6-3.5,6.8-5.2,10.1
		c-6.1,11.7-12.1,23.3-18.2,35c-0.9,1.8-1.8,3.7-4.2,2.7C4.2,496.8,3.1,492.2,0.4,488.6z M37.8,417.3c-0.2-0.9-0.5-1.7-1.5-1.7
		c-1,0-1.5,0.5-1.6,1.6c-0.1,1,0.3,1.8,1.3,1.9C37,419.2,37.5,418.3,37.8,417.3z M10.7,448.2c-0.8,0.1-1.4,0.6-1.5,1.6
		c0,1,0.3,1.8,1.3,1.9c1,0.1,1.4-0.6,1.5-1.6C12,449.1,11.9,448.3,10.7,448.2z"/>
	<path class="st4" d="M514.7,595c-4.1,0-8.2,0-12.4,0c3.4-1.6,2.2-4.8,2.2-7.5c0.1-7.4-6.9-14-13.7-12.9c-2.5,0.4-4.4,2.3-6.6,3.5
		c-2.7,1.5-3.9,4-4,7c-0.2,3.3-0.4,6.6,0.7,9.8c-1.8,0-3.5,0-5.3,0c0-0.1,0-0.3,0-0.4c-8.2-11.8-11.5-24.9-9.3-39.5
		c2-13.1,7.4-24.1,17.6-32c2.2-1.7,4.4-3.1,6.6-4.9c2.3-1.9,5.3-3,8.4-2.8c-0.4,0.3-0.8,0.7-1.2,1c-5.4,2.9-7.9,7.4-7,13.9
		c0.1,0.9,0,1.8,0,2.7c0.1,2.9,1.4,5,3.7,6.4c1.2,0.7,2.4,1.3,3.5,2c5,3.1,14.4-0.3,16-6.3c2.9-10.6-1.1-18.9-12.8-20.4
		c6.4-2.5,13-1.9,19.3-0.3c11.4,2.9,20.3,9.8,26.9,20.4c8.8,14.3,9.9,29.3,5.4,45.2c-1.5,5.2-4.4,9.6-6.8,14.4
		c-0.4,0.2-0.8,0.4-1.2,0.6c-2.6,0-5.1,0-7.7,0c0.9-3.4-0.2-6.5-1-9.7c-1.7-6.9-10-11.4-16.1-8.4c-2.8,1.4-4.9,3.8-6.5,6.5
		C511.3,587.1,511.3,592.2,514.7,595z M498.7,562.6c-0.3,6.3,0.8,9.5,6.5,12.4c6.6,3.4,15,0.1,17.2-7.4c0.7-2.4,0.3-4.8,0.3-7.3
		c0-5.8-8.3-13.3-13.4-11.4C501.8,551.8,497.8,553.4,498.7,562.6z M540.4,579.1c9.2-0.1,14-5.2,14-14.8c0-5.2-6.7-12.8-11.2-12.9
		c-8.5-0.1-14,5.8-14,15.2C529.2,572.3,535.3,579.1,540.4,579.1z M484.3,569.1c5,0,11.6-7.1,11.7-12.5c0.1-8.8-5.9-15.3-14.1-15.3
		c-4.8,0-11,7.1-11.1,12.7C470.7,563.7,475.5,569,484.3,569.1z M529,523.3c-5.1,0.1-11,6.9-11,12.7c0.1,9.3,5.2,15,13.6,15.1
		c4.5,0,11.6-7.7,11.6-12.4C543,528.9,537.7,523.2,529,523.3z M547.3,545.4c0-0.8-0.2-1.5-1.2-1.5c-0.8,0-1,0.6-1.1,1.3
		c-0.1,0.8,0.1,1.6,1,1.7C546.9,547,547.2,546.2,547.3,545.4z"/>
	<path class="st3" d="M204.4,517.5c-6.2,5.5-13.5,9.5-19.6,15.3c-2,1.9-4.3,3.5-6.6,5c-1.5,0.9-1.7,2.2-1.4,3.6
		c2.5,14.5,7.2,28,15.4,40.1c3.1,4.6,6.6,9,10.8,13.2c-3.4,0.6-5.8,0.6-8-2.1c-12-14.6-19.2-31.5-22.2-50.6
		c-2.7-17.8-0.8-35.1,5-51.9c2.7-7.8,6.2-15.2,10.9-21.9c7.3-10.7,16-19.6,26.7-26.6c6.9-4.5,14.2-7.4,21.8-9.7
		c11.5-3.4,23-3.1,34.7-1.3c8.2,1.2,16.1,3.9,23.2,8.1c6.3,3.7,12.6,7.6,17.8,13c7.3,7.4,13.8,15.5,18.8,25
		c6.1,11.7,9.6,24.2,11.2,37.3c1.9,15.7,0.3,31.2-4.5,46.1c-2.5,7.8-5.9,15.3-10.5,22.1c-2.3,3.5-4.7,6.9-7.3,10.2
		c-2.2,2.8-4.7,3-8.1,2.5c19.8-20.9,27.9-46.2,26.6-75.3c-6.8,4.8-14,8.7-19.6,15c-3-0.2-5.8-0.9-8.7-1.8c1-0.9,2.1-1.8,3.1-2.6
		c7.5-5.8,15-11.6,22.6-17.3c1.2-0.9,2.1-1.7,1.8-3.4c-1.3-7.5-3.4-14.7-6.2-21.8c-2.9-7.3-6.8-13.8-11.2-20.1
		c-6-8.8-13.5-15.6-22-21.3c-0.8-0.5-1.6-1-2.6-0.2c-3.2,2.5-6.5,4.7-9.6,7.3c-6.9,5.9-14.3,11.1-21.5,16.6
		c-1.3-2.1-1.3-4.4-1.4-6.8c9.7-6.2,18-14.4,27.9-20.8c-2.6-0.9-4.3-2.8-6.6-3.6c-6.7-2.1-13.4-4.1-20.5-4.7
		c-13.4-1.2-26.1,0.9-38.4,6.8c-13,6.2-23.6,15.4-32.3,27.4c-4.6,6.3-8,13.1-11,20.2c-4.8,11.2-6.6,23.2-7.4,35.3
		c-0.1,2.3-0.5,4.7,0.6,6.9c1.6-0.5,2.7-1.7,4-2.6c8.7-6,16.6-13.4,25.5-19.2C205.9,511.8,205,514.6,204.4,517.5z"/>
	<path class="st0" d="M204.4,517.5c0.6-2.8,1.5-5.6,1.2-8.6c-3.1,0.3-5.1-1.6-7-3.9c1.4-1.6,2.9-2.3,5.1-3c-2.8-0.8-5.1-1.1-6.5-3
		c0.4-1.1,1.7-0.7,2.2-1.5c-1-2.5-3.3-2.1-5-2.6c-2.9-0.9-4.1-3.2-4.8-5.9c-0.7-2.7,0.3-5,2.4-6.7c2.8-2.3,5.5-4.6,8.3-6.7
		c4.3-3.2,5-5.1,3.2-10.3c-0.7-2-1-3.8,0.4-5.5c1.4-1.7,3.1-1.7,5.1-1.4c8.2,1.4,16.2,4.2,24.7,3.7c-0.4,1.9-2.2,1.7-3.2,2.6
		c-1.8,0.1-3.7,0.1-5.5,0.2c-5.6-0.1-8.1,2.4-8.2,8.5c-0.1,2.7-0.1,5.3-0.1,8c-0.6,2-0.4,4.1-0.1,6.2c-0.1,5.4-0.2,10.8-0.2,16.3
		c0,2.5-0.4,4.8-2.1,6.7c-1.3,0.9-2.6,1.8-2.9,3.5c-2.5,4-2.4,7.8,0.6,11.5c2.2,2.7,4.6,5.3,6.9,8c1.7,2.9,4.3,4,7.3,4.6
		c-1.7,3.4-2.3,6.9-0.3,10.4c1.9,3.2,4,6.1,6,9.2c0.1,1.8,1.1,3,2.2,4.3c3.2,3.6,6.9,3.3,10.8,2c0,0.2-0.1,0.5-0.1,0.7
		c-3.5,3.4-4.3,7.6-2,11.8c2,3.6,4.3,7,6.4,10.4c-0.1,0.1-0.1,0.3-0.1,0.4c-2.3-0.4-4.6-0.8-6.9-1.2c-3.4-0.8-6.7-1.6-9.7-3.6
		c-1.1-0.8-2.2-0.3-3.4,0c-0.5-1.1-0.3-2.3-1.4-3.3c-7.6-6.7-9.7-15.7-8.5-25.9c0.3-2.8,1-5.6,1.3-8.5c0.6-5.1-3.3-8.1-7.9-6.1
		l0.1-0.1c-0.4,0-0.8,0.1-0.7,0.7c0,0,0.1-0.1,0.1-0.1c-0.4,0-0.8,0-1.2,0.1c-5.6,1.8-9.6-2-8.7-8.2
		C202.8,526.5,203.6,522,204.4,517.5z M220.6,562c3.1,0.6,5.8,1.6,8.7,1.6c0.6-1.9,0.9-3.7,0.9-5.6c-2.9-1-5.7-1.4-8.7-1.6
		C221.2,558.2,220.9,559.9,220.6,562z M209.4,532.4c0-0.9-0.4-1.8-1.6-1.8c-1.4,0-1.5,1.2-1.5,2.3c0,1.2,0.6,1.8,1.7,1.8
		C209.1,534.5,209.6,533.7,209.4,532.4z M198.6,484.6c0.9-0.1,1.5-0.5,1.6-1.6c0.1-1.2-0.5-1.9-1.6-1.9c-1,0-1.6,0.8-1.6,1.9
		C197.1,484.1,197.7,484.6,198.6,484.6z"/>
	<path class="st5" d="M823,453.2c3.1-0.2,5.5,2.3,5.6,6.1c0.1,5.7,0.1,11.3,0,17c-0.1,4.8,0.7,9.4,2.6,13.8c1.3,2.9,2,6,2,9.3
		c-0.1,15.5,0.1,31.1-0.2,46.6c-0.1,8-4.6,13.8-10,18.6c-1.4,1.2-3.4,1.7-5.2,0.5c-1.5-1.7-2.8-3.4-2.8-6c0.1-29,0.1-58.1,0.1-87.1
		c0-5.7,1.7-10.8,5.1-15.3C821,455.4,822.6,454.9,823,453.2z"/>
	<path class="st5" d="M769.9,592.5c-5.4-9.2-7.4-19.1-7.2-30c0.3-20.5,0.1-41,0.1-61.5c0-7.8,1.7-14.7,7.6-19.8
		c4-0.3,5.8,1.3,5.9,5.5c0.2,7.3-0.3,14.6,0.4,21.9c0.3,3.6,0.8,7.2,3.5,9.9c-0.1,5.4-0.4,10.8-0.3,16.2c0.4,15.1-1.2,30.4,1.2,45.4
		C780.3,588.2,776.9,592,769.9,592.5z"/>
	<path class="st5" d="M6.7,500.5c2.4,1,3.3-0.9,4.2-2.7c6.1-11.7,12.1-23.3,18.2-35c1.8-3.4,3.9-6.5,5.2-10.1c0.3-0.8,0.7-1.9,1.8-2
		c5.2,8.4,10.4,16.9,15.6,25.3c-1.2,1.6-2.3,3.4-3.7,4.9c-7.9,8.2-14.7,17.4-20.9,27.2c-5.6,8.7-10.6,17.8-14.7,27.4
		c-0.3,0-0.6-0.1-1-0.1c-1.7-3.4-3.1-7-5.8-9.7c-5.9-6.1-6.1-13.7-5.4-21.6c0.8,1,1.5,1.9,2.4,3C5.1,505,5.9,502.8,6.7,500.5z"/>
	<path class="st2" d="M714.6,460.4c-0.1-3.5,1.2-6.2,3.4-8.7c3.2-3.5,6.2-7.4,9.3-10.9c3.5-4,6.9-8.6,11.9-11c0.4-0.2,0.7-0.6,1-0.6
		c7,0.2,14.1-1.4,20.9,0.9c5.1,1.7,8.4,6.4,11.7,10.5c2,2.5,4.2,4.5,6.8,5.9c6.8,3.6,9.9,9.5,10,17.5c-6.4-3.1-13.1-5.4-20.2-5.5
		c-8.4-0.1-16.9,0.3-25.3,0.4c-8.5,0.1-16.9,0.1-25.4,0.1C717.3,459,715.8,459.1,714.6,460.4z"/>
	<path class="st0" d="M47.5,264c-0.4-3.8,0.8-7.4,0.7-11.2c-0.4-15.9-5-29.8-15.5-41.4c-5.5-6.2-12.1-10.1-19.4-13.1
		c-3.1-1.3-6.1-2.5-9.7-2.9c0-2.9-0.1-5.9,0-8.8c0.1-2.2,2.1-2.5,3.5-2.9c6.5-1.9,13.3-2.2,19.5,0.1c5.5,2.1,11.1,4.6,16,8.6
		c8.5,6.9,13,16.4,15.5,27c3.2,14.1,0.8,27.3-6.8,39.3c-1.1,1.7-2.1,3.5-3.1,5.3C47.9,264,47.7,264,47.5,264z"/>
	<path class="st5" d="M808.9,561c-0.2,5.1,0.6,10.3-1.2,15.4c-1.8,5-5,8.8-8.3,12.5c-1.5,1.7-3.5,1.6-5.5,1.2
		c-2.5-1.9-3.2-4.6-3.2-7.8c0.1-6.6,0-13.3,0.1-19.9c0-22.5,0-45,0.2-67.5c0.1-6.8,3.3-12.4,7.9-17c1.9-0.2,3.5,0.7,5,1.8
		c0,8.2,0.6,16.3,0.3,24.5c-0.5,12.9,0.1,25.9-0.2,38.9C803.7,549.9,805.2,555.7,808.9,561z"/>
	<path class="st2" d="M798.8,477.9c-4.6,4.6-7.8,10.1-7.9,17c-0.2,22.5-0.1,45-0.2,67.5c0,6.6,0.1,13.3-0.1,19.9
		c-0.1,3.2,0.6,5.9,3.2,7.8c-5.2-0.1-8.6-3.4-11.3-7.7c-0.5-0.8-0.7-1.9-1.7-2.3c-2.4-15.1-0.8-30.3-1.2-45.4
		c-0.2-5.4,0.2-10.8,0.3-16.2c-0.3-7.6,0.2-15.3-0.1-22.9c-0.2-6.5,3.1-10.8,5.6-15.7c0.9-1.8,2.9-2,4.6-2
		C793,477.8,795.9,477.9,798.8,477.9z"/>
	<path class="st2" d="M808.9,561c-3.8-5.3-5.2-11.2-5.1-17.9c0.3-12.9-0.2-25.9,0.2-38.9c0.3-8.2-0.3-16.3-0.3-24.5
		c0.4-4.2-0.1-8.4,0.7-12.7c1.1-5.4,3.7-9.6,7.2-13.4c0.5-0.5,1.5-0.5,2.3-0.5c3,0,6,0.1,8.9,0.1c-0.4,1.6-2,2.1-2.9,3.3
		c-3.3,4.5-5.1,9.6-5.1,15.3c0,29,0,58.1-0.1,87.1c0,2.6,1.3,4.3,2.8,6C814.2,565.2,811.6,562.9,808.9,561z"/>
	<path class="st6" d="M249,587.1c0-0.2,0.1-0.3,0.1-0.4c-0.4-4,0-7.8,3.2-10.5c0.9-0.5,1.9-1,2.5-2c1.5-0.8,2.3-2,2.8-3.7
		c1.9-6.4,2.6-13.1,3.5-19.7c0.8-2.1,1.3-4.3,1.1-6.6c0.8-3.7,1.5-7.5,2.4-11.2c0.7-3,2.7-4.3,5.4-4.4c1.4-0.1,2.9,0.1,4.3,0.1
		c0.9,0.7,1.8,0.7,2.8,0.7c2.2,0.3,4.2-0.1,6.3-0.8c0.2,0.5,0.6,1.3,0.4,1.5c-2.4,2.7-0.1,4.4,1.2,6.2c-0.6,0.8-1.7-0.1-2.2,1.1
		c2.4,1.6,4.6,3.3,7.1,4.7c1.5,0.9,2.9-0.8,4.4-0.8c0.9,0,1.9-0.1,2.8-0.2c-1.7,2.2-4,3.1-6.5,3.7c-1.6-0.2-3.2-0.5-4.8-0.7
		c-4.9-1.3-7.1-0.3-8.4,4.3c-0.8,2.9-1.1,6-1.7,9.1c-0.6,1.9-1.1,3.9-1,5.9c-0.8,4.7-1.6,9.4-2.4,14c-1.6-0.2-3.2-0.4-4.9-0.6
		c-0.2,1.2-0.4,2.2-0.6,3.4c1.5,0.4,2.8,0.8,4.2,1.2c0.1,1.7-1.9,2.3-2,3.9c-1.1,0.6-2.5,1-3,2.5c-0.8,0.9-1.6,1.7-2.4,2.6
		c-0.8,0.9-2.2,0.9-2.6,2.4c-4.7,1-8.7-0.2-11.7-4.4C249.1,587.7,249.1,587.4,249,587.1z M263.7,559.5c-1.1,3.5-1.3,6.9-1.7,10.2
		c1.6,1,3.4,0.2,4.7,1.8c0.8-3.9,1.5-7.3,2.2-10.7C267.2,559.8,265.6,559.9,263.7,559.5z M265.8,547.3c1.6,2.4,2.8,4.4,4.2,6.5
		c1.5-1.1,3.1-1.7,4.1-3.3c-1.4-2.3-2.7-4.5-4-6.7C268.1,544.2,267.7,546.5,265.8,547.3z M272.6,540.5c1.4-0.7,2.6-1.6,3.7-2.7
		c-1-2.4-2.3-4.2-4-5.9C268.6,535.7,268.6,536.2,272.6,540.5z"/>
	<path class="st6" d="M320.7,557.5c0,1.7-0.4,3.3-1.3,4.8c-0.2-0.9,0-2.1-0.9-2.7c-4.2-2.7-8.7-4.6-13.4-6.3
		c-1.2,3.3-1.4,6.3-1.3,9.4c-0.6,2.9-1.2,5.7-1.9,9.2c3.4,0,6.4,0,9.3,0c-2,1.6-4.4,1.7-6.6,2.6c-5.5,2.2-8.2,6.8-7.4,12.8
		c0.4,2.7,0.4,5.2-0.2,7.8c-7.1,0-14.1,0-21.2,0c1.6-1.5,2.5-3.4,2.9-5.6c0.8-4.9,1.5-9.9,2.3-14.8c0.8-1.9,0.7-3.9,1-5.9
		c0.6-3.2,1.3-6.5,1.9-9.7c0.6-3.3,2.6-4.5,5.5-4.6c1.1,0,2.3,0.2,3.4,0.3c0.7,0.6,1.6,0.6,2.5,0.6c2.3,0.4,4.5-0.2,6.4-1.6
		c2.9-2.1,5.7-4.2,8.5-6.3c0.8-0.5,1.6-1,2.4-1.4c2.1-0.4,4.1,0,6.1,0.8C322.1,549.7,321,553.7,320.7,557.5z M289.1,574
		c1.7,0.2,3.1,1.3,5.1,0.7c0.6-3.5,1.3-7,2-11c-2.1,0.5-3.7-1-5.5-0.3C289.6,566.8,289.7,570.4,289.1,574z"/>
	<path class="st1" d="M47.8,265c-0.7,5.3-5.7,7.5-7.2,12.1c-1.9,0.1-2-1.7-2.8-2.5c-5.5-6-10.9-12.1-16.3-18.1
		c-5.4-6-10.8-12.1-16.3-18.1c-0.9-1-1.7-2-1.7-3.4c-0.1-6.2,0-12.3,0-18.5c1.2,0,1.5,0.7,2,1.2c9.1,10.1,18.3,20.1,27.1,30.5
		c4.7,5.6,9.9,10.5,14.4,16.3c0.2,0.1,0.3,0.2,0.5,0.2C47.6,264.8,47.7,264.9,47.8,265z"/>
	<path class="st7" d="M544.7,595c0.4-0.2,0.8-0.4,1.2-0.6c2.4,0,4.8,0,7.1,0.1c1.4,0.1,2.3-0.4,3-1.8c4.5-8.5,6.9-17.7,7.2-27.5
		c0.6-15.5-4.2-28.9-13.2-40.9c-7.7-10.3-17.9-15.8-29.3-18.9c-7.8-2.1-15.6-1.5-23.6,1.1c-14.3,4.7-25.2,13.6-32.3,27.7
		c-6.3,12.4-8.3,25.5-6,39.4c1.2,7.4,3.8,14.2,7.1,20.7c-0.2,0.2-0.5,0.3-0.7,0.5c-0.8,0-1.6-0.1-2.4-0.1c-6-11.9-8.9-24.4-7.5-38
		c0.8-8.3,2.8-16.2,6.6-23.5c1-2,2.3-3.9,2.6-6.2c0,0,0,0.1,0,0.1c0.7-0.1,0.8-0.6,0.8-1.2c0,0,0,0,0,0c0.2-0.2,0.4-0.5,0.6-0.7
		c2.9-3.4,5.7-6.9,8.6-10.3c1.9-2.2,4.9-3.4,7.3-5c11.5-7.7,23.8-10.1,37.2-8.1c11.5,1.7,21.2,7.5,29.3,15.6
		c8.9,9,14.7,20.4,17,33.6c2.5,14.7,0.6,28.5-5.8,41.7c-0.7,1.4-1.2,2.1-2.9,2.2C552.5,595.1,548.6,595.1,544.7,595z"/>
	<path class="st5" d="M714.6,460.4c1.2-1.4,2.7-1.4,4.3-1.4c8.5,0,16.9,0,25.4-0.1c8.4-0.1,16.9-0.5,25.3-0.4
		c7.1,0.1,13.7,2.4,20.2,5.5c0,0-0.1,0-0.1,0c0,0.5,0.1,1.1,0.1,1.6c0.1,2.9-1.4,3.9-3.9,3.9c-20.3,0-40.6,0.1-60.9,0.1
		C721.3,469.6,714.8,463.7,714.6,460.4z"/>
	<path class="st0" d="M320.7,557.5c0.3-3.8,1.4-7.8-2.1-10.7c-1.1-3.5-3.3-6.4-5.4-9.2c-1.6-2.2-3.8-3.4-6.6-2.5
		c-0.7,0.1-1.3,0.2-2,0.3c0.3-2.1,0.6-4.1,0.9-6.2c0.4-3.4,0.2-6.6-2.4-9.1c-0.2-0.3-0.4-0.5-0.6-0.8l0,0c-1.5-4.4-4-8.1-7.1-11.2
		c-1.7-1.6-4-2.1-6.3-1.1c-0.5,0.1-0.9,0.1-1.4,0.2c0.3-4.7,2.1-9.3,0-14c1.8-0.6,3.6,0.8,5.5,0.4c0.2-1.4,0.2-2.9,0.7-4.2
		c0.6-1.4,0.1-3.1,1.2-4.6c2.2,0.7,3.9,2,4.3,4.5c0.6,3.4-0.5,6.1-3.4,7.8c-2,1.2-3.6,2.8-2.9,5.6c0.7,2.7,2.4,4.1,5.1,4.5
		c3.5,0.5,6.9,1.2,10.3,2c4.5,1,6.8,4.6,6.2,9.1c-0.4,3.2-2.4,5-4.6,6.6c-3.4,2.5-3.1,5.6,0.6,7.8c2.8,0.8,5.7,1.6,8.7,1.8
		c8.2,2.8,11,10,6.3,16.7C324.2,553.4,322.4,555.4,320.7,557.5z M323.6,542.5c0-1.2-0.4-1.8-1.4-1.9c-0.9-0.1-1.6,0.3-1.7,1.4
		c-0.1,1.2,0.4,1.9,1.5,1.9C323,543.9,323.6,543.4,323.6,542.5z M310.8,521.5c-0.1-0.9-0.3-1.6-1.4-1.7c-1.2-0.1-1.8,0.7-1.8,1.7
		c0,0.9,0.6,1.6,1.6,1.6C310.2,523.2,310.7,522.7,310.8,521.5z"/>
	<path class="st0" d="M197.3,116.4c-0.5,1.8-0.9,3.4-1.5,4.9c-0.5,1.4-1.2,2.7-2.1,4.7c-0.4-2.6-2-4-1.7-6c-1.2-0.7-1.4,0.8-2.2,0.8
		c-1.6-2.2-0.4-4.5-0.1-6.6c-1.3-1.2-2,0.4-3.1,0.5c-0.3-5.6,4.3-9,5.3-14c4.6-0.2,7.9-5,12.9-4.2c0.1,1.4-0.9,2.4-1.6,3.6
		c2.5,0.8,5.1-0.5,7.3,1.4c-0.5,0.6-1,1.3-1.5,1.9c1.4,0.9,3.1,1.4,4.3,3c-2.4,2.1-5.2,1.9-8.5,2.1c3.3,2.4,6.4,4.4,8.1,8.4
		c-1.6,0-2.6,0-3.9,0c0.1,2.8,1.8,5.3,0.9,8.2c-2.1-1.2-4.1-2.3-6.4-3.6c-0.1,1.7-0.2,3.1-0.3,4.5
		C200.5,125.4,200.4,125.1,197.3,116.4z"/>
	<path class="st7" d="M12.5,535.4c4.1-9.6,9.1-18.7,14.7-27.4c6.2-9.7,13-19,20.9-27.2c1.4-1.4,2.5-3.2,3.7-4.9
		c0.8,0.1,1,0.3,0.7,1.2c-0.8,2-2,3.8-3.3,5.6c-11.3,16.4-19.6,34.5-25.9,53.7c-1.2,3.6-2.2,7.3-3.2,10.9
		C17.6,543.3,15.1,539.3,12.5,535.4z"/>
	<path class="st1" d="M464.4,527c-0.3,2.3-1.6,4.2-2.6,6.2c-3.8,7.4-5.8,15.2-6.6,23.5c-1.3,13.6,1.5,26.1,7.5,38
		c-3.7,0-7.4,0-11.4,0c-2.9-7.7-4.4-15.8-4.2-24.4c0.2-8.4,1.9-16.2,4.8-24.1c2.6-6.8,6.4-12.5,10.7-17.9
		C463.1,527.8,463.6,527.2,464.4,527z"/>
	<path class="st0" d="M360.9,93.6c2.9-3.5,5.3-8,9.6-9.7c7.1-2.9,16.8,3.1,18.4,11c0.6,3,2.2,5.8,1.3,9.2c-1.5,5.3-5.2,8.7-8.7,12.3
		c-0.4,0.1-0.8,0.2-0.8,0.7c0,0,0,0,0,0c-4.2,1.1-8-0.8-12-1.7c-2.3-0.5-4.1-1.9-5.1-4.3C361.4,105.5,359.5,99.9,360.9,93.6z
		 M380,90.6l0.1,0c-3.1-2.1-6.2-2-9.3-0.2c-1.6,1.4-3.6,2.3-4.3,4.6c-1.8,3.4-1.8,6.8-0.2,10.2c1.4,2.3,3.1,4.2,5.5,5.3
		c2.4,2,4.7,1.5,7.1,0c2.3-1.2,4.2-2.8,5.3-5.4c2.1-3.1,1.7-6.2,0.3-9.4c-1.3-1-1.2-3-2.6-4C381.4,91.1,380.8,90.6,380,90.6z"/>
	<path class="st0" d="M83.9,235c1.1-3.4,3.4-5.3,6.6-5.7c3.5-0.4,7.1-0.8,10.6,0.2c2.2,0.6,4.1,1.9,5.3,4.2c1.3,2.6,2.7,5.1,3.8,7.8
		c1.4,3.6,0.8,7.1-1.2,10.3c-2,3.3-3.1,7.2-6.8,9c-0.4,0-0.7,0.1-0.7,0.6c0,0,0,0,0,0c-2.7,0-5.3,0-8,0c-4.4,0-7.7-1.9-9.7-6.3
		c-0.4-0.9-0.8-1.8-1.3-2.6c-2.8-4.4-2.9-9.2-0.2-13.6C83.2,237.7,83.7,236.4,83.9,235z M89.2,253.4c0.1,1.5,1.2,1.7,2.2,2
		c2.8,1.6,5.5,1.3,8.2-0.1c2.7-0.5,4.1-2.5,5-5c0.1-0.9,0.2-1.8,0.4-2.6c1.8-6.7-1.9-12.9-8.3-14.2c-2.1-0.4-3.3,1.6-5.2,1.3
		c-3,0.6-3.8,3.3-4.9,5.7c-0.8,1.7-0.9,3.6-1.2,5.5c0.3,1.5,0.3,3.1,1.2,4.4l0,0C87.2,251.7,87.4,253.3,89.2,253.4L89.2,253.4z"/>
	<path class="st0" d="M381.5,456.1c4.2-7.5,12.2-9.8,19.1-5.4c7.1,4.5,9.7,11.9,7.2,20.4c-0.8,2.7-2.7,4.3-4.5,6.1
		c-0.4,0-0.9,0.1-0.9,0.7c0,0,0,0,0,0c-1.1-0.4-1.8,0.3-2.4,1c-3.7,3.6-7.9,3.6-11.4,0.1c-0.7-0.7-1.7-1.2-2.6-1.7
		c-4-2-5.8-5.5-5.7-10.1c0-3.5,0-7,0.5-10.5c0,0,0,0,0,0C381.2,456.9,381.4,456.5,381.5,456.1z M387.6,457.4L387.6,457.4
		c-1.3,0.3-1.6,1.5-2.1,2.6c-1.5,5.1-1,9.6,3.1,13.2c1.5,1,2.8,2.5,4.8,2.2c0.6,0,1.1,0,1.7,0.1c1.1-0.1,2.2,0.1,3.1-0.8
		c1.4-0.3,2.4-1.3,3.2-2.6c2-1.8,2.7-4.1,2.4-6.8c0.5-1.7-1.4-2.9-0.7-4.6c-1.4-4.3-3.2-5.6-6.5-4.7c-1.8-3.5-4.1-1-6.3-0.5
		C388.9,455.3,388.1,456.1,387.6,457.4z"/>
	<path class="st0" d="M0.4,573.8c0-9.1,0-18.2,0-27.9c1.8,2.4,3.3,4.5,4.9,6.5c1.8,3,3.4,6.2,5.4,9.1c1.6,2.3,2.4,5.3,5.1,6.6
		c-2.1,6.8-2.5,13.8-3.1,20.8c-0.1,0.9-0.1,1.8-0.6,2.5C7.6,586,4.9,579.2,0.4,573.8z"/>
	<path class="st0" d="M297,595c0.6-2.6,0.6-5.2,0.2-7.8c-0.9-6.1,1.9-10.7,7.4-12.8c2.2-0.9,4.7-1,6.6-2.6c0.9,0.1,1.8-0.5,2.9,0.4
		c-1.2,6-1.6,12.2-3.4,18.2c-1,3.2-2.8,5.2-6.3,4.8C302,594.9,299.5,595,297,595z"/>
	<path class="st0" d="M553.3,481c2.2-6.2,9.4-9,15-6.5c8.1,3.6,7.7,12.4,5.9,18.6c-0.7,2.5-3.2,3.9-5.2,5.3
		c-0.7-0.1-1.3-0.1-1.5,0.8c0,0,0,0,0,0c-0.7,0.1-1.4,0.1-2.1,0.3c-5.2,1-12.1-4.9-12.2-10.6C553.2,486.3,553.3,483.7,553.3,481z
		 M557.9,488.6c-0.3,1.7,0.8,3,1.1,4.6c0.3,1.1,1.5,1.4,2.5,0.7c0.9,1,1.9,1.6,3.3,1.4c1.6,0.1,3.1-0.6,3.9-1.7
		c1-1.3,3.4-2.5,1.5-4.9c2.6-1.7,1.2-3.7,0.3-5.7c-1-3.6-2.2-4.6-4.6-3.7c-1.3-3.2-3.4-0.5-5.1-0.9c-1.6,1-2.7,2.5-3.5,4.2
		C556.1,486.1,556.2,487.2,557.9,488.6z"/>
	<path class="st3" d="M15.8,568.1c-2.7-1.3-3.5-4.4-5.1-6.6c-2-2.9-3.6-6-5.4-9.1c2.1-5.7,4.7-11.3,6.3-17.2c0.3,0.1,0.6,0.1,1,0.2
		c2.5,4,5,7.9,7.5,11.9C18.5,554.2,16.3,560.9,15.8,568.1z"/>
	<path class="st1" d="M83.9,235c-0.3,1.4-0.7,2.7-1.5,3.9c-2.7,4.4-2.6,9.2,0.2,13.6c0.5,0.8,1,1.7,1.3,2.6c1.9,4.4,5.2,6.3,9.7,6.3
		c2.7,0,5.3,0,8,0c-0.6,2.6-2.2,4.2-4.5,5c-4.6,1.5-9.2,1.7-13.8-0.1c-1.8-0.7-2.9-1.9-3.7-4c-0.9-2.5-2.5-4.7-3.5-7.2
		c-1.7-4-1.2-7.7,1.2-11.3c1.4-2,2.5-4.3,3.5-6.5C81.6,235.8,82.6,235.2,83.9,235z"/>
	<path class="st0" d="M394.5,544c0.6,0.4,1.1,0.7,1.5,0.9c0.9-3.2,0.9-3.2,4.5-6.8c1.2,1.4,1.1,3.2,1.5,4.8c2-0.9,1.5-4.7,4.7-4.4
		c0.1,0.8,0.2,1.5,0.3,2.4c1.5-0.3,2.9-0.6,4.8-1c-0.7,1.9-1.3,3.6-1.8,5.2c0.5,1.2,1.9,0.2,2.4,1.4c-1.1,2.3-3.5,2.6-5.6,3.7
		c1.5,1.3,3.7,0.9,4.9,2.5c-0.1,1.7-2.4,0.6-2.6,2.8c-0.2,2.1-2.4,0.3-3.8,1c-0.1,0.5-0.3,1.2-0.5,1.9
		C398.1,557.1,394.3,551.8,394.5,544z"/>
	<path class="st0" d="M481,595c-1.1-3.2-0.8-6.6-0.7-9.8c0.2-3,1.4-5.5,4-7c2.2-1.2,4.1-3.1,6.6-3.5c6.8-1.1,13.8,5.5,13.7,12.9
		c0,2.6,1.2,5.9-2.2,7.5c-1.6,0-3.4,0.9-4.5-1.2c0.4-1.5,3-1.2,2.5-3.4c0.6-1.2,1-2.4-0.5-3.3c-0.1-2.4-0.1-4.9-3.1-5.3
		c-1.5-2.6-3.6-2.7-6-1.8c-4.5,0.1-6.5,2.5-6,7.2c-0.8,0.6-1.2,1.4-1,2.4c-0.1,2.1,1.4,3.6,1.7,5.5C484.1,595,482.5,595,481,595z"/>
	<path class="st3" d="M23.1,231.3c1.6-1.1,2.9-0.7,4.2-0.4c4.2,1.2,8.3,2.4,12.5,3.5c1,0.3,2,0.4,2.4,1.7c1.8,6.1,2.6,12.4,2,19
		C37.1,247.3,29.7,240,23.1,231.3z"/>
	<path class="st0" d="M514.7,595c-3.4-2.8-3.4-7.9-1.3-11.5c1.5-2.6,3.7-5.1,6.5-6.5c6-3.1,14.4,1.5,16.1,8.4c0.8,3.2,1.8,6.3,1,9.7
		c-1.9-0.1-3.9,0.8-5.5-0.9c0,0,0-0.2,0.1-0.3c0.1-0.1,0.3-0.2,0.5-0.3c2.1-3,1.7-5.6-1.1-7.7c1-3.8-1.5-3.3-3.6-3.3
		c-1-2.9-3.9-3-7-0.2c-2.8,0.5-2.3,2.8-2.3,4.8c-2.7,2.1-2.7,3.9,0,6.3C517.6,595.7,516.1,595.1,514.7,595z"/>
	<path class="st8" d="M281,574.6c-0.8,4.9-1.5,9.9-2.3,14.8c-0.3,2.2-1.3,4.1-2.9,5.6c-0.4,0-0.7,0-1.1,0c-2.9-2.7-4.1-6.5-5.7-9.9
		c0.1-1.6,2-2.2,2-3.9c1.5-0.5,2.9,1,4.6,0.2c0-1,0.6-2,0-3c-1.1-0.4-2.2-0.7-3.3-1.1c0.8-4.7,1.6-9.4,2.4-14c2.1,2,3.7,4.4,4.4,7.4
		C279.4,572,279.9,573.5,281,574.6z"/>
	<path class="st0" d="M403.9,422c0.9-0.5,1.5-1.7,2.9-0.9c-0.6,4.2-1.8,7.9-5.8,10c-2.5,1.3-4.9,2.8-7.1,4.5
		c-2.5,1.8-3.8,0.4-5.3-1.9c1.1-0.2,1.7-0.4,2.5-0.5c-0.4-0.8-1.1-1.6-1.2-2.4c-0.2-1.1-2.2-2.4,0.4-3.6c1-0.4-1-2.7,0.2-4.3
		c2.2,0.6,3.7,2.4,5.1,4.8c0.8-3.2-2.3-6.4,1.1-8.9c0.4,0.5,1,1.3,1.7,2.1c1.3-1.3,1.6-3.7,3.8-4.1C402.8,418.4,403.3,420,403.9,422
		z"/>
	<path class="st1" d="M360.9,93.6c-1.5,6.2,0.4,11.9,2.8,17.4c1,2.4,2.8,3.8,5.1,4.3c3.9,0.9,7.8,2.8,12,1.7c-1.8,2.9-4.4,4.4-7.6,4
		c-3.4-0.4-6.8-1.1-10-2.6c-3.3-1.5-4-4.8-4.9-8.2c-1.2-4.9-2.7-9.6,0.2-14.4C359.1,94.9,359.8,94.1,360.9,93.6z"/>
	<path class="st3" d="M15.8,223c-3.9-4.1-8.1-7.9-11.5-12.5c-2-2.8-0.6-6.8-0.7-10.6c2.5,0.5,4.6,1,6.7,1.5c1,0.2,1.7,0.9,2,1.9
		c1.5,5.8,3,11.7,4.4,17.6C16.8,221.5,16.9,222.2,15.8,223z"/>
	<path class="st3" d="M30.3,214.6c-3.4,3.1-6.5,6-9.9,9.1c-3.3-5.8-3.9-13.1-6.1-20.6C21,205.2,25.5,209.4,30.3,214.6z"/>
	<path class="st1" d="M0.4,573.8c4.5,5.4,7.2,12.2,11.7,17.7c0,1.1,0,2.2,0,3.5c-3.9,0-7.6,0-11.7,0C0.4,587.8,0.4,580.8,0.4,573.8z
		"/>
	<path class="st1" d="M380.8,456.7c-0.6,3.5-0.5,7-0.5,10.5c-0.1,4.6,1.7,8.1,5.7,10.1c0.9,0.5,1.9,1,2.6,1.7
		c3.5,3.5,7.7,3.5,11.4-0.1c0.7-0.7,1.4-1.4,2.4-1c-3.1,6.1-11.5,8.2-17.2,4.8c-3.4-2-6.1-4.2-7.6-8.1
		C375.8,469.9,377.5,459.7,380.8,456.7z"/>
	<path class="st3" d="M31.5,216.4c4.9,4.2,6.9,9.8,9.5,16c-5.9-1.5-11.3-2.6-16.4-4.6c-1.1-0.4-1.8-1.4-0.7-2.9
		C26.1,221.9,28.5,219.1,31.5,216.4z"/>
	<path class="st3" d="M303.8,562.6c-0.1-3.1,0.2-6.1,1.3-9.4c4.7,1.7,9.2,3.6,13.4,6.3c1,0.6,0.7,1.7,0.9,2.7c0,2.4-1.1,3.5-3.3,3.1
		C312,564.4,307.9,563.5,303.8,562.6z"/>
	<path class="st1" d="M553.3,481c0,2.6-0.1,5.3,0,7.9c0.1,5.7,7,11.6,12.2,10.6c0.7-0.1,1.4-0.2,2.1-0.3c-2.7,2.8-5.8,4.2-9.3,2.2
		c-3.8-2.2-8.4-4.1-7.6-10.4c0.3-2,0-4,0.1-6C550.8,483.2,551.5,481.7,553.3,481z"/>
	<path class="st3" d="M249,587.1c0.1,0.3,0.2,0.6,0.3,1c-1.2,0.9-2.4,1.7-3.5,2.7c-4.2,4-9.1,5.4-14.8,4c3.3-3.5,7.7-5.6,11.1-8.9
		C244.4,586.3,246.7,586.7,249,587.1z"/>
	<path class="st0" d="M141,105.4c-1.5-1.6-2.8-3.1-4.2-4.6c1.4-3.2,3.8-5.2,5.9-7.5c0.3,0.1,0.5,0.1,0.7,0.2
		C149.3,98.8,148.6,97.7,141,105.4z"/>
	<path class="st7" d="M6.7,500.5c-0.8,2.3-1.6,4.6-3.9,6.4c-0.8-1-1.6-2-2.4-3c0-5.1,0-10.2,0-15.3C3.1,492.2,4.2,496.8,6.7,500.5z"
		/>
	<path class="st0" d="M394.3,40.8c2.3,0,4.2,0,6.3,0c0,3.2,0,6.2,0,9.4c-1.9,0.7-3.8,0.2-5.9,0.4C394,47.3,394.6,44.1,394.3,40.8z"
		/>
	<path class="st0" d="M148.8,494c-2.8,0-5.4,0-8.2,0c-0.8-1.5-0.2-3-0.4-4.6c3,0,5.7,0,8.6,0C149.4,490.9,149.3,492.4,148.8,494z"/>
	<path class="st8" d="M263.5,590.1c0.8-0.9,1.6-1.7,2.4-2.6c2.7,1.8,4.8,4.2,5.8,7.5c-2.7,0-5.5,0-8.2,0
		C263.6,593.4,263.5,591.7,263.5,590.1z"/>
	<path class="st0" d="M579.5,579.5c4.1-4.7,4.1-4.7,8.5,0.9c-1.2,1.1-2.4,2.3-4.2,3.9c-0.3-0.4-0.8-1.5-1.6-2.3
		C581.5,581.1,580.5,580.4,579.5,579.5z"/>
	<path class="st0" d="M86,523.6c1.8-2.2,3.9-3.8,5.2-6.4c1.1,1.5,2.1,2.9,2.9,4c-1.7,1.8-3.3,3.6-5,5.5
		C88,526.1,87.2,524.8,86,523.6z"/>
	<path class="st4" d="M484.8,587.1c-0.5-4.7,1.6-7.1,6-7.2C491.7,584.2,489,587.4,484.8,587.1z"/>
	<path class="st0" d="M123.2,473.8c-2.9-1.9-4.7-4.4-4.5-8.3C124.7,468.3,126.2,471.2,123.2,473.8z"/>
	<path class="st4" d="M520.3,582.3c3.1-2.8,6-2.7,7,0.2c-0.6,1.1,1,1.3,0.8,2.3c-2.2,1.3-4.5,1.2-6.8,0.1c-0.5-1.4,2.6-1.3,1.1-3
		C521.7,581,521,582,520.3,582.3z"/>
	<path class="st0" d="M212.5,538.6c1.5,0.4,5.3,5.2,5.5,6.9c0.2,1.5-0.9,1.5-1.9,2.3c-1.2-3.1-3.5-5.3-4.2-8.6c0,0-0.1,0.1-0.1,0.1
		C212.4,539.2,212.7,539.1,212.5,538.6L212.5,538.6z"/>
	<path class="st4" d="M530.9,585.8c2.8,2.1,3.2,4.7,1.1,7.7c-0.7-1-1.8-0.6-2.9-0.7C529.3,590.2,527.7,587.4,530.9,585.8z"/>
	<path class="st2" d="M271.8,595c-1-3.3-3.1-5.7-5.8-7.5c0.6-1.5,1.9-1.8,3-2.5c1.7,3.5,2.8,7.3,5.7,9.9
		C273.7,595,272.7,595,271.8,595z"/>
	<path class="st4" d="M496.8,581.7c3.1,0.4,3,2.9,3.1,5.3c-4,1.1-4.9-2.2-6.7-5.4C494.8,582.3,495.8,581.9,496.8,581.7z"/>
	<path class="st4" d="M517.9,593.4c-2.7-2.4-2.7-4.3,0-6.3c3.1-0.2,2.4,2.3,2.5,4.2C520.5,593,519.8,594.1,517.9,593.4z"/>
	<path class="st4" d="M500.4,590.3c0.5,2.2-2.1,1.9-2.5,3.4c-1.4,0.8-2.7,2.3-4.6,1c0.7-1.6,2.1-2.8,3.4-4.2
		C497.9,589.2,499.2,591.3,500.4,590.3z"/>
	<path class="st4" d="M485.6,595c-0.3-1.9-1.8-3.4-1.7-5.5c2,0.4,4.7-0.5,4.4,3.3C488.1,594.7,487.3,595.4,485.6,595z"/>
	<path class="st0" d="M165,480.5c-0.7-2,0.1-2.9,1.8-2.5c1.6,0.4,4.4-1.6,4.9,2.5C169.3,480.5,167.2,480.5,165,480.5z"/>
	<path class="st0" d="M418.9,433c-0.8,0.8-1.6,1.7-2.6,2.6c-0.8-0.9-1.5-1.8-2.3-2.7c0-1.6,1.2-2.1,2-3.1
		C417.3,430.8,418.2,431.7,418.9,433z"/>
	<path class="st0" d="M124.9,491.2c1.1,1.6,1.8,2.6,2.7,3.8c-0.7,0.7-1.4,1.5-2.1,2.2c-1.2-0.4-1.8-1.3-2.5-2.2
		C123.4,493.7,124.7,493.1,124.9,491.2z"/>
	<path class="st0" d="M141.2,454c0.2-3-1.2-5.5,1.6-7.9C142.8,449.1,144,451.5,141.2,454z"/>
	<path class="st0" d="M355.5,521.3c0-1.4,0-2.5,0-3.8c1-0.1,2.2-1,2.6,0.8C358.5,520.1,357.6,521.1,355.5,521.3z"/>
	<path class="st0" d="M436.5,546c0.4,2.6-1.5,1.7-2.5,1.7c-1.1,0-2.9,0.7-2.4-1.9C433.2,545.9,434.8,545.9,436.5,546z"/>
	<path class="st5" d="M3.3,397.5c-0.9,0.8-1.9,0.5-2.9,0.5c0-1.2,0-2.4,0-4C1.5,395.4,2.8,396.1,3.3,397.5z"/>
	<path class="st0" d="M263.5,590.1c0,1.6,0.1,3.3,0.1,4.9c-1.6,0.1-1.6-1.9-2.7-2.5C261.3,591.1,262.7,591,263.5,590.1z"/>
	<path class="st9" d="M436.5,546c-1.7,0-3.3-0.1-5-0.1c-0.7-1.9,0.9-1.4,1.4-1.3C434.2,544.9,436.1,543.2,436.5,546z"/>
	<path class="st1" d="M465.2,594.9c0.2-0.2,0.5-0.3,0.7-0.5c3.3,0.1,6.5,0.1,9.8,0.2c0,0.1,0,0.3,0,0.4
		C472.2,595.2,468.7,595.4,465.2,594.9z"/>
	<path class="st1" d="M567.5,499.3c0.2-0.9,0.8-0.9,1.5-0.8C568.7,499,568.3,499.5,567.5,499.3z"/>
	<path class="st1" d="M465.1,525.9c0,0.6-0.1,1.2-0.8,1.2C464.4,526.5,464.5,526,465.1,525.9z"/>
	<path class="st2" d="M789.7,465.7c0-0.5-0.1-1.1-0.1-1.6C790.2,464.5,790.4,465.1,789.7,465.7z"/>
	<path class="st1" d="M101.5,261.4c0-0.6,0.3-0.6,0.7-0.6C102,261,101.8,261.2,101.5,261.4z"/>
	<path class="st1" d="M47.5,264c0.2,0,0.4,0,0.6,0c-0.1,0.3-0.2,0.6-0.3,0.9c-0.1-0.1-0.2-0.2-0.3-0.3
		C47.5,264.4,47.5,264.2,47.5,264L47.5,264z"/>
	<path class="st1" d="M402.4,478c0-0.6,0.4-0.7,0.9-0.7C403,477.5,402.7,477.7,402.4,478z"/>
	<path class="st1" d="M380.7,117.2c0-0.6,0.4-0.6,0.8-0.7C381.2,116.7,381,116.9,380.7,117.2z"/>
	<path class="st1" d="M381.5,456.1c-0.2,0.3-0.3,0.8-0.8,0.6C380.8,456.2,381.1,456,381.5,456.1z"/>
	<path class="st0" d="M47.6,264c0,0.2-0.1,0.4-0.1,0.6c-0.2,0-0.4-0.1-0.5-0.2C47.1,264.2,47.1,263.7,47.6,264z"/>
	<path class="st1" d="M465.8,525.1c-0.2,0.2-0.4,0.5-0.6,0.7C465.3,525.6,465.5,525.4,465.8,525.1z"/>
	<path class="st9" d="M276.1,68.2c1.3-0.4,2.5-0.5,3.8,0.1c0,3.5,0,7,0,10.5c-1.2,0.7-2.4,0.5-3.8,0.2
		C276.1,75.4,276.1,71.8,276.1,68.2z"/>
	<path class="st10" d="M313.2,21.1c2.1,2.3,3.9,4.5,5.9,6.7c-0.1,1.1-1,1.6-2,2.2c-2.1-1.3-3.6-3.4-5.3-5.3
		C310.3,23,311.8,22.3,313.2,21.1z"/>
	<path class="st10" d="M248.2,48.2c-0.3-1.6-0.4-3,0-4.5c1.1-0.4,2.5-0.9,3.2,0.4c0.6,1.1,0.6,2.7,0,3.8
		C250.8,49,249.5,48.6,248.2,48.2z"/>
	<path class="st3" d="M272,59.6c-0.1,1.2-0.6,2.2-1.8,2.2c-1.2,0-1.7-1-1.8-2.2c0-1.2,0.5-2.2,1.7-2.2
		C271.5,57.4,271.9,58.4,272,59.6z"/>
	<path class="st3" d="M287.1,36.4c-1.1-0.1-1.8-0.7-1.8-1.8c0-1,0.5-2.3,1.5-2.5c1.4-0.2,1.8,1.3,1.9,2.4
		C289,35.6,288.1,36.2,287.1,36.4z"/>
	<path class="st11" d="M341,31.4c-1.2-0.1-2.5,0.2-2.4-1.5c0.1-1.9,1.6-1.3,2.6-1.4c1.1,0,2.5-0.3,2.3,1.6
		C343.3,32,341.7,31.1,341,31.4z"/>
	<path class="st3" d="M315.5,77.1c-1.1-0.3-1.7-0.9-1.7-2c0-1.2,0.6-1.9,1.7-1.8c1,0.1,1.7,0.7,1.7,1.9
		C317.1,76.4,316.3,76.9,315.5,77.1z"/>
	<path class="st3" d="M263.6,69.3c-0.1,1.1-0.8,1.8-1.8,1.7c-0.8-0.1-1.5-0.7-1.5-1.8c0-1.2,0.7-2,1.7-2
		C262.9,67.3,263.6,68.1,263.6,69.3z"/>
	<path class="st3" d="M236.1,18.3c-1.1-0.3-1.8-0.9-1.7-2.1c0.1-1,0.8-1.8,1.9-1.7c1.1,0.1,1.8,0.7,1.6,1.9
		C237.8,17.6,237.1,18.2,236.1,18.3z"/>
	<path class="st3" d="M244.8,23.4c-0.2,1.1-0.7,1.8-1.8,1.7c-0.9-0.1-1.5-0.7-1.5-1.7c0-1.2,0.7-1.9,1.7-1.9
		C244.2,21.5,244.7,22.2,244.8,23.4z"/>
	<path class="st3" d="M331.2,44.2c0,0.8-0.9,1.5-1.7,1.4c-0.9-0.1-1.6-0.9-1.5-2.1c0.1-1,0.7-1.6,1.6-1.6
		C330.7,41.8,331.3,42.5,331.2,44.2z"/>
	<path class="st9" d="M141.6,593.9c-1.2,0.5-2.3,0.5-3.5-0.1c0-3.3,0-6.7,0-10c1.1-0.8,2.2-0.4,3.5-0.4
		C141.9,587,141.8,590.5,141.6,593.9z"/>
	<path class="st10" d="M111.3,564.3c-0.5-1.2-0.4-2.2-0.2-3.2c1.1-0.8,2.3-0.5,3.5-0.3c0.7,1.2,0.6,2.3,0.1,3.4
		C113.6,564.8,112.5,564.7,111.3,564.3z"/>
	<path class="st3" d="M88.3,566.5c-0.8,0.1-1.4-0.7-1.4-1.6c0-1,0.5-1.9,1.7-1.9c1.2,0,1.7,0.8,1.6,1.9
		C90.1,566,89.4,566.5,88.3,566.5z"/>
	<path class="st3" d="M108.1,541c-0.1,0.8-0.6,1.6-1.7,1.5c-1,0-1.5-0.8-1.5-1.7c0-1.1,0.5-1.9,1.7-1.8
		C107.5,539.1,108.1,539.5,108.1,541z"/>
	<path class="st3" d="M125.2,518.3c0.9,1.1,2.6,1.9,1,3.7c-0.6,0.7-1.6,0.7-2.2-0.1C123.1,520.3,124.2,519.3,125.2,518.3z"/>
	<path class="st3" d="M154.8,550.8c0,1-0.6,1.6-1.5,1.6c-1.1,0.1-1.6-0.7-1.6-1.9c0-1.2,0.7-1.5,1.6-1.5
		C154.3,549.1,154.8,549.7,154.8,550.8z"/>
	<path class="st3" d="M133.6,569.2c-0.9,0-1.6-0.4-1.6-1.5c0-1.2,0.6-1.9,1.6-1.9c1,0,1.5,0.7,1.5,1.7
		C135.1,568.5,134.6,569.2,133.6,569.2z"/>
	<path class="st3" d="M141.3,575c-0.1,1.1-0.7,1.6-1.7,1.5c-1-0.1-1.5-0.8-1.4-1.8c0.1-0.9,0.7-1.6,1.7-1.5
		C140.9,573.3,141.3,574.1,141.3,575z"/>
	<path class="st10" d="M76.7,558.2c0,1-0.3,1.7-1.4,1.6c-1-0.1-1.1-0.8-1.1-1.6c0-1,0.3-1.7,1.4-1.6
		C76.6,556.6,76.7,557.4,76.7,558.2z"/>
	<path class="st10" d="M145.4,560.5c1.6-0.9,3.2-0.9,5.3-0.2C148.6,561.7,147,561.3,145.4,560.5z"/>
	<path class="st12" d="M37.8,417.3c-0.3,1-0.8,1.8-1.9,1.7c-0.9-0.1-1.3-0.9-1.3-1.9c0.1-1,0.6-1.6,1.6-1.6
		C37.3,415.6,37.6,416.4,37.8,417.3z"/>
	<path class="st12" d="M10.7,448.2c1.2,0.1,1.3,0.9,1.3,1.9c-0.1,1-0.5,1.7-1.5,1.6c-1-0.1-1.3-0.9-1.3-1.9
		C9.2,448.7,9.8,448.3,10.7,448.2z"/>
	<path class="st2" d="M475.6,594.6c-3.3-0.1-6.5-0.1-9.8-0.2c-3.3-6.5-5.9-13.3-7.1-20.7c-2.3-13.9-0.3-27,6-39.4
		c7.2-14.1,18-23,32.3-27.7c7.9-2.6,15.8-3.2,23.6-1.1c11.4,3.1,21.6,8.6,29.3,18.9c9,12.1,13.8,25.5,13.2,40.9
		c-0.4,9.7-2.7,18.9-7.2,27.5c-0.7,1.4-1.6,1.8-3,1.8c-2.4-0.1-4.8-0.1-7.1-0.1c2.4-4.7,5.4-9.1,6.8-14.4
		c4.5-15.9,3.4-30.9-5.4-45.2c-6.6-10.7-15.5-17.5-26.9-20.4c-6.3-1.6-12.9-2.3-19.3,0.3c-0.7,0.2-1.5,0.4-2.2,0.7
		c-3.1-0.2-6,0.9-8.4,2.8c-2.1,1.7-4.4,3.2-6.6,4.9c-10.2,8-15.6,18.9-17.6,32C464.2,569.7,467.4,582.8,475.6,594.6z"/>
	<path class="st0" d="M498.9,515.3c0.7-0.2,1.5-0.4,2.2-0.7c11.7,1.5,15.7,9.8,12.8,20.4c-1.6,6-11.1,9.4-16,6.3
		c-1.2-0.7-2.4-1.3-3.5-2c-2.3-1.4-3.6-3.6-3.7-6.4c0-0.9,0.1-1.8,0-2.7c-0.9-6.5,1.6-11.1,7-13.9
		C498.1,516.1,498.5,515.7,498.9,515.3z M508.3,534.4c2.8-1.3,2.1-4.1,2.7-6.4c-0.9-3.8-2-7.4-6.7-7c-0.4,0-0.8-0.7-1.2-1
		c-2.3-1-2.2,2.4-3.9,2.5c-0.6,0.2-1.1,0.3-1.7,0.5c-0.2,2.1-1.6,3.3-2.7,4.8c-1.1,1.5-0.7,2.8,1,3.5c0.1,0.7,0.2,1.4,0.3,2.1
		c0.6,3.1,2.7,4.7,6.9,5.1C505,537.4,506.9,536.3,508.3,534.4z"/>
	<path class="st0" d="M498.7,562.6c-0.9-9.2,3.1-10.8,10.5-13.7c5.1-1.9,13.4,5.6,13.4,11.4c0,2.4,0.4,4.9-0.3,7.3
		c-2.2,7.5-10.6,10.8-17.2,7.4C499.5,572.1,498.4,568.9,498.7,562.6z M516.1,557.8c0-0.9-0.4-1.4-1.2-1.3c-0.3-0.3-0.5-0.6-0.8-0.9
		c-3.9-1.2-5.4-1.4-7.2-0.9c-3.3,1.2-4.2,2.9-3.2,5.9c-0.8,1.2-1.8,2.3-1.2,4c0.5,1.9,2.5,2.4,3.1,4.2c0,0.6,0.6,0.8,0.9,1.1
		c2.8,3.5,5.7,3.4,8.3-0.3c0.8-1.1,1.9-2,2.9-3c1.7-1.8,1.5-4.3-0.4-5.9C517.4,559.5,517.2,558.4,516.1,557.8z"/>
	<path class="st0" d="M540.4,579.1c-5,0-11.1-6.8-11.2-12.5c0-9.4,5.4-15.3,14-15.2c4.6,0.1,11.2,7.7,11.2,12.9
		C554.4,573.9,549.6,579,540.4,579.1z M534.8,569.5c-0.4,1.4,0,2.4,1.2,3.2c1.2,1.8,2.9,1.9,4.7,1.9c2.9,1.4,3.8-3.6,6.8-2
		c-0.7-1.5-0.7-1.5-0.3-2.7c1.6-0.6,3.4-0.9,2.2-3.5c-0.1-0.3,0.5-0.9,0.7-1.4c0-1.4,0.1-2.9-1.3-3.7l0,0.2c0.3-2.5-1.9-2.8-3.1-3.9
		c-0.6-0.6-1.2-1.3-2.1-1.5c-2.6,0-5.6-1-6.3,3.2c-0.1,0.6-0.8,1.2-1.6,1.4c-2.5,1.1-1.4,3.8-2.2,5.7c0.1,1.4-0.5,3.1,1.6,3.4
		l-0.2,0L534.8,569.5z"/>
	<path class="st0" d="M484.3,569.1c-8.8-0.1-13.5-5.4-13.5-15c0-5.6,6.2-12.7,11.1-12.7c8.2,0,14.2,6.4,14.1,15.3
		C495.9,562,489.2,569.1,484.3,569.1z M489.4,551.1c0.5-1.1,0.6-2.2-0.7-2.4c-1.2-0.1-1.5-1.3-2.5-1.5c-2.1-1.1-4.1-1.1-6.2,0
		c-1.5,1.2-3.2,2.1-4,4.1c-1.9,2.2-2.1,4.8-0.5,7.1c0.7,1.1,0.9,2.2,1.2,3.3c0.7,0.9,1.4,1.5,2.5,0.7c1.2,2.7,4.1,3.5,6.9,1.9
		c0.9-0.5,1.5-1.5,2.6-1.5c0.8-1.5,1.6-3,2.3-4.5C492.6,554.6,492.1,552.3,489.4,551.1z"/>
	<path class="st0" d="M529,523.3c8.7-0.1,14,5.6,14.1,15.3c0.1,4.8-7.1,12.5-11.6,12.4c-8.3,0-13.5-5.8-13.6-15.1
		C517.9,530.2,523.8,523.4,529,523.3z M526.8,545.8c2.3,1.8,4.7,1.6,7.1,0.2c0.5-2,3.6-2,3.3-4.7c2.1-2.1-0.1-4.9,1-7.2
		c0.3-0.7-1.1-0.7-1.6-1c0.9-2.1,0.3-3.1-1.8-3.2c-2.1-3.2-5.7-3.5-8.2-0.6c-0.9,0.3-1.9,0.6-2.6,1.5c-0.1,0.5,0,1.2-0.3,1.6
		c-3.1,3.7-1.8,7.2,0.3,10.7C524.7,544.1,526.9,543.6,526.8,545.8z"/>
	<path class="st12" d="M547.3,545.4c0,0.8-0.3,1.6-1.2,1.5c-0.9-0.1-1.1-0.9-1-1.7c0-0.7,0.3-1.3,1.1-1.3
		C547.1,543.8,547.2,544.6,547.3,545.4z"/>
	<path class="st0" d="M250.1,450.2c2.9-2.1,5.8-4.2,8.6-6.4c1.7-1.3,3.4-1.7,5.1-0.4c1.8,1.3,2.3,3.2,1.9,5.5
		c-0.8,4.7-2.1,9.4-1.9,14.3c0.1,2.3,0.1,4.7,1.4,6.8c1,3.6,3.5,5.9,6.1,8.2c-1,1.1-2,2.1-3,3.2c-2.1,1.4-4.1,2.8-6.2,4.2
		c2-5.3,1-10.9,1.3-16.4c0.2-3.5-1.1-6.2-3.7-8.3C256.5,457.3,254.1,452.9,250.1,450.2z"/>
	<path class="st6" d="M287.7,493.2c2.1,4.6,0.3,9.3,0,14c-0.7,0.6-1.3,1.2-2,1.8c-1.6,1.1-3.2,2.3-4.9,3.4c-2.9,1.9-5.4,4.8-9,5.1
		c-1.8-0.3-3.5-0.5-5.3-0.8c-7-0.6-8.7,0.4-9.8,5.9c-0.7,3.3-1.2,6.7-1.8,10.1c-0.3,1.8-0.5,3.5-0.8,5.3c-0.8,5-1.6,10-2.6,15
		c-0.6,3-0.8,6.2-3.3,8.4c-1.2,0.3-1.9,1.3-2.8,2c-0.4,0-0.7,0-0.7,0.6l0,0c-3.9,1.3-7.7,1.6-10.8-2c-1.1-1.2-2.1-2.5-2.2-4.3
		c-0.5-3.7,1-6.7,3.3-9.3c0.8-0.6,1.6-1.1,2.5-1.7c1.6-2,3.5-3.7,3.6-6.7c4.1-1.9,8.2-3.7,12.5-5.7c-1.7-3-2.4-6.2-5.2-7.8
		c-0.5-2.8-2.8-4.5-3.7-7.1c0.1-1,0.3-2.1,0.4-3.1c0.7-3.4,1.3-6.9,2-10.3c0.8-3.6,2.9-5.4,6.3-5.5c1.3,0,2.7,0.2,4,0.2
		c0.8,0.6,1.6,0.6,2.5,0.6c7.3,0.5,11.7-5,16.6-9.4c1.1-0.6,2.1-1.2,3.2-1.8c2.3-0.5,4.4,0.4,6.5,1C287,491.5,286.7,493,287.7,493.2
		L287.7,493.2z M257,512.1c-1.6-0.3-3.1-0.7-4.6-0.8c-4.1-0.4-4.1-0.4-4.6,4.2c2.8,0.3,5.4,1.8,8.6,1.6
		C256.6,515.6,257.4,514.2,257,512.1z M278.3,501.4c-6.3,3.7-6.5,4-4.1,6.4c2.2-0.8,3.2-3.2,5.2-4.2
		C279.4,502.6,279,501.9,278.3,501.4z M247.1,552.8c1.3-1,2.6-2,3.9-2.9c-0.3-1.2-0.8-1.9-1.6-2.2
		C244.8,550.4,244.8,550.5,247.1,552.8z M245.2,547.8c-2.1-0.3-3.4,1.1-5,3.1C242.9,551,243.9,549.2,245.2,547.8z M279,495.1
		c0.1,2.1,1.3,3.5,3.4,5.4C281.6,497.7,280.5,496.2,279,495.1z"/>
	<path class="st6" d="M259.8,460.7c2.6,2,3.9,4.8,3.7,8.3c-0.3,5.5,0.7,11.1-1.3,16.4c-2.2,2-4.5,3.9-7.6,4
		c-1.8-0.2-3.6-0.5-5.4-0.7c-6.4-1.6-8.7,0.7-9.9,7.1c-0.5,2.9-1.1,5.8-1.6,8.7c-0.7,1.9-0.5,3.9-0.7,5.8
		c-1.1,6.6-2.3,13.1-3.4,19.7c0,0,0-0.1,0-0.1c-0.9,1.4-1.8,2.7-2.7,4.1c-1.3,0.8-2.8,1.4-3.7,2.9c-0.5,0.4-0.9,0.7-1.4,1.1
		c-2.9-0.6-5.6-1.8-7.3-4.6c-0.8-3.6-1.1-7.1,1.3-10.2c0.9-0.7,1.7-1.4,2.3-2.5c1.2-1.1,1.7-2.5,2-4.1c1-0.4,2,0.9,3.2-0.2
		c-0.1-2,1.4-4.1,0.9-6.4c-1.1-0.9-2.5-0.4-3.6-1c0.1-3.9,0.2-7.7,0.2-11.6c0-2,0-3.9,0-5.9c0.6-2,0.2-4,0.3-6
		c3.4-0.2,6.8-0.3,10.2-0.5c0.7-1.6,1-3.2,0.9-4.9c1.7-1.4,0-3.9,1.4-5.4c2.5-0.1,4.2-1.6,5.8-3.4c2.5-2.7,4.9-5.6,7.4-8.4
		c0.8-0.7,1.6-1.4,2.5-2.1C255.7,460.1,257.8,460.4,259.8,460.7z M248.2,483.7c7-4.1,7.4-5.1,3-9c-1.9,1.4-3.9,2.7-5.6,4.7
		C246.5,480.8,247.3,482.2,248.2,483.7z M230.1,494.4c0.9,1.2,1.2,2.7,2.5,3.4c0.8-0.5,1.7-0.8,2-1.9c-0.8-1.3-1.6-2.6-2.7-4.5
		C231.7,493.1,230.8,493.5,230.1,494.4z"/>
	<path class="st8" d="M224.4,516.5c-0.3,1.6-0.8,3.1-2,4.1c-3.7-2.5-5.9-6.5-8.2-10.3c1.6-1.9,2.1-4.2,2.1-6.7
		c0-5.4,0.1-10.8,0.2-16.3c2.8,0.4,4.1,2.8,5.2,5.1c0.9,1.8,1.4,3.9,3.4,4.9c-0.1,3.9-0.2,7.7-0.2,11.6c-2.6,1.1-1.2,3.8-1.9,5.7
		C222.5,516,223.4,516.3,224.4,516.5z"/>
	<path class="st8" d="M251.1,462.9c-2.4,2.8-4.8,5.7-7.4,8.4c-1.6,1.7-3.3,3.3-5.8,3.4c-0.6-2.4-3-1.8-4.3-3
		c-1.1-2.4-2.2-4.7-3.2-7.1c1-0.9,2.9-0.7,3.2-2.6c0,0,0,0,0,0c0.6,0.2,0.9,0,1.1-0.7c2.6-2.5,5.1-5,7.7-7.5
		C245.6,456.4,249.1,458.9,251.1,462.9z M243.7,468.5c0.5-1.5,0.7-2.9,0.5-4.3c-1.2-0.1-2.2-0.9-3.5-0.4c-0.2,1.3-0.4,2.7-0.6,4
		C241.3,468.6,242.4,468.6,243.7,468.5z"/>
	<path class="st8" d="M225.5,485.4c-0.1,2,0.3,4-0.3,6c-4.1-2.2-6.5-6-8.5-10.2c0-2.7,0.1-5.3,0.1-8c0.1-6,2.6-8.6,8.2-8.5
		c0.7,1.3,1.4,2.6,2,3.9c-1.2,0-2.2-1.3-3.7-0.5c-0.4,2.8-0.9,5.7-1.3,8.6c-0.4,2.7-0.9,5.5-1.3,8.3
		C222.5,485.2,224,485.3,225.5,485.4z"/>
	<path class="st8" d="M226,537.9c0.5-0.4,0.9-0.7,1.3-1.1c3.7,2.9,6.7,6.4,7.7,11.4c-2.2,2.6-3.7,5.6-3.3,9.3c-2-3.1-4.2-6.1-6-9.2
		C223.7,544.9,224.3,541.4,226,537.9z"/>
	<path class="st8" d="M252.4,576.1c-3.2,2.7-3.6,6.5-3.2,10.5c-2.1-3.5-4.4-6.9-6.4-10.4c-2.3-4.1-1.5-8.4,2-11.8
		C248.1,567.7,250.5,571.7,252.4,576.1z"/>
	<path class="st8" d="M220.1,523.1c-2.5,3.1-2.1,6.6-1.3,10.2c-2.3-2.7-4.6-5.3-6.9-8c-3-3.7-3.2-7.5-0.6-11.5
		C215.7,515.3,218,519.2,220.1,523.1z"/>
	<path class="st12" d="M220.6,562c0.3-2.1,0.6-3.8,0.9-5.6c3,0.2,5.8,0.6,8.7,1.6c0.1,1.9-0.2,3.7-0.9,5.6
		C226.4,563.5,223.7,562.5,220.6,562z"/>
	<path class="st2" d="M252.4,576.1c-1.8-4.4-4.3-8.4-7.6-11.7c0-0.2,0.1-0.5,0.1-0.7c0,0,0,0,0,0c0.2-0.2,0.5-0.4,0.7-0.6
		c0.9-0.7,1.6-1.8,2.8-2c0.8,5.1,2.8,9.5,6.5,12.9C254.2,575.1,253.3,575.6,252.4,576.1z"/>
	<path class="st2" d="M216.6,481.1c2,4.2,4.4,8.1,8.5,10.2c0,2,0,3.9,0,5.9c-2-1-2.5-3-3.4-4.9c-1.1-2.3-2.4-4.7-5.2-5.1
		C216.2,485.2,216,483.2,216.6,481.1z"/>
	<path class="st2" d="M220.1,523.1c-2.1-4-4.4-7.8-8.8-9.3c0.4-1.8,1.7-2.6,2.9-3.5c2.2,3.9,4.4,7.8,8.2,10.3
		C221.8,521.7,221,522.5,220.1,523.1z"/>
	<path class="st2" d="M227,468.6c-0.7-1.3-1.4-2.6-2-3.9c1.8-0.1,3.7-0.1,5.5-0.2c1.1,2.4,2.2,4.7,3.2,7.1
		C231.4,470.6,229.2,469.6,227,468.6z"/>
	<path class="st3" d="M209.4,532.4c0.1,1.4-0.3,2.2-1.4,2.3c-1.1,0.1-1.7-0.5-1.7-1.8c0-1.2,0.2-2.3,1.5-2.3
		C209,530.6,209.4,531.5,209.4,532.4z"/>
	<path class="st3" d="M198.6,484.6c-0.9,0-1.5-0.5-1.6-1.6c-0.1-1.2,0.5-1.9,1.6-1.9c1,0,1.6,0.7,1.6,1.9
		C200.1,484.1,199.5,484.6,198.6,484.6z"/>
	<path class="st12" d="M212.6,538.5c0.1,0.6-0.2,0.7-0.7,0.7C211.8,538.6,212.2,538.5,212.6,538.5z"/>
	<path class="st8" d="M254.9,574.1c-3.7-3.4-5.8-7.8-6.5-12.9c2.5-2.2,2.7-5.4,3.3-8.4c0.9-5,1.7-10,2.6-15c2.3,1.7,3.7,4.1,4.4,6.9
		c0.5,2.1,1.3,4.2,2.6,5.9c-0.9,6.6-1.5,13.3-3.5,19.7C257.2,572.1,256.3,573.4,254.9,574.1z"/>
	<path class="st8" d="M271.8,517.5c3.7-0.4,6.1-3.2,9.1-5.1c1.6-1.1,3.3-2.2,4.9-3.4c3.9,2.9,6.8,6.6,7.6,11.7c0,0.1,0,0.3,0.1,0.4
		c-1.7,0.2-1.9,3.4-3.8,2.7c-1.8-0.7-1.3,1-1.9,1.5c-1.2,0.3-2.1,1.1-3,2c-0.8-0.2-1.3,0.1-1.4,1.1c-2,0.8-4.1,1.2-6.3,0.8
		C274.3,525.9,273,521.7,271.8,517.5z"/>
	<path class="st8" d="M254.9,532.6c0.6-3.4,1.1-6.7,1.8-10.1c1.1-5.5,2.8-6.5,9.8-5.9c0.4,2.8,1.8,5.1,3.8,7c1.5,1.5,3.3,2.7,3.9,5
		c-1.4-0.1-2.9-0.2-4.3-0.1c-2.7,0.1-4.7,1.4-5.4,4.4c-0.8,3.7-1.6,7.5-2.4,11.2C258.2,541.4,256.9,536.8,254.9,532.6z"/>
	<path class="st0" d="M287.7,525.3c0.6-0.5,0.1-2.2,1.9-1.5c1.9,0.7,2.1-2.4,3.8-2.7c0.6,1.6,1.2,3.1,1.8,4.6
		c0.9-0.1,1.4-1.2,2.3-0.8c0.5,2.4-0.9,4.1-1.5,6c-0.3,0.4-0.7,1-0.1,1.3c0.8,0.4,0.5-0.5,0.7-0.9c1.3-0.4,2.6-1.2,3.9-1.1
		c1.1,1.6-1.1,2.9,0,4.9c0.7,1.2-2.1,2-3.4,3.3c1,0.4,1.6,0.6,2.3,0.9c-0.5,0.9-1.5,1.1-2.2,1.6c-0.9,0.1-1.9,0.2-2.8,0.2
		c-1.5,0-2.9,1.6-4.4,0.8c-2.4-1.4-4.7-3.1-7.1-4.7c0.6-1.2,1.6-0.3,2.2-1.1c-1.4-1.8-3.7-3.4-1.2-6.2c0.2-0.2-0.3-1-0.4-1.5
		c0.1-0.9,0.6-1.2,1.4-1.1c1.1,1,2.2,2,3.7,3.3C288.1,528.6,287.9,526.9,287.7,525.3z"/>
	<path class="st8" d="M297.1,540.9c0.8-0.5,1.7-0.7,2.2-1.6c1.3-0.8,2.5-1.6,3.8-2.4c3.4,2.6,5.7,6.1,7,10.4
		c-2.8,2.1-5.7,4.3-8.5,6.3c-1.9,1.4-4.1,1.9-6.4,1.6c-2.2-3.2-3.7-6.8-4.6-10.6C293,544,295.4,543.2,297.1,540.9z"/>
	<path class="st8" d="M292.8,554.7c-1.1-0.1-2.3-0.3-3.4-0.3c-2.9,0-4.9,1.3-5.5,4.6c-0.6,3.2-1.3,6.5-1.9,9.7
		c-3.5-2.9-5.7-6.7-6.3-11.5c0.5-3,0.8-6.1,1.7-9.1c1.3-4.6,3.6-5.6,8.4-4.3c0.1,2.7,1.5,4.8,3.4,6.3
		C290.7,551.4,292.1,552.7,292.8,554.7z"/>
	<path class="st12" d="M263.7,559.5c1.8,0.4,3.5,0.3,5.2,1.4c-0.7,3.4-1.4,6.8-2.2,10.7c-1.3-1.6-3.1-0.9-4.7-1.8
		C262.4,566.3,262.6,563,263.7,559.5z"/>
	<path class="st0" d="M265.8,547.3c1.9-0.7,2.2-3.1,4.3-3.4c1.3,2.2,2.6,4.4,4,6.7c-1,1.6-2.6,2.2-4.1,3.3
		C268.7,551.7,267.4,549.7,265.8,547.3z"/>
	<path class="st2" d="M274.3,528.6c-0.7-2.2-2.4-3.5-3.9-5c-2-1.9-3.4-4.1-3.8-7c1.8,0.3,3.5,0.5,5.3,0.8c1.2,4.2,2.5,8.4,5.3,11.8
		C276.1,529.3,275.1,529.3,274.3,528.6z"/>
	<path class="st2" d="M254.9,532.6c2,4.1,3.3,8.8,7.3,11.5c0.2,2.3-0.3,4.5-1.1,6.6c-1.3-1.8-2-3.8-2.6-5.9
		c-0.7-2.8-2.1-5.2-4.4-6.9C254.4,536.1,254.7,534.4,254.9,532.6z"/>
	<path class="st2" d="M292.8,554.7c-0.7-1.9-2-3.2-3.5-4.5c-2-1.6-3.3-3.6-3.4-6.3c1.6,0.2,3.2,0.5,4.8,0.7
		c0.9,3.9,2.5,7.4,4.6,10.6C294.4,555.2,293.5,555.3,292.8,554.7z"/>
	<path class="st12" d="M272.6,540.5c-4-4.4-4-4.9-0.2-8.6c1.6,1.6,3,3.5,4,5.9C275.3,539,274,539.9,272.6,540.5z"/>
	<path class="st2" d="M275.7,557.2c0.5,4.8,2.7,8.6,6.3,11.5c-0.3,2-0.2,4-1,5.9c-1.1-1.1-1.6-2.5-1.9-4c-0.7-3-2.3-5.3-4.4-7.4
		C274.6,561.1,275.1,559.2,275.7,557.2z"/>
	<path class="st0" d="M272.3,577.2c1.1,0.3,2.1,0.7,3.3,1.1c0.7,1,0,2,0,3c-1.7,0.8-3.1-0.6-4.6-0.2c-1.4-0.4-2.7-0.8-4.2-1.2
		c0.2-1.1,0.4-2.2,0.6-3.4C269.1,576.8,270.7,577,272.3,577.2z"/>
	<path class="st8" d="M306.7,535c2.8-0.9,5,0.4,6.6,2.5c2.1,2.9,4.2,5.7,5.4,9.2c-2-0.8-4-1.3-6.1-0.8c0-0.8-0.4-1.5-1-2
		C309,541.5,307.6,538.4,306.7,535z"/>
	<path class="st12" d="M289.1,574c0.6-3.6,0.5-7.2,1.5-10.6c1.9-0.7,3.4,0.8,5.5,0.3c-0.7,4-1.4,7.5-2,11
		C292.2,575.3,290.8,574.2,289.1,574z"/>
	<path class="st2" d="M306.7,535c0.8,3.5,2.3,6.6,4.9,9c0.6,0.5,0.9,1.2,1,2c-0.8,0.5-1.6,1-2.4,1.4c-1.3-4.3-3.6-7.7-7-10.4
		c0.5-0.6,1.1-1.2,1.6-1.7C305.4,535.1,306,535.1,306.7,535z"/>
	<path class="st6" d="M304.7,535.2c-0.5,0.6-1.1,1.2-1.6,1.7c-1.3,0.8-2.5,1.6-3.8,2.4c-0.7-0.3-1.3-0.5-2.3-0.9
		c1.3-1.3,4-2.1,3.4-3.3c-1.1-2,1.1-3.3,0-4.9c-1.3-0.1-2.6,0.7-3.9,1.1c-0.2-0.1-0.3-0.3-0.5-0.4c0.6-1.9,2-3.6,1.5-6
		c-0.9-0.4-1.3,0.7-2.3,0.8c-0.6-1.5-1.2-3-1.8-4.6c-0.1-0.1-0.1-0.3-0.1-0.4c1-0.5,2.1-1.1,3.1-1.6c0.9-1.3,2.2-1.4,3.5-1
		c0.9,0.3,1.4,1.6,2.6,1.1c0,0,0,0,0,0c0.2,0.3,0.4,0.5,0.6,0.8c2.6,2.5,2.9,5.7,2.4,9.1C305.3,531.1,305,533.2,304.7,535.2z"/>
	<path class="st8" d="M302.6,519.2c-1.2,0.5-1.8-0.8-2.6-1.1c-1.3-0.5-2.6-0.4-3.5,1c-2.8-3.8-5.2-7.9-7.3-12.1
		c2.3-1,4.6-0.5,6.3,1.1C298.6,511.1,301.1,514.9,302.6,519.2z"/>
	<path class="st2" d="M289.1,507c2.1,4.3,4.5,8.3,7.3,12.1c-1,0.5-2.1,1.1-3.1,1.6c-0.8-5.2-3.7-8.8-7.6-11.7c0.7-0.6,1.3-1.2,2-1.8
		C288.2,507.1,288.6,507,289.1,507z"/>
	<path class="st3" d="M323.6,542.5c0,0.9-0.7,1.4-1.6,1.4c-1.1,0-1.6-0.8-1.5-1.9c0.1-1,0.8-1.5,1.7-1.4
		C323.2,540.7,323.7,541.3,323.6,542.5z"/>
	<path class="st3" d="M310.8,521.5c-0.1,1.1-0.6,1.7-1.6,1.7c-1,0-1.6-0.7-1.6-1.6c0-1.1,0.6-1.8,1.8-1.7
		C310.5,519.9,310.7,520.7,310.8,521.5z"/>
	<path class="st8" d="M303.2,520c-0.2-0.3-0.4-0.5-0.6-0.8C302.7,519.5,303,519.7,303.2,520z"/>
	<path class="st12" d="M384.2,105.1c-1.1,2.6-3,4.2-5.3,5.4c-2.5-1.2-0.7-2.6,0-3.9c-2.5-1.2-4.9-1.1-7.9,0.4
		c1.9,0.2,2.6,2.3,4.1,0.7c0.5-0.6,1.2-0.1,1.6,0.4c0.4,0.4,0.4,1,0.1,1.5c-0.4,0.6-1.1,1.1-1.6,0.6c-1.3-1.4-2.2,0.2-3.3,0.3
		c-2.4-1.1-4.1-3-5.5-5.3c-0.2-1.4,1.4-2.7,0.2-4.2c-0.4-0.5,0.1-1.2,0.7-1.6c0.4-0.2,0.8-0.1,1.1,0.2c0.6,0.5,0.6,1.1,0.5,1.8
		c-0.3,1.9-0.3,1.9,1,3.7c0.6-3.5,1.1-6.5-0.5-10.1c-0.5,1.4-0.3,3.1-1.9,2.7c-1.5-0.4-0.7-1.8-0.9-2.8c0.7-2.3,2.7-3.2,4.3-4.6
		c0.9,0.2,2-0.3,2.4,1c0.4,1.3-1.1,1.5-1.7,2.6c2.8,0.6,5.2,1.2,7.8-0.4c-1.3-0.6-2.3-1.6-3.7-0.6c-0.6,0.5-1.4-0.1-1.5-1.1
		c-0.1-0.9,0.6-1.8,1.3-1.4c1.7,1.1,3.3-0.5,4.9,0c0,0-0.1,0-0.1,0c0,0.6,0.1,1.3,0.2,2.1c0.7-0.4,1.2-0.7,1.7-1
		c1.4,0.9,1.4,2.9,2.6,4c-1.3,1.9-1.6-0.8-3-0.5c-1.6,2.8-1.1,5.9-0.6,9.2c1.2-1.1,2.2-1.7,1-3.3c-0.6-0.8,0-1.7,1-1.9
		c0.8-0.1,1.7,0.9,1.4,1.2C382.6,102.1,384.7,103.6,384.2,105.1z"/>
	<path class="st1" d="M384.2,105.1c0.5-1.5-1.6-3,0.1-4.7c0.3-0.3-0.5-1.4-1.4-1.2c-1,0.2-1.6,1.1-1,1.9c1.2,1.6,0.2,2.2-1,3.3
		c-0.5-3.4-1-6.4,0.6-9.2c1.3-0.3,1.7,2.4,3,0.5C385.9,98.9,386.3,102.1,384.2,105.1z"/>
	<path class="st1" d="M366.5,95c0.2,1-0.6,2.4,0.9,2.8c1.6,0.4,1.4-1.3,1.9-2.7c1.6,3.6,1.1,6.6,0.5,10.1c-1.2-1.8-1.3-1.9-1-3.7
		c0.1-0.7,0.1-1.3-0.5-1.8c-0.3-0.3-0.7-0.4-1.1-0.2c-0.6,0.4-1.1,1.1-0.7,1.6c1.2,1.5-0.4,2.8-0.2,4.2
		C364.7,101.8,364.7,98.4,366.5,95z"/>
	<path class="st1" d="M380.1,90.6c-1.6-0.5-3.2,1.1-4.9,0c-0.6-0.4-1.4,0.4-1.3,1.4c0.1,0.9,0.9,1.5,1.5,1.1c1.4-1.1,2.4,0,3.7,0.6
		c-2.5,1.6-4.9,1-7.8,0.4c0.7-1.1,2.1-1.3,1.7-2.6c-0.4-1.3-1.5-0.8-2.4-1C373.9,88.6,377,88.5,380.1,90.6z"/>
	<path class="st1" d="M371.8,110.6c1.1-0.1,2-1.7,3.3-0.3c0.5,0.5,1.2,0,1.6-0.6c0.4-0.5,0.3-1.1-0.1-1.5c-0.4-0.5-1.1-1-1.6-0.4
		c-1.5,1.6-2.2-0.5-4.1-0.7c3.1-1.5,5.4-1.6,7.9-0.4c-0.6,1.3-2.5,2.7,0,3.9C376.6,112,374.2,112.6,371.8,110.6z"/>
	<path class="st1" d="M381.9,91.7c-0.5,0.3-1,0.6-1.7,1c-0.1-0.9-0.1-1.5-0.2-2.1C380.8,90.6,381.4,91.1,381.9,91.7z"/>
	<path class="st12" d="M99.6,255.3c-2.7,1.3-5.5,1.7-8.2,0.1c0-1.6-0.6-2.4-2.2-2c0,0,0,0,0,0c0.3-2-0.7-2.9-2.5-3c0,0,0,0,0,0
		c-0.1-1.8-0.3-3.6,2.3-2.8c0.2,2.9,2.2,4.2,4.3,5.4c0.1,0.3,0.3,0.6,0.6,0.3c0.1-0.1,0-0.5-0.1-0.8c-1-2.2-1.9-4.6-4.4-5.4
		c-1.3-0.7-2.6-1.1-4-1c0.3-1.9,0.4-3.8,1.2-5.5c2.6-1,4.3-2.7,4.9-5.7c1.8,0.3,3.1-1.7,5.2-1.3c6.3,1.3,10.1,7.4,8.3,14.2
		c-0.2,0.8-0.3,1.7-0.4,2.6c-0.8,0.2-1.6,0.3-2.5,0.5c0.1-1.3,0.1-2.7,0.2-4.1c-2.9,0.9-3.9,3.5-5.2,6.1c1,0,1.8,0,2.6,0
		C99.7,253.6,99.7,254.5,99.6,255.3z M101.4,243c0.1,0.3,0.3,0.5,0.6,0.3c0,0-0.2-0.4-0.3-0.7c0.5-1.8-0.7-1.9-1.9-2
		c-0.3-1.5-0.1-3.6-2.5-2.1c0.3,1.3,0.9,2.2,2,2.8C99.8,242.1,100.3,242.9,101.4,243z M93.2,238.4c-1.9,0.8-3.5,2-4.1,4.2
		c-0.1,0.2-0.2,0.5-0.3,0.7c0.2,0,0.5-0.1,0.7-0.1c2-0.8,3.4-2.2,4.2-4.3c0.5-0.3,0.7-0.7,0.3-1.2C93.7,237.9,93.4,238.2,93.2,238.4
		z"/>
	<path class="st1" d="M91.6,234.9c-0.6,2.9-2.4,4.7-4.9,5.7C87.9,238.2,88.7,235.4,91.6,234.9z"/>
	<path class="st1" d="M102.2,250.8c0.8-0.2,1.6-0.3,2.5-0.5c-0.9,2.5-2.3,4.5-5,5c0-0.9,0.1-1.7,0.1-2.6c0,0,0,0,0,0
		C101.3,253.3,102.5,253,102.2,250.8C102.2,250.7,102.2,250.8,102.2,250.8z"/>
	<path class="st1" d="M89,247.6c-2.6-0.8-2.5,1-2.3,2.8c-0.9-1.3-0.9-2.9-1.2-4.4c1.4-0.2,2.8,0.3,4,1
		C89.4,247.2,89.2,247.4,89,247.6z"/>
	<path class="st1" d="M86.7,250.4c1.8,0.1,2.7,1,2.5,3C87.4,253.3,87.2,251.7,86.7,250.4z"/>
	<path class="st1" d="M89.2,253.4c1.6-0.4,2.2,0.4,2.2,2C90.4,255.1,89.2,254.9,89.2,253.4z"/>
	<path class="st12" d="M388.5,473.2c-4-3.6-4.6-8.1-3.1-13.2c2,0.3,2.7-0.7,2.2-2.7c0,0,0,0,0,0c2,1.1,2.5-0.2,2.7-2
		c2.1-0.5,4.4-3,6.3,0.5c-1.4,2.3-0.4,3.7,1.4,4.9c0.6,0.9,1.2,1.9,2.6,1.7c0-0.9,0-1.7,0-2.6c0.8,0.2,1.8,0,2.5,0.7
		c-0.7,1.7,1.2,2.9,0.7,4.6c-2.6-0.6-1.1,1.9-2.1,3.3c-0.3-3.1-1.6-2-2.6-1.2c-1.4,1.1-2.8,2.3-3.2,4.2c-0.6,1.2-0.9,2.4-0.9,3.8
		c-0.6,0-1.1,0-1.7-0.1c-0.1-2.2,0-4.6-2.7-6C390.8,471.4,389.5,472.1,388.5,473.2z M392.5,458.3c-2.1-0.2-4.3,2.3-4,4.5
		C390.3,461.7,391.6,460.3,392.5,458.3z M390.7,469.1c-1-1.3-1.6-2.5-3.4-2.2C388.1,468.2,388.1,470.3,390.7,469.1z M387.3,463
		c-0.4-0.3-0.7-0.3-1.1,0C386.5,463.3,386.9,463.3,387.3,463z"/>
	<path class="st1" d="M395.9,471.7c0.4-2,1.8-3.1,3.2-4.2c1.1-0.9,2.3-1.9,2.6,1.2c1-1.4-0.6-4,2.1-3.3c0.2,2.7-0.4,5-2.4,6.8
		c-0.1-0.2-0.3-0.3-0.4-0.5c0.2-1.1,0.5-2.3-1.1-2.2c-1.7,0.1-1.4,1.4-1,2.6l0-0.1c-0.8,0-1.6,0.1-2.4,0.1
		C396.2,471.9,396,471.8,395.9,471.7z"/>
	<path class="st1" d="M403,460.7c-0.7-0.7-1.6-0.5-2.5-0.7l0.1,0.1c0.1-1.3,0.1-2.7-1.6-2.4c-1.5,0.3-0.8,1.5-0.5,2.5
		c-0.2,0.2-0.4,0.5-0.6,0.7c-1.8-1.2-2.8-2.6-1.4-4.9C399.9,455.1,401.7,456.4,403,460.7z"/>
	<path class="st1" d="M388.5,473.2c0.9-1.1,2.2-1.8,2.1-3.8c2.7,1.4,2.6,3.7,2.7,6C391.3,475.7,390,474.2,388.5,473.2z"/>
	<path class="st1" d="M401.3,472.1c-0.8,1.2-1.8,2.2-3.2,2.6c0,0,0-0.1,0-0.1c0.7-0.7,0.5-1.8,0.7-2.6l0,0.1
		c0.7-0.1,1.4-0.3,2.2-0.4C401,471.8,401.2,471.9,401.3,472.1z"/>
	<path class="st1" d="M395,475.4c-0.1-1.4,0.3-2.6,0.9-3.8c0.2,0.1,0.3,0.2,0.5,0.4c-0.3,1.5-0.1,2.7,1.8,2.5c0,0,0,0.1,0,0.1
		C397.2,475.6,396.1,475.3,395,475.4z"/>
	<path class="st1" d="M387.6,457.3c0.5,2-0.1,3-2.2,2.7C385.9,458.9,386.3,457.7,387.6,457.3z"/>
	<path class="st1" d="M390.3,455.4c-0.2,1.7-0.7,3.1-2.7,2C388.1,456.1,388.9,455.3,390.3,455.4z"/>
	<path class="st12" d="M570.6,483c0.9,2,2.3,4-0.3,5.7c-0.8-1.3-1.6-0.9-2.5-0.2c-2.2,1.7-3.2,3.9-2.9,6.8c-1.4,0.3-2.4-0.4-3.3-1.4
		c0.9-0.7,2.5-1.3,1.1-2.8c-1.3-1.3-1.9-4.6-4.8-2.5c-1.8-1.4-1.9-2.5-0.5-6c1.2,0.2,1.5,1.6,2.4,2.3c1.4-0.7,2.3-1.6,2.9-3.3
		c-2-0.2-2.1-1.6-1.8-3.2c1.7,0.4,3.9-2.3,5.1,0.9c-0.9,2.7,0.1,4.4,2.5,5.5C569.1,484,569.1,482.4,570.6,483z"/>
	<path class="st1" d="M564.9,495.3c-0.3-2.9,0.7-5.1,2.9-6.8c1-0.7,1.8-1.2,2.5,0.2c1.9,2.4-0.5,3.6-1.5,4.9
		C568,494.7,566.5,495.4,564.9,495.3z"/>
	<path class="st1" d="M557.9,488.6c2.9-2.1,3.5,1.2,4.8,2.5c1.4,1.4-0.2,2.1-1.1,2.8c-1.1,0.7-2.3,0.4-2.5-0.7
		C558.7,491.7,557.6,490.3,557.9,488.6z"/>
	<path class="st1" d="M570.6,483c-1.5-0.6-1.5,1-2.1,1.8c-2.4-1-3.4-2.8-2.5-5.5C568.4,478.4,569.6,479.4,570.6,483z"/>
	<path class="st1" d="M560.9,478.4c-0.3,1.6-0.1,3,1.8,3.2c-0.7,1.7-1.6,2.6-2.9,3.3c-0.9-0.7-1.2-2.1-2.4-2.3
		C558.2,480.9,559.3,479.4,560.9,478.4z"/>
	<path class="st12" d="M503.1,538.5c-4.1-0.4-6.3-2-6.9-5.1c0.9-0.1,1.8-0.2,2.7,0.4c0.4,0.7-0.2,2.3,1.4,1.7
		c0.2,0.2,0.5,0.5,0.6,0.4c0.4-0.2,0.3-0.6,0.1-1c-0.4-0.8-0.8-1.5-1.6-1.9c-0.9-1.4-1.2-3.9-3.6-1.7c-1.7-0.7-2.2-2-1-3.5
		c1.1-1.5,2.5-2.7,2.7-4.8c1.2,0,1.3,1,1.7,2.5c0-1.4,0-2.2,0-3c1.7-0.1,1.6-3.5,3.9-2.5c1.1,5.8,2.7,7.6,7.9,8
		c-0.6,2.3,0.1,5.2-2.7,6.4c-0.1-1.4-0.2-2.7-0.3-4.6C505.1,532.3,503.2,534.8,503.1,538.5z"/>
	<path class="st4" d="M511,528c-5.1-0.5-6.8-2.2-7.9-8c0.4,0.4,0.8,1,1.2,1C509,520.6,510.1,524.2,511,528z"/>
	<path class="st4" d="M503.1,538.5c0.2-3.7,2-6.2,4.9-8.7c0.1,1.9,0.2,3.3,0.3,4.6C506.9,536.3,505,537.4,503.1,538.5z"/>
	<path class="st4" d="M495.9,531.3c2.3-2.2,2.7,0.4,3.6,1.7c-0.2,0.3-0.4,0.5-0.6,0.8c-0.8-0.6-1.7-0.5-2.7-0.4
		C496.1,532.7,496,532,495.9,531.3z"/>
	<path class="st4" d="M499.2,522.5c0,0.8,0,1.6,0,3c-0.4-1.5-0.5-2.6-1.7-2.5C498.1,522.8,498.6,522.7,499.2,522.5z"/>
	<path class="st12" d="M506.9,554.6c1.8-0.5,3.3-0.3,7.2,0.9c-0.8,0.1-1.8-0.5-2.4,0.6c0.6,2.4,2.1,4.1,4,5.6c0.5-0.3,1-0.7,1.6-1.1
		c1.9,1.5,2.1,4.1,0.4,5.9c-1,1-2.1,1.9-2.9,3c-2.7,3.7-5.5,3.7-8.3,0.3c-0.3-0.4-0.9-0.5-0.9-1.1c1.2,0.1,2.4,0.3,3.8,0.5
		c-0.2-0.6-0.2-1-0.4-1.3c-1.5-2.5-3.4-4.1-6.4-3.3c-0.6-1.7,0.4-2.8,1.2-4c1.1,0,2,0.1,1.3-1.7c-0.5-1.3-0.5-2.8,1.6-2.1
		c0.1,0.8,0.2,1.6,0.4,2.5c0.2-1.3,1.6-1.5,2.5-2.9c-1.2,0.2-2.1,0.4-2.9,0.5C507.2,556.1,506.6,555.3,506.9,554.6z M516.1,563.9
		c-2,1.2-3.5,2.3-4.1,4.5C515.5,568.7,516.4,567.8,516.1,563.9z"/>
	<path class="st4" d="M502.5,564.5c3-0.8,4.9,0.9,6.4,3.3c0.2,0.3,0.2,0.8,0.4,1.3c-1.4-0.2-2.6-0.3-3.8-0.5
		C505,566.9,503,566.4,502.5,564.5z"/>
	<path class="st4" d="M517.2,560.6c-0.6,0.4-1.1,0.8-1.6,1.1c-1.9-1.5-3.4-3.2-4-5.6c0.6-1.1,1.6-0.5,2.4-0.6
		c0.3,0.3,0.5,0.6,0.8,0.9c-0.9,0.9-1.1,1.9,0,2.6c0.9,0.5,1.2-0.4,1.3-1.3C517.2,558.4,517.4,559.5,517.2,560.6z"/>
	<path class="st4" d="M506.9,554.6c-0.2,0.7,0.4,1.5-0.3,2.1l0.1-0.1c-2.1-0.6-2.1,0.9-1.6,2.1c0.7,1.8-0.3,1.7-1.3,1.7
		C502.7,557.5,503.6,555.9,506.9,554.6z"/>
	<path class="st12" d="M516.1,557.8c-0.1,0.8-0.4,1.8-1.3,1.3c-1.1-0.7-0.9-1.7,0-2.6C515.7,556.4,516.1,556.9,516.1,557.8z"/>
	<path class="st12" d="M540.8,574.5c-1.8,0-3.6,0-4.7-1.9c-0.1-0.9,0.1-1.8,0.6-2.6c0.2-0.4,0.3-0.8-0.1-1.1
		c-0.4-0.3-0.7-0.1-0.9,0.3c-0.2,0.1-0.5,0.1-0.7,0.2l0,0.2c0,0,0.2,0,0.2,0c2.4-2.7-1-2.3-1.6-3.4c0.7-1.9-0.3-4.6,2.2-5.7
		c1.1,2.2,2.6,1.9,4.3,0.9c0.9-0.5,1.9-0.8,2.1-2.1c-0.7-0.4-1.7,0-2.2-0.8c0.6-1.5,1-3.1,3-1.4c0.7,0.6,0.6-0.7,0.8-1.2
		c0.9,0.2,1.5,0.8,2.1,1.5c-1.9,2.6-1.2,5.7,2,8.4c0.5-2.4-1.8-3.9-1.5-6.3c0.6,1.2,1.3,2.2,2.6,1.8c0,0,0-0.2,0-0.2
		c-0.2,0.8-0.4,1.5-0.6,2.5c0.8,0,1.3,0.7,1.9,1.2c-0.3,0.5-0.8,1.1-0.7,1.4c1.3,2.6-0.6,3-2.2,3.5c0-1-0.4-1.5-1.5-1.4
		C542.7,568.9,540.9,571.1,540.8,574.5z M538.8,570.6c-0.7-3.4-0.8-3.6-2.7-5.5C535.6,568,536.2,569.5,538.8,570.6z"/>
	<path class="st4" d="M540.8,574.5c0.1-3.4,2-5.7,5-6.1c1.1-0.2,1.5,0.3,1.5,1.4c-0.3,1.2-0.3,1.2,0.3,2.7
		C544.6,570.9,543.7,575.9,540.8,574.5z"/>
	<path class="st4" d="M543.5,555.9c-0.2,0.5-0.1,1.8-0.8,1.2c-2-1.7-2.4-0.1-3,1.4c0.6,0.8,1.5,0.4,2.2,0.8
		c-0.2,1.2-1.2,1.5-2.1,2.1c-1.7,1-3.2,1.3-4.3-0.9c0.8-0.2,1.5-0.7,1.6-1.4C538,554.9,540.9,555.9,543.5,555.9z"/>
	<path class="st4" d="M548.8,561.4c-1.4,0.4-2-0.6-2.6-1.8c-0.3,2.4,2,3.9,1.5,6.3c-3.2-2.7-3.9-5.9-2-8.4
		C546.9,558.6,549,558.9,548.8,561.4z"/>
	<path class="st4" d="M533.4,566.3c0.6,1.1,4,0.7,1.6,3.4C533,569.4,533.5,567.7,533.4,566.3z"/>
	<path class="st4" d="M550.1,564.9c-0.6-0.5-1.1-1.2-1.9-1.2c0.2-1,0.4-1.7,0.6-2.5C550.2,562,550.1,563.5,550.1,564.9z"/>
	<path class="st4" d="M534.8,569.5c0.2-0.1,0.5-0.1,0.7-0.2c0.4,0.3,0.7,0.5,1.1,0.8c-0.4,0.8-0.6,1.7-0.6,2.6
		C534.8,572,534.4,570.9,534.8,569.5z"/>
	<path class="st12" d="M486.2,547.1c1,0.2,1.3,1.4,2.5,1.5c1.3,0.1,1.3,1.3,0.7,2.4c-3.2,1.8-1.7,4.5-1.7,7.6c1.4-1.6,2.4-2,3.3-0.4
		c-0.8,1.5-1.6,3-2.3,4.5c-0.7-0.6-1.5-1.2-2.2-1.7c-2.4-1.5-5.8-0.9-7.2,1.3c-1.1,0.8-1.8,0.2-2.5-0.7c2.1-3,3.1-8.5,1.6-9.3
		c-0.5,0.5-1,0.9-1.5,1.4c-1.3-0.6-1.2-1.5-0.8-2.5c0.8-2,2.5-3,4-4.1c2.7,0.7,0.3,2.2,0.3,3.3c1.9,0.3,3.8,0.5,5.8-0.1
		C484.9,549.2,484.3,548,486.2,547.1z"/>
	<path class="st4" d="M479.2,562.4c1.5-2.2,4.9-2.8,7.2-1.3c0.8,0.5,1.5,1.1,2.2,1.7c-1.1,0-1.7,1-2.6,1.5
		C483.3,566,480.4,565.1,479.2,562.4z"/>
	<path class="st4" d="M476,551.3c-0.4,1-0.5,1.9,0.8,2.5c0.5-0.4,1-0.9,1.5-1.4c1.5,0.8,0.6,6.3-1.6,9.3c-0.3-1.1-0.5-2.2-1.2-3.3
		C473.9,556.1,474.1,553.5,476,551.3z M476.8,555.6c0.3-0.4,0.6-0.4,0.9,0C477.4,555.6,477.1,555.6,476.8,555.6z"/>
	<path class="st4" d="M491,558.3c-0.9-1.6-1.9-1.1-3.3,0.4c0-3.1-1.6-5.9,1.7-7.6C492.1,552.3,492.6,554.6,491,558.3z"/>
	<path class="st4" d="M486.2,547.1c-1.9,0.9-1.3,2-0.1,3.2c-2,0.7-3.9,0.5-5.8,0.1c0.1-1.1,2.4-2.6-0.3-3.3
		C482.1,546.1,484.1,546,486.2,547.1z"/>
	<path class="st12" d="M534.7,529.8c2.1,0,2.8,1.1,1.8,3.2c-2.6,1.1-1.9,3.5-1.9,5.6c0,1.6,0.9,2.6,2.5,2.7c0.3,2.7-2.7,2.7-3.3,4.7
		c-2.8-1-1.4-2.3,0-3.6c-2.3-1-4.3-0.9-6.3-0.3c-0.1,1.4,1.8,1.1,1.5,2.2c-0.3,0.9-0.9,2-2.2,1.4c0.1-2.2-2.1-1.6-2.9-2.8
		c0-2,2.4-2.6,2.3-5c-0.1-2.8-1.1-5-2.3-7.3c0.7-0.9,1.7-1.1,2.6-1.5c0.7,1.3,0.6,3.3,2.7,3.4c1.7,0,3.7,0.6,4.2-2.2
		C533.4,530.2,534.2,530,534.7,529.8z"/>
	<path class="st4" d="M523.9,530.7c1.2,2.3,2.3,4.4,2.3,7.3c0.1,2.4-2.3,2.9-2.3,5c-2.1-3.5-3.4-7-0.3-10.7
		C523.8,532,523.8,531.3,523.9,530.7z"/>
	<path class="st4" d="M534.7,529.8c-0.5,0.2-1.2,0.4-1.3,0.6c-0.5,2.8-2.5,2.2-4.2,2.2c-2.1,0-2-2.1-2.7-3.4
		C529,526.4,532.6,526.6,534.7,529.8z"/>
	<path class="st4" d="M537.1,541.3c-1.6-0.1-2.5-1.1-2.5-2.7c0-2.1-0.7-4.5,1.9-5.6c0.6,0.3,1.9,0.3,1.6,1
		C537,536.4,539.3,539.2,537.1,541.3z"/>
	<path class="st4" d="M526.8,545.8c1.3,0.6,1.9-0.5,2.2-1.4c0.4-1.1-1.5-0.8-1.5-2.2c2-0.7,4-0.7,6.3,0.3c-1.4,1.3-2.8,2.7,0,3.6
		C531.5,547.3,529.1,547.5,526.8,545.8z"/>
	<path class="st8" d="M286.1,491.1c-2.1-0.6-4.2-1.5-6.5-1c-3.8-3-6.3-7-7-12.1c3.8-1.3,5.7,2,8.2,4
		C282.1,485.4,284.6,487.9,286.1,491.1z"/>
	<path class="st0" d="M286.1,491.1c-1.5-3.2-4-5.8-5.3-9.1c2.7,0.5,5.4,1,8.5,1.5c-0.5,3.4-1.1,6.6-1.6,9.7
		C286.7,493,287,491.5,286.1,491.1z"/>
	<path class="st2" d="M272.6,478c0.8,5.1,3.2,9.1,7,12.1c-1.1,0.6-2.1,1.2-3.2,1.8c-1.6-4.5-3.8-8.5-8.1-10.7c1-1.1,2-2.1,3-3.2
		C271.8,478,272.2,478,272.6,478z"/>
	<path class="st0" d="M269.6,472c1.5-1.1,3-2.2,4.5-3.2c1.2,0.2,1.2,1.5,2.2,2.1c-1.8,1.4-3.4,2.5-4.9,3.7
		C270.4,473.9,269.9,473.2,269.6,472z"/>
	<path class="st8" d="M259.8,460.7c-2.1-0.4-4.2-0.7-6.3,0.1c-4.2-2-6.6-5.7-8.3-10.1c1.6-0.7,3.2-1,4.8-0.6
		C254.1,452.9,256.5,457.3,259.8,460.7z"/>
	<path class="st2" d="M245.3,450.7c1.7,4.4,4.1,8.1,8.3,10.1c-0.8,0.7-1.6,1.4-2.5,2.1c-2-4-5.5-6.5-8.8-9.1
		C242.4,451.8,244,451.4,245.3,450.7z"/>
	<path class="st0" d="M234.7,461.3c-0.1,0.6-0.5,0.9-1.1,0.7C233.7,461.2,234.2,461.4,234.7,461.3z"/>
	<path class="st8" d="M268.4,481.2c4.2,2.2,6.4,6.2,8.1,10.7c-4.9,4.4-9.3,9.9-16.6,9.4c-2.6-3.5-3.8-7.8-5.2-11.9
		c3.1-0.1,5.4-2,7.6-4C264.3,484,266.4,482.6,268.4,481.2z M271.1,490c-1-1.5-1.9-2.8-2.8-4.3c-2.5,1.9-4.7,3.6-6.9,5.3
		c0.1,2.1,1.3,3.5,2.4,4.9C266.6,494.6,268.6,492.2,271.1,490z"/>
	<path class="st8" d="M237.8,504.5c0.5-2.9,1-5.8,1.6-8.7c1.2-6.4,3.5-8.7,9.9-7.1c1.2,3.3,2.6,6.4,5.5,8.4c1.2,0.8,2,2.2,2.6,3.6
		c-1.3-0.1-2.7-0.3-4-0.2c-3.4,0-5.5,1.9-6.3,5.5c-0.7,3.4-1.3,6.8-2,10.3c-2.3-1.8-4-4-5.2-6.7
		C239.2,507.8,239.1,505.8,237.8,504.5z"/>
	<path class="st3" d="M248.4,526.4c2.8,1.6,3.6,4.8,5.2,7.8c-4.3,2-8.4,3.8-12.5,5.7c-3.3,1-3.4-2.1-4.4-4
		C240.2,532.2,244.1,529,248.4,526.4z"/>
	<path class="st12" d="M248.4,526.4c-4.3,2.6-8.2,5.8-11.7,9.4c-1.5-1.7-2.9-3.5-3-6c0,0,0,0.1,0,0.1c3.6-2.4,6-6.2,9-9.4
		c0.7-0.3,1-1.5,2.1-1.2C245.5,522,247.9,523.6,248.4,526.4z"/>
	<path class="st8" d="M233.7,529.9c0.1,2.5,1.4,4.3,3,6c1,1.9,1.1,5,4.4,4c0,2.9-2,4.7-3.6,6.7c-2.5-4-5.4-7.8-6.5-12.6
		C231.9,532.6,232.8,531.2,233.7,529.9z"/>
	<path class="st12" d="M257,512.1c0.3,2.1-0.4,3.4-0.6,5c-3.2,0.2-5.8-1.3-8.6-1.6c0.5-4.6,0.5-4.6,4.6-4.2
		C254,511.4,255.5,511.8,257,512.1z"/>
	<path class="st2" d="M257.4,500.7c-0.6-1.4-1.4-2.8-2.6-3.6c-3-2-4.3-5.2-5.5-8.4c1.8,0.2,3.6,0.5,5.4,0.7
		c1.4,4.1,2.6,8.4,5.2,11.9C259,501.4,258.1,501.3,257.4,500.7z"/>
	<path class="st2" d="M231,533.9c1.1,4.8,4,8.6,6.5,12.6c-0.8,0.6-1.6,1.1-2.5,1.7c-1-5-4-8.5-7.7-11.4
		C228.2,535.4,229.7,534.8,231,533.9z"/>
	<path class="st2" d="M244.7,519.4c-1-0.3-1.3,0.8-2.1,1.2c-1-4-1.9-7.9-5.5-10.3c0.2-1.9,0-3.9,0.7-5.8c1.3,1.4,1.4,3.4,2.1,5
		c1.2,2.8,2.9,5,5.2,6.7C245,517.3,244.8,518.3,244.7,519.4z"/>
	<path class="st0" d="M278.3,501.4c0.8,0.4,1.2,1.1,1.1,2.2c-2,1-3,3.4-5.2,4.2C271.7,505.4,271.9,505.1,278.3,501.4z"/>
	<path class="st0" d="M247.1,552.8c-2.3-2.3-2.3-2.4,2.3-5.1c0.8,0.3,1.3,1,1.6,2.2C249.8,550.8,248.4,551.8,247.1,552.8z"/>
	<path class="st0" d="M245.2,547.8c-1.2,1.5-2.3,3.3-5,3.1C241.8,548.9,243,547.5,245.2,547.8z"/>
	<path class="st0" d="M279,495.1c1.5,1.2,2.6,2.6,3.4,5.4C280.3,498.6,279.1,497.2,279,495.1z"/>
	<path class="st0" d="M245.5,563.3c-0.2,0.2-0.5,0.4-0.7,0.6C244.8,563.3,245.1,563.2,245.5,563.3z"/>
	<path class="st12" d="M225.5,485.4c-1.5-0.1-3-0.2-4.8-0.3c0.5-2.9,0.9-5.6,1.3-8.3c4.9,0.8,10,0.9,14.6,3.3
		c0.1,1.7-0.2,3.3-0.9,4.9C232.2,485.1,228.9,485.3,225.5,485.4z"/>
	<path class="st3" d="M236.6,480.1c-4.6-2.4-9.6-2.5-14.6-3.3c0.4-2.9,0.9-5.8,1.3-8.6c1.5-0.9,2.5,0.5,3.7,0.5c2.2,1,4.5,2,6.7,3
		c1.3,1.2,3.7,0.6,4.3,3C236.5,476.2,238.3,478.6,236.6,480.1z"/>
	<path class="st8" d="M237.1,510.3c3.6,2.3,4.6,6.3,5.5,10.3c-2.9,3.2-5.3,6.9-9,9.4C234.8,523.4,236,516.8,237.1,510.3z"/>
	<path class="st12" d="M248.2,483.7c-0.9-1.5-1.7-2.9-2.6-4.3c1.7-2,3.7-3.3,5.6-4.7C255.6,478.5,255.2,479.6,248.2,483.7z"/>
	<path class="st12" d="M224.4,516.5c-0.9-0.2-1.8-0.6-1.4-1.9c0.7-1.9-0.7-4.6,1.9-5.7c1.1,0.6,2.5,0.1,3.6,1c0.5,2.4-1,4.4-0.9,6.4
		C226.3,517.4,225.4,516.1,224.4,516.5z"/>
	<path class="st0" d="M230.1,494.4c0.6-1,1.6-1.3,1.8-3c1.1,1.9,1.9,3.2,2.7,4.5c-0.3,1.1-1.2,1.4-2,1.9
		C231.4,497.1,231.1,495.7,230.1,494.4z"/>
	<path class="st0" d="M243.7,468.5c-1.3,0.1-2.4,0.1-3.6-0.7c0.2-1.3,0.4-2.7,0.6-4c1.3-0.5,2.3,0.3,3.5,0.4
		C244.4,465.6,244.2,467,243.7,468.5z"/>
	<path class="st6" d="M287.7,525.3c0.2,1.6,0.4,3.2,0.7,5.4c-1.4-1.3-2.6-2.3-3.7-3.3C285.6,526.4,286.5,525.6,287.7,525.3z"/>
	<path class="st6" d="M296.4,531.3c-0.1,0.4,0.1,1.3-0.7,0.9c-0.6-0.3-0.1-0.9,0.1-1.3C296.1,531,296.3,531.2,296.4,531.3z"/>
	<path class="st1" d="M99.7,252.7c-0.8,0-1.6,0-2.6,0c1.3-2.6,2.3-5.2,5.2-6.1c-0.1,1.5-0.1,2.8-0.2,4.1c0,0,0.1,0,0.1,0
		C99.9,249.3,99.8,251,99.7,252.7L99.7,252.7z"/>
	<path class="st1" d="M93.4,252.9c-2.2-1.1-4.1-2.4-4.3-5.4c0.2-0.2,0.3-0.4,0.5-0.6c2.5,0.8,3.3,3.2,4.4,5.4
		C93.7,252.6,93.5,252.8,93.4,252.9z"/>
	<path class="st1" d="M93.7,238.9c-0.8,2.1-2.2,3.5-4.2,4.3c-0.2-0.2-0.3-0.4-0.5-0.6c0.7-2.2,2.2-3.4,4.1-4.2
		C93.3,238.6,93.5,238.8,93.7,238.9z"/>
	<path class="st1" d="M99.3,241.2c-1-0.6-1.7-1.5-2-2.8c2.5-1.5,2.3,0.7,2.5,2.1C99.7,240.8,99.5,241,99.3,241.2z"/>
	<path class="st1" d="M99.9,240.6c1.1,0.1,2.3,0.2,1.9,2c-0.1,0.1-0.3,0.3-0.4,0.4c-1-0.1-1.6-0.9-2.1-1.7
		C99.5,241,99.7,240.8,99.9,240.6z"/>
	<path class="st1" d="M93.2,238.4c0.3-0.2,0.5-0.5,0.8-0.7c0.4,0.5,0.2,0.9-0.3,1.2C93.5,238.8,93.3,238.6,93.2,238.4z"/>
	<path class="st1" d="M89.5,243.2c-0.2,0-0.5,0.1-0.7,0.1c0.1-0.2,0.2-0.5,0.3-0.7C89.2,242.8,89.3,243,89.5,243.2z"/>
	<path class="st1" d="M101.8,242.6c0.1,0.2,0.3,0.6,0.3,0.7c-0.3,0.2-0.5,0-0.6-0.3C101.5,242.8,101.6,242.7,101.8,242.6z"/>
	<path class="st1" d="M93.9,252.4c0,0.3,0.2,0.7,0.1,0.8c-0.3,0.3-0.5,0-0.6-0.3C93.5,252.8,93.7,252.6,93.9,252.4z"/>
	<path class="st12" d="M99.7,252.8c0.1-1.8,0.2-3.4,2.5-2C102.5,253,101.3,253.3,99.7,252.8z"/>
	<path class="st1" d="M392.5,458.3c-0.9,2-2.2,3.4-4,4.5C388.2,460.6,390.5,458.1,392.5,458.3z"/>
	<path class="st1" d="M390.7,469.1c-2.5,1.3-2.5-0.9-3.4-2.2C389.1,466.5,389.7,467.8,390.7,469.1z"/>
	<path class="st1" d="M400.6,460c0,0.8,0,1.7,0,2.6c-1.4,0.3-2-0.7-2.6-1.7c0.2-0.2,0.4-0.5,0.6-0.7
		C399.3,460.5,399.9,460.2,400.6,460L400.6,460z"/>
	<path class="st1" d="M387.3,463c-0.4,0.3-0.7,0.3-1.1,0C386.5,462.7,386.9,462.7,387.3,463z"/>
	<path class="st12" d="M400.9,471.6c-0.7,0.1-1.4,0.3-2.2,0.4c-0.4-1.2-0.7-2.4,1-2.6C401.3,469.3,401.1,470.5,400.9,471.6z"/>
	<path class="st12" d="M398.1,474.6c-1.8,0.1-2-1-1.8-2.5c0.8,0,1.6-0.1,2.4-0.1C398.6,472.8,398.8,473.8,398.1,474.6z"/>
	<path class="st12" d="M400.6,460c-0.7,0.2-1.3,0.5-2,0.1c-0.4-1-1.1-2.2,0.5-2.5C400.7,457.3,400.7,458.8,400.6,460z"/>
	<path class="st4" d="M499.4,533c0.8,0.4,1.2,1.1,1.6,1.9c-0.2,0.2-0.5,0.4-0.7,0.5c-1.6,0.6-1.1-1-1.4-1.7
		C499.1,533.5,499.3,533.3,499.4,533z"/>
	<path class="st4" d="M501,534.9c0.2,0.4,0.3,0.8-0.1,1c-0.1,0.1-0.4-0.3-0.6-0.4C500.5,535.3,500.8,535.1,501,534.9z"/>
	<path class="st4" d="M516.1,563.9c0.3,3.9-0.7,4.8-4.1,4.5C512.6,566.3,514.1,565.2,516.1,563.9z"/>
	<path class="st4" d="M506.6,556.7c0.8-0.1,1.6-0.3,2.9-0.5c-0.8,1.4-2.2,1.6-2.5,2.9C506.9,558.3,506.7,557.5,506.6,556.7
		C506.6,556.6,506.6,556.7,506.6,556.7z"/>
	<path class="st4" d="M538.8,570.6c-2.6-1.1-3.2-2.6-2.7-5.5C538,567,538.1,567.2,538.8,570.6z"/>
	<path class="st4" d="M535.5,569.3c0.2-0.4,0.5-0.5,0.9-0.3c0.4,0.3,0.3,0.7,0.1,1.1C536.2,569.8,535.9,569.6,535.5,569.3z"/>
	<path class="st12" d="M476.8,555.6c0.3,0,0.6,0,0.9,0C477.4,555.2,477.1,555.2,476.8,555.6z"/>
	<path class="st12" d="M271.1,490c-2.6,2.2-4.5,4.6-7.4,5.9c-1.1-1.4-2.3-2.7-2.4-4.9c2.2-1.7,4.5-3.4,6.9-5.3
		C269.3,487.2,270.1,488.5,271.1,490z"/>
</g>
<path class="st0" d="M746.3,234.5c4.2-7.5,12.2-9.8,19.1-5.4c7.1,4.5,9.7,11.9,7.2,20.4c-0.8,2.7-2.7,4.3-4.5,6.1
	c-0.4,0-0.9,0.1-0.9,0.7c0,0,0,0,0,0c-1.1-0.4-1.8,0.3-2.4,1c-3.7,3.6-7.9,3.6-11.4,0.1c-0.7-0.7-1.7-1.2-2.6-1.7
	c-4-2-5.8-5.5-5.7-10.1c0-3.5,0-7,0.5-10.5c0,0,0,0,0,0C746.1,235.2,746.2,234.8,746.3,234.5z M752.4,235.7L752.4,235.7
	c-1.3,0.3-1.6,1.5-2.1,2.6c-1.5,5.1-1,9.6,3.1,13.2c1.5,1,2.8,2.5,4.8,2.2c0.6,0,1.1,0,1.7,0.1c1.1-0.1,2.2,0.1,3.1-0.8
	c1.4-0.3,2.4-1.3,3.2-2.6c2-1.8,2.7-4.1,2.4-6.8c0.5-1.7-1.4-2.9-0.7-4.6c-1.4-4.3-3.2-5.6-6.5-4.7c-1.8-3.5-4.1-1-6.3-0.5
	C753.7,233.6,752.9,234.4,752.4,235.7z"/>
<path class="st0" d="M768.7,200.3c0.9-0.5,1.5-1.7,2.9-0.9c-0.6,4.2-1.8,7.9-5.8,10c-2.5,1.3-4.9,2.8-7.1,4.5
	c-2.5,1.8-3.8,0.4-5.3-1.9c1.1-0.2,1.7-0.4,2.5-0.5c-0.4-0.8-1.1-1.6-1.2-2.4c-0.2-1.1-2.2-2.4,0.4-3.6c1-0.4-1-2.7,0.2-4.3
	c2.2,0.6,3.7,2.4,5.1,4.8c0.8-3.2-2.3-6.4,1.1-8.9c0.4,0.5,1,1.3,1.7,2.1c1.3-1.3,1.6-3.7,3.8-4.1
	C767.6,196.7,768.1,198.3,768.7,200.3z"/>
<path class="st1" d="M745.6,235c-0.6,3.5-0.5,7-0.5,10.5c-0.1,4.6,1.7,8.1,5.7,10.1c0.9,0.5,1.9,1,2.6,1.7c3.5,3.5,7.7,3.5,11.4-0.1
	c0.7-0.7,1.4-1.4,2.4-1c-3.1,6.1-11.5,8.2-17.2,4.8c-3.4-2-6.1-4.2-7.6-8.1C740.6,248.3,742.3,238,745.6,235z"/>
<path class="st0" d="M783.7,211.3c-0.8,0.8-1.6,1.7-2.6,2.6c-0.8-0.9-1.5-1.8-2.3-2.7c0-1.6,1.2-2.1,2-3.1
	C782.1,209.1,783,210,783.7,211.3z"/>
<path class="st1" d="M767.2,256.3c0-0.6,0.4-0.7,0.9-0.7C767.8,255.8,767.5,256,767.2,256.3z"/>
<path class="st1" d="M746.3,234.5c-0.2,0.3-0.3,0.8-0.8,0.6C745.6,234.5,745.9,234.3,746.3,234.5z"/>
<path class="st12" d="M753.3,251.5c-4-3.6-4.6-8.1-3.1-13.2c2,0.3,2.7-0.7,2.2-2.7c0,0,0,0,0,0c2,1.1,2.5-0.2,2.7-2
	c2.1-0.5,4.4-3,6.3,0.5c-1.4,2.3-0.4,3.7,1.4,4.9c0.6,0.9,1.2,1.9,2.6,1.7c0-0.9,0-1.7,0-2.6c0.8,0.2,1.8,0,2.5,0.7
	c-0.7,1.7,1.2,2.9,0.7,4.6c-2.6-0.6-1.1,1.9-2.1,3.3c-0.3-3.1-1.6-2-2.6-1.2c-1.4,1.1-2.8,2.3-3.2,4.2c-0.6,1.2-0.9,2.4-0.9,3.8
	c-0.6,0-1.1,0-1.7-0.1c-0.1-2.2,0-4.6-2.7-6C755.6,249.7,754.3,250.4,753.3,251.5z M757.3,236.6c-2.1-0.2-4.3,2.3-4,4.5
	C755.1,240,756.5,238.6,757.3,236.6z M755.5,247.4c-1-1.3-1.6-2.5-3.4-2.2C752.9,246.5,752.9,248.6,755.5,247.4z M752.1,241.3
	c-0.4-0.3-0.7-0.3-1.1,0C751.3,241.6,751.7,241.6,752.1,241.3z"/>
<path class="st1" d="M760.7,250c0.4-2,1.8-3.1,3.2-4.2c1.1-0.9,2.3-1.9,2.6,1.2c1-1.4-0.6-4,2.1-3.3c0.2,2.7-0.4,5-2.4,6.8
	c-0.1-0.2-0.3-0.3-0.4-0.5c0.2-1.1,0.5-2.3-1.1-2.2c-1.7,0.1-1.4,1.4-1,2.6l0-0.1c-0.8,0-1.6,0.1-2.4,0.1
	C761,250.2,760.8,250.1,760.7,250z"/>
<path class="st1" d="M767.9,239c-0.7-0.7-1.6-0.5-2.5-0.7l0.1,0.1c0.1-1.3,0.1-2.7-1.6-2.4c-1.5,0.3-0.8,1.5-0.5,2.5
	c-0.2,0.2-0.4,0.5-0.6,0.7c-1.8-1.2-2.8-2.6-1.4-4.9C764.7,233.4,766.5,234.7,767.9,239z"/>
<path class="st1" d="M753.3,251.5c0.9-1.1,2.2-1.8,2.1-3.8c2.7,1.4,2.6,3.7,2.7,6C756.1,254,754.8,252.5,753.3,251.5z"/>
<path class="st1" d="M766.1,250.4c-0.8,1.2-1.8,2.2-3.2,2.6c0,0,0-0.1,0-0.1c0.7-0.7,0.5-1.8,0.7-2.6l0,0.1c0.7-0.1,1.4-0.3,2.2-0.4
	C765.8,250.1,766,250.2,766.1,250.4z"/>
<path class="st1" d="M759.8,253.7c-0.1-1.4,0.3-2.6,0.9-3.8c0.2,0.1,0.3,0.2,0.5,0.4c-0.3,1.5-0.1,2.7,1.8,2.5c0,0,0,0.1,0,0.1
	C762,253.9,760.9,253.6,759.8,253.7z"/>
<path class="st1" d="M752.4,235.7c0.5,2-0.1,3-2.2,2.7C750.7,237.2,751.1,236,752.4,235.7z"/>
<path class="st1" d="M755.1,233.7c-0.2,1.7-0.7,3.1-2.7,2C752.9,234.4,753.7,233.6,755.1,233.7z"/>
<path class="st1" d="M757.3,236.6c-0.9,2-2.2,3.4-4,4.5C753,238.9,755.3,236.4,757.3,236.6z"/>
<path class="st1" d="M755.5,247.4c-2.5,1.3-2.5-0.9-3.4-2.2C753.9,244.8,754.5,246.1,755.5,247.4z"/>
<path class="st1" d="M765.4,238.3c0,0.8,0,1.7,0,2.6c-1.4,0.3-2-0.7-2.6-1.7c0.2-0.2,0.4-0.5,0.6-0.7
	C764.1,238.9,764.8,238.5,765.4,238.3L765.4,238.3z"/>
<path class="st1" d="M752.1,241.3c-0.4,0.3-0.7,0.3-1.1,0C751.3,241,751.7,241.1,752.1,241.3z"/>
<path class="st12" d="M765.7,249.9c-0.7,0.1-1.4,0.3-2.2,0.4c-0.4-1.2-0.7-2.4,1-2.6C766.2,247.6,765.9,248.8,765.7,249.9z"/>
<path class="st12" d="M762.9,252.9c-1.8,0.1-2-1-1.8-2.5c0.8,0,1.6-0.1,2.4-0.1C763.4,251.1,763.6,252.2,762.9,252.9z"/>
<path class="st12" d="M765.4,238.3c-0.7,0.2-1.3,0.5-2,0.1c-0.4-1-1.1-2.2,0.5-2.5C765.5,235.6,765.5,237.1,765.4,238.3z"/>
<path class="st0" d="M633.8,220.3c4.2-7.5,12.2-9.8,19.1-5.4c7.1,4.5,9.7,11.9,7.2,20.4c-0.8,2.7-2.7,4.3-4.5,6.1
	c-0.4,0-0.9,0.1-0.9,0.7c0,0,0,0,0,0c-1.1-0.4-1.8,0.3-2.4,1c-3.7,3.6-7.9,3.6-11.4,0.1c-0.7-0.7-1.7-1.2-2.6-1.7
	c-4-2-5.8-5.5-5.7-10.1c0-3.5,0-7,0.5-10.5c0,0,0,0,0,0C633.5,221.1,633.6,220.7,633.8,220.3z M639.8,221.6L639.8,221.6
	c-1.3,0.3-1.6,1.5-2.1,2.6c-1.5,5.1-1,9.6,3.1,13.2c1.5,1,2.8,2.5,4.8,2.2c0.6,0,1.1,0,1.7,0.1c1.1-0.1,2.2,0.1,3.1-0.8
	c1.4-0.3,2.4-1.3,3.2-2.6c2-1.8,2.7-4.1,2.4-6.8c0.5-1.7-1.4-2.9-0.7-4.6c-1.4-4.3-3.2-5.6-6.5-4.7c-1.8-3.5-4.1-1-6.3-0.5
	C641.1,219.4,640.3,220.3,639.8,221.6z"/>
<path class="st1" d="M633,220.9c-0.6,3.5-0.5,7-0.5,10.5c-0.1,4.6,1.7,8.1,5.7,10.1c0.9,0.5,1.9,1,2.6,1.7c3.5,3.5,7.7,3.5,11.4-0.1
	c0.7-0.7,1.4-1.4,2.4-1c-3.1,6.1-11.5,8.2-17.2,4.8c-3.4-2-6.1-4.2-7.6-8.1C628.1,234.1,629.7,223.9,633,220.9z"/>
<path class="st1" d="M654.7,242.1c0-0.6,0.4-0.7,0.9-0.7C655.2,241.7,655,241.9,654.7,242.1z"/>
<path class="st1" d="M633.8,220.3c-0.2,0.3-0.3,0.8-0.8,0.6C633.1,220.4,633.3,220.2,633.8,220.3z"/>
<path class="st12" d="M640.8,237.4c-4-3.6-4.6-8.1-3.1-13.2c2,0.3,2.7-0.7,2.2-2.7c0,0,0,0,0,0c2,1.1,2.5-0.2,2.7-2
	c2.1-0.5,4.4-3,6.3,0.5c-1.4,2.3-0.4,3.7,1.4,4.9c0.6,0.9,1.2,1.9,2.6,1.7c0-0.9,0-1.7,0-2.6c0.8,0.2,1.8,0,2.5,0.7
	c-0.7,1.7,1.2,2.9,0.7,4.6c-2.6-0.6-1.1,1.9-2.1,3.3c-0.3-3.1-1.6-2-2.6-1.2c-1.4,1.1-2.8,2.3-3.2,4.2c-0.6,1.2-0.9,2.4-0.9,3.8
	c-0.6,0-1.1,0-1.7-0.1c-0.1-2.2,0-4.6-2.7-6C643,235.6,641.7,236.3,640.8,237.4z M644.8,222.5c-2.1-0.2-4.3,2.3-4,4.5
	C642.5,225.9,643.9,224.5,644.8,222.5z M642.9,233.2c-1-1.3-1.6-2.5-3.4-2.2C640.4,232.4,640.3,234.5,642.9,233.2z M639.5,227.2
	c-0.4-0.3-0.7-0.3-1.1,0C638.8,227.5,639.1,227.5,639.5,227.2z"/>
<path class="st1" d="M648.1,235.8c0.4-2,1.8-3.1,3.2-4.2c1.1-0.9,2.3-1.9,2.6,1.2c1-1.4-0.6-4,2.1-3.3c0.2,2.7-0.4,5-2.4,6.8
	c-0.1-0.2-0.3-0.3-0.4-0.5c0.2-1.1,0.5-2.3-1.1-2.2c-1.7,0.1-1.4,1.4-1,2.6l0-0.1c-0.8,0-1.6,0.1-2.4,0.1
	C648.4,236.1,648.3,236,648.1,235.8z"/>
<path class="st1" d="M655.3,224.9c-0.7-0.7-1.6-0.5-2.5-0.7l0.1,0.1c0.1-1.3,0.1-2.7-1.6-2.4c-1.5,0.3-0.8,1.5-0.5,2.5
	c-0.2,0.2-0.4,0.5-0.6,0.7c-1.8-1.2-2.8-2.6-1.4-4.9C652.1,219.3,653.9,220.6,655.3,224.9z"/>
<path class="st1" d="M640.8,237.4c0.9-1.1,2.2-1.8,2.1-3.8c2.7,1.4,2.6,3.7,2.7,6C643.5,239.9,642.3,238.3,640.8,237.4z"/>
<path class="st1" d="M653.6,236.3c-0.8,1.2-1.8,2.2-3.2,2.6c0,0,0-0.1,0-0.1c0.7-0.7,0.5-1.8,0.7-2.6l0,0.1c0.7-0.1,1.4-0.3,2.2-0.4
	C653.3,236,653.4,236.1,653.6,236.3z"/>
<path class="st1" d="M647.2,239.6c-0.1-1.4,0.3-2.6,0.9-3.8c0.2,0.1,0.3,0.2,0.5,0.4c-0.3,1.5-0.1,2.7,1.8,2.5c0,0,0,0.1,0,0.1
	C649.5,239.8,648.3,239.5,647.2,239.6z"/>
<path class="st1" d="M639.8,221.5c0.5,2-0.1,3-2.2,2.7C638.2,223.1,638.6,221.9,639.8,221.5z"/>
<path class="st1" d="M642.5,219.6c-0.2,1.7-0.7,3.1-2.7,2C640.3,220.3,641.1,219.4,642.5,219.6z"/>
<path class="st1" d="M644.8,222.5c-0.9,2-2.2,3.4-4,4.5C640.5,224.8,642.7,222.3,644.8,222.5z"/>
<path class="st1" d="M642.9,233.2c-2.5,1.3-2.5-0.9-3.4-2.2C641.3,230.7,641.9,232,642.9,233.2z"/>
<path class="st1" d="M652.8,224.1c0,0.8,0,1.7,0,2.6c-1.4,0.3-2-0.7-2.6-1.7c0.2-0.2,0.4-0.5,0.6-0.7
	C651.5,224.7,652.2,224.4,652.8,224.1L652.8,224.1z"/>
<path class="st1" d="M639.5,227.2c-0.4,0.3-0.7,0.3-1.1,0C638.8,226.9,639.1,226.9,639.5,227.2z"/>
<path class="st12" d="M653.1,235.8c-0.7,0.1-1.4,0.3-2.2,0.4c-0.4-1.2-0.7-2.4,1-2.6C653.6,233.5,653.3,234.7,653.1,235.8z"/>
<path class="st12" d="M650.3,238.8c-1.8,0.1-2-1-1.8-2.5c0.8,0,1.6-0.1,2.4-0.1C650.8,237,651,238,650.3,238.8z"/>
<path class="st12" d="M652.8,224.2c-0.7,0.2-1.3,0.5-2,0.1c-0.4-1-1.1-2.2,0.5-2.5C652.9,221.5,652.9,222.9,652.8,224.2z"/>
</svg>
