<?xml version="1.0" encoding="utf-8"?>
<!-- Generator: Adobe Illustrator 25.2.0, SVG Export Plug-In . SVG Version: 6.00 Build 0)  -->
<svg version="1.1" id="Livello_1" xmlns="http://www.w3.org/2000/svg" xmlns:xlink="http://www.w3.org/1999/xlink" x="0px" y="0px"
	 viewBox="0 0 841.9 595.3" style="enable-background:new 0 0 841.9 595.3;" xml:space="preserve">
<style type="text/css">
	.st0{fill:#FBFBFB;}
	.st1{fill:#070705;}
	.st2{fill:#FEC62A;}
</style>
<g>
	<path class="st0" d="M298.5,512.8c0.8-5.4,0.1-10.8,0.3-16.2c0.1-2.5,0.3-4.9-0.3-7.3c-1.2-0.4-1.9,0.3-2.8,0.6
		c-15.8,5.8-31,5.1-44.8-5.2c-8.2-6.1-13.2-14.2-12.7-24.9c0.2-3.7,1.5-7.1,3.2-10.4c0.4-0.8,1.2-1.4,1.1-2.7
		c-3.8-0.7-7.6-1.2-11.4-2c-13.3-2.6-26-7-36.9-15.4c-8-6.2-14.4-13.7-16.7-23.9c-3.1-13.6,1.1-24.9,12-33.5
		c9.3-7.3,20.3-9.6,31.9-9.7c2.3,0,4.6,0,7.1,0c-0.9-2.5-2.5-4.5-3.2-6.9c-1.6-5.8,0.6-9,6.7-9.3c2.6-0.1,5.1,0.6,7.6,1.1
		c0.8,0.2,1.6,0.6,2.4,0.1c0.5-0.9-0.3-1.4-0.7-1.9c-10.3-13.3-17.1-28.3-21.9-44.3c-4.8-16.4-7-33.2-6.5-50.3
		c0.4-14.3,2.5-28.4,8.5-41.5c2.3-4.9,5.2-9.5,9.4-13c4.2-3.5,9-3.1,12.5,1c4.2,4.9,6.4,10.9,8.4,16.9c3.4,10,5.9,20.3,8.8,30.5
		c1.5,5.5,3,11,5.7,16c1.6,2.9,3,4.6,5.3,5.4c1-1.6,1.3-3.4,1.3-5.2c0-5.2-0.2-10.5-0.1-15.7c0.1-3.6,0-7.1,0.6-10.7
		c1.2-6.9,6-9.1,12-5.4c4,2.4,7.2,5.6,10.3,9c0.5,0.6,1,1.3,2,1.6c0.6-1.1,0.1-1.9-0.2-2.8c-2.2-8-4.8-15.9-6.3-24.1
		c-0.3-1.7-0.4-3.3-0.1-5c0.5-2.6,2.2-3.3,4.3-1.8c2.4,1.8,4.7,3.8,7.1,5.6c2.6,2,5.5,3.6,8.8,4.1c0.1-0.2,0.3-0.4,0.4-0.6
		c-1.6-1.8-3.2-3.7-4.8-5.5c-13-14.8-23.1-31.3-28.8-50.3c-2.6-8.7-4-17.5-3.9-26.6c0-1.2,0-1.2,0.8-2.5c1.5,0.5,2,1.8,2.8,3
		c4,5.7,8.2,11.1,14.1,15c4.9,3.3,10.1,3.3,14.9-0.1c4.6-3.3,8.1-7.7,11.3-12.2c4.9-6.7,9.3-13.6,14.6-20
		c6.4-7.6,13.3-14.6,23.4-17.1c10.8-2.6,21.3-1.7,31.3,3.5c9.4,4.9,16.3,12.6,22.9,20.5c6.8,8.1,13.1,16.6,21.8,22.9
		c1.9,1.4,3.9,2.5,6,3.6c1.3,0.7,2.1,0.4,3.1-0.6c1.1-1.1,2.3-2.2,3.6-3.1c7.9-6,16.1-3.1,18.5,6.5c2.1,8.3,0.9,16.4-1.3,24.4
		c-2.3,8.3-6.1,16-10.7,23.3c-0.4,0.6-0.7,1.1-1,1.7c-0.2,0.4-0.3,0.7-0.7,1.7c9.2-0.1,17-2.7,23.9-8.2c6.8-5.4,11.2-12.5,14.1-21.4
		c2.6,3,4.2,5.6,5.7,8.3c11,19.3,10.2,38.9,1.2,58.6c-5.3,11.4-12.6,21.5-20.9,30.9c-2.4,2.7-4.8,5.5-7.6,8.3c2,0.5,3.2-0.6,4.4-1.3
		c11.1-5.6,22.2-11,34.3-14.3c11.5-3.1,23.2-4.6,34.9-1c10,3.1,17.3,9.5,22.5,18.3c5.7,9.6,5.9,19.9,3.1,30.4
		c-3.5,12.6-10.5,23.3-18.7,33.3c-8.6,10.6-18.2,20.3-28.7,29c-0.1,0.1-0.2,0.3-0.4,0.6c1.1,1.5,2.3,3.1,3.4,4.7
		c8.7,13.2,11.7,27.7,9.7,43.1c-3.4,26.6-16.1,47.7-38.5,62.6c-10.2,6.8-21.5,10.5-33.8,11.2c0-0.5-0.1-1-0.1-1.4
		c17-1.2,31.7-8,44.1-19.5c11-10.1,18.7-22.5,23.3-36.7c3.5-10.9,5-22.1,3.3-33.5c-1.6-10.8-5.5-20.7-12.8-29.1
		c-1-1.2-1.1-1.9,0.2-3c12.1-10.1,23.1-21.3,32.2-34.3c6.7-9.7,12.1-19.9,14.3-31.6c2.9-15.6-4.9-31.5-19.1-38.6
		c-9.9-4.9-20.4-5-31-3.2c-11.5,2-22.3,6.1-32.8,11c-5,2.3-10,4.6-15,6.9c-0.8,0.4-1.8,0.8-2.5-0.1c-0.9-1-0.1-1.9,0.3-2.7
		c0.2-0.4,0.6-0.8,0.9-1.2c3.2-3.7,6.5-7.3,9.7-11c8-9.2,15.1-19,20.1-30.3c8.3-18.8,8.7-37.4-1.7-55.6c-1-1.7-1.8-3.6-3.7-5
		c-3.6,8.5-8.7,15.7-16.4,20.7c-7.6,4.9-16,6.9-25.6,6.5c1-1.5,1.5-2.4,2.1-3.2c6.2-9.4,11.2-19.3,13.5-30.4
		c1.5-7.2,2-14.4-0.8-21.4c-2.2-5.4-7.3-7.2-12.5-4.5c-2.5,1.3-4.6,3.1-6.4,5.2c-1.2,1.3-2.3,1.4-3.7,0.7c-4.7-2.1-8.8-5.1-12.5-8.5
		c-7.5-6.9-13.5-15.1-20.3-22.6c-5.4-5.9-11.1-11.5-18.3-15.3c-13.1-6.9-33.1-8.1-47.1,6.8c-5.7,6-10.7,12.6-15.4,19.3
		c-4.2,6-8.4,12-13.9,16.9c-6,5.3-12.7,6.2-18.8,2.5c-3.2-2-6-4.5-8.5-7.3c-2.2-2.6-4.4-5.3-6.8-8.3c-0.5,1.6-0.4,2.9-0.3,4.2
		c1.3,19.3,8.5,36.5,18.9,52.5c5.4,8.4,11.8,16.1,18.8,23.3c0.6,0.6,1.6,1.2,1,2.3c-0.5,0.9-1.5,0.5-2.3,0.5
		c-4.4-0.4-8.1-2.4-11.5-5c-2.5-1.9-4.6-4.3-7.7-5.8c-1.1,2.7-0.6,5.2,0,7.7c2.3,10.3,5.5,20.4,8.4,30.6c0.2,0.6,0.8,1.5-0.1,2
		c-1.1,0.6-1.3-0.5-1.8-1.2c-4.3-5.7-8.7-11.2-14.8-15c-5.3-3.3-8.8-1.9-9.7,4.2c-1.2,7.4-0.3,14.8-0.4,22.2c0,2.9,0.1,5.8-0.9,8.7
		c-0.7,2.1-2.3,2.8-4.3,1.8c-0.9-0.5-1.6-1.1-2.3-1.9c-3.3-3.8-5.1-8.4-6.5-13.1c-3.6-11.7-6.8-23.5-10.4-35.2
		c-2-6.5-4.2-13-8.7-18.4c-2.9-3.5-6.1-3.7-9.6-0.8c-3.1,2.5-5.3,5.8-7.1,9.2c-6,11.2-8.4,23.5-9.3,36c-1.2,16.2,0,32.3,3.5,48.1
		c4.8,21.3,13.1,40.9,27.2,57.7c0.5,0.6,1.3,1.2,0.5,2.2c-0.2,0-0.5,0.1-0.7,0c-0.6-0.2-1.2-0.5-1.9-0.7c-4.6-1.8-9.3-3.4-14.3-2.6
		c-3.2,0.5-4.5,2.3-3.8,5.5c0.4,2,1.2,4,2.3,5.8c0.9,1.5,2.1,2.8,2.5,4.4c-0.8,0.9-1.6,0.6-2.4,0.5c-9.9-0.6-19.6,0.2-28.9,4.2
		c-20.5,8.9-27.5,30.7-14.4,48.8c10.1,14.1,25.2,20.3,41.1,24.8c5.3,1.5,10.9,1.9,16.4,2.8c2.2,0.4,2.5,1.1,1.3,2.9
		c-2.6,3.8-4.4,7.9-4.6,12.5c-0.4,10.2,4.5,17.8,12.4,23.4c14,10,29.1,10.3,44.6,3.8c1.5-0.6,1.9-1.5,1.9-3.1c-0.1-3.2,0-6.5,0-9.7
		c8.6-4.8,17-9.8,25.9-14c10.4-4.8,20.7-9.9,32-12.3c2.1-0.4,4.2-1.4,6.6-1.7c0.4,4.1,0.9,8.1,1,12c0.4,11.5,0.6,23,0.9,34.4
		c0.1,6.5,0.2,12.9,0.3,19.4C343.2,512.8,320.8,512.8,298.5,512.8z M242.6,347.4c0,0-0.1,0.1-0.1,0.1c0.1,0,0.2,0,0.3,0
		c0-0.1,0-0.1-0.1-0.2C242.7,347.4,242.7,347.4,242.6,347.4z M298.2,240.2c0-0.1,0.1-0.1,0.1-0.2s-0.1-0.1-0.1-0.2
		c-0.1,0.1-0.1,0.2-0.2,0.2C298.2,240.1,298.2,240.1,298.2,240.2z"/>
	<path class="st0" d="M459.3,511.5c0.1,0.4,0.1,0.9,0.2,1.3c-29.5,0-59,0-88.5,0c0-0.7-0.1-1.3-0.2-2c-1.9-13.4-2.9-26.9-4.6-40.3
		c-0.9-7.5-1.1-15.2-1.7-22.9c0-0.6-0.3-1.3,0.4-1.5c1.9-0.6,3.8-1.7,6-1.1c6.9,1.9,13.9,3.4,20.9,4.5c14.9,2.4,29.9,3.6,45,3.1
		c5.3-0.2,10.6-0.5,16-0.8c0.6,7.8,1.1,15.3,1.9,22.8c1.2,11.6,2.3,23.2,3.5,34.8C458.4,510.1,458.2,511.1,459.3,511.5z
		 M375.5,454.7c-0.3-1.7-0.1-4.1-2.4-4c-2.2,0.1-1.9,2.6-1.8,4.3c0.1,1.5,0.1,3.7,2.1,3.7C375.7,458.6,375.1,456.3,375.5,454.7z
		 M378.5,502.2c-0.4-1.6-0.2-4-2.2-4c-2,0-2.1,2.3-2.1,3.9c0,1.7,0.1,4.1,2.1,4.2C378.7,506.3,378,503.7,378.5,502.2z"/>
	<path class="st1" d="M459.3,511.5c-1.1-0.4-0.8-1.3-0.9-2.1c-1.2-11.6-2.3-23.2-3.5-34.8c-0.8-7.5-1.4-15.1-1.9-22.8
		c-5.5,0.3-10.7,0.6-16,0.8c-15.1,0.5-30.1-0.7-45-3.1c-7.1-1.1-14-2.6-20.9-4.5c-2.2-0.6-4.1,0.5-6,1.1c-0.7,0.2-0.5,1-0.4,1.5
		c0.6,7.6,0.8,15.3,1.7,22.9c1.7,13.4,2.6,26.9,4.6,40.3c0.1,0.7,0.1,1.3,0.2,2c-1.8,0-3.7,0-5.5,0c-0.1-6.5-0.1-12.9-0.3-19.4
		c-0.2-11.5-0.5-23-0.9-34.4c-0.1-4-0.7-7.9-1-12c-2.5,0.2-4.5,1.2-6.6,1.7c-11.4,2.3-21.6,7.4-32,12.3c-8.9,4.1-17.4,9.2-25.9,14
		c0-5.1,0-10.2,0-15.4c-2.4-0.2-4.5,0.2-6.4-0.6c-0.2-0.2-0.3-0.4-0.5-0.5c-15.8-10-18.1-33.5-5.3-47.7c2.9-3.2,6.1-6,10-8.1
		c-1.1-0.8-1.9-1.4-2.8-2c-3-1.9-3.4-4.2-0.8-6.6c4.8-4.5,9.6-9.1,14.8-13.3c1.3-1.1,3.1-1.7,3.7-3.8c1.1-4.4,2.5-8.8,4.6-12.9
		c1.4-2.7,0.6-4.7-0.7-7c-5.7-9.6-12.8-18-21.5-25c-0.7-0.6-1.7-1-1.8-2.2c0.9-0.5,1.2,0.2,1.7,0.6c6.6,5.1,12.5,11.1,17.3,17.9
		c3.6,5.2,8.3,9.9,6.9,17.6c-0.7,4.1,1.9,8.4,3.3,12.6c0.3,0.8,1,1,1.7,1.3c9.6,5,19.1,10.1,28.7,15.1c3,1.5,5.8,3.5,9.2,4.6
		c0-1.1,0-1.9,0-2.7c-0.4-14.6-0.5-29.1,0.9-43.6c0.6-6,1.4-11.9,3.8-17.5c0.7-1.7,1.7-2.9,3.5-3.6c3.1-1.2,5.9-2.7,8.8-4.4
		c11.2-6.3,21.6-13.8,31.7-21.6c1.1-0.8,1.5-1.8,1.5-3.2c0.1-4,0.2-8,0.4-12c1.4-0.1,1.2,1,1.3,1.9c0.3,2-0.3,4.1,0.4,6
		c-0.1,1.6-0.3,3.2-0.2,4.7c0.2,1.6-0.4,2.5-1.7,3.5c-10.7,8.4-21.7,16.2-33.8,22.5c-0.8,0.4-1.5,0.8-1.1,1.8
		c1.7,4.9,1.6,10.1,2.7,15.1c0.4,1.6-0.2,2.1-1.8,2c-3.8-0.2-7.2,0.8-10.5,2.6c-2.5,1.4-3.9,3.6-4.2,6.4
		c-0.9,10.4-0.9,20.8-0.8,31.2c0.1,4,0,8.1,0,12.3c6.2-0.3,11.6-1.5,17.1-2.2c1-0.1,1.3-0.9,1.7-1.7c3-4.8,6-9.5,8.9-14.3
		c1.2-2,2.7-3.5,4.8-4.6c1-0.5,2.3-0.9,2.8-2c1.7-3.9,3.4-7.8,5.2-12.1c-6,0-11.7,0-17.4,0c-0.1-2.2-0.3-4.1,0.1-6
		c1.7-0.5,3.5,0.4,5.3-0.6c-0.9-2-1.8-3.8-2.7-5.8c0.4-0.3,0.7-0.5,1.1-0.7c6.1-3.2,12.2-6.3,18.3-9.6c1.6-0.9,2.3-0.6,3.1,0.9
		c1.5,2.6,3.1,5.1,5,8.1c0.2-1.4,0.3-2.1,0.4-2.9c0.8-9.7,1.6-19.4,2.4-29.1c0.4-5.7,0.8-11.4,1.2-17.2c0.2-2.4,0.5-4.7,0.7-7.1
		c0.7-9.5,1.4-18.9,2.1-28.4c0.2-2.1,0.5-4.2,0.7-6.5c1.3,0.7,1.5,1.7,1.8,2.5c2.4,6,4.3,12.2,5.9,18.5c2.4,9.5,4,19.2,5.4,28.9
		c0.2,3.1,0.4,6.3,0.7,9.4c1.5,15.3,1.3,30.6,0.4,45.9c-0.1,1.8-0.8,2.6-2.6,2.4c-1.7-0.2-3.4-0.4-5-0.5c-1.1,3.5,2.1,2,3.2,3.2
		c-0.2,2.2-0.2,4.7-0.6,7c-0.2,1.3-0.4,2.8-2.2,3.2c-4.3,1.1-8.6,2.4-13,3.5c-1.5,0.4-2.9,0.6-3.4,2.4c-0.2,0.7-0.7,1.2-1.5,0.8
		c-0.8-0.4-0.7-1.1-0.4-1.7c0.1-0.4,0.4-0.8,0.5-1.1c2.3-5.7,4-11.6,4.2-17.9c0.2-5.8-0.9-10.6-7.1-12.7c-2.2-0.8-3.8-3.2-6.6-2.8
		c4.9-1.4,8.2,3.3,13.1,3.6c-1.8-4.6-4.5-8.1-6.9-12.1c-6.5,3.4-12.9,6.8-19.3,10.1c0.8,1.7,1.5,3.2,2.2,4.6
		c0.3,0.6,0.5,1.2,1.4,1.2c2.9,0,5.8,0,8.7,0c0.4-2.3-0.9-4.6,1.2-7c-0.4,2.1,0.7,1.9,1.7,2c1.6,0.2,2.4,1.2,2.8,2.8
		c0.4,2.1,0.9,4.2,0.3,6.4c-0.1,0.5-0.1,1.2-1,1.1c-0.3-8.9-0.3-8.9-3.8-9.2c-0.4,3.9,1.5,7.6,1.2,11.3c1,0.9,2.5,0.7,3.4,2
		c-0.5,0.1-0.9,0.2-1.2,0.2c-3.5-0.7-3.3-0.6-4.8,2.6c-1.5,3.3-2,7.1-5,9.6c-5.3,4.5-9.3,10.2-12.8,16c-2.1,3.5-5.8,3.9-8.5,6.2
		c-0.2,0.2-0.9,0.2-1.2,0c-2.3-2-4.7-0.4-6.7-0.3c-1.5,5,1.3,8.7,3.3,12.6c0.1,0.1,0.1,0.3,0.2,0.5c1.4,3.5-2.2,8.4-6,8.2
		c-0.1,0-0.2,0-0.2,0c-3.8-0.5-6.6-5.8-5-9.3c0.6-1.2,1.5-2.2,2.3-3.2c2.2-2.4,4.1-5,3.9-8.6c-0.3,0-0.5-0.2-0.7-0.1
		c-5.9,1.8-11.8,3.2-17.8,4.4c-0.6,0.1-0.9,0.5-1.1,1.1c-1.1,2.5-3.4,3.1-5.6,1.4c-0.9-0.7-1.6-0.9-2.7-0.4c0.2,2.1-0.1,3.9-2,4.9
		c-2.2-1-1.6-3.1-2.2-4.8c-4,0.7-8,0.4-12.1,0.6c-0.1,1.2-0.1,2.2-0.2,3.1c1.1,0.7,2.9,0.9,2.8,2.5c-0.2,2.4-2.5,2.2-4.1,2.9
		c0,6.7-0.9,7.7-7.4,8.7c-0.2,0-0.3,0.1-0.5,0.1c-4,0.5-4,0.5-5.7-3.2c-0.3-0.6-0.6-1.2-0.9-1.8c-1.1,0.2-2.2,0.6-3.2,0.6
		c-1.5,0-3.1,0-4-1.4c-1-1.6-0.1-3.1,0.9-4.3c1-1.2,2.3-2.1,3.5-3.2c-1.6-3-1.9-4.8-0.5-5.7c2.8-1.9,5.1,0.2,7.5,1.4
		c0.9-0.9,0.5-1.3-0.5-1.5c-3.4-0.8-6.6-2-9.8-3.4c-1.8-0.8-2.1,1.1-3.1,1.7c-0.7,0.5-1.3,1.1-0.6,2.1c2.3,3.4,1.4,6.7-0.7,9.8
		c-1.1,1.7-1.3,3.3-0.4,5.2c0.9,1.7,1.2,3.6,1.3,5.6c0.2,4.5-3.3,7.2-7.6,5.9c-1.4-0.4-2.7-1-4.3-1.1c-0.3,2.7,0.4,5.2,1.1,7.8
		c0.5-0.3,0.8-0.5,1.2-0.7c1-0.5,2-1.4,3.2-0.6c1.2,0.7,0.8,2,0.9,3.2c0.1,2-1,3.8-0.9,5.8c3.8,1.2,5,3.1,4.3,6.7
		c-0.4,2.1,0.6,3.4,2.7,3.1c4.5-0.6,8.9-1.4,13.5-2.2c-3.1-3.3-3.1-3.4-1-7.1c1.9-3.3,4.1-6.5,2.2-10.7c-0.6-1.3,1.1-1.4,1.9-1.7
		c1-0.3,1.7,0.2,1.6,1.3c-0.1,4.1,2.2,7,5,9.6c1.7,1.6,3.4,3.3,1.8,6.2c9.9-1.9,19.3-4.2,28.8-6.5c-1.6-1.6-3.2-2.9-3-5.1
		c1.4-1,2.7,0.2,4,0c0.2-4.3,0.6-5.7,1.9-6c3.4-0.8,4.9,2.1,7,4.2c1.6-5.7-1.9-9.2-5.3-13c7.5,1,10.9,5.7,12.2,12.2
		c3.2-1.2,4.4-4,6.2-6.5c2.1,2.7,1.4,5.5,0.7,8.1c5.6,0.1,8.6-4.5,13.3-6.7c-0.6,2-2.7,2.1-2.7,4.1c3-0.9,6.1-1.5,8.8-2.7
		c4.3-1.9,8.2-2.1,11.8,1.3c0.8,0.8,2,1.2,2.8,1.9c0.9,0.8,1.8,1,3,0.5c-0.4-2.9-0.6-5.8-0.5-8.8c0-1.3-0.2-2.9,1.5-3.3
		c1.7-0.4,1.9,1.3,2.4,2.3c1.4,2.6,1.8,5.5,2.8,8.3c2.2-0.5,4.1-1,6-1.5c0.9-0.2,1.3-0.9,1.4-1.8c0.8-5.9,1.8-11.8,0.8-17.9
		c-0.1-0.7-0.3-1.6,0.4-2.3c1,0.6,0.4,2.4,1.8,2.1c1.6-0.4,3,0.7,4.6,0.5c0.8-0.1,1.6,0.2,1.6,1.1c0.1,2.7,2.2,3,4.1,3.6
		c1.7,0.6,3.6,0,5.6,1.1c-3.4,2.5-6.6,4.2-10.6,4.4c-1.7,0.1-3.2,0-2.4-2.5c-1.8-0.2-3.8-0.9-4,1.3c-0.2,3.1-0.4,6.3-0.8,9.6
		c5.3-1.5,10.1-3.2,15.1-4.3c4-0.9,6.4-2.3,7-6.9c1.2-8.8,3.9-17.4,4.6-26.3c0.2-2-0.3-3.7-1.4-5.4c-3.5-5.3-7.9-9.8-12.2-14.5
		c-0.4-0.4-1.3-0.6-0.8-1.5c0.6-0.3,1-0.1,1.4,0.3c4.9,4.9,10,9.7,13.9,15.5c1.1,1.6,1.5,3.4,1.4,5.4c-0.4,8.7-1.9,17.2-3.4,25.7
		c-0.3,1.6,0,2.5,1.4,3.6c4.1,3.1,8.4,6,12.9,8.5c6.3,3.4,12.7,6.6,19.6,8.4c0.5,0.7,0,1.1-0.6,1.5c-0.3-0.2-0.7-0.5-1.1-0.6
		c-8-2.7-15.5-6.3-22.8-10.7c-3.4-2.1-6.5-4.5-9.7-6.7c-0.8,0.5-0.8,1.1-0.9,1.7c-0.4,2.3-1.4,3.6-3.9,3.9c-1.8,0.2-3.6,1-5.7,1.6
		c4.3,5.8,9.3,10.4,15.3,14c2.7,1.6,5.2,3.5,8.7,3.3c6.1-0.4,12.3-0.4,18.4-1.5c0.5,1.8-1.2,1.6-2,1.7c-3.2,0.7-6.4,1.3-9.6,1.5
		c-5.1,0.4-10.3,1.3-15-1.9c-0.8-0.6-1.7-0.5-2.6,0.1c0.2,3.2,0.5,6.5,0.7,9.8c0.2,4.2,1.1,8.4,1.5,12.7c0.6,6.9,1,13.7,2.1,20.5
		c0,0.5,0.1,1,0.1,1.4c0.4,4.1,0.8,8.2,1.1,12.3C459.6,509.5,460,510.5,459.3,511.5z M432.9,307.6c-0.6-11.4-3.7-22.3-6.2-33.3
		c1.1,8,1.7,16,2.5,24c0.3,2.8-0.1,5.6,0.7,8.4c-0.1,0.7-0.2,1.3-0.2,2c0.6,13.1,0.5,26.1,0,39.2c-0.1,1.8,0,3.6,0,5.6
		c1.4,0.2,2.8,0.5,4.5,0.8C434.8,338.4,434.8,323,432.9,307.6z M420,302c-0.2,1.2-0.4,2.5-0.5,3.7c-1.2,14.8-2.4,29.5-3.6,44.3
		c-0.1,1.9-0.5,3.7,0,5.7c1,3.6,2.2,7.2,1.8,11.1c3.3,0.5,6.3,1,9.4,1.5c0.3-3.2,0.3-3.1,3.3-3.7c1.1-0.2,2.9,0.1,3.2-1.4
		c0.4-2.6,0.7-5.2,0.3-7.9c-1.5-0.3-2.8-0.5-4.1-0.7c-1.1-0.2-1.7-0.6-1.6-2c0.7-8.9,0.7-17.8,0.7-26.7c0-6.8,0-13.6-0.7-20.4
		c-0.1-8.1-0.9-16-2-24c-0.8-5.4-1.5-10.8-2.9-16.2c-0.2,0.3-0.3,0.4-0.3,0.5C422,277.9,421,290,420,302z M292.5,396.9
		c0.7,0.7,1.2,1.4,1.9,1.8c4.1,2,8.4,3.6,12.9,4.3c15.9,2.4,31.8,1.8,47.7-0.4c1.7-0.2,3.5-0.2,4.3-2.1c-0.9-0.8-1.9-1.5-3.1-1.5
		c-1.7,0-2.9-0.7-3.8-2c-0.5-0.7-1.3-1.1-2-1.5c-3.6-2-7.1-3.9-10.7-5.9c-7-3.8-14.1-7.3-21.3-10.7c-2.6-1.2-4.8-1.7-7.3,0.5
		c-2.1,1.9-4.6,3.4-6.6,5.6c-1.9,2.1-4,4-6.2,5.8C296.4,392.5,294.2,394.2,292.5,396.9z M363.1,351.6c3.1-4,6.7-7.4,11.6-9
		c0.5-0.2,0.7-0.6,0.7-1.2c-0.1-3.5-0.2-7-0.4-11.1c-3,1.7-6.5,1.8-8,4.3C364,339.8,363.5,345.7,363.1,351.6z M283.7,428.9
		c-0.3,0.7-0.4,1.3,0,1.6c1.3,1.4,3,1.6,4.8,1.2c1.7-0.4,2.4-1.8,2.4-3.4c0-1.2-0.1-2.5-0.4-3.7c-1-3.1-0.4-5.8,1.5-8.4
		c1.6-2.2,1.7-4.6,0.6-7.5c-2.9,3.4-5.1,6.8-6.6,10.6c-0.2,0.5-0.4,1,0.2,1.6c1.5,1.5,1.4,3.5,1.2,5.4
		C287.2,428.8,286.3,429.4,283.7,428.9z M319.4,408.2c-3.3,1.6-7.3-3.2-9.8,2.2c-1.6-1-2.9-2.2-4.7-2.6c-0.9-0.2-1.9-0.4-2.5,0.4
		c-0.8,1-0.2,1.9,0.2,2.8c0.4,0.9,1.6,0.9,1.8,2c-1,1.1-2.7,1.4-3.4,3.2c2.8-2,5.3-1,7.9,1.4c0.3-5.1-2.8-6.4-5.8-7.9
		c4.5-0.2,6.4,2.5,7.4,6.3c1-0.2,1.8-0.3,2-1.4c0.5-2.7,2.6-3.2,4.9-3.3c0.7,0,1.4,0.5,2.2-0.1C319.5,410.4,319.5,409.6,319.4,408.2
		z M385.9,362.7c5.5,0,10.7,0,16.1,0c0.1-1.4-0.1-2.5-0.8-3.7c-5.1,0-10.1,0-15.2,0C385.5,360.2,385.6,361.3,385.9,362.7z
		 M311.9,455.5c1-2.1-0.7-3.7-0.5-5.5c0.3-2.8,0.6-3.8,2.2-4.6c-1.2,5.1-1.2,5.1-0.6,7.6c0.2,0.8,0.3,1.8,1.4,1.6
		c1.2-0.2,1-1.1,0.8-2c-0.2-0.9-0.7-1.8,0.2-2.8c1.1,1.1,0.4,2.9,1.6,3.8c1.7-2.5,1.7-3-0.2-5c-0.8-0.8-2.1-1.6,0.2-2.9
		c-0.7-0.5-1.3-0.8-1.8-1.3c-1.7-1.6-2.4-1.6-3.6,0.5c-0.5,0.9-0.9,1.9-1.4,2.9C308.2,452,308.2,452,311.9,455.5z M426.5,417.6
		c1.3,1.8,0.1,3.9,0.9,5.6c1.8,0,3.5,0,5.2,0C433.7,417.6,432.7,416.7,426.5,417.6z M318.3,419.3c0.3-1.8-0.3-2.5-1.9-2.7
		c-3.7-0.6-6.6,0.7-9.3,3c-1.1,1-0.6,1.8,0.2,2.8C310.6,419.7,314.3,419.1,318.3,419.3z M412.2,438.8c1.4-0.2,2.6-0.4,3.7-1.2
		c-0.8-3.3-1.5-6.6-3.8-10C411.2,431.7,411.8,435.2,412.2,438.8z M410.1,441c-0.2,1.3-0.4,2.5-0.5,3.8c-0.1,0.7,0.1,1.3,1,1.4
		c4.6,0.4,9.3,1.5,13.6-1.6c2.4-1.8,3.5-4.1,4.2-6.8c-0.6-0.2-0.7,0.1-0.7,0.3c-1.4,5.6-6,8.2-11.7,7.8
		C410.8,445.6,410.8,445.8,410.1,441z M364.1,420.2c-0.8-2.8-1.6-5.1-0.4-8.1c0.6,3,0.7,5.5,1.9,8.2c1.9-4.2-0.2-7.5-0.8-11.1
		C361.4,413.3,360.9,417.9,364.1,420.2z M300.8,415.8c-1.3,1-2.4,2-1.9,3.6c0.3,1.2,1.7,1.2,2.5,1.1c2.2-0.1,4.3-0.6,5.6-2.9
		c-1.2-1.3-2.5-2-4.1-1C301.7,417.4,301.1,417.2,300.8,415.8z M319,421.8c-2.2-2-7.5-1.3-10.4,0.9c-0.8,0.7-1.3,1.3,0.2,2.2
		C311.3,421.7,315.5,423.5,319,421.8z M313.6,415.3c3-0.7,6.1,2.2,9-0.7C319,412,314.2,411.4,313.6,415.3z M422.5,371.2
		c-1.5,0-2.4,0.8-2.6,2.3c-0.1,1.5,0.7,2.6,2.2,2.7c1.6,0.1,2.7-0.8,2.8-2.4C425.1,372.2,424.2,371.4,422.5,371.2z M288.5,440.1
		c-4,1.2-4.2,3.6-0.7,7.5C288.4,445.1,289.2,442.8,288.5,440.1z M432.8,425.2c3.1,0.4,5.2-0.3,7.4-2.1c-2.2-0.6-4-1.1-5.9-1.6
		C433.8,422.8,434.2,424.2,432.8,425.2z M367.3,420c3.3-2.4,2.8-6.6-0.7-8.8C367,414.1,368.1,416.8,367.3,420z M291.9,454.5
		c1.1-3.4-0.3-5.2-3.5-4.6C288.9,450.8,291.1,453.7,291.9,454.5z M359.6,444.4c-1-0.9-2-1.3-3-1.6c-0.5-0.2-1,0-1.3,0.4
		c-0.4,0.5-0.3,1.1,0,1.6c0.3,0.5,0.7,0.6,1.2,0.4C357.5,445,358.4,444.7,359.6,444.4z M367.1,442.6c-2.5-1.5-3.6-1.2-5.5,1.4
		C363.5,443.5,365.1,443.1,367.1,442.6z M344.6,406.7c-1.4,0.1-2.6-0.1-3.7,0.8C342.9,408.6,343,408.6,344.6,406.7z M313.6,442.5
		c0.2-1.9,0-2.9-0.8-4.5C312.8,439.5,312.3,440.9,313.6,442.5z M335.3,411.6c1.1-1.2,1.8-2.1,1.2-3.3c-0.2-0.4-0.8-0.4-1.1-0.2
		C334.4,409,334.8,410.1,335.3,411.6z"/>
	<path class="st1" d="M523.9,497.9c-0.4-0.1-0.7-0.3-1.1-0.4c0-0.2,0-0.4,0-0.6c9-0.5,18,0.3,27.2,0c0.1-3.5-1.3-7.8,4.7-8.1
		c-1.7-2-3.1-3.6-4.4-5.3c-0.7-1-1.8-2.2-0.7-3.3c0.9-1,2.4-0.5,3.5,0c1.4,0.6,2.8,1.4,4.4,2.3c0.6-2.5,0.2-4.9,0.5-7.2
		c-2.5-0.5-4.6,1-7.4,0.8c2.5-2.9,5.7-3.5,8.8-5.3c-3.1-1.8-4.1-5.3-7-7c-0.6-0.4-0.7-0.9-0.8-1.5c-1.3-7-1.8-14-0.2-21
		c0.5-2.4,1.6-4.1,3.8-5.4c4.8-2.9,10-5,15.3-6.7c1.1-0.3,1.9-0.6,2.4-1.8c0.6-1.3,1.8-1.6,2.9-0.7c1.1,1,2.2,0.8,3.5,0.6
		c2.5-0.4,5.1-0.6,7.8-0.9c0.6-1.8,0.4-3.7,0.4-5.6c0.2-10.9,0.3-21.8,0.5-32.7c0-0.7-0.1-1.4,0.7-1.6c0.2-0.1,0.6,0.5,0.9,0.7
		c0,1.2-0.1,2.5-0.1,3.7c0.2,10.5,0.4,21,0.6,31.5c-0.3,3.9-0.3,3.9,3.4,4c2.6,0.1,5.2,0.1,7.7,0.5c1.1,0.2,2.3,0.5,3.3-0.4
		c0.4-0.3,1-0.3,1.4,0c4.7,2.8,10.4,2.6,15.3,4.8c1.2,0.6,2.6,1.6,4.1,0.3c0.3-0.3,1,0,1.3,0.4c3.6,4.1,6.2,8.6,6.2,14.3
		c0.1,5.3-0.3,10.6-0.8,15.9c-0.2,2.4-2.2,1.4-3.6,2.2c1.3,3,2.1,6-2.2,7.6c3,2.1,6.5,2.6,8.7,5.4c-3.2,0.1-6-1.8-9.3-1.5
		c-0.4,1.4-0.3,2.8,0.1,4.2c1.9-0.1,3.5-1,5.4-0.9c1.4,0.1,2.7,0.4,3.3,1.8c0.6,1.4,0.1,2.8-0.9,3.9c-1.1,1.1-2.3,2.2-3.5,3.4
		c3.6,2.3,2,6.1,2.8,9.6c8.5,0,17,0,26.2,0c-1.9,2.9-2.6,5.6-5.2,7.1c0.3-2.1,2.1-3.4,2.8-6c-8.1,0-15.9,0.1-23.7,0
		c-12.2-0.1-24.5-0.3-36.7-0.5c-14.1-0.2-28.1-0.5-42.2-0.7C544.2,498.1,534,498,523.9,497.9z M626.5,488.3c3.2-0.2,5.2-2.3,6.9-4.6
		c0.9-1.4,0.1-2.6-1.7-2.7c-2.3-0.2-4.4,0.6-6.4,1.6c-3,1.4-5.5,3.7-8.2,5.5c-3.5-2.6-5.5-2.5-9.7,1c4.3,0,8.2-0.1,12,0
		c4.3,0.2,7.1-1.8,8.8-5.6c0.2-0.4,0.4-0.7,1-0.6c0.5,1-0.2,1.7-0.5,2.5C628.2,486.5,626.7,486.9,626.5,488.3
		c-0.2,0.1-0.3,0.2-0.5,0.3c0.1,0,0.1,0.1,0.2,0.1C626.5,488.7,626.6,488.5,626.5,488.3z M558,473.3c3.3-0.3,6.6-0.8,9.9-0.8
		c7.4,0,14.8,0.6,21.9,3c1.6,0.5,3.1,0.5,4.6,0.2c6-1.2,12-1.6,18.1-1.8c4.7-0.2,9.4,0.3,14.1,0.7c-2.5-1.5-5.3-2.1-8.1-2.6
		c-4.8-0.9-9.2-2.3-14.3,0.3c-5.6,2.9-11.7,1-17-2c-3.3-1.9-6.4-2.2-10-1.7c-2.4,0.3-4.2,1.9-6.4,2.6c-2.5,0.8-5,2-7.7,1
		C561.2,471.4,559.5,471.8,558,473.3c-0.2,0.1-0.5,0.1-0.2,0.1C557.6,473.5,557.8,473.4,558,473.3z M578.5,475.7L578.5,475.7
		c-5.7-1.6-11.5-1.5-17.4-1.1c-0.6,0-1.1,0.2-1.4,0.8c-1.6,2.5-0.3,9,2.1,10.8c9.4-7.9,11.3-8,18.3-0.7c13.4-8.3,14.7-8.2,27,1.9
		c3.2-2,6.5-4.1,10.2-1c2.2-1.5,4.2-3.1,6.4-4.4c1.8-1.1,0.7-3.4,0.7-5.1c0-1.5-1.5-1-2.4-1.1c-7.8-0.5-15.4,0.6-23.1,1.7
		c-3.2,0.5-6.4,2.1-9.7,0.6C585.7,476.6,582.1,476.2,578.5,475.7z M604.2,460.9c0-0.3,0-0.5,0-0.8c0.6-0.6,1.5-0.4,2.3-0.4
		c7.3,0,14.6-0.1,22-0.1c1.1,0,2,0.1,2.1-1.4c0.5-5.2,0.7-10.3-0.1-15.4c-0.6-3.8-2.4-6.4-6.2-8c-7.3-3.1-14.9-4.6-22.7-5.9
		c-10-1.6-19.8-0.7-29.6,1.5c-6.1,1.4-11.8,4-17.2,7.3c-1,0.6-1.3,1.4-1.6,2.4c-2.2,7.4-1.7,14.8-0.1,22.1c1.2,0.5,2.3,0.4,3.3,0.4
		c10.6-0.1,21.1-0.2,31.7-0.3c13.3-0.1,26.6-0.1,40-0.2c0.7,0,1.7,0.3,2-1.4C621.3,460.9,612.8,460.9,604.2,460.9z M551.9,497
		c0.7,0,1.4,0,2.1,0c14.6,0.3,29.1,0.5,43.7,0.8c10.5,0.2,21,0.3,31.5,0.4c0.9,0,1.9,0.3,2.1-1.1c0.8-4.9-0.7-6.8-5.7-6.8
		c-0.2,0-0.5,0-0.7,0c-22.5,0-45-0.1-67.5-0.1c-6.2,0-6.5,0.2-5.9,6.2C551.5,496.5,551.6,496.6,551.9,497z M596.9,482.9
		c-0.3,4.6-5.5,3.1-7.7,5.8c5.7,0,11,0,16.6,0c-2.7-4-5.4-6.2-9.2-7.3c-7.1-2-12.1,2.1-17.1,6.3c-2.2-3.5-4.2-6.9-8.8-6.1
		c-3.9,0.7-6.3,3.8-9,6.6c-3.3-3-6.2-6.6-11.4-7.4c1.2,2.9,3,4.5,4.9,6.2c0.8-1.3-1-2,0-3.1c1.2,0.4,1.3,1.7,2,2.4
		c0.8,0.9,1.4,2.4,2.7,2.5c4.2,0.2,8.3,0.1,12.9,0.1c-4-3.4-4.2-3.8-3.9-5.7c2,3,4.5,5.1,8,5.6c2.2,0.3,4.5,0.1,6.7,0.1
		c2,0.1,3.9,0.3,5.3-1.8c0.4-0.7,1.5-1,2.4-1.2C593.5,485.5,595.7,485,596.9,482.9z M580.4,463.9c5.4,4.6,11.3,8.1,18.5,8.2
		c5.6,0.1,11.3-3.4,13-8c-1.4-0.5-2.5-0.2-3.7,0.6c-4.4,3-8.8,3-13.3,0.4c-0.9-0.5-1.7-1.2-2.9-1.2
		C588.2,463.9,584.3,463.9,580.4,463.9z M555.5,464c0.8,3.3,4.5,6.4,8.3,7c4.5,0.7,12.3-2.8,14.4-6.7c-2.3-0.6-4.5-0.9-6.7,0.2
		c-3.9,1.9-7.8,2.3-11.7-0.1C558.5,463.6,557,463.8,555.5,464z M610.6,468.7c3.6,1.2,6.8,0.8,9.9-0.6c0.7-0.3,1.5-0.9,1.2-1.9
		c-0.2-0.9-0.7-1.8-1.8-1.8c-3.2,0-6.9-1.1-8.6,3.2C611.3,467.9,611.1,468.1,610.6,468.7z M618.4,470.4c2.9,0.8,5.1,1.1,7.3,0.7
		c2.5-0.5,3.2-1.6,2.3-4c-0.9-2.7-1.3-2.9-5.3-2.3C624,468.1,621.5,469.1,618.4,470.4z M595.4,464c5,2.4,8.9,2.3,10.8,0
		C602.8,464,599.5,464,595.4,464z M562.4,464c2.1,1.2,3.7,0.9,5.4,0.4C566.1,463.6,564.4,464,562.4,464z M581.2,467
		c-1.4-1.6-2.3-1.2-3.1,0.2C579.1,467.4,580,467.3,581.2,467z"/>
	<path class="st0" d="M523.9,497.9c10.1,0.1,20.3,0.2,30.4,0.3c14.1,0.2,28.1,0.5,42.2,0.7c12.2,0.2,24.5,0.3,36.7,0.5
		c7.8,0.1,15.6,0,23.7,0c-0.7,2.6-2.6,4-2.8,6c-0.8,1.6-1.5,3.2-2.4,4.7c-0.5,0.9-1.5,0.6-2.3,0.6c-35.5,0-71-0.2-106.6,0.2
		c-6.6,0.1-11-1.6-14.4-7C527.1,501.8,525.4,499.9,523.9,497.9z"/>
	<path class="st0" d="M590.2,422.6c-0.2-10.5-0.4-21-0.6-31.5c0-1.2,0-2.5,0.1-3.7c12.3,3.8,24,9,34.3,17c1.3,1,2.5,2.1,3.6,3.1
		c-0.3,0.9-0.9,1-1.3,1.1c-5.6,1.7-10.7,4.6-15.8,7.4C604,419.4,597.4,422,590.2,422.6z M594.6,409.5c2.1-0.4,1-2.4,2-3
		c1,0.2,1.5,1.5,2.8,1.3c1.6-2.1,1.8-5,3.5-7.3c1.5,2.2,1.6,4.9,3.1,6.8c1.3,0.3,1.9-1.1,3-1c0.9,0.7,0,2.5,1.9,2.7
		c0.4-1.9-0.1-3.6-0.6-5.2c-1.6-0.2-2.2,1.5-3.6,1.5c-1.5-2.6-1.8-5.8-3.9-8.4c-2.3,2.6-2,6.6-4.7,8.7c-0.9-0.7-1.5-1.7-2.7-1.5
		C594.6,405.7,594.4,407.5,594.6,409.5z M611.6,411.1c0-0.3,0-0.5-0.1-0.8c-6,0.3-11.9,0.5-17.9,0.8
		C595.3,412.8,609.8,412.3,611.6,411.1z M611,400.4c-0.1-0.8-0.6-1.4-1.4-1.4c-0.8-0.1-1.5,0.5-1.5,1.3c-0.1,0.9,0.5,1.4,1.4,1.4
		C610.4,401.7,610.9,401.3,611,400.4z M596.8,400c0-0.7-0.4-1.2-1.2-1.3c-0.8-0.1-1.5,0.3-1.6,1.2c0,0.9,0.6,1.3,1.4,1.4
		C596.3,401.3,596.6,400.7,596.8,400z"/>
	<path class="st0" d="M210.5,295.9c1.1,2.9,1.2,5.5,1.7,8c2.2,9.8,4.9,19.3,10.8,27.7c1.4,2,3,4,5,5.5c0.5,0.4,0.9,0.8,0.5,1.5
		c-0.3,0.5-0.9,0.4-1.3,0.2c-7.7-1.9-15.3-4.3-21.4-9.6c-7.6-6.6-8.7-13.6-4-22.5C203.9,302.7,206.7,299.2,210.5,295.9z M224,335.8
		c-4.1-5.5-7.1-11.2-9.3-17.3c-2.2-6.2-3.6-12.5-5.1-19.3c-2.5,2-3.9,4.2-5.3,6.4c-5.3,8-4.7,15.6,1.8,21.6
		c3.1,2.9,6.9,4.9,10.8,6.5C219.1,334.6,221.2,335.8,224,335.8z M224.2,336.1c0.1,0,0.1-0.1,0.2-0.1c0-0.1-0.1-0.1-0.1-0.1
		c0,0-0.1,0.1-0.2,0.1C224.1,336,224.1,336.1,224.2,336.1z"/>
	<path class="st0" d="M631.7,471.2c0.1-1.3,1.1-1.6,1.8-2.1c2.8-2.4,5.6-4.8,7.6-7.9c1.9-3,1.4-4.6-1.7-6.2c-2.4-1.2-2.7-2.2-1-4.5
		c1.9-2.6,4.7-4.2,7.6-5.5c4.5-2,9.3-3,14.2-3.6c0.6-0.1,1.4-0.2,1.7,0.6c0,1.2-1.1,1.3-1.9,1.7c-3,1.5-5.9,3.1-8.1,5.7
		c-1.6,1.7-2.1,3.6-1.8,6c1.3,9.1-0.8,12.3-9.8,14.7C635.8,471.3,633.5,471.6,631.7,471.2z M637.2,468.9c8.9-0.6,12.3-4.5,11.3-13.1
		c-0.4-3.3,0.5-6.1,3-8.3c1.1-1,2.3-2,3.4-3c-6.2,1.1-12.2,2.5-16,8.2c6.2,4.1,6.5,6.3,1.8,11.7c-1.2,1.4-2.5,2.9-3.8,4.3
		c-0.1,0.1-0.3,0.3-0.3,0.3C636.8,469.2,637,469.2,637.2,468.9z"/>
	<path class="st0" d="M234.3,477.4c-0.1,0.9-0.6,1-1.1,1.1c-7.6,0.3-15.2-0.1-22.3-3.3c-9.9-4.4-11.2-12.6-7.5-21.9
		c0.5-1.2,1-2.4,1.7-4.1c-6.8,0.3-12.1-1.9-14.7-8.4c-1.4-3.6-2.6-7.2-1.7-11.2c1.5,0.1,1.3,1,1.3,1.7c0.1,3,0.7,5.9,1.8,8.7
		c2.4,5.7,7.1,8.3,13.2,7.3c0.9-0.1,1.8-0.6,2.8,0.3c-0.9,1.9-1.8,3.8-2.7,5.8c-1.7,3.9-2.7,8-1.5,12.2c1.5,5.1,5.6,7.5,10.2,9.1
		c5.6,1.9,11.4,2.4,17.2,2.3C232.2,476.9,233.4,476.5,234.3,477.4z"/>
	<path class="st0" d="M543.8,393.7c1,1.6,1.9,2.7,2.5,3.9c1.4,2.8,0.6,5.1-2.2,6.4c-3,1.4-6.2,1.3-9.3,1.5c-0.7,0-1.3-0.2-1.4-1.1
		c0.6-1,1.7-0.6,2.5-0.6c2.3-0.1,4.7-0.4,6.9-1.1c2.7-0.9,3.3-2.6,1.8-5c-0.9-1.5-2.1-2.8-3.4-4c-0.6-0.6-1.5-0.9-1.5-1.9
		c0.6-1,1.5-0.4,2.2-0.2c3.6,0.9,7.1,0.9,10.6-0.2c6.5-2,9-8.1,5.8-14.1c-3-5.6-7.7-9.5-12.8-13.1c-2-1.4-4-2.7-6.1-4.1
		c0.9-1.4,1.8-0.7,2.4-0.3c6.6,4.1,12.9,8.5,17.2,15.3c4.2,6.7,2.7,13.6-3.9,17c-2.8,1.4-5.8,1.9-9,1.7
		C545.4,393.9,544.9,393.8,543.8,393.7z"/>
	<path class="st0" d="M463.4,186.2c4.2-11.9,8.5-24,8.7-37c5.1,3.6,8.5,8,8.8,14.3c0.2,5.1-1.9,9.4-5,13.2c-3,3.7-6.5,6.8-10.5,9.5
		C464.9,186.4,464.5,186.8,463.4,186.2z M473.4,152.4c-0.7,10.6-3.6,20.5-7.2,30.8c5.2-3.1,10.2-8.9,11.9-13.6
		C480.5,163.1,478.8,156.3,473.4,152.4z"/>
	<path class="st0" d="M265.4,210.2c0,1.3,0,2.7,0,4c-0.1,1.4-0.2,3.1-1.8,3.5c-1.6,0.4-2.4-1.1-3.2-2.4c-1.4-2.3-2.5-4.7-3.3-7.2
		c-1.7-5.4-3-10.9-3.3-16.6c-0.2-2.7,0-5.4,1.4-7.8c1.5-2.6,3.6-2.6,5.1,0c2.3,3.7,2.8,8,3.6,12.1
		C264.9,200.6,265.4,205.4,265.4,210.2z M262.9,216c1.1-1.2,1.1-2.4,1.1-3.6c-0.1-5.5-0.6-11-1.6-16.4c-0.7-3.7-1.3-7.6-3.2-11
		c-0.4-0.6-0.6-1.5-1.5-1.4c-0.8,0.1-1.2,0.9-1.4,1.6c-0.5,1.3-0.8,2.7-0.8,4.1c0,5.4,0.9,10.6,2.5,15.7
		C259,208.9,260.2,212.7,262.9,216z"/>
	<path class="st0" d="M508.7,243.3c2.4,0,3.3,1.1,3.1,3.5c-0.2,2.1-1.3,3.8-2.6,5.3c-5.5,6.1-12,10.7-19.5,13.9
		c-1.3,0.5-2.8,1.2-4,0c-1.4-1.4-0.6-3.1,0.3-4.4c5.1-7.6,11.7-13.6,19.9-17.7C506.8,243.4,507.7,243.3,508.7,243.3z M487,264.5
		c1.1,0.6,1.9,0,2.7-0.4c3-1.2,5.8-2.8,8.5-4.7c4.1-2.9,8.2-5.8,10.9-10.1c0.8-1.2,1.8-2.6,0.7-3.9c-1.1-1.4-2.6-0.4-3.9,0.1
		c-0.5,0.2-1.1,0.5-1.6,0.8c-5.6,3.4-10.5,7.7-14.7,12.7C488.4,260.5,486.7,262.1,487,264.5z"/>
	<path class="st0" d="M538,457.7c3.2-2.5,4.7-2.4,7.1,0.7c2.3,2.9,3.5,6.4,3.6,10.1c0.1,3-1.4,4.1-4.3,3.3
		c-6.3-1.8-9.8-6.5-12.2-12.2c-0.7-1.7-1.1-3.5-1.1-5.3c0-0.8,0.1-1.5,1-1.8c0.7-0.3,1.3,0,1.8,0.5C535.2,454.5,536.5,456,538,457.7
		z M532.7,454.8c0.3,3.9,1.9,6.5,3.7,9.2c1.9,2.9,4.5,4.9,7.7,6.1c2.3,0.9,3.2,0.3,3-2.1c-0.3-3.2-1.4-6.2-3.4-8.7
		c-1.7-2.2-2.9-2.1-4.4,0.2c-0.3,0.5-0.5,1.3-1.5,1.2C536.1,459.1,535.6,456.4,532.7,454.8z M532.9,454.6l-0.1-0.1l0,0.1
		L532.9,454.6z"/>
	<path class="st0" d="M539.9,481.1c-4,0-8.1-2.6-9.2-5.8c-0.2-0.6-0.5-1.3,0-1.9c0.6-0.7,1.4-0.5,2.1-0.2c2.9,1.1,5.6,2.5,8.2,4.2
		c0.9,0.6,2.4,1.1,2,2.5C542.6,481.5,541,480.9,539.9,481.1z M540.8,479.2c-2.9-1.8-5.1-3.5-8.1-4.1
		C533.9,478,536.9,479.6,540.8,479.2z"/>
	<path class="st1" d="M586.9,380.5c0.3-1.3,0.6-3.1,2.4-3.2c1.4-0.1,1.4,1.4,1.4,2.5c0,1.7-0.6,3.2-2.3,3.4
		C587,383.2,587,381.7,586.9,380.5z"/>
	<path class="st0" d="M212.6,353.7c-0.2,1.3-1,2-2.4,2c-1.2,0-1.8-0.9-1.8-2c0-1.4,0.8-2.2,2.2-2.2
		C211.9,351.6,212.6,352.3,212.6,353.7z"/>
	<path class="st0" d="M529.4,370.7c-0.1,1.1-0.6,1.8-1.7,1.9c-1,0.1-1.7-0.6-1.8-1.6c-0.1-1.1,0.6-1.7,1.6-1.8
		C528.6,369,529.1,369.8,529.4,370.7z"/>
	<path class="st0" d="M281.8,212.7c-0.1,1-0.6,1.7-1.5,1.7c-1.1,0-1.7-0.6-1.7-1.7c0-1,0.7-1.4,1.6-1.4
		C281.1,211.3,281.7,211.9,281.8,212.7z"/>
	<path class="st0" d="M299.4,143.2c0,1-0.6,1.4-1.4,1.5c-0.9,0-1.4-0.5-1.5-1.3c-0.1-0.8,0.4-1.5,1.3-1.6
		C298.7,141.7,299.2,142.3,299.4,143.2z"/>
	<path class="st0" d="M229.5,467.4c-0.8-0.1-1.3-0.6-1.4-1.4c-0.1-0.9,0.4-1.4,1.3-1.5c1-0.1,1.6,0.5,1.6,1.5
		C230.9,466.7,230.3,467.2,229.5,467.4z"/>
	<path class="st0" d="M228.1,450.7c0.1-1,0.6-1.4,1.5-1.4c0.9,0.1,1.4,0.6,1.3,1.5c0,0.9-0.6,1.4-1.5,1.3
		C228.6,452,228.1,451.4,228.1,450.7z"/>
	<path class="st2" d="M242.6,347.4c0.1,0,0.1,0,0.1,0c0,0,0,0.1,0.1,0.2c-0.1,0-0.2,0-0.3,0C242.6,347.5,242.6,347.5,242.6,347.4z"
		/>
	<path class="st2" d="M298.2,240.2c0,0-0.1-0.1-0.1-0.1c0.1-0.1,0.1-0.2,0.2-0.2c0,0.1,0.1,0.1,0.1,0.2S298.3,240.1,298.2,240.2z"/>
	<path class="st1" d="M375.5,454.7c-0.4,1.5,0.1,3.9-2.1,4c-2,0.1-2-2.2-2.1-3.7c-0.1-1.7-0.3-4.1,1.8-4.3
		C375.4,450.6,375.2,453.1,375.5,454.7z"/>
	<path class="st1" d="M378.5,502.2c-0.5,1.5,0.2,4.1-2.2,4c-2-0.1-2.1-2.5-2.1-4.2c0-1.6,0-3.9,2.1-3.9
		C378.3,498.2,378.1,500.6,378.5,502.2z"/>
	<path class="st0" d="M435.4,309c9.1,3.8,18.2,7.8,27.5,11.2c0.9,0.3,1.7,0.6,2.6,0.9c2.8,1,3.5,3,1.2,4.9c-2.1,1.8-1.5,3.2-0.6,5
		c1,2,1.8,4.1,2.7,6.2c-0.4,1.4,0.4,2.6,0.9,3.8c4.1,10.7,7.3,21.7,9.7,33c3.6,16.9,5.8,33.9,6.3,51.2c0,0.8-0.1,1.7,0.7,2.3
		c-0.3,5.4-0.7,10.8-1,16.2c-7-1.8-13.3-5.1-19.6-8.4c-4.5-2.4-8.8-5.3-12.9-8.5c-1.3-1-1.7-1.9-1.4-3.6c1.6-8.5,3.1-17,3.4-25.7
		c0.1-2-0.3-3.8-1.4-5.4c-3.9-5.8-9-10.6-13.9-15.5c-0.4-0.4-0.8-0.6-1.4-0.3c-0.4,0.9,0.5,1.1,0.8,1.5c4.3,4.6,8.7,9.2,12.2,14.5
		c1.1,1.7,1.6,3.4,1.4,5.4c-0.7,8.9-3.4,17.5-4.6,26.3c-0.6,4.6-3,6.1-7,6.9c-5,1.1-9.9,2.8-15.1,4.3c0.4-3.3,0.6-6.5,0.8-9.6
		c0.2-2.3,2.2-1.6,4-1.3c-0.8,2.4,0.7,2.5,2.4,2.5c3.9-0.1,7.2-1.8,10.6-4.4c-2-1.1-3.9-0.5-5.6-1.1c-1.9-0.7-4-0.9-4.1-3.6
		c0-0.9-0.8-1.3-1.6-1.1c-1.6,0.2-3-0.8-4.6-0.5c-1.3,0.3-0.8-1.6-1.8-2.1c-0.7,0.7-0.5,1.6-0.4,2.3c1,6,0,11.9-0.8,17.9
		c-0.1,0.9-0.5,1.6-1.4,1.8c-1.9,0.5-3.9,1-6,1.5c-1-2.9-1.4-5.8-2.8-8.3c-0.6-1-0.7-2.7-2.4-2.3c-1.7,0.4-1.5,2-1.5,3.3
		c-0.1,2.9,0,5.8,0.5,8.8c-1.2,0.5-2.1,0.3-3-0.5c-0.9-0.7-2-1.1-2.8-1.9c-3.6-3.4-7.5-3.2-11.8-1.3c-2.7,1.2-5.8,1.8-8.8,2.7
		c0-2,2.1-2.1,2.7-4.1c-4.7,2.2-7.7,6.8-13.3,6.7c0.7-2.6,1.4-5.4-0.7-8.1c-1.8,2.5-2.9,5.3-6.2,6.5c-1.3-6.5-4.7-11.1-12.2-12.2
		c3.4,3.9,6.9,7.4,5.3,13c-2.1-2-3.6-4.9-7-4.2c-1.3,0.3-1.6,1.7-1.9,6c-1.3,0.2-2.7-1-4,0c-0.1,2.2,1.5,3.5,3,5.1
		c-9.6,2.3-19,4.6-28.8,6.5c1.6-2.9-0.2-4.6-1.8-6.2c-2.8-2.7-5.1-5.5-5-9.6c0-1.1-0.6-1.6-1.6-1.3c-0.9,0.3-2.5,0.4-1.9,1.7
		c1.9,4.2-0.3,7.3-2.2,10.7c-2.1,3.8-2.1,3.8,1,7.1c-4.6,0.8-9.1,1.6-13.5,2.2c-2.1,0.3-3.1-1-2.7-3.1c0.7-3.5-0.5-5.5-4.3-6.7
		c-0.1-1.9,1-3.8,0.9-5.8c-0.1-1.1,0.3-2.4-0.9-3.2c-1.2-0.8-2.2,0.1-3.2,0.6c-0.3,0.2-0.7,0.4-1.2,0.7c-0.7-2.6-1.4-5.1-1.1-7.8
		c1.5,0.1,2.9,0.7,4.3,1.1c4.3,1.3,7.8-1.4,7.6-5.9c-0.1-1.9-0.4-3.8-1.3-5.6c-0.9-1.8-0.7-3.5,0.4-5.2c2.1-3.1,3-6.3,0.7-9.8
		c-0.6-1-0.1-1.6,0.6-2.1c1-0.7,1.3-2.6,3.1-1.7c3.2,1.4,6.4,2.7,9.8,3.4c0.9,0.2,1.4,0.6,0.5,1.5c-2.4-1.2-4.6-3.3-7.5-1.4
		c-1.3,0.9-1.1,2.7,0.5,5.7c-1.2,1-2.4,2-3.5,3.2c-1.1,1.2-1.9,2.7-0.9,4.3c0.9,1.5,2.5,1.5,4,1.4c1.1,0,2.1-0.4,3.2-0.6
		c0.3,0.7,0.7,1.2,0.9,1.8c1.7,3.7,1.7,3.7,5.7,3.2c0.2,0,0.3,0,0.5-0.1c6.5-1,7.4-2,7.4-8.7c1.6-0.7,3.9-0.5,4.1-2.9
		c0.1-1.6-1.7-1.8-2.8-2.5c0.1-1,0.1-2,0.2-3.1c4-0.2,8,0.1,12.1-0.6c0.6,1.7,0,3.9,2.2,4.8c1.9-1,2.3-2.8,2-4.9
		c1-0.5,1.8-0.3,2.7,0.4c2.2,1.7,4.5,1.1,5.6-1.4c0.3-0.6,0.5-1,1.1-1.1c6-1.2,12-2.7,17.8-4.4c0.2-0.1,0.5,0.1,0.7,0.1
		c0.2,3.6-1.8,6.1-3.9,8.6c-0.9,1-1.8,2-2.3,3.2c-1.7,3.4,1.2,8.8,5,9.3c0.1,0,0.2,0,0.2,0c3.8,0.2,7.4-4.7,6-8.2
		c-0.1-0.2-0.1-0.3-0.2-0.5c-2-3.9-4.8-7.6-3.3-12.6c2,0,4.4-1.6,6.7,0.3c0.2,0.2,0.9,0.2,1.2,0c2.7-2.2,6.3-2.6,8.5-6.2
		c3.5-5.9,7.4-11.6,12.8-16c3-2.5,3.4-6.4,5-9.6c1.5-3.2,1.3-3.3,4.8-2.6c0.3,0.1,0.6-0.1,1.2-0.2c-0.9-1.4-2.4-1.2-3.4-2
		c0.2-3.8-1.6-7.4-1.2-11.3c3.5,0.3,3.5,0.3,3.8,9.2c0.9,0.2,0.9-0.6,1-1.1c0.6-2.2,0.1-4.3-0.3-6.4c-0.3-1.6-1.2-2.5-2.8-2.8
		c-0.9-0.1-2.1,0.1-1.7-2c-2.1,2.4-0.8,4.7-1.2,7c-2.9,0-5.8,0-8.7,0c-0.8,0-1.1-0.6-1.4-1.2c-0.7-1.4-1.4-2.8-2.2-4.6
		c6.5-3.4,12.8-6.7,19.3-10.1c2.3,4,5.1,7.5,6.9,12.1c-4.9-0.3-8.2-5-13.1-3.6c2.8-0.4,4.3,2.1,6.6,2.8c6.3,2.1,7.4,6.9,7.1,12.7
		c-0.2,6.2-1.9,12.1-4.2,17.9c-0.2,0.4-0.4,0.8-0.5,1.1c-0.2,0.7-0.3,1.4,0.4,1.7c0.8,0.4,1.3-0.1,1.5-0.8c0.5-1.8,1.9-2.1,3.4-2.4
		c4.3-1.1,8.6-2.4,13-3.5c1.7-0.5,2-1.9,2.2-3.2c0.4-2.4,0.4-4.8,0.6-7c-1.1-1.2-4.3,0.2-3.2-3.2c1.6,0.2,3.3,0.3,5,0.5
		c1.8,0.2,2.5-0.6,2.6-2.4c0.9-15.3,1.1-30.6-0.4-45.9C435.8,315.3,435.6,312.2,435.4,309z M303,432.7c0.9-0.5,0.9,0.2,0.9,0.7
		c0,1.7-0.1,3.3-1.2,4.8c-0.9-1.2-1.6-2.4-3.1-2.5c-0.7,0.8-0.6,1.5-0.3,2.2c0.6,1.3,2.1,1,3.1,1.3c0.1,1.1-0.1,1.8-0.6,2.5
		c-0.7,0-0.2-1.2-0.9-1.1c-1.3,0.3-1.2,1.7-2,2.4c-1.2-1-0.6-2.4-1.1-3.7c-1.4,0.8-2.6,0.1-3.3-0.3c0.3,1,1,2,2.7,1.5
		c-0.2,0.8,0.3,1.5-0.3,2.2c-0.7,0-1.6-0.4-2.6,0.8c5,0.7,5.4,5.7,8.6,9c0.1-2.5-0.8-4.3-0.3-6.2c1.7-0.2,3.2-0.7,3.6-2.7
		c-1.1-1-2.1,0.4-3.1,0c0-1.6,0.4-2.7,2.4-2.7c1.2,0,2.4-0.7,2.2-2.3c-1.1-0.9-2.1,0.2-3.2,0c0.2-1.5,0.4-2.7,0.5-3.9
		c1.4-0.7,3.4,0.4,4.1-1.5c-1.5-1.6-2.7,0.2-4.3,0.4c0.4-2.1,1-4.1-1.4-5.2c-0.8,0.9-0.6,1.7-0.4,2.7C303,431.5,304,432.1,303,432.7
		c-0.7,0.5-0.9-1.2-1.8-0.2c0,1.1,0.2,2.1,1.6,2.4C303.4,434.2,302.5,433.4,303,432.7z M343.6,442.2c4.3-12.3,8.5-24.2,12.8-36.1
		c-0.3-0.1-0.6-0.3-0.9-0.4c-10.1,13.9-20.1,27.9-28.5,42.9c2.6,1.9,3.6,1.8,5.5-0.5c2.3-2.9,4.6-5.8,7-8.8
		C340.9,440.2,342,441.1,343.6,442.2z M390.3,395.4c0.8-0.2,1.3-0.3,1.9-0.1c2.5,0.8,5,0.8,7.1-0.7c1.5-1.1,3.8-2,3.4-4.4
		c-0.3-1.6-3.8-2.1-6.3-1.3c-3.1,1-4.7,3.6-6.7,5.9c-2.8-1.5-3.5-1.1-4.3,2.1c-0.3,1.1-0.3,2.1-0.1,3.2c0.7,3.4,3,5.6,5.5,7.6
		C395.4,405,394.8,399.8,390.3,395.4z M409.4,419.6c-1.3-2.3-0.6-5.2-2.4-7.6c-0.9,1.6,0.2,2.7,0,3.9c-0.2,1.3,1,2.5,0.2,3.8
		c-1.3,0.3-1.6-0.5-1.7-1.5c-0.6-3.2-1.3-6.4-2-9.5c-0.1-0.7-0.1-1.5-1-1.7c-0.6,0.5-0.4,1.1-0.3,1.6c0.4,2.5,0.9,5.1,1.2,7.6
		c0.8,5.6,1.5,6.1,7.3,5.2c0.5-0.1,1-0.1,1.5-0.3c3.8-1,4-1.4,3-5.1c-0.2-0.6-0.3-1.3-0.4-1.9c-0.6-2.8-1.3-5.5-1.9-8.3
		c-1.8,4.5,1.2,8.6,0.6,13.5c-1.8-2.5-1.3-5.1-2.6-7.1c-1.1,0.5-0.8,1.3-0.6,2c0.2,1.3,0.4,2.6,0.7,3.9
		C411.2,419.4,410.7,419.9,409.4,419.6z M417,396.8c0.7-0.9,1.8-0.1,2.4-1.1c0-0.6,0.2-1.2-0.2-2c-0.9-0.1-1.9-0.1-2.9-0.2
		c0-0.3,0-0.6,0.1-0.8c0.2-0.6,1.2-1.2,0.3-1.9c-0.9-0.6-1.2,0.4-1.7,0.9c-0.4,0.4-0.6,1.2-1.4,1.3c-1.3-0.6-1.8-2.2-3.2-2.6
		c-2.3,1.6,1.3,2.3,0.6,3.4c-0.9,0.8-2.5-0.1-2.7,1.5c0.6,1.1,2,0.1,2.6,1.1c-0.1,1-1.1,1.5-1.4,2.4c0.4,0.7,0.8,1.2,1.6,1.3
		c1.1-0.7,1.4-2.3,2.7-2.8c0.9,0.6,1.3,1.5,1.8,2.3c1,1.4,1.6,0.2,2.2-0.3C417.6,398.3,416.7,397.8,417,396.8z M441.9,396.1
		c-0.8-4.1-1.6-8-2.4-11.9c-0.2-1-0.6-1.9-1.7-1.6c-1.2,0.2-1.3,1.1-1,2.1c1.1,4.3,2.2,8.5,3.3,12.8c0.2,0.9,0.4,1.9,1.6,2
		c1.2,0.1,1.7-0.9,2.2-1.8c0.5-0.9,0.7-2.1,1.8-2.6c2.4,3.1,1.2,7.3,3,10.5c0.2-2.4,0.1-4.8-0.3-7.1c-0.3-1.3,0-2.6-0.7-3.9
		c-0.4-0.8-0.9-1.7-1.8-1.9c-1.1-0.3-1.6,0.7-2.2,1.3C443.1,394.8,443,395.7,441.9,396.1z M438.8,359.6c0.7-0.3,0.7-0.9,0.8-1.3
		c4-11.6,10.3-21.5,21.7-27.4c0.8-0.4,2.4-0.5,1.6-1.9c-0.6-1.1-1.8-0.2-2.7,0.2c-0.2,0.1-0.4,0.3-0.6,0.4
		c-11.1,6.2-17.2,16.2-21,28C438.4,358.2,437.8,358.9,438.8,359.6z M319.7,437.1c2,2.3,0.8,5,1.6,7.5c1.4-2.3-0.4-6.6,4.5-6.2
		c-0.5-1.1-1.6-0.5-2-1.3c0-2,1.5-1.9,2.8-2c0.3-0.8-1.1-1.1-0.4-1.9c0.6-0.7,1.2-0.2,1.8,0c0.6,0.1,1.2,0.7,1.7-0.2
		c-0.1-0.8-1.5-0.5-1.4-1.5c0.8-1.6,2.3,0.5,3.5-0.8c-2.3-0.6-0.2-2.6-1.3-3.9c-0.6,1.3-1.3,2.4-2.8,1.3c-0.6,2.7-0.8,3-1.7,3
		c-0.7,0.1-0.3-1.5-1.3-1.2c-0.9,1,1.2,2.4-0.7,3.5c-0.5-2-1.3-3.7-0.4-5.9c-1.8,0.4-2.2,2.6-4.4,2.3c2,0.5,1,2.6,1.8,2.9
		c3.1,1.4,1.6,3.1,0.8,4.8C321.1,437.6,321,436.8,319.7,437.1z M390.2,420.9c0.4-1.9,2.1-2.8,2.3-4.8c-2,0.7-2.5,2.4-3.3,3.7
		c-0.9,1.5-0.2,2.5,1.5,2.4c1.4-0.1,2.7-0.4,4.1-0.7c0.4,1.1-0.2,2-0.3,3c-0.1,1.2,0.3,1.9,1.6,2c1.2,0,2.4-1.1,3.6-0.3
		c1.6,1-0.7,2.4,0.4,3.7c1.2-1.1,1.7-2.4,1.1-3.7c-1.2-2.6-3.7-0.7-5.6-1c0.2-0.8,0.3-1.6,0.5-2.3c0.6-2.5,0.1-3-2.5-2.3
		C392.6,420.8,391.6,421,390.2,420.9z M339,415c-1.9,0.3-2.4,2.1-3.8,2.5c-1.1-0.8-1.6-2.4-3.1-2.7c-0.5,1.6,0.9,2.1,1.4,3
		c0.8,1.5,0.2,2.1-1.4,2.3c-0.1-0.5-0.1-1.1-0.3-1.5c-0.3-0.5-0.8-0.9-1.4-0.5c-0.5,0.4-0.8,1.2-0.2,1.5c1.5,0.8,1.3,2.1,1.2,3.6
		c1.7-0.9,2.4-2.6,4-3.3c1.4,0.8,2,2.5,3.8,3.3c-0.2-2.3-2.4-2.9-2.8-4.6C337.1,417.2,338.6,416.7,339,415z M394,397.8
		c1.8,2.8,4.1,3.6,6.8,2.3C400.1,396.9,398.9,396.4,394,397.8z M371.5,410.1c0.2,0.1,0.3,0.3,0.5,0.4c2.9-1.7,7.3-7,7.2-8.8
		C376.5,404.6,374,407.4,371.5,410.1z M382.6,411.6c-3,2.2-6,4.4-7.9,7.6C377.7,417.1,380.5,414.6,382.6,411.6z M385,423.5
		c-3.1,1.7-5.8,3.8-8,6.6C380.2,428.5,382.7,426.1,385,423.5z M354.2,419.1c1.4-3.3,2.9-6.6,2.9-10.3
		C355.7,412.1,354.3,415.4,354.2,419.1z M368.5,436.5c1.6-2.2,1.2-4.2,0.2-6.2C366.5,431.4,366.3,434.4,368.5,436.5z M382.1,421
		c-0.2-0.9-0.7-1.7-1.9-1.8c-1.1,0-1.9,0.7-1.9,1.8c-0.1,1.2,0.7,1.8,1.8,1.9C381.4,423,381.9,422.3,382.1,421z M432.6,378.4
		c1.7-0.5,3.5-0.3,4.9-2c-1.7-0.6-3.3-1.1-5-1.7C432.4,376,432.1,377.1,432.6,378.4z M383.2,432.1c-0.1-1.1-0.7-1.7-1.8-1.6
		c-1.1,0.1-1.6,0.8-1.6,1.8c0,1.2,0.8,1.6,1.8,1.6C382.8,433.9,383.2,433.2,383.2,432.1z M411.3,422.3c-1.1,0.1-1.8,0.6-1.9,1.6
		c-0.1,1.1,0.6,1.7,1.6,1.8c1,0.1,1.5-0.5,1.6-1.4C412.8,423.2,412.4,422.5,411.3,422.3z M379,410.4c-0.2-0.7-0.7-1.3-1.7-1.3
		c-0.8,0.1-1.4,0.5-1.4,1.4c0,1,0.6,1.5,1.5,1.6C378.5,412.2,378.9,411.5,379,410.4z M339.8,419.9c0.5-0.1,0.9-0.4,0.9-1.1
		c0-0.6-0.3-1.1-1.1-1c-0.6,0.1-1.1,0.4-1.1,1.1C338.6,419.6,339.1,419.8,339.8,419.9z"/>
	<path class="st0" d="M403.8,285.7c2.7,1.3,5,3.2,7.5,4.9c-0.1,4-0.3,8-0.4,12c0,1.4-0.5,2.3-1.5,3.2c-10.1,7.9-20.5,15.3-31.7,21.6
		c-2.9,1.6-5.7,3.2-8.8,4.4c-1.8,0.7-2.8,1.9-3.5,3.6c-2.4,5.6-3.2,11.5-3.8,17.5c-1.4,14.5-1.3,29.1-0.9,43.6c0,0.8,0,1.6,0,2.7
		c-3.5-1.1-6.3-3.1-9.2-4.6c-9.6-4.9-19.1-10-28.7-15.1c-0.7-0.3-1.4-0.5-1.7-1.3c-1.4-4.1-4-8.5-3.3-12.6
		c1.4-7.7-3.3-12.4-6.9-17.6c-4.8-6.9-10.6-12.8-17.3-17.9c-0.5-0.4-0.9-1.1-1.7-0.6c0.1,1.2,1.1,1.6,1.8,2.2
		c8.7,7,15.8,15.4,21.5,25c1.4,2.3,2.1,4.3,0.7,7c-2.1,4.1-3.5,8.5-4.6,12.9c-0.5,2.1-2.3,2.8-3.7,3.8c-5.2,4.2-10,8.7-14.8,13.3
		c-2.6,2.4-2.2,4.7,0.8,6.6c0.9,0.6,1.8,1.3,2.8,2c-3.9,2.1-7.1,4.9-10,8.1c-12.8,14.2-10.5,37.7,5.3,47.7c0.2,0.1,0.3,0.4,0.5,0.5
		c-5.7,0.6-11.3,0.9-17,0c-1.1-1.1-2-2.4-2.6-3.8c-2-4.2-2.7-8.8-3.8-13.2c-0.5-2-0.9-3.2-3.8-2.4c2.8-17.2,11.2-31.1,22.9-43.6
		c-1.9-0.1-2.5,1-3.2,1.7c-4.3,4.5-8.2,9.3-11.4,14.7c-4.3,7.5-8.2,15.2-9.6,23.9c-0.7,4.2,0.2,4.8,3,5.6c1.4,4.6,2.5,9.3,4.5,13.7
		c-2.3,0-4.6-0.6-6.9-1.1c-2.2-0.4-2.8-1.5-2.9-3.6c-0.1-8.8-0.4-17.6,0-26.5c0.6-12.1,1.7-24.2,3.9-36.2c3.7-20.1,9.5-39.4,20.2-57
		c1.5-2.5,3.3-4.5,6.1-5.9c15.7-7.9,31.4-16.1,47.1-24.1c9.5,12.8,27.5,25.3,35.3,23.9c-15.2-5.1-27.8-12.5-35.2-26.6
		c2.9-3.2,5.8-6.4,8.8-9.5c1.5-1.6,3.1-3,3.1-5.4c2.2-0.2,3.5-2.1,5.4-2.8c1.1-0.3,2.1-0.9,3.2,0.1c-1,2.9-3.9,3-6,4.1
		c0.1,1,1.3,1.1,1,2.2c-1.3,0.4-2.2-1-3.9-1c0.8,1.7,2.2,1.9,3.5,2.2c1.1,0.2,2.4,0.8,3.2-0.4c0.7-1-0.7-1.7-0.9-2.7
		c2-1,3.8-2.3,4.7-4.4c4.1,1.5,8.2,2.1,12.2,2.8c0.1,1.9,0,3.9,0.9,5.6c0.5,0.9,0.9,1.9,2.1,1.9c1.3,0.1,1.8-0.9,2.4-1.9
		c0.9-1.6,0.6-3.4,1.1-5.2c0.9-0.1,1.8-0.3,2.7,0.1c-0.1,1-1.2,1.9-0.1,2.9c0.5,0.5,1.2,0.6,1.8,0.2c1.5-0.9,0.4-2.2,0.1-3.4
		c1.8-0.1,3.4-0.2,5.7-0.3c-5.1,3.8-4.6,8.1-3,12.6c1.3,3.6,3.4,6.7,4.9,10.3c-1.5,1.2-2.5,3.2-5,3.7c0-2.4,3.7-2,2.9-4.5
		c-1.1-0.7-2.1,0.2-2.8,0.5c-3.2-2.5,1.6-5.5-0.6-7.9c-1.1-0.5-1.1,1-2,0.5c-0.9-1.2-0.5-2.9-1.4-4.1c-0.9-1.2-2.2-2-3.8-1.5
		c-0.5,2,0.7,3.7,2,4c2.3,0.5,2.5,2.2,3,3.8c0.9,2.8,1.2,5.7,1.7,8.5c0.3,1.9-0.5,3-2.3,3.7c-0.3-0.7-0.6-1.4-0.9-2.1
		c1.6-1,2.8-2.2,1.6-4.1c-1.5,0.3-1.3,1.7-2.1,2.5c-1.1-0.7-1.4-2.1-2.8-2.4c-0.4-1.6,0.5-3.7-1.7-4.7c-1.3,2.2-0.7,3.8,1.8,4.6
		c-0.7,0.8,0.9,1.1,0.3,1.9c-1.2,0.4-3-0.5-3.8,1.4c2,1.6,3.3-0.4,4.8-0.9c0.9,1,1.1,2.1,1.2,3.5c-2.5-1.2-4.1,0-5.5,1.7
		c1.8,2.8,3.4,0.6,5-0.1c0.1,0.1,0.3,0.2,0.4,0.3c-1.4,1.3-2.7,2.7-4.1,4c-0.4,0.4-0.7,0.8-1.3,0.6c-3.5-1.1-6.9-2.5-10.2-4.6
		c7.5-4.3,9.4-7.4,8.7-12.9c-0.4-3.9-6.1-9.8-9.9-10.5c-6.2-1.1-10.4,1.4-13.3,7c-1-2-1.5-3.8-0.7-5.7c1.1,0.2,2.3,0.9,3.1-0.5
		c0.5-0.9,0.1-1.8-0.5-2.5c-0.7-0.8-1.5-1.3-2.3-0.1c-0.6-0.6,0.2-1.7-0.9-1.9c-0.7,0.3-0.5,1-0.6,1.5c-1,5.3,0.2,10.2,3,14.8
		c5.5,8.6,13.6,13.7,23.2,16.7c0.9,0.3,1.6,0.2,2.3-0.5c7.6-7.4,16.2-13.5,24.9-19.6c1.5-1.1,2-2.1,1.8-3.9
		C404.5,293.2,403.8,289.5,403.8,285.7z M328.1,352.9c-0.8-0.4-1.1-0.1-1.5,0.2c-3.5,3-5.9,6.9-7.9,11c-0.3,0.6-0.5,1.5,0.6,1.9
		c1,0.3,1.3-0.3,1.5-1.1c0.9-3.6,3.1-6.4,5.3-9.2C326.6,354.7,327.8,354.2,328.1,352.9z M274.6,448.4c-0.3,0.2-0.5,0.3-0.8,0.5
		c2.1,1.5,2.6,3.5,2.3,5.9c1.6-0.6,1.2-1.9,1.9-2.5c0.9-0.2,1.5,1.2,2.9,0c-2.2-1.2-2.7-3.3-2.2-5.7c-2.1,0.1-1.2,1.9-2.2,2.5
		C275.9,449,275.2,448.7,274.6,448.4z M360.8,288.7c2.7-0.4,3.5-2.6,5.5-2.9c0.1,1.3,0.2,2.5,0.2,3.7c1.5,0.3,2-1.4,3.2-1
		c0.5,0.8-0.1,2,1.3,2.7c0.1-1.9,0.4-3.4-0.6-4.8c-1.1,0-1.6,1.3-2.6,1c-0.7-1.2,0.4-2.6-0.7-4C365,284.8,362.9,286.2,360.8,288.7z
		 M383.8,302c-1.4-1.6-2.2-3.1-4.5-2.9C380.2,301,381.3,302,383.8,302z"/>
	<path class="st0" d="M412.9,298.5c2,0.9,3.9,1.7,5.9,2.6c-0.4,5.7-0.7,11.4-1.2,17.2c-0.7,9.7-1.6,19.4-2.4,29.1
		c-0.1,0.7-0.2,1.5-0.4,2.9c-1.9-3-3.6-5.5-5-8.1c-0.8-1.5-1.5-1.8-3.1-0.9c-6.1,3.3-12.2,6.4-18.3,9.6c-0.3,0.2-0.7,0.4-1.1,0.7
		c0.9,2,1.8,3.8,2.7,5.8c-1.8,0.9-3.6,0.1-5.3,0.6c-0.4,1.9-0.3,3.8-0.1,6c5.7,0,11.4,0,17.4,0c-1.8,4.3-3.5,8.3-5.2,12.1
		c-0.5,1.1-1.8,1.5-2.8,2c-2.1,1-3.6,2.6-4.8,4.6c-2.9,4.8-5.9,9.6-8.9,14.3c-0.4,0.7-0.8,1.5-1.7,1.7c-5.5,0.7-10.9,1.8-17.1,2.2
		c0-4.2,0.1-8.3,0-12.3c-0.2-10.4-0.1-20.8,0.8-31.2c0.2-2.8,1.6-5,4.2-6.4c3.3-1.8,6.7-2.8,10.5-2.6c1.6,0.1,2.2-0.5,1.8-2
		c-1.1-5-1.1-10.2-2.7-15.1c-0.4-1,0.3-1.4,1.1-1.8c12.1-6.3,23.1-14.1,33.8-22.5c1.3-1,1.8-1.9,1.7-3.5
		C412.6,301.7,412.8,300.1,412.9,298.5z M371.7,384.4c-0.3-1.6-0.1-3.9-2.2-3.9c-2,0-2.1,2.3-2.1,3.9c0,1.6,0,4,1.9,4
		C371.6,388.4,371.5,386.1,371.7,384.4z"/>
	<path class="st0" d="M292.5,396.9c1.7-2.7,3.9-4.4,6.1-6.3c2.1-1.8,4.3-3.7,6.2-5.8c2-2.2,4.5-3.6,6.6-5.6c2.4-2.2,4.7-1.8,7.3-0.5
		c7.2,3.5,14.3,6.9,21.3,10.7c3.6,1.9,7.2,3.9,10.7,5.9c0.7,0.4,1.5,0.7,2,1.5c0.9,1.4,2.1,2,3.8,2c1.2,0,2.2,0.7,3.1,1.5
		c-0.9,1.9-2.7,1.9-4.3,2.1c-15.9,2.2-31.8,2.9-47.7,0.4c-4.6-0.7-8.8-2.2-12.9-4.3C293.7,398.3,293.2,397.6,292.5,396.9z
		 M337.7,393.1c2.4,2,4.5,3.7,7.7,4.9c-1-2-2.8-2.3-3.5-3.7c3.3,0.5,5.1,2.3,5.6,5.5c-7.6-1.3-12.5-5.9-16-12.3
		c-1.9,0.3-2.1,1.1-1.2,2.4c2.5,3.6,5.4,6.8,9.4,8.8c2.9,1.5,6,2.7,9.4,2.2C348.6,395.4,343.4,391.7,337.7,393.1z M314.7,379.1
		c6,5.7,10.5,12.6,15.3,20C330.2,392.7,320.1,379.7,314.7,379.1z"/>
	<path class="st0" d="M428.3,305.5c0.7,6.8,0.7,13.6,0.7,20.4c0,8.9,0,17.8-0.7,26.7c-0.1,1.4,0.4,1.8,1.6,2
		c1.3,0.2,2.6,0.5,4.1,0.7c0.4,2.7,0.1,5.3-0.3,7.9c-0.2,1.5-2,1.2-3.2,1.4c-3,0.6-3,0.5-3.3,3.7c-3.1-0.5-6.1-1-9.4-1.5
		c0.4-4-0.9-7.5-1.8-11.1c-0.5-1.9-0.2-3.8,0-5.7c1.1-14.8,2.3-29.5,3.6-44.3c0.1-1.2,0.3-2.5,0.5-3.7
		C422.8,303.2,425.5,304.4,428.3,305.5z M424.5,332.9c0.4,6.3-2.8,11.2-5.1,16.3c4.6-3.4,7.9-15.1,5.4-18.5c-1.7,0.7-2,2.7-3.7,3.8
		c-0.6-5.2,0.7-10.2-0.1-15.3c-0.8,5.9-1.7,11.8-0.9,18C422.5,336.6,422.5,334.2,424.5,332.9z"/>
	<path class="st0" d="M484.7,445.2c-0.5,1.7-1.1,3.4-1.6,5c-6.1,1.1-12.2,1.1-18.4,1.5c-3.5,0.2-6-1.7-8.7-3.3
		c-6-3.6-11-8.2-15.3-14c2-0.6,3.8-1.4,5.7-1.6c2.5-0.3,3.6-1.7,3.9-3.9c0.1-0.6,0-1.2,0.9-1.7c3.2,2.1,6.3,4.6,9.7,6.7
		c7.2,4.4,14.8,8,22.8,10.7C484.1,444.8,484.4,445,484.7,445.2z M459.6,439.7c-1.2-0.4-0.9-2-2.3-1.9c-1.3,1.1,0.6,1.9,0.1,3.2
		c-0.2,0.6-1.6,0.4-1.8,1.6c1.1,1.7,2-0.4,3-0.2c0.9,0.5,0.7,2,2.1,2.3c1.3-1.3-0.6-2.2-0.2-3.7c0.1-0.6,2.6-0.3,1.2-2.2
		C461,439.2,460.2,439.5,459.6,439.7z"/>
	<path class="st0" d="M432.9,307.6c1.9,15.4,1.9,30.8,1.4,46.5c-1.7-0.3-3.1-0.5-4.5-0.8c0-2-0.1-3.8,0-5.6
		c0.5-13.1,0.6-26.1,0-39.2c0-0.7,0.1-1.3,0.2-2C430.9,306.9,431.9,307.2,432.9,307.6z"/>
	<path class="st0" d="M363.1,351.6c0.4-5.9,0.9-11.9,4-17c1.5-2.5,5-2.6,8-4.3c0.1,4,0.3,7.6,0.4,11.1c0,0.5-0.2,1-0.7,1.2
		C369.8,344.2,366.3,347.6,363.1,351.6z"/>
	<path class="st0" d="M283.7,428.9c2.6,0.4,3.5-0.1,3.7-2.6c0.2-1.9,0.3-3.9-1.2-5.4c-0.6-0.5-0.4-1-0.2-1.6
		c1.5-3.8,3.7-7.2,6.6-10.6c1.2,2.9,1,5.4-0.6,7.5c-1.9,2.6-2.6,5.3-1.5,8.4c0.4,1.2,0.5,2.5,0.4,3.7c0,1.6-0.6,3-2.4,3.4
		c-1.8,0.4-3.5,0.2-4.8-1.2C283.3,430.2,283.4,429.6,283.7,428.9z"/>
	<path class="st0" d="M319.4,408.2c0.1,1.4,0.1,2.2,0.2,2.9c-0.8,0.7-1.5,0.1-2.2,0.1c-2.3,0.1-4.4,0.6-4.9,3.3
		c-0.2,1.1-1,1.2-2,1.4c-1-3.8-3-6.5-7.4-6.3c3.1,1.4,6.2,2.8,5.8,7.9c-2.5-2.4-5-3.4-7.9-1.4c0.7-1.8,2.4-2.1,3.4-3.2
		c-0.2-1-1.4-1.1-1.8-2c-0.4-0.9-1-1.8-0.2-2.8c0.7-0.8,1.6-0.6,2.5-0.4c1.7,0.4,3.1,1.6,4.7,2.6C312.1,405,316.2,409.8,319.4,408.2
		z"/>
	<path class="st0" d="M385.9,362.7c-0.3-1.3-0.4-2.5,0.2-3.7c5,0,10,0,15.2,0c0.6,1.1,0.8,2.3,0.8,3.7
		C396.6,362.7,391.4,362.7,385.9,362.7z"/>
	<path class="st0" d="M311.9,455.5c-3.7-3.5-3.7-3.5-1.5-7.7c0.5-0.9,0.9-2,1.4-2.9c1.2-2,1.9-2.1,3.6-0.5c0.5,0.5,1.1,0.8,1.8,1.3
		c-2.3,1.3-1,2.1-0.2,2.9c1.9,1.9,1.9,2.5,0.2,5c-1.3-0.9-0.6-2.6-1.6-3.8c-0.9,1-0.4,1.9-0.2,2.8c0.2,0.9,0.4,1.8-0.8,2
		c-1.1,0.2-1.2-0.8-1.4-1.6c-0.6-2.5-0.6-2.5,0.6-7.6c-1.7,0.8-2,1.8-2.2,4.6C311.3,451.8,312.9,453.3,311.9,455.5z"/>
	<path class="st0" d="M426.5,417.6c6.2-0.9,7.2,0,6.1,5.6c-1.7,0-3.4,0-5.2,0C426.6,421.5,427.8,419.4,426.5,417.6z"/>
	<path class="st0" d="M318.3,419.3c-4-0.1-7.7,0.5-11,3c-0.8-1-1.3-1.8-0.2-2.8c2.7-2.3,5.7-3.6,9.3-3
		C318,416.8,318.6,417.5,318.3,419.3z"/>
	<path class="st0" d="M412.2,438.8c-0.4-3.6-1-7.1-0.1-11.2c2.3,3.4,3,6.7,3.8,10C414.8,438.4,413.6,438.6,412.2,438.8z"/>
	<path class="st0" d="M410.1,441c0.7,4.8,0.7,4.6,5.7,4.9c5.7,0.3,10.3-2.3,11.7-7.8c0.1-0.2,0.1-0.5,0.7-0.3
		c-0.6,2.7-1.7,5.1-4.2,6.8c-4.3,3.1-9,2-13.6,1.6c-0.9-0.1-1.1-0.7-1-1.4C409.7,443.5,409.9,442.3,410.1,441z"/>
	<path class="st0" d="M364.1,420.2c-3.1-2.2-2.6-6.8,0.7-11c0.6,3.6,2.7,6.9,0.8,11.1c-1.2-2.7-1.3-5.2-1.9-8.2
		C362.4,415.1,363.3,417.4,364.1,420.2z"/>
	<path class="st0" d="M300.8,415.8c0.2,1.4,0.9,1.6,2,0.9c1.7-1,2.9-0.3,4.1,1c-1.3,2.3-3.4,2.8-5.6,2.9c-0.8,0.1-2.2,0.1-2.5-1.1
		C298.5,417.8,299.5,416.8,300.8,415.8z"/>
	<path class="st0" d="M319,421.8c-3.5,1.7-7.7-0.1-10.2,3.2c-1.5-1-1-1.6-0.2-2.2C311.5,420.5,316.8,419.8,319,421.8z"/>
	<path class="st0" d="M313.6,415.3c0.6-3.9,5.3-3.2,9-0.7C319.8,417.5,316.6,414.6,313.6,415.3z"/>
	<path class="st0" d="M422.5,371.2c1.6,0.2,2.5,1,2.5,2.6c-0.1,1.7-1.2,2.6-2.8,2.4c-1.6-0.1-2.4-1.2-2.2-2.7
		C420.1,372,421,371.2,422.5,371.2z"/>
	<path class="st0" d="M288.5,440.1c0.7,2.7-0.1,5-0.7,7.5C284.3,443.7,284.5,441.3,288.5,440.1z"/>
	<path class="st0" d="M432.8,425.2c1.5-1,1-2.4,1.4-3.7c1.9,0.5,3.7,1,5.9,1.6C438,424.9,435.9,425.6,432.8,425.2z"/>
	<path class="st0" d="M367.3,420c0.9-3.3-0.3-5.9-0.7-8.8C370,413.4,370.6,417.6,367.3,420z"/>
	<path class="st0" d="M291.9,454.5c-0.9-0.8-3.1-3.7-3.5-4.6C291.6,449.2,293,451.1,291.9,454.5z"/>
	<path class="st0" d="M359.6,444.4c-1.2,0.4-2.1,0.6-3,0.9c-0.5,0.2-1,0.1-1.2-0.4c-0.3-0.5-0.3-1.1,0-1.6c0.3-0.5,0.8-0.6,1.3-0.4
		C357.6,443.1,358.6,443.5,359.6,444.4z"/>
	<path class="st0" d="M367.1,442.6c-2,0.5-3.6,0.9-5.5,1.4C363.4,441.4,364.6,441.1,367.1,442.6z"/>
	<path class="st0" d="M344.6,406.7c-1.6,1.9-1.7,1.9-3.7,0.8C342,406.6,343.2,406.8,344.6,406.7z"/>
	<path class="st0" d="M313.6,442.5c-1.3-1.6-0.8-3-0.8-4.5C313.6,439.6,313.8,440.6,313.6,442.5z"/>
	<path class="st0" d="M335.3,411.6c-0.5-1.5-0.9-2.6,0.1-3.5c0.3-0.3,0.9-0.3,1.1,0.2C337,409.5,336.4,410.4,335.3,411.6z"/>
	<path class="st2" d="M604.2,460.9c8.6,0,17.1,0,25.8,0c-0.3,1.7-1.3,1.4-2,1.4c-13.3,0.1-26.6,0.1-40,0.2
		c-10.6,0.1-21.1,0.2-31.7,0.3c-1.1,0-2.2,0.2-3.3-0.4c-1.6-7.3-2.1-14.7,0.1-22.1c0.3-1,0.7-1.8,1.6-2.4c5.3-3.3,11-5.9,17.2-7.3
		c9.8-2.3,19.6-3.1,29.6-1.5c7.7,1.2,15.4,2.8,22.7,5.9c3.8,1.6,5.6,4.2,6.2,8c0.9,5.1,0.6,10.3,0.1,15.4c-0.1,1.5-1,1.4-2.1,1.4
		c-7.3,0-14.6,0-22,0.1c-0.8,0-1.6-0.2-2.3,0.4C604.2,460.4,604.2,460.6,604.2,460.9z M615.8,437.9c-0.3-1.6-1.1-2.6-2.8-2.5
		c-1.6,0.1-2.4,1.2-2.4,2.7c0,1.7,1.1,2.6,2.8,2.5C614.9,440.5,615.6,439.5,615.8,437.9z M577.7,442.2c1.4,0,2-0.8,2-2.1
		c0-1.1-0.6-1.9-1.8-2c-1.2,0-2.1,0.6-2.1,1.9C575.8,441.4,576.5,442.1,577.7,442.2z M567.8,438.2c1.1-0.2,1.8-0.8,1.8-2
		c0-1.3-0.9-1.7-2-1.7c-1.1,0-1.7,0.7-1.7,1.8C566,437.5,566.7,438.1,567.8,438.2z M589.7,440.1c-1,0.1-1.6,0.7-1.7,1.7
		c-0.1,1.1,0.4,1.8,1.5,1.8c1.2,0,1.9-0.6,1.9-1.8C591.4,440.8,590.8,440.3,589.7,440.1z M595.2,435.3c1.1,0,1.7-0.5,1.8-1.6
		c0.1-1.1-0.5-1.8-1.5-1.9c-1.2-0.1-1.9,0.6-2,1.7C593.4,434.6,594.1,435.2,595.2,435.3z M557.6,444.1c0-1-0.4-1.8-1.6-1.8
		c-1,0-1.8,0.5-1.9,1.6c-0.1,1,0.6,1.8,1.6,1.9C556.9,445.8,557.5,445.2,557.6,444.1z M625.8,443.5c-0.7,0.2-1.4,0.5-1.3,1.5
		c0,0.9,0.5,1.4,1.4,1.4c0.9,0,1.4-0.5,1.4-1.4C627.2,444.2,626.7,443.6,625.8,443.5z M566.5,446.3c-0.1-0.8-0.7-1.3-1.5-1.3
		c-0.8,0-1.4,0.6-1.3,1.5c0.1,0.8,0.7,1.4,1.5,1.3C566.2,447.8,566.6,447.2,566.5,446.3z M584.4,434.2c0.8,0,1.3-0.5,1.3-1.2
		c0-0.7-0.5-1.2-1.3-1.2c-0.7,0-1.1,0.4-1.2,1C583.3,433.6,583.6,434.2,584.4,434.2z M603.5,440.2c0-0.8-0.4-1.3-1.1-1.3
		c-0.7-0.1-1.3,0.3-1.4,1.1c-0.1,0.9,0.4,1.5,1.3,1.5C603,441.4,603.5,441,603.5,440.2z"/>
	<path class="st2" d="M551.9,497c-0.3-0.4-0.4-0.5-0.4-0.6c-0.6-6-0.3-6.2,5.9-6.2c22.5,0.1,45,0.1,67.5,0.1c0.2,0,0.5,0,0.7,0
		c4.9,0,6.5,1.9,5.7,6.8c-0.2,1.4-1.2,1.1-2.1,1.1c-10.5-0.1-21-0.3-31.5-0.4c-14.6-0.2-29.1-0.5-43.7-0.8
		C553.3,497,552.5,497,551.9,497z"/>
	<path class="st2" d="M578.5,475.7c3.6,0.5,7.2,0.9,10.6,2.4c3.3,1.5,6.5-0.2,9.7-0.6c7.7-1.1,15.3-2.1,23.1-1.7
		c0.9,0.1,2.4-0.4,2.4,1.1c0,1.7,1.1,3.9-0.7,5.1c-2.2,1.4-4.2,3-6.4,4.4c-3.8-3.1-7-0.9-10.2,1c-12.2-10.2-13.6-10.3-27-1.9
		c-7-7.3-8.9-7.2-18.3,0.7c-2.4-1.8-3.6-8.3-2.1-10.8c0.3-0.6,0.8-0.8,1.4-0.8C566.9,474.2,572.8,474.1,578.5,475.7
		c-1.7,0.1-3.3,0.9-4.8,1.8c-1.2,0.8-2.2,0.9-3.1-0.5c-0.7-1.2-1.9-1.8-3.2-1.2c-1.9,0.9-3.6,2.2-4.4,4.3c0.4,0.1,0.6,0.2,0.7,0.1
		c0.9-0.3,1.1-1.2,1.7-1.7c2.2-1.7,2.9-2.9,4.9,0c0.8,1.1,1.7,1.4,3,0.5c0.7-0.5,1.6-0.9,2.4-1.4c1.5-0.9,2.4-0.5,3.1,1.1
		c0.4,0.9,0.5,2.1,2.1,2.3C580.5,479,579.2,477.5,578.5,475.7z M622.7,480.3c-1.3-3.2-3.9-4.3-5.3-2.5c-2.4,3.1-2.4,3.1-5.6,0.7
		c-1-0.7-2.1-1.7-3.3-0.7c-1.8,1.5-2.3,3.5-2.8,5.9c1.5-0.2,1.4-1.1,1.7-1.7c1.6-3.7,1.6-3.7,4.9-1.5c2.5,1.7,3.7,1.5,5.5-0.9
		c0.4-0.5,0.7-0.9,1-1.3C620.3,478.2,621,479.8,622.7,480.3z"/>
	<path class="st0" d="M596.9,482.9c-1.3,2.1-3.4,2.6-5.6,3.1c-0.9,0.2-2,0.5-2.4,1.2c-1.4,2.1-3.3,1.8-5.3,1.8
		c-2.2-0.1-4.5,0.2-6.7-0.1c-3.4-0.5-6-2.7-8-5.6c-0.4,1.9-0.1,2.3,3.9,5.7c-4.6,0-8.7,0.1-12.9-0.1c-1.2-0.1-1.8-1.5-2.7-2.5
		c-0.7-0.8-0.8-2.1-2-2.4c-1,1,0.8,1.8,0,3.1c-1.9-1.7-3.7-3.3-4.9-6.2c5.2,0.8,8,4.3,11.4,7.4c2.7-2.8,5.1-5.9,9-6.6
		c4.6-0.8,6.6,2.6,8.8,6.1c4.9-4.2,10-8.3,17.1-6.3c3.8,1.1,6.6,3.3,9.2,7.3c-5.5,0-10.9,0-16.6,0
		C591.4,486,596.6,487.5,596.9,482.9z"/>
	<path class="st2" d="M558.1,473.3c1.5-1.5,3.1-1.9,5.2-1.2c2.7,1,5.2-0.2,7.7-1c2.2-0.7,4-2.3,6.4-2.6c3.6-0.5,6.7-0.2,10,1.7
		c5.2,2.9,11.3,4.9,17,2c5.1-2.6,9.5-1.2,14.3-0.3c2.8,0.5,5.6,1.2,8.1,2.6c-4.7-0.4-9.4-0.9-14.1-0.7c-6.1,0.3-12.1,0.7-18.1,1.8
		c-1.6,0.3-3,0.4-4.6-0.2c-7.1-2.4-14.5-3-21.9-3C564.7,472.5,561.3,473,558.1,473.3L558.1,473.3z"/>
	<path class="st2" d="M580.4,463.9c3.9,0,7.8,0,11.7,0c1.2,0,2,0.7,2.9,1.2c4.5,2.6,9,2.7,13.3-0.4c1.2-0.8,2.3-1.1,3.7-0.6
		c-1.8,4.6-7.4,8.1-13,8C591.7,472,585.8,468.5,580.4,463.9z"/>
	<path class="st2" d="M555.5,464c1.5-0.2,3-0.4,4.3,0.5c3.9,2.4,7.8,1.9,11.7,0.1c2.2-1.1,4.4-0.8,6.7-0.2
		c-2.1,3.9-9.9,7.4-14.4,6.7C560.1,470.4,556.3,467.3,555.5,464z"/>
	<path class="st0" d="M626.5,488.3c0.2-1.3,1.7-1.8,2.1-2.9c0.3-0.8,1.1-1.5,0.5-2.5c-0.6-0.2-0.8,0.2-1,0.6
		c-1.7,3.7-4.5,5.8-8.8,5.6c-3.9-0.2-7.7,0-12,0c4.2-3.5,6.2-3.6,9.7-1c2.7-1.8,5.1-4.1,8.2-5.5c2.1-0.9,4.1-1.8,6.4-1.6
		c1.7,0.2,2.6,1.4,1.7,2.7C631.8,486,629.7,488,626.5,488.3L626.5,488.3z"/>
	<path class="st2" d="M610.6,468.7c0.4-0.6,0.7-0.9,0.8-1.1c1.7-4.3,5.3-3.2,8.6-3.2c1.1,0,1.6,0.9,1.8,1.8c0.2,1-0.5,1.6-1.2,1.9
		C617.4,469.5,614.2,469.9,610.6,468.7z"/>
	<path class="st2" d="M618.4,470.4c3.1-1.2,5.6-2.3,4.3-5.7c4-0.6,4.4-0.4,5.3,2.3c0.8,2.4,0.2,3.6-2.3,4
		C623.5,471.4,621.3,471.2,618.4,470.4z"/>
	<path class="st2" d="M595.4,464c4.1,0,7.4,0,10.8,0C604.3,466.3,600.3,466.4,595.4,464z"/>
	<path class="st2" d="M562.4,464c2.1,0.1,3.7-0.3,5.4,0.4C566.1,464.8,564.4,465.2,562.4,464z"/>
	<path class="st2" d="M581.2,467c-1.2,0.3-2.1,0.4-3.1,0.2C579,465.8,579.8,465.4,581.2,467z"/>
	<path class="st2" d="M558,473.3c-0.2,0.1-0.5,0.2-0.2,0.1C557.5,473.4,557.8,473.4,558,473.3C558.1,473.3,558,473.3,558,473.3z"/>
	<path class="st0" d="M626.5,488.3c0.1,0.3,0,0.4-0.3,0.4c-0.1,0-0.1-0.1-0.2-0.1C626.2,488.4,626.3,488.4,626.5,488.3
		C626.5,488.3,626.5,488.3,626.5,488.3z"/>
	<path class="st1" d="M594.6,409.5c-0.2-2.1,0-3.9,0.7-5.7c1.3-0.1,1.8,0.9,2.7,1.5c2.8-2.1,2.4-6,4.7-8.7c2.1,2.6,2.4,5.8,3.9,8.4
		c1.4,0,2-1.6,3.6-1.5c0.5,1.6,1,3.3,0.6,5.2c-1.9-0.2-1-2-1.9-2.7c-1.1-0.1-1.7,1.3-3,1c-1.5-1.9-1.7-4.6-3.1-6.8
		c-1.7,2.3-1.9,5.2-3.5,7.3c-1.3,0.2-1.7-1.1-2.8-1.3C595.5,407.2,596.7,409.1,594.6,409.5z"/>
	<path class="st1" d="M611.6,411.1c-1.9,1.2-16.3,1.7-17.9,0c6-0.3,11.9-0.5,17.9-0.8C611.6,410.5,611.6,410.8,611.6,411.1z"/>
	<path class="st1" d="M611,400.4c-0.1,0.9-0.6,1.4-1.5,1.3c-0.8-0.1-1.5-0.6-1.4-1.4c0.1-0.8,0.7-1.4,1.5-1.3
		C610.5,399,611,399.5,611,400.4z"/>
	<path class="st1" d="M596.8,400c-0.2,0.7-0.5,1.3-1.3,1.3c-0.8-0.1-1.4-0.5-1.4-1.4c0-0.9,0.7-1.3,1.6-1.2
		C596.4,398.8,596.8,399.3,596.8,400z"/>
	<path class="st2" d="M224.2,336.1c0-0.1-0.1-0.1-0.1-0.2c0.1,0,0.1-0.1,0.2-0.1c0,0,0.1,0.1,0.1,0.1
		C224.3,336.1,224.2,336.1,224.2,336.1z"/>
	<path class="st2" d="M637.2,468.9c-0.2,0.2-0.4,0.3-0.6,0c0,0,0.2-0.2,0.3-0.3C637,468.8,637.1,468.8,637.2,468.9z"/>
	<polygon class="st2" points="532.9,454.6 532.7,454.6 532.8,454.5 	"/>
	<path class="st0" d="M407.5,249.1c0.2,4.1,0.1,8.3,0.6,12.4c0.3,2.8-0.4,4.6-2.9,5.8c-2.6-0.3-5.2,0.9-8,0.3c0-0.6-0.1-1.1-0.1-1.6
		c-0.1-6.4-0.5-12.8-2.3-19c-1.1-3.9-1.6-8.3-7.5-8.3c-2.8,0-5.7-0.8-8.6-0.6c-7.4,0.6-14.9,1.9-22.3-1.1c-1.4,4.6-2.3,9-3,13.5
		c-0.8,4.6-1.2,9.2-1.5,13.8c-2.6,0.7-5,0.1-7.4-0.2c-6.4-2.8-6.1-8.5-5.5-14c-1.4-0.5-2.1,0.2-3,0.3c-1.5-1.8-3.1-2.1-4.9-0.5
		c-6.5-4.1-9-12.4-6-20.5c2.3-6.3,2.6-6.4,9-4.3c1.3,0.4,2.7,0.8,4,1.2c1.7,1.8,1.7-0.2,1.9-1c1.3-5.3,2.1-10.8,3-16.2
		c0.6-3.7,1.3-7.3-0.9-10.8c-0.1-0.1,0-0.3,0.1-0.6c1.9-1.1,4.2-1.4,6.3-2.1c5.3-1.7,11.2-2.7,12.6-9.8c11.6,12.6,25,10.4,38.8,5.4
		c1,1.7,2,3.5,3.1,5.1c1,1.5,1,2.7-0.5,3.8c-1.5,1.1-1.7,2.5-1.3,4.4c1.2,5.2,2,10.4,3.2,15.6c0.4,1.7,0.3,3.7,1.8,5
		c0,0.7-0.1,1.5,0.5,2.1C406.2,234.7,406.8,241.9,407.5,249.1z M369.1,229.7c-1.1-1.2-3-0.5-4.2,1.5c-0.5,0.9-0.7,1.7-0.1,2.6
		c0.6,0.8,1.3,1.7,2.7,1.2c-0.4-1.3-2.9-1.7-1.4-3.5C367,230.7,367.8,229.6,369.1,229.7c0,1.3-0.2,2.6-0.2,3.9c0,2,1,2.7,2.7,1.7
		c1.1-0.6,2.1-0.4,3.1-0.2c1.5,0.3,2.9,0.5,4.4,0.9c1.8,0.5,2.5-0.2,2.5-1.9c0-0.7,0.1-1.5,0.1-2.2c0-2-1.1-2.7-3.6-2
		c2.6,0.9,2.7,2.5,1.6,4.3c-3.2,0.6-6.3-1.9-9.6,0.4c0.1-5.9,2-11.1,2.7-17c-1.6,1.2-1.5,2.4-1.8,3.5
		C370.4,223.9,370.3,226.9,369.1,229.7z M385.5,200.6c2.8,0.5,3.5,4.7,7,4c-2.6,1.5-3.8-0.6-5.4-2.1c-1.1,2.3-0.5,4.9-2.1,7.4
		c2.7-1.2,4.9-2,6.9-3.1c2.9-1.6,4.2,1.6,6.4,2.2c1.3-2.6,0.4-7.5-1.6-10.4c-1-1.4-2.3-1.9-3.9-1.2
		C390.4,198.4,388,199.5,385.5,200.6c-2.1,1.5-4.2,3-6.3,4.4c-1.1-0.3-1.9-1.8-2.9-1c-1.2,0.9-0.3,2.3-0.1,3.5
		c0.4,1.5,1.1,2.9,2,4.3c0.4,0.5,0.8,1.2,1.6,0.8c1.8-1,4-1.5,5.7-3c-1.9-0.9-3.1-2.2-3.9-4.8c1.5,1.3,1.8,3,3.6,3.3
		c0.5-2.4,1-4.8,1-7.2C386.1,200.8,385.7,200.7,385.5,200.6z M360.8,203c-1.3,0.5-1.6,1.7-2.3,2.4c-1.4,1.3-2.1,4.1-4.3,3.6
		c-2.2-0.5-2.1-3.3-2.6-5.3c-0.1-0.2-0.2-0.6,0.4-0.7c0.8,1.8,0.5,4.1,2.5,5.5c2.6-1.9,4-4.7,6.6-7.5c-4.4,0.9-8,1.3-11.6,1.3
		c-0.5,0-1,0.2-1.2,0.7c-1.3,3.7-2.7,7.4-3.4,11.5c1.7-0.4,2.4-1.5,3-2.5c0.6-0.9,1.4-1.3,2.5-1.3c6.3-0.2,12.5-1.7,19-0.6
		c0.7-2.4,0.7-4.9,0-7.3c-0.5-1.8-1.7-2.9-3.7-2.7c-1.5,0.2-3,0.7-4.6,1c0.8,3,1.2,6,5.8,6.3C363.4,208,362.8,207.5,360.8,203z
		 M397.4,215.9c-2.9-1.5-15.8-0.7-17.1,1.1c0.2,0.1,0.4,0.2,0.7,0.3c1.6,0.2,3.4-0.4,4,2.1c0.3,1.2,4.9,0.8,5.2-0.5
		c0.4-2,1.8-1.8,3.1-2C394.7,216.7,396.2,217,397.4,215.9z M349.2,215.5c1.5,1.5,3.4,1.1,5.2,1.4c0.6,0.1,1.5-0.1,1.5,0.8
		c0.2,1.6,1,2.2,2.5,2.2c1.5,0,3.3,0.5,3.7-1.8c0.2-0.9,1-0.7,1.6-0.7c0.8-0.1,1.8,0.2,3.1-0.9C360.6,215.3,354.9,215.1,349.2,215.5
		z M328.8,224.9c2.5,3.5,4.5,6.9,5.5,10.8c0.4,1.5,0.3,2.4-1.1,3.3c-1.3,0.9-2.2,2.3-0.7,3.7c1.5,1.6,3.2,3,5.3,4.9
		c-0.3-2.6-1.9-3.5-3.2-4.6c-2-1.8-2.1-2.2,0.1-3.7c1.2-0.8,1.3-1.6,1-2.9c-0.8-3.6-2.2-7-4.3-10
		C330.9,225.9,330.5,224.7,328.8,224.9z M400.1,241.7c0.7-1.2,0.1-2.2-0.3-3c-1.3-3-0.8-5.5,1.4-7.9c1-1.1,2.5-2.1,2.6-4
		C397.2,229.6,395.4,236.7,400.1,241.7z M329.4,226.9c-4.2,2-4.6,14.2-0.6,16.7c-0.8-2.9-1.8-5.4-1.8-8.2
		C326.9,232.5,328.1,230,329.4,226.9z M342.1,229.6c1.6,2.2,3.3,4.4,4.8,6.6c1.6,2.3,0.3,5.4,1.7,8.4
		C349.8,237.9,347.1,231.9,342.1,229.6z M372.8,216.3c1.4-1.3,1.5-2.3,0.4-3.8C372,213.9,371.9,214.9,372.8,216.3z"/>
	<path class="st1" d="M406,225.3c-1.5-1.3-1.4-3.3-1.8-5c-1.2-5.2-2-10.4-3.2-15.6c-0.4-1.9-0.2-3.2,1.3-4.4
		c1.5-1.1,1.5-2.3,0.5-3.8c-1.1-1.6-2.1-3.4-3.1-5.1c-13.9,5-27.3,7.1-38.8-5.4c-1.4,7.1-7.3,8-12.6,9.8c-2.1,0.7-4.4,0.9-6.3,2.1
		c0,0.3-0.1,0.5-0.1,0.6c2.2,3.4,1.6,7.1,0.9,10.8c-0.9,5.4-1.7,10.8-3,16.2c-0.2,0.8-0.2,2.7-1.9,1c-1.3-5.6-2.7-11.2-3.8-16.8
		c-0.4-1.8-1.6-1.3-2.7-1.5c-3.6-0.4-4.3-1.4-3.6-5c-1.6-0.2-3.1,0.6-4.6,0.7c-3,0.3-3.9-0.9-2.8-3.6c1.8-4.6,5-8.2,7.9-12.1
		c0.5-0.7,1.3-1.3,1.5-2.2c-2-1.5-3-1.3-3.8,0.9c-0.4,1.2-1,2.1-2.3,2.3c-1.2,0.2-2-0.4-2.9-1.9c2.7,0.8,3.7-0.3,4.5-2.4
		c0.6-1.7,2.4-2.2,4.3-2c0-0.4,0.1-0.7,0.1-1c-1.2-7.3,2.7-12.7,10-14.1c3.8-0.7,7.6-0.5,11.4,0.5c2.2,0.6,3.5,0.3,4.8-1.8
		c2.5-4.1,6.1-7.3,10.7-9c3-1.1,6.1-1.7,9.3-0.8c2.5,0.6,5,0.2,7.4,0.2c2.6,0,5,0.6,7.1,2c3.2,2.1,3.7,5.7,1.7,9.7
		c-0.4,0.8-1.3,1.3-1.2,2.6c3-0.5,5.8-1.4,8.8-1.7c2.5-0.3,5-0.5,7.5,0c4.8,0.8,6.7,3.9,5.2,8.5c-0.7,2.3-1.7,4.5-2.7,6.9
		c1.4,1.2,3.1,1.3,4.8,0.8c1.7-0.6,2.3-1.9,1.5-3.6c-0.6-1.3-0.4-2.2,1-3c1.6,1.4,1.7,3.3,1.3,5.1c-0.7,3.2-3.5,3.4-6.4,3.7
		c2.5,3.9,4.4,7.7,6,11.7c0.9,2.2,1.1,3.8-1.1,5.5c-3,2.4-5.5,5.3-8.3,7.9c-0.7,0.7-1,1.4-1.1,2.4c-0.1,2.4-0.5,4.8-0.6,7.2
		C406.9,223.6,406.6,224.5,406,225.3z M349.7,193.2c2-9.7,6.1-18.2,14.4-24c7.6-5.3,15.8-8.5,25.1-4.5c0.1,0,0.2-0.2,0.3-0.3
		c-2.9-4-13-3.8-21.5,0.4C355.5,170.9,348.6,185.7,349.7,193.2z M406.7,171.3c-0.4,0.4-0.9,0.8-1.1,1.3c-1.1,2.8-3.4,3.8-6.1,4.4
		c-1.7,0.4-3.5,0.6-5.2,0.3c-3.8-0.5-7.7,0.2-11.6-0.6c-2.9-0.6-6,0.2-8.9,0.6c-5.2,0.6-9.9,5.5-10.2,9c1.1-0.2,1.3-1.2,1.7-1.9
		c1.9-2.7,4.3-4.8,7.6-5.6c4.9-1.2,9.9-0.8,14.8-0.4c4.4,0.4,8.8,0.9,13.1-0.2C404.4,177.4,406.3,175,406.7,171.3z M336.4,171.2
		c-2.9,3.2-3.1,8.7-0.9,13.1c2.5,4.8,8,9.8,11,9.6C338.7,188.2,332.9,181.8,336.4,171.2z M358.3,165.8c5.5-2.6,10.5-6.2,16.4-7.8
		C369.4,156.4,361.9,160,358.3,165.8z M341.3,194.8c-4.8-1.5-9.5-1.8-14,0.9c-1.6,1-3.2,2.4-2.6,5.3
		C328.6,193.7,335.3,195.5,341.3,194.8z"/>
	<path class="st1" d="M344.5,264c2.4,0.3,4.7,0.9,7.4,0.2c0.2-4.6,0.7-9.2,1.5-13.8c0.8-4.5,1.7-8.9,3-13.5c7.4,3,14.9,1.7,22.3,1.1
		c2.9-0.2,5.8,0.6,8.6,0.6c5.9,0,6.4,4.4,7.5,8.3c1.8,6.2,2.3,12.6,2.3,19c0,0.5,0,1,0.1,1.6c2.8,0.6,5.3-0.7,8-0.3
		c-0.1,0.1-0.3,0.1-0.4,0.2c-3.2,1.6-3.9,4.1-3,7.5c0.6,2.3,0.5,4.8,0.7,7.1c-1.9,0.2-3.7,0.5-5.8,1.2c0.8,0.5,1.3,0.9,1.9,1.2
		c3.4,2.5,3.6,5.6,0.5,8.5c-2.2,2.1-5,3.2-8,3.8c1.2,2.9,2.3,5.5,4,8c1.6-0.9,2.9-1.7,3-3.9c0.1-2.7,1.4-4.9,4.2-5.8
		c1.1-0.4,1.2-1,1.1-2.1c-0.3-2.9-1.4-5.8-0.4-8.8c0.6,0.3,0.6,1,0.9,1.4c0,3.8,0.7,7.4,1.2,11.2c0.2,1.8-0.2,2.8-1.8,3.9
		c-8.7,6-17.3,12.1-24.9,19.6c-0.7,0.7-1.4,0.8-2.3,0.5c-9.6-3-17.6-8.1-23.2-16.7c-2.9-4.5-4-9.4-3-14.8c0.1-0.5-0.1-1.2,0.6-1.5
		c1.1,0.2,0.3,1.3,0.9,1.9c0.8-1.1,1.6-0.6,2.3,0.1c0.7,0.7,1,1.6,0.5,2.5c-0.8,1.4-2,0.7-3.1,0.5c-0.8,2-0.3,3.7,0.7,5.7
		c2.9-5.6,7.1-8.2,13.3-7c3.8,0.7,9.5,6.6,9.9,10.5c0.6,5.5-1.3,8.6-8.7,12.9c3.3,2.1,6.7,3.5,10.2,4.6c0.6,0.2,0.9-0.2,1.3-0.6
		c1.4-1.3,2.7-2.7,4.1-4c0.2-0.2,0.6-0.5,0.2-0.8c-0.4-0.3-0.5,0.2-0.6,0.4c-1.6,0.7-3.1,2.9-5,0.1c1.5-1.6,3-2.8,5.5-1.7
		c-0.1-1.4-0.3-2.4-1.2-3.5c-1.5,0.5-2.9,2.5-4.8,0.9c0.8-1.9,2.6-1,3.8-1.4c0.6-0.8-0.9-1.2-0.3-1.9l0,0.1c1.4,0.3,1.7,1.7,2.8,2.4
		c0.7-0.8,0.6-2.2,2.1-2.5c1.2,1.9,0.1,3.1-1.6,4.1c0.3,0.8,0.6,1.5,0.9,2.1c1.8-0.7,2.6-1.7,2.3-3.7c-0.4-2.9-0.7-5.8-1.7-8.5
		c-0.5-1.6-0.8-3.2-3-3.8c-1.2-0.3-2.5-1.9-2-4c1.7-0.5,2.9,0.3,3.8,1.5c0.9,1.2,0.5,2.9,1.4,4.1c0.9,0.5,0.9-1,2-0.5
		c2.1,2.4-2.6,5.4,0.6,7.9c0.7-0.3,1.7-1.2,2.8-0.5c0.8,2.5-2.9,2.1-2.9,4.5c2.6-0.5,3.5-2.5,5-3.7c-1.5-3.6-3.6-6.8-4.9-10.3
		c-1.7-4.5-2.1-8.8,3-12.6c-2.4,0.1-4,0.2-5.7,0.3c0.3,1.2,1.4,2.5-0.1,3.4c-0.6,0.4-1.3,0.3-1.8-0.2c-1.1-1,0-2,0.1-2.9
		c-0.9-0.4-1.8-0.2-2.7-0.1c-0.5,1.8-0.2,3.6-1.1,5.2c-0.5,1-1,2-2.4,1.9c-1.2-0.1-1.6-1-2.1-1.9c-0.9-1.7-0.8-3.7-0.9-5.6
		c-4.1-0.8-8.1-1.3-12.2-2.8c-0.9,2.1-2.7,3.4-4.7,4.4c0.2,1,1.6,1.7,0.9,2.7c-0.8,1.2-2.1,0.6-3.2,0.4c-1.3-0.3-2.7-0.5-3.5-2.2
		c1.6-0.1,2.5,1.4,3.9,1c0.4-1-0.9-1.2-1-2.2c2.1-1.1,5-1.2,6-4.1c-1.1-1-2.1-0.4-3.2-0.1c-2,0.6-3.3,2.5-5.4,2.8
		c0-0.3,0.1-0.7,0.1-1c1.8-1.1,3.5-2.2,5.5-3.4c-2-1.1-3.7-2.1-5.5-3.1c1.1-4.9-1-8.2-5.2-10.5C345.2,265.2,344.9,264.5,344.5,264z
		 M381.7,271.9c2.9-0.1,5.2-1.6,7.7-2.3c0.9-0.2,0.9-1,1-1.8c0.1-5.8,0-11.5-0.8-17.2c-0.4-2.9-0.6-6-2.3-8.6
		c-9.3,1.6-18.5,2.5-27.9,1.6c-0.2,9-0.6,17.7-0.1,26.2c3.5-0.5,5.5,3,9.2,2.3c0-2.7,0.1-5.5,0-8.3c-0.1-2.2,0.6-2.9,3-2.9
		c2.7,0.1,5.6,0.9,8.3-1.5C381.8,263.6,381.3,267.8,381.7,271.9z M360.3,300.8c-2.5,1.8-2.1,4.2-1.8,6.5c0.3,2.6,1.6,3.6,4.2,3.4
		c4.5-0.3,8.1-4.3,8.4-9c0.3-4.8-2.4-8.3-6.9-9.1c-4.5-0.8-9.4,2-10.8,6.1c-0.6,1.7-0.5,2.3,0.6,3.7c2.3-5.6,5-7.9,8.8-7.6
		c2.4,0.2,4.1,1.4,4.8,3.7c0.8,2.8-0.5,6.3-3,7.9c0.7-1.6,1.3-2.8,1.7-4.1c0.5-1.8,0.7-3.7-0.8-5.1c-1.6-1.5-3.4-1.4-5.4-0.8
		c-2.5,0.7-4.9,5.2-4.9,7.2c0,1.4,0.5,2.3,1.8,3c0.5-2,0-4.2,1.5-5.8c0.9-1,1.9-1.8,3.1-0.4c1.5,1.6,0.9,5.8-1,7.3
		C360.3,305.4,362.1,303.1,360.3,300.8z M400.2,288.7c-1.6-3.5-4.6-5.1-7.7-4.3c-3.6,0.9-6,3.8-5.5,7.2c0.8,5.3,3.5,9.7,6.4,14
		c-0.9-2.6-2-5.2-3.4-7.6c-0.9-1.6-0.7-2.9,0.5-4.3C393,290.6,396.2,289.1,400.2,288.7z M374.6,283.7c0,2.7,0.1,4.8,1.8,6.6
		c2-1.6,2.2-3.8,1.7-5.7C377.8,283.3,376,284.2,374.6,283.7z M403.5,296.2c-3.2,0.6-4.5,2.5-4,5.8
		C401,300.1,404.6,300.1,403.5,296.2z"/>
	<path class="st1" d="M486.3,427.5c-0.8-0.6-0.7-1.5-0.7-2.3c-0.4-17.3-2.7-34.3-6.3-51.2c-2.4-11.2-5.6-22.2-9.7-33
		c-0.5-1.2-1.3-2.4-0.9-3.8c2,0.9,2.3,3,2.9,4.7c1.9,5.6,4.6,10.9,6.4,16.6c6.6,21.9,9.7,44.1,8.9,67C487,426.3,487,427,486.3,427.5
		z"/>
	<path class="st0" d="M416.1,224.3c0.7-0.5,1.4-0.4,1.9,0.4c3.4,4.7,6.6,13.8,3.1,20.2c-1.2,2.2-2.8,3.9-5,5
		c-1.8-1.8-3.5-1.3-5.1,0.4c0,0,0.1,0.1,0.1,0.1c0-4.4,2.2-7.8,5.4-10.6c-0.7-1.5-1.7-2.4-2.8-3c-1.1-0.7-1.1-1.3-0.8-2.6
		C413.5,230.6,414.8,227.5,416.1,224.3z M418.7,243.7c2.1-4.2,2.7-8.5,0.7-12.9c-0.7-1.6-1.7-3.3-4-3.3c2.4,2,3.6,4.4,4,7.4
		C419.8,237.9,418.7,240.7,418.7,243.7z"/>
	<path class="st1" d="M271.3,455.4c-2.1-4.4-3.2-9.1-4.5-13.7c-2.8-0.8-3.7-1.4-3-5.6c1.4-8.7,5.2-16.4,9.6-23.9
		c3.1-5.4,7-10.2,11.4-14.7c0.7-0.7,1.3-1.8,3.2-1.7c-11.8,12.5-20.1,26.3-22.9,43.6c2.8-0.8,3.3,0.5,3.8,2.4
		c1.1,4.4,1.9,9,3.8,13.2c0.7,1.4,1.5,2.7,2.6,3.8C272.6,459.3,272.5,456.7,271.3,455.4z"/>
	<path class="st0" d="M402.9,284.3c-0.9,3,0.1,5.9,0.4,8.8c0.1,1.1,0.1,1.7-1.1,2.1c-2.8,0.9-4.2,3.1-4.2,5.8c-0.1,2.2-1.3,3-3,3.9
		c-1.7-2.5-2.8-5.2-4-8c3.1-0.5,5.8-1.7,8-3.8c3.1-2.9,2.9-6-0.5-8.5c-0.5-0.4-1.1-0.7-1.9-1.2c2.1-0.7,3.9-1,5.8-1.2
		C402.6,282.8,402.8,283.6,402.9,284.3z"/>
	<path class="st1" d="M416.1,224.3c-1.3,3.2-2.7,6.3-3.4,9.8c-0.3,1.3-0.3,1.9,0.8,2.6c1.1,0.7,2.1,1.6,2.8,3
		c-3.2,2.8-5.3,6.2-5.4,10.6c-1.2-0.4-2.3-0.8-3.5-1.2c-0.7-7.2-1.3-14.4-1.1-21.6c0.3-0.1,0.7-0.1,1-0.2c0.6,5.4,1.2,10.9,1.8,16.9
		c1.8-2.3,3.9-3.1,5.7-4.6c-0.5-0.5-0.8-1.1-1.3-1.4c-2-1.1-2.2-2.6-1.7-4.8c0.7-3,1.6-5.9,2.8-8.8
		C415.1,224.3,415.4,223.2,416.1,224.3z"/>
	<path class="st0" d="M414.7,224.6c-1.1,2.9-2.1,5.8-2.8,8.8c-0.5,2.1-0.3,3.7,1.7,4.8c0.5,0.3,0.8,0.8,1.3,1.4
		c-1.7,1.5-3.9,2.3-5.7,4.6c-0.7-6.1-1.2-11.5-1.8-16.9C409.7,225.9,412.2,225.2,414.7,224.6z"/>
	<path class="st1" d="M339,298.4c7.5,14,20.1,21.5,35.2,26.6c-7.9,1.4-25.8-11.1-35.3-23.9C339.3,300.2,336.8,299.2,339,298.4z"/>
	<path class="st0" d="M435.1,258.8c-3.2-0.3-3.5-0.8-2.3-3.9c1-2.4,1.7-4.9,3.6-6.9c0.6,3.3-2.4,5.6-2.4,8.7
		c3.3,0.6,3.3,0.6,1.9,3.8c-1.1,2.3-2.6,4.2-4.6,5.7C432.3,263.4,434.7,261.6,435.1,258.8z"/>
	<path class="st0" d="M535.5,279.4c0.1-2,1-3,2.8-3c1.8,0,2.8,1.2,2.8,2.8c0.1,1.7-1.1,2.8-2.8,2.8
		C536.5,282.1,535.7,280.9,535.5,279.4z"/>
	<path class="st1" d="M398.1,166.7c-1.2,0-2.4-0.4-2.2-1.7c0.3-2,2-2.7,3.8-3c1.1-0.2,2.2,0.1,2.4,1.5
		C402.2,164.9,399.9,166.6,398.1,166.7z"/>
	<path class="st0" d="M471.5,327.3c1.8,0.1,2.8,0.9,2.8,2.6c0,1.6-1.1,2.4-2.6,2.4c-1.6,0-2.7-0.9-2.7-2.6
		C469.1,328.1,470.2,327.4,471.5,327.3z"/>
	<path class="st1" d="M411,250.2c1.6-1.7,3.3-2.2,5.1-0.4c0.6,2,0.2,3.6-2.1,4C411.3,254.2,411.3,252,411,250.2z"/>
	<path class="st1" d="M331,249.8c1.8-1.5,3.5-1.2,4.9,0.5c-0.2,2.6-1.2,3.9-3,3.5C330.7,253.4,330.6,251.7,331,249.8z"/>
	<path class="st0" d="M357.7,103.1c1.3,0.2,2.9,0.4,3,2c0.1,1.7-1.5,2.2-3,2.2c-1.4,0-3.1-0.2-3.1-2
		C354.6,103.5,356.3,103.3,357.7,103.1z"/>
	<path class="st0" d="M447.5,267.3c-2,3.4-9.2,4.1-13.2,1.5C438.9,270,443.2,269.1,447.5,267.3z"/>
	<path class="st0" d="M350.9,276c1.8,1,3.5,2,5.5,3.1c-1.9,1.2-3.7,2.3-5.5,3.4C350.2,280.4,350.7,278.2,350.9,276z"/>
	<path class="st0" d="M443.6,260.8c-0.1,1.2-0.8,2-2,2.1c-1.2,0.1-2-0.7-2-2c0-1.1,0.6-1.9,1.8-2
		C442.6,258.9,443.4,259.5,443.6,260.8z"/>
	<path class="st1" d="M347.7,271.4c-0.6,0.1-1-0.3-1-0.8c-0.1-0.5,0.2-0.8,0.6-0.9c0.5-0.1,1,0.1,1.1,0.7
		C348.6,270.9,348.3,271.2,347.7,271.4z"/>
	<path class="st1" d="M343.6,442.2c-1.6-1.1-2.8-2-4.1-2.9c-2.4,3-4.7,5.9-7,8.8c-1.9,2.3-2.9,2.5-5.5,0.5c8.5-15,18.4-29,28.5-42.9
		c0.3,0.1,0.6,0.3,0.9,0.4C352.2,418,347.9,429.9,343.6,442.2z M343.1,440c2.9-8.9,6.4-17.3,9-26.1c-0.3-0.1-0.5-0.3-0.8-0.4
		c-5.1,7.2-10.1,14.5-15.3,21.8c1.6,1.1,2.9,2,4.4,3.1c2.3-5.4,4.5-10.7,6.8-16.3c0.8,1,0.6,1.4,0.4,1.7c-1.9,4.6-3.7,9.3-5.6,13.9
		C341.6,438.8,341.4,439.6,343.1,440z"/>
	<path class="st1" d="M303.1,432.8c0.9-0.7-0.1-1.3-0.3-1.9c-0.3-0.9-0.4-1.8,0.4-2.7c2.4,1.1,1.8,3.1,1.4,5.2
		c1.5-0.2,2.7-2,4.3-0.4c-0.7,2-2.7,0.8-4.1,1.5c-0.2,1.2-0.3,2.5-0.5,3.9c1.1,0.2,2.1-0.8,3.2,0c0.3,1.6-0.9,2.3-2.2,2.3
		c-2,0-2.4,1.1-2.4,2.7c1.1,0.4,2-1,3.1,0c-0.3,2-1.9,2.6-3.6,2.7c-0.5,2,0.4,3.7,0.3,6.2c-3.2-3.3-3.6-8.3-8.6-9
		c1-1.2,1.9-0.8,2.6-0.8c0.6-0.7,0.1-1.3,0.3-2.2c-1.8,0.6-2.5-0.5-2.7-1.5c0.8,0.4,2,1.1,3.3,0.3c0.5,1.3,0,2.7,1.1,3.7
		c0.8-0.7,0.7-2.1,2-2.4c0.7-0.1,0.2,1.1,0.9,1.1c0.5-0.7,0.8-1.5,0.6-2.5c-1.1-0.2-2.5,0-3.1-1.3c-0.3-0.7-0.4-1.4,0.3-2.2
		c1.5,0.2,2.2,1.4,3.1,2.5c1.1-1.4,1.2-3.1,1.2-4.8C303.9,432.9,303.9,432.2,303.1,432.8L303.1,432.8z M299,444.2
		c0.3,1,0.6,1.9,1.8,2.7c0.2-1.4,0.3-2.4,0.4-3.4C300.3,443.5,299.6,443.8,299,444.2z M301.2,443.3c0.2-0.2,0.5-0.5,0.1-0.8
		c0,0-0.1,0-0.2,0C300.9,442.7,300.9,443,301.2,443.3z"/>
	<path class="st1" d="M390.3,395.4c4.5,4.4,5.1,9.7,0.5,12.3c-2.5-2-4.8-4.2-5.5-7.6c-0.2-1.1-0.2-2.1,0.1-3.2
		c0.8-3.2,1.5-3.6,4.3-2.1c1.9-2.3,3.6-4.9,6.7-5.9c2.5-0.9,6-0.3,6.3,1.3c0.5,2.4-1.8,3.3-3.4,4.4c-2.1,1.5-4.7,1.5-7.1,0.7
		C391.6,395.1,391.1,395.2,390.3,395.4z M391.1,403.9c-3.2-1-2.7-4.4-4.9-5.7c-0.4,3,2.1,6.9,4.9,8.1c3.2-3.5,1.4-9.2-3.5-10.5
		C387.2,399,389.4,401,391.1,403.9z M393.1,393.8c3.8,1.5,7,0.2,8.6-3.2c-2.5-1.6-5.6-1.2-7.2,1c1.8,0.6,3.3-1.5,5.4-0.4
		C397.5,392,395.2,392.3,393.1,393.8z"/>
	<path class="st1" d="M409.4,419.6c1.3,0.3,1.8-0.2,1.6-1.6c-0.3-1.3-0.5-2.6-0.7-3.9c-0.1-0.7-0.5-1.5,0.6-2c1.2,2,0.7,4.7,2.6,7.1
		c0.6-4.9-2.4-9-0.6-13.5c0.6,2.8,1.3,5.5,1.9,8.3c0.1,0.6,0.2,1.3,0.4,1.9c1,3.7,0.8,4.2-3,5.1c-0.5,0.1-1,0.2-1.5,0.3
		c-5.7,0.9-6.4,0.4-7.3-5.2c-0.4-2.5-0.8-5.1-1.2-7.6c-0.1-0.6-0.3-1.1,0.3-1.6c1,0.2,0.9,1.1,1,1.7c0.7,3.2,1.4,6.3,2,9.5
		c0.2,1.1,0.4,1.8,1.7,1.5c0.8-1.3-0.4-2.5-0.2-3.8c0.2-1.2-0.9-2.3,0-3.9C408.8,414.4,408.1,417.3,409.4,419.6z"/>
	<path class="st1" d="M417,396.8c-0.3,1,0.7,1.5,0.8,2.5c-0.7,0.5-1.2,1.7-2.2,0.3c-0.6-0.8-0.9-1.7-1.8-2.3
		c-1.3,0.5-1.5,2.1-2.7,2.8c-0.8-0.1-1.2-0.6-1.6-1.3c0.3-0.9,1.3-1.3,1.4-2.4c-0.6-1-2,0-2.6-1.1c0.2-1.6,1.8-0.6,2.7-1.5
		c0.7-1.1-2.9-1.8-0.6-3.4c1.4,0.4,1.9,1.9,3.2,2.6c0.8-0.1,0.9-0.9,1.4-1.3c0.5-0.5,0.8-1.5,1.7-0.9c1,0.7,0,1.3-0.3,1.9
		c-0.1,0.2-0.1,0.5-0.1,0.8c1,0.1,2,0.1,2.9,0.2c0.5,0.7,0.2,1.4,0.2,2C418.8,396.7,417.6,395.9,417,396.8z"/>
	<path class="st1" d="M441.9,396.1c1.1-0.5,1.2-1.3,1.7-1.9c0.6-0.7,1.1-1.6,2.2-1.3c0.9,0.2,1.4,1.1,1.8,1.9
		c0.6,1.2,0.4,2.6,0.7,3.9c0.5,2.3,0.5,4.6,0.3,7.1c-1.8-3.3-0.7-7.4-3-10.5c-1.1,0.5-1.2,1.7-1.8,2.6c-0.5,0.8-1,1.9-2.2,1.8
		c-1.1-0.1-1.3-1.1-1.6-2c-1.1-4.3-2.2-8.5-3.3-12.8c-0.3-1-0.2-1.9,1-2.1c1.2-0.2,1.5,0.6,1.7,1.6
		C440.3,388.2,441.1,392.1,441.9,396.1z"/>
	<path class="st1" d="M438.8,359.6c-1-0.7-0.4-1.4-0.2-2.1c3.8-11.7,9.9-21.7,21-28c0.2-0.1,0.4-0.3,0.6-0.4c0.9-0.4,2-1.3,2.7-0.2
		c0.8,1.4-0.8,1.5-1.6,1.9c-11.4,5.8-17.6,15.7-21.7,27.4C439.4,358.7,439.5,359.3,438.8,359.6z"/>
	<path class="st1" d="M319.7,437.1c1.3-0.4,1.4,0.4,2.1,0.5c0.8-1.8,2.3-3.4-0.8-4.8c-0.8-0.4,0.2-2.5-1.8-2.9
		c2.2,0.3,2.6-1.9,4.4-2.3c-0.9,2.2,0,4,0.4,5.9c2-1-0.2-2.4,0.7-3.5c1-0.3,0.7,1.2,1.3,1.2c0.9,0,1.1-0.4,1.7-3
		c1.5,1.2,2.1,0,2.8-1.3c1,1.3-1.1,3.2,1.3,3.9c-1.1,1.2-2.6-0.8-3.5,0.8c-0.1,1,1.3,0.7,1.4,1.5c-0.5,0.9-1.2,0.3-1.7,0.2
		c-0.6-0.1-1.2-0.7-1.8,0c-0.7,0.8,0.6,1.1,0.4,1.9c-1.2,0.1-2.8,0-2.8,2c0.4,0.7,1.5,0.1,2,1.3c-4.9-0.5-3.2,3.8-4.5,6.2
		C320.5,442.1,321.6,439.4,319.7,437.1z"/>
	<path class="st1" d="M390.2,420.9c1.4,0.1,2.4-0.2,3.4-0.4c2.6-0.7,3.1-0.2,2.5,2.3c-0.2,0.7-0.3,1.4-0.5,2.3c2,0.4,4.4-1.6,5.6,1
		c0.6,1.3,0.1,2.7-1.1,3.7c-1.2-1.3,1.2-2.7-0.4-3.7c-1.2-0.8-2.4,0.4-3.6,0.3c-1.3,0-1.7-0.7-1.6-2c0.1-1,0.7-1.9,0.3-3
		c-1.4,0.2-2.7,0.6-4.1,0.7c-1.7,0.1-2.4-0.9-1.5-2.4c0.8-1.3,1.4-3,3.3-3.7C392.3,418.1,390.6,419,390.2,420.9z"/>
	<path class="st1" d="M339,415c-0.4,1.8-2,2.3-2.5,3.5c0.4,1.7,2.7,2.4,2.8,4.6c-1.8-0.8-2.5-2.5-3.8-3.3c-1.6,0.7-2.3,2.4-4,3.3
		c0.1-1.4,0.3-2.8-1.2-3.6c-0.6-0.3-0.3-1.1,0.2-1.5c0.6-0.5,1.1-0.1,1.4,0.5c0.2,0.4,0.2,0.9,0.3,1.5c1.5-0.2,2.2-0.8,1.4-2.3
		c-0.5-0.9-1.9-1.5-1.4-3c1.6,0.4,2,1.9,3.1,2.7C336.6,417.1,337.1,415.2,339,415z"/>
	<path class="st1" d="M394,397.8c4.9-1.3,6.1-0.9,6.8,2.3C398.1,401.3,395.8,400.6,394,397.8z"/>
	<path class="st1" d="M371.5,410.1c2.5-2.7,5-5.5,7.7-8.4c0.1,1.8-4.3,7.1-7.2,8.8C371.8,410.4,371.6,410.2,371.5,410.1z"/>
	<path class="st1" d="M382.6,411.6c-2.2,3.1-4.9,5.5-7.9,7.6C376.7,416,379.6,413.7,382.6,411.6z"/>
	<path class="st1" d="M385,423.5c-2.3,2.6-4.8,5-8,6.6C379.2,427.3,381.9,425.2,385,423.5z"/>
	<path class="st1" d="M354.2,419.1c0.1-3.7,1.5-7,2.9-10.3C357.1,412.4,355.6,415.7,354.2,419.1z"/>
	<path class="st1" d="M368.5,436.5c-2.1-2.1-2-5.1,0.2-6.2C369.6,432.3,370,434.3,368.5,436.5z"/>
	<path class="st1" d="M382.1,421c-0.2,1.3-0.7,2-2,1.9c-1.1-0.1-1.9-0.7-1.8-1.9c0-1.1,0.8-1.8,1.9-1.8
		C381.4,419.3,381.9,420.1,382.1,421z"/>
	<path class="st1" d="M432.6,378.4c-0.5-1.3-0.2-2.4-0.1-3.7c1.7,0.6,3.3,1.1,5,1.7C436.2,378.1,434.3,377.8,432.6,378.4z"/>
	<path class="st1" d="M383.2,432.1c0,1.1-0.5,1.8-1.6,1.8c-1,0-1.8-0.4-1.8-1.6c0-1.1,0.5-1.7,1.6-1.8
		C382.5,430.5,383.1,431.1,383.2,432.1z"/>
	<path class="st1" d="M411.3,422.3c1,0.2,1.5,0.9,1.4,1.9c-0.1,0.9-0.7,1.5-1.6,1.4c-1-0.1-1.7-0.6-1.6-1.8
		C409.5,422.9,410.2,422.4,411.3,422.3z"/>
	<path class="st1" d="M379,410.4c-0.1,1.1-0.5,1.8-1.5,1.7c-0.9,0-1.5-0.6-1.5-1.6c0-0.9,0.6-1.4,1.4-1.4
		C378.3,409.1,378.7,409.7,379,410.4z"/>
	<path class="st1" d="M303,432.7c-0.5,0.6,0.4,1.4-0.3,2.2c-1.3-0.3-1.6-1.3-1.6-2.4C302.1,431.6,302.3,433.3,303,432.7
		C303.1,432.8,303,432.7,303,432.7z"/>
	<path class="st1" d="M339.8,419.9c-0.7-0.1-1.2-0.3-1.2-1c0-0.7,0.4-1,1.1-1.1c0.7-0.1,1,0.4,1.1,1
		C340.7,419.5,340.3,419.8,339.8,419.9z"/>
	<path class="st1" d="M328.1,352.9c-0.3,1.3-1.5,1.8-2.2,2.7c-2.1,2.8-4.4,5.6-5.3,9.2c-0.2,0.8-0.5,1.5-1.5,1.1
		c-1-0.3-0.9-1.2-0.6-1.9c2-4.1,4.4-7.9,7.9-11C326.9,352.8,327.3,352.5,328.1,352.9z"/>
	<path class="st1" d="M274.6,448.4c0.6,0.3,1.3,0.5,1.9,0.8c1-0.6,0.1-2.4,2.2-2.5c-0.6,2.4-0.1,4.4,2.2,5.7c-1.3,1.2-2-0.3-2.9,0
		c-0.7,0.6-0.3,1.8-1.9,2.5c0.3-2.4-0.2-4.5-2.3-5.9C274,448.7,274.3,448.6,274.6,448.4z"/>
	<path class="st1" d="M360.8,288.7c2.1-2.5,4.1-3.9,6.2-5.3c1.1,1.4,0,2.8,0.7,4c1.1,0.3,1.5-1,2.6-1c1,1.3,0.7,2.9,0.6,4.8
		c-1.4-0.7-0.8-1.9-1.3-2.7c-1.2-0.3-1.7,1.3-3.2,1c-0.1-1.1-0.1-2.3-0.2-3.7C364.4,286.1,363.5,288.3,360.8,288.7z"/>
	<path class="st1" d="M379.5,307.2c-2.5-0.8-3.1-2.4-1.8-4.6C380,303.6,379.1,305.7,379.5,307.2
		C379.5,307.3,379.5,307.2,379.5,307.2z"/>
	<path class="st1" d="M383.8,302c-2.5,0.1-3.6-1-4.5-2.9C381.6,298.9,382.5,300.4,383.8,302z"/>
	<path class="st1" d="M371.7,384.4c-0.2,1.7-0.2,4.1-2.3,4c-1.9-0.1-1.9-2.4-1.9-4c0-1.6,0.1-3.9,2.1-3.9
		C371.6,380.4,371.5,382.7,371.7,384.4z"/>
	<path class="st1" d="M337.7,393.1c5.7-1.4,10.9,2.2,11.4,7.8c-3.5,0.5-6.5-0.7-9.4-2.2c-4-2-6.9-5.2-9.4-8.8
		c-0.9-1.3-0.7-2.1,1.2-2.4c3.4,6.4,8.4,11.1,16,12.3c-0.4-3.2-2.3-5-5.6-5.5c0.7,1.4,2.4,1.7,3.5,3.7
		C342.1,396.9,340.1,395.1,337.7,393.1z"/>
	<path class="st1" d="M314.7,379.1c5.4,0.6,15.5,13.7,15.3,20C325.2,391.6,320.7,384.8,314.7,379.1z"/>
	<path class="st1" d="M424.5,332.9c-2,1.2-1.9,3.6-4.4,4.3c-0.7-6.2,0.1-12.1,0.9-18c0.7,5-0.5,10,0.1,15.3c1.7-1.1,2-3.1,3.7-3.8
		c2.5,3.4-0.8,15.1-5.4,18.5C421.6,344.1,424.8,339.2,424.5,332.9z"/>
	<path class="st1" d="M459.6,439.7c0.6-0.2,1.3-0.5,2.1-0.8c1.4,1.9-1.1,1.6-1.2,2.2c-0.4,1.5,1.5,2.4,0.2,3.7
		c-1.4-0.3-1.2-1.8-2.1-2.3c-1-0.3-1.9,1.8-3,0.2c0.1-1.1,1.5-1,1.8-1.6c0.6-1.3-1.3-2.1-0.1-3.2
		C458.7,437.7,458.5,439.3,459.6,439.7z"/>
	<path class="st1" d="M615.8,437.9c-0.1,1.5-0.8,2.6-2.4,2.7c-1.7,0.1-2.7-0.8-2.8-2.5c0-1.5,0.8-2.6,2.4-2.7
		C614.7,435.3,615.5,436.4,615.8,437.9z"/>
	<path class="st1" d="M577.7,442.2c-1.2-0.1-1.9-0.9-1.9-2.1c0-1.3,0.9-2,2.1-1.9c1.2,0,1.8,0.8,1.8,2
		C579.7,441.4,579.1,442.2,577.7,442.2z"/>
	<path class="st1" d="M567.8,438.2c-1.2-0.2-1.9-0.8-1.9-2c0-1,0.6-1.8,1.7-1.8c1,0,2,0.4,2,1.7C569.6,437.4,568.9,438,567.8,438.2z
		"/>
	<path class="st1" d="M589.7,440.1c1.1,0.1,1.7,0.7,1.7,1.8c0,1.2-0.7,1.8-1.9,1.8c-1.1,0-1.6-0.7-1.5-1.8
		C588.1,440.8,588.7,440.2,589.7,440.1z"/>
	<path class="st1" d="M595.2,435.3c-1.1-0.1-1.7-0.7-1.7-1.8c0.1-1.2,0.8-1.8,2-1.7c1,0.1,1.6,0.9,1.5,1.9
		C596.9,434.9,596.2,435.4,595.2,435.3z"/>
	<path class="st1" d="M557.6,444.1c-0.1,1.1-0.7,1.8-1.8,1.7c-1.1-0.1-1.7-0.8-1.6-1.9c0.1-1.1,0.8-1.6,1.9-1.6
		C557.2,442.3,557.5,443.1,557.6,444.1z"/>
	<path class="st1" d="M625.8,443.5c1,0.1,1.4,0.7,1.4,1.5c0,0.9-0.5,1.4-1.4,1.4c-0.9,0-1.4-0.5-1.4-1.4
		C624.4,444,625.1,443.7,625.8,443.5z"/>
	<path class="st1" d="M566.5,446.3c0,0.9-0.4,1.5-1.3,1.6c-0.9,0-1.4-0.5-1.5-1.3c-0.1-0.9,0.5-1.4,1.3-1.5
		C565.9,445,566.4,445.4,566.5,446.3z"/>
	<path class="st1" d="M584.4,434.2c-0.8-0.1-1.2-0.6-1.1-1.4c0-0.7,0.5-1,1.2-1c0.8,0,1.3,0.5,1.3,1.2
		C585.7,433.7,585.2,434.2,584.4,434.2z"/>
	<path class="st1" d="M603.5,440.2c-0.1,0.8-0.5,1.2-1.3,1.2c-0.9,0-1.3-0.6-1.3-1.5c0.1-0.8,0.7-1.1,1.4-1.1
		C603.2,438.9,603.5,439.4,603.5,440.2z"/>
	<path class="st1" d="M622.7,480.3c-1.7-0.4-2.4-2.1-4-2.1c-0.3,0.4-0.7,0.9-1,1.3c-1.8,2.3-3,2.5-5.5,0.9c-3.3-2.2-3.2-2.2-4.9,1.5
		c-0.3,0.6-0.2,1.6-1.7,1.7c0.5-2.3,1-4.4,2.8-5.9c1.2-1,2.3,0,3.3,0.7c3.2,2.4,3.2,2.4,5.6-0.7C618.8,476,621.4,477.1,622.7,480.3z
		"/>
	<path class="st1" d="M578.5,475.7c0.7,1.8,2,3.3,2.4,5.5c-1.7-0.2-1.8-1.5-2.1-2.3c-0.7-1.6-1.6-2-3.1-1.1
		c-0.8,0.5-1.7,0.8-2.4,1.4c-1.2,0.9-2.2,0.6-3-0.5c-2-2.9-2.7-1.8-4.9,0c-0.7,0.5-0.9,1.5-1.7,1.7c-0.1,0-0.3-0.1-0.7-0.1
		c0.8-2.2,2.5-3.5,4.4-4.3c1.3-0.6,2.5,0.1,3.2,1.2c0.9,1.4,1.9,1.3,3.1,0.5C575.2,476.6,576.7,475.9,578.5,475.7
		C578.5,475.8,578.5,475.7,578.5,475.7z"/>
	<path class="st1" d="M360.8,203c2,4.5,2.6,5,6.2,4.4c-4.6-0.2-5-3.3-5.8-6.3c1.5-0.4,3-0.8,4.6-1c2-0.2,3.1,0.9,3.7,2.7
		c0.7,2.4,0.7,4.9,0,7.3c-6.4-1.1-12.7,0.4-19,0.6c-1.1,0-1.9,0.4-2.5,1.3c-0.7,1-1.3,2.1-3,2.5c0.7-4.2,2-7.9,3.4-11.5
		c0.2-0.6,0.6-0.7,1.2-0.7c3.6,0,7.3-0.4,11.6-1.3c-2.6,2.8-4,5.5-6.6,7.5c-2-1.3-1.8-3.7-2.5-5.5c-0.6,0.1-0.5,0.5-0.4,0.7
		c0.5,2,0.4,4.8,2.6,5.3c2.2,0.5,2.9-2.3,4.3-3.6C359.2,204.7,359.6,203.6,360.8,203z"/>
	<path class="st1" d="M385.6,200.6c2.4-1.1,4.8-2.1,7.2-3.2c1.6-0.7,2.8-0.3,3.9,1.2c2.1,2.9,2.9,7.8,1.6,10.4
		c-2.1-0.6-3.4-3.7-6.4-2.2c-2,1.1-4.2,1.9-6.9,3.1c1.6-2.6,1-5.1,2.1-7.4c1.5,1.5,2.8,3.6,5.4,2.1
		C389,205.3,388.3,201.1,385.6,200.6C385.5,200.6,385.6,200.6,385.6,200.6z"/>
	<path class="st1" d="M385.5,200.6c0.2,0.1,0.6,0.2,0.6,0.3c0,2.5-0.5,4.8-1,7.2c-1.8-0.4-2.1-2-3.6-3.3c0.8,2.6,2,3.8,3.9,4.8
		c-1.7,1.5-3.8,2-5.7,3c-0.8,0.4-1.2-0.2-1.6-0.8c-0.9-1.3-1.6-2.7-2-4.3c-0.3-1.2-1.1-2.6,0.1-3.5c1.1-0.8,1.9,0.7,2.9,1
		C381.3,203.5,383.4,202.1,385.5,200.6C385.6,200.6,385.5,200.6,385.5,200.6z"/>
	<path class="st1" d="M369.1,229.7c1.2-2.8,1.2-5.8,1.9-8.7c0.3-1.1,0.2-2.3,1.8-3.5c-0.7,5.9-2.6,11.1-2.7,17
		c3.4-2.2,6.4,0.2,9.6-0.4c1.1-1.8,1.1-3.4-1.6-4.3c2.5-0.8,3.6-0.1,3.6,2c0,0.7-0.1,1.5-0.1,2.2c0,1.8-0.8,2.4-2.5,1.9
		c-1.4-0.4-2.9-0.7-4.4-0.9c-1-0.2-2-0.4-3.1,0.2c-1.7,1-2.6,0.3-2.7-1.7C368.9,232.3,369.1,231,369.1,229.7L369.1,229.7z"/>
	<path class="st1" d="M397.4,215.9c-1.2,1.1-2.7,0.8-4,0.9c-1.4,0.2-2.7,0-3.1,2c-0.3,1.3-4.9,1.8-5.2,0.5c-0.6-2.5-2.4-1.9-4-2.1
		c-0.2,0-0.4-0.2-0.7-0.3C381.6,215.2,394.5,214.4,397.4,215.9z"/>
	<path class="st1" d="M349.2,215.5c5.7-0.4,11.4-0.2,17.7,0.9c-1.4,1.2-2.3,0.9-3.1,0.9c-0.7,0.1-1.5-0.2-1.6,0.7
		c-0.4,2.3-2.2,1.8-3.7,1.8c-1.5,0-2.3-0.6-2.5-2.2c-0.1-0.9-0.9-0.7-1.5-0.8C352.6,216.6,350.7,217,349.2,215.5z"/>
	<path class="st1" d="M328.8,224.9c1.7-0.3,2.1,0.9,2.5,1.6c2.1,3,3.5,6.3,4.3,10c0.3,1.3,0.2,2.1-1,2.9c-2.2,1.4-2.1,1.9-0.1,3.7
		c1.3,1.1,2.9,2,3.2,4.6c-2.1-1.9-3.7-3.3-5.3-4.9c-1.4-1.5-0.6-2.9,0.7-3.7c1.4-0.9,1.4-1.8,1.1-3.3
		C333.3,231.8,331.3,228.4,328.8,224.9z"/>
	<path class="st1" d="M400.1,241.7c-4.7-5-2.9-12.2,3.8-14.9c-0.1,1.9-1.6,2.9-2.6,4c-2.2,2.4-2.7,4.9-1.4,7.9
		C400.2,239.6,400.8,240.5,400.1,241.7z"/>
	<path class="st1" d="M329.4,226.9c-1.3,3.1-2.4,5.7-2.4,8.5c0,2.7,1,5.3,1.8,8.2C324.7,241,325.2,228.9,329.4,226.9z"/>
	<path class="st1" d="M342.1,229.6c5,2.3,7.6,8.4,6.6,15c-1.5-3-0.1-6.1-1.7-8.4C345.4,233.9,343.7,231.8,342.1,229.6z"/>
	<path class="st1" d="M369.2,229.7c-1.4-0.1-2.2,1-3,1.9c-1.6,1.7,1,2.2,1.4,3.5c-1.4,0.5-2.1-0.4-2.7-1.2c-0.6-0.8-0.4-1.7,0.1-2.6
		C366.2,229.2,368,228.5,369.2,229.7C369.1,229.7,369.2,229.7,369.2,229.7z"/>
	<path class="st1" d="M372.8,216.3c-0.9-1.4-0.8-2.4,0.4-3.8C374.3,213.9,374.2,215,372.8,216.3z"/>
	<path class="st0" d="M349.7,193.2c-1.1-7.5,5.9-22.3,18.3-28.4c8.5-4.1,18.6-4.3,21.5-0.4c-0.1,0.1-0.3,0.3-0.3,0.3
		c-9.4-4.1-17.5-0.9-25.1,4.5C355.8,175,351.6,183.5,349.7,193.2z"/>
	<path class="st0" d="M406.7,171.3c-0.4,3.7-2.3,6.1-5.8,7c-4.4,1.1-8.8,0.6-13.1,0.2c-5-0.4-9.9-0.8-14.8,0.4
		c-3.3,0.8-5.7,2.8-7.6,5.6c-0.5,0.7-0.6,1.8-1.7,1.9c0.3-3.5,5-8.4,10.2-9c3-0.3,6.1-1.1,8.9-0.6c3.9,0.8,7.7,0.1,11.6,0.6
		c1.7,0.2,3.5,0,5.2-0.3c2.7-0.6,5-1.6,6.1-4.4C405.8,172.1,406.3,171.7,406.7,171.3z"/>
	<path class="st0" d="M336.4,171.2c-3.5,10.5,2.4,17,10.1,22.7c-3,0.2-8.5-4.8-11-9.6C333.2,180,333.5,174.4,336.4,171.2z"/>
	<path class="st0" d="M341.3,194.8c-5.9,0.7-12.7-1.1-16.5,6.2c-0.6-3,0.9-4.3,2.6-5.3C331.7,193,336.5,193.3,341.3,194.8z"/>
	<path class="st0" d="M381.7,271.9c-0.4-4.1,0.1-8.3-1.9-12.4c-2.6,2.4-5.6,1.6-8.3,1.5c-2.4-0.1-3.1,0.6-3,2.9c0.1,2.8,0,5.6,0,8.3
		c-3.7,0.7-5.7-2.8-9.2-2.3c-0.5-8.5-0.1-17.2,0.1-26.2c9.4,0.9,18.6,0,27.9-1.6c1.7,2.6,1.8,5.7,2.3,8.6c0.8,5.7,1,11.4,0.8,17.2
		c0,0.8,0,1.5-1,1.8C386.9,270.3,384.6,271.9,381.7,271.9z M362.6,248.6c4.5,2.1,20,1.5,22.6-1.3C377.6,245.6,370,245,362.6,248.6z
		 M372,257.8c0.7-0.5,1.2-1,1.7-1.3c1.1-0.1,1.7,1.8,2.9,0.5c0-0.9-1.1-1-1.4-2.2c-0.1-0.4,1.4-0.7,0.5-1.8c-1.2,1-2.5,1.1-4.2,0.4
		C373.3,254.7,370.5,256.3,372,257.8z"/>
	<path class="st0" d="M360.3,300.8c1.9,2.3,0.1,4.6,0.2,6.9c2-1.5,2.5-5.7,1-7.3c-1.2-1.3-2.2-0.5-3.1,0.4c-1.5,1.6-1,3.8-1.5,5.8
		c-1.3-0.7-1.8-1.6-1.8-3c0-2,2.4-6.5,4.9-7.2c1.9-0.6,3.8-0.7,5.4,0.8c1.5,1.5,1.4,3.3,0.8,5.1c-0.4,1.3-1,2.5-1.7,4.1
		c2.5-1.6,3.8-5.1,3-7.9c-0.7-2.3-2.4-3.5-4.8-3.7c-3.8-0.3-6.5,2-8.8,7.6c-1-1.4-1.1-2-0.6-3.7c1.4-4.2,6.3-7,10.8-6.1
		c4.6,0.8,7.2,4.3,6.9,9.1c-0.3,4.8-4,8.7-8.4,9c-2.6,0.2-3.9-0.7-4.2-3.4C358.2,305,357.8,302.5,360.3,300.8z"/>
	<path class="st0" d="M400.2,288.7c-4,0.4-7.2,1.9-9.7,4.9c-1.1,1.4-1.3,2.7-0.5,4.3c1.3,2.4,2.4,5,3.4,7.6c-2.9-4.3-5.6-8.7-6.4-14
		c-0.5-3.4,1.9-6.3,5.5-7.2C395.7,283.6,398.7,285.2,400.2,288.7z"/>
	<path class="st0" d="M374.6,283.7c1.4,0.6,3.2-0.4,3.6,0.9c0.5,1.9,0.2,4.1-1.7,5.7C374.7,288.5,374.5,286.3,374.6,283.7z"/>
	<path class="st0" d="M403.5,296.2c1.1,3.9-2.5,3.8-4,5.8C398.9,298.7,400.3,296.9,403.5,296.2z"/>
	<path class="st0" d="M381.4,314.7c0.1-0.3,0.1-0.7,0.6-0.4c0.4,0.3,0,0.5-0.2,0.8C381.7,314.9,381.6,314.8,381.4,314.7z"/>
	<path class="st1" d="M418.7,243.7c0-3,1.1-5.8,0.7-8.8c-0.4-3-1.6-5.4-4-7.4c2.3,0,3.3,1.7,4,3.3
		C421.5,235.2,420.8,239.5,418.7,243.7z"/>
	<path class="st0" d="M343.1,440c-1.7-0.5-1.6-1.3-1.1-2.4c1.9-4.6,3.7-9.2,5.6-13.9c0.2-0.4,0.4-0.7-0.4-1.7
		c-2.3,5.6-4.5,10.9-6.8,16.3c-1.5-1.1-2.8-2-4.4-3.1c5.2-7.3,10.2-14.6,15.3-21.8c0.3,0.1,0.5,0.3,0.8,0.4
		C349.6,422.7,346.1,431.2,343.1,440z"/>
	<path class="st0" d="M299,444.2c0.6-0.5,1.2-0.8,2.2-0.7c-0.1,1.1-0.2,2.1-0.4,3.4C299.7,446.1,299.3,445.3,299,444.2z"/>
	<path class="st0" d="M301.2,443.3c-0.4-0.3-0.3-0.5,0-0.8c0,0,0.1,0,0.2,0C301.7,442.8,301.4,443,301.2,443.3z"/>
	<path class="st0" d="M391.1,403.9c-1.7-2.9-3.9-5-3.5-8.1c4.8,1.3,6.7,7,3.5,10.5c-2.8-1.1-5.3-5.1-4.9-8.1
		C388.4,399.5,387.9,402.9,391.1,403.9z"/>
	<path class="st0" d="M393.1,393.8c2.1-1.5,4.4-1.8,6.8-2.6c-2.1-1.1-3.7,1-5.4,0.4c1.6-2.3,4.7-2.7,7.2-1
		C400.1,394,396.9,395.3,393.1,393.8z"/>
	<path class="st1" d="M362.6,248.6c7.4-3.5,15-2.9,22.6-1.3C382.7,250.1,367.2,250.7,362.6,248.6z"/>
	<path class="st1" d="M372,257.8c-1.5-1.5,1.3-3.1-0.5-4.4c1.6,0.8,3,0.7,4.2-0.4c0.9,1.1-0.6,1.5-0.5,1.8c0.2,1.2,1.3,1.3,1.4,2.2
		c-1.2,1.4-1.8-0.6-2.9-0.5C373.2,256.8,372.6,257.2,372,257.8z"/>
</g>
</svg>
